<svg xmlns="http://www.w3.org/2000/svg" xmlns:xlink="http://www.w3.org/1999/xlink" width="125" height="125" viewBox="0 0 125 125">
  <defs>
    <clipPath id="clip-path">
      <rect id="Rectángulo_379124" data-name="Rectángulo 379124" width="68.229" height="68.245" fill="#12263f"/>
    </clipPath>
  </defs>
  <g id="Grupo_1073052" data-name="Grupo 1073052" transform="translate(-1104.668 -5996)">
    <g id="Grupo_1072869" data-name="Grupo 1072869" transform="translate(719 1)">
      <rect id="Rectángulo_377974" data-name="Rectángulo 377974" width="125" height="125" transform="translate(385.668 5995)" fill="none"/>
      <path id="Trazado_610930" data-name="Trazado 610930" d="M-10.279,8.447,92.441.268l13.473,113.306L-7.668,125Z" transform="translate(398.947 5995)" fill="#fff"/>
      <path id="Trazado_610931" data-name="Trazado 610931" d="M-22852-5608.555l-26.621,26.192-.854-1.708-2.277.712-1.709-.712-4.7-1.565,31.316-31.174v1.993h1.85v2.42Z" transform="translate(23362.668 11700)" fill="#ffa346"/>
      <path id="Trazado_610932" data-name="Trazado 610932" d="M-22852-5608.555l-26.621,26.192-.854-1.708-2.277.712-1.709-.712-4.7-1.565,31.316-31.174v1.993h1.85v2.42Z" transform="translate(23273.826 11611.811)" fill="#ffa346"/>
    </g>
    <path id="Intersección_6" data-name="Intersección 6" d="M23221.221,11791.125l1.383,11.624-12.1,11.9-14.367,1.445Z" transform="translate(-21999.613 -5703.732)" fill="#ffe3c7"/>
    <path id="Intersección_5" data-name="Intersección 5" d="M23116.354,11732.74l-2.279.711-1.707-.711-.773-.258-.115-5.1,20.711-20.613,9.867-.786,1.77,2.278-26.621,26.19Z" transform="translate(-22003 -5704)" fill="#ffe3c7"/>
    <rect id="Rectángulo_377981" data-name="Rectángulo 377981" width="73" height="73" transform="translate(1130.668 6023)" fill="#fff"/>
    <g id="Grupo_1073483" data-name="Grupo 1073483" transform="translate(1133.054 6023)">
      <g id="Grupo_1073482" data-name="Grupo 1073482" clip-path="url(#clip-path)">
        <path id="Trazado_615679" data-name="Trazado 615679" d="M45.239,224.964c-2.391-2.991-2.389-6.12-.067-8.342a5.7,5.7,0,0,1,7.745-.119c2.429,2.192,2.464,5.275.058,8.479a10.031,10.031,0,0,1,4.08,3.8,10.856,10.856,0,0,1,3.826-3.681c.552-.322-.131-.612-.292-.825a5.677,5.677,0,1,1,9.124-6.743,5.607,5.607,0,0,1-.232,6.675c-.182.239-.378.468-.6.739a15.524,15.524,0,0,1,2.249,1.562,13.1,13.1,0,0,1,1.844,2.237,9.949,9.949,0,0,1,4.142-3.753,5.925,5.925,0,0,1-1.785-5.187,5.51,5.51,0,0,1,2.087-3.534,5.665,5.665,0,0,1,7.475.383c2.3,2.238,2.282,5.234-.078,8.314a9.388,9.388,0,0,1,4.843,5.716c.021.072.066.139.081.212.756,3.694.128,3.5-2.632,3.493q-22.51-.044-45.021-.014c-1.941,0-2.3-.445-1.991-2.406a9.273,9.273,0,0,1,5.142-7M49.1,232.09c1.928,0,3.858-.027,5.785.014.713.015.961-.153.748-.89a6.849,6.849,0,0,0-13.071.005c-.168.593-.112.9.639.884,1.965-.042,3.932-.014,5.9-.014m15.917,0c1.928,0,3.858-.027,5.785.014.713.015.961-.153.748-.89a6.849,6.849,0,0,0-13.071.005c-.168.593-.112.9.639.884,1.965-.042,3.932-.014,5.9-.014m15.923,0c1.929,0,3.858-.028,5.785.015.724.016.951-.17.739-.9a6.848,6.848,0,0,0-13.071.016c-.169.6-.1.9.647.879,1.965-.042,3.932-.014,5.9-.014m-31.861-7.964a3.4,3.4,0,1,0-3.383-3.392,3.423,3.423,0,0,0,3.383,3.392m19.338-3.442a3.4,3.4,0,1,0-3.335,3.442,3.419,3.419,0,0,0,3.335-3.442m12.545-3.362a3.4,3.4,0,1,0,3.373,3.4,3.417,3.417,0,0,0-3.373-3.4" transform="translate(-30.904 -166.143)" fill="#12263f"/>
        <path id="Trazado_615680" data-name="Trazado 615680" d="M5.977,1.763c.762-.025,1.1.53,1.543.931.294.268.511.654,1.051.412.489-.219.5-.584.515-1.013C9.176.1,9.274.013,11.281.012c.947,0,1.893,0,2.84,0,1.506.007,1.788.287,1.8,1.778,0,.076,0,.152,0,.227.031.389-.106.785.426,1.044.595.289.839-.108,1.156-.4,1.383-1.259,1.565-1.261,2.866.037.75.749,1.506,1.492,2.247,2.249.9.922.9,1.352,0,2.29-.1.11-.219.21-.32.323-.244.271-.595.48-.4.959s.52.55.979.574c2.116.111,2.14.15,2.14,2.249,0,.984.009,1.969,0,2.954-.014,1.277-.347,1.609-1.607,1.635-.189,0-.379.011-.568,0a.777.777,0,0,0-.9.481c-.217.477.064.7.307.981,1.418,1.629,1.417,1.659-.124,3.194-.724.721-1.453,1.437-2.168,2.167a1.248,1.248,0,0,1-2.051-.012c-.156-.165-.32-.322-.483-.481-.271-.264-.505-.547-.974-.327a.891.891,0,0,0-.518.9c-.147,2.2-.158,2.195-2.31,2.2-.985,0-1.969.011-2.954,0-1.2-.017-1.544-.365-1.574-1.551-.007-.265-.015-.531,0-.8a.652.652,0,0,0-.435-.695.677.677,0,0,0-.9.158c-.264.271-.541.53-.827.777a1.146,1.146,0,0,1-1.719-.029q-1.541-1.51-3.054-3.048a1.169,1.169,0,0,1,0-1.8c.179-.2.379-.371.56-.564.25-.268.591-.482.4-.96s-.523-.548-.98-.572C.032,15.836,0,15.793,0,13.695c0-.985-.009-1.969,0-2.954C.02,9.462.349,9.134,1.613,9.108c.189,0,.379-.011.568,0a.775.775,0,0,0,.9-.482c.214-.475-.058-.7-.3-.982C1.352,6.016,1.354,5.989,2.9,4.454Q3.983,3.372,5.068,2.289a1.345,1.345,0,0,1,.909-.526m14.6,4.158c-.418-.355-.886-.721-1.314-1.13-.267-.255-.43-.132-.675.026-2.176,1.41-4.443.5-4.917-2.026-.148-.785-.672-.5-1.021-.47-.431.04-1.081-.43-1.274.435-.569,2.551-2.819,3.52-4.9,2.072-.564-.393-.792-.028-.98.279-.254.416-1.175.494-.717,1.287,1.392,2.407.61,4.356-2.058,4.976-.7.162-.442.639-.412.961.042.446-.391,1.1.386,1.316,2.7.756,3.521,2.674,2.1,4.969-.471.759.33.874.6,1.211.218.271.4.85,1.056.4a2.987,2.987,0,0,1,4.907,2.021c.149.785.674.5,1.023.467.43-.04,1.081.431,1.272-.437.56-2.546,2.823-3.52,4.9-2.071.563.394.792.032.979-.277.253-.417,1.177-.495.719-1.286-1.395-2.412-.613-4.369,2.053-4.977.7-.16.446-.636.416-.958-.042-.447.389-1.1-.383-1.318-2.7-.766-3.517-2.688-2.106-4.971.059-.1.128-.185.349-.5" transform="translate(0 -0.008)" fill="#12263f"/>
        <path id="Trazado_615681" data-name="Trazado 615681" d="M213.279,6.036c.01.695-.509,1.015-.878,1.434-.283.32-.734.542-.446,1.14.241.5.627.456,1.038.475,1.911.085,2.036.218,2.038,2.13,0,.947,0,1.893,0,2.84-.005,1.586-.27,1.857-1.824,1.874-.114,0-.228.006-.341,0a.779.779,0,0,0-.9.47c-.216.473.048.7.294.983,1.428,1.647,1.427,1.665-.108,3.194-.724.721-1.454,1.437-2.168,2.168a1.249,1.249,0,0,1-2.051,0c-.156-.165-.319-.324-.483-.481-.27-.26-.5-.559-.971-.34a.809.809,0,0,0-.522.892,5.087,5.087,0,0,1-.009.568c-.048,1.327-.36,1.627-1.728,1.637-1.06.008-2.121,0-3.181,0-1.672,0-1.9-.235-1.936-1.883-.008-.351.169-.758-.214-1.047-.557-.42-.938-.141-1.362.261-1.361,1.291-1.553,1.279-2.857-.018q-1.087-1.081-2.167-2.168c-1.016-1.029-1.016-1.423-.017-2.45.053-.054.113-.1.162-.159.279-.326.728-.546.44-1.142-.241-.5-.628-.455-1.039-.473-1.908-.085-2.034-.219-2.036-2.132,0-.947,0-1.893,0-2.84.005-1.588.267-1.855,1.824-1.872.113,0,.227-.006.341,0a.778.778,0,0,0,.9-.47c.214-.473-.046-.7-.292-.984-1.43-1.655-1.429-1.664.106-3.193.7-.694,1.388-1.4,2.093-2.082.872-.847,1.309-.822,2.219-.028.384.335.587,1.056,1.355.751.8-.32.484-1.016.526-1.567.092-1.183.4-1.506,1.621-1.521,1.06-.013,2.12,0,3.181,0,1.833,0,2.039.174,2.027,1.994,0,.67.15,1.124.866,1.161.369.019.561-.349.8-.574,1.255-1.158,1.516-1.161,2.706.021q1.208,1.2,2.41,2.407a1.4,1.4,0,0,1,.576,1.021m-4.192,14.515c.395-.442.814-.91,1.233-1.38.278-.312-.045-.467-.182-.662a3.031,3.031,0,0,1,2-4.826c.945-.13.588-.737.578-1.155s.4-1.039-.553-1.177a3,3,0,0,1-2.022-4.795c.632-.821-.175-.968-.461-1.315s-.516-.9-1.237-.327A3,3,0,0,1,203.7,2.948c-.108-.915-.657-.677-1.1-.641s-1.112-.406-1.241.617a3.008,3.008,0,0,1-4.738,2c-.788-.633-.983.053-1.324.375s-.958.558-.335,1.326a3,3,0,0,1-1.832,4.686c-.98.1-.833.609-.827,1.191s-.2,1.108.809,1.207c1.961.191,3.133,3.04,1.94,4.593-.41.534-.463.792.045,1.275.6.575,1.077,1.207,1.858.242a1.185,1.185,0,0,1,.838-.3,3.189,3.189,0,0,1,3.574,2.67c.1.681.507.6.865.525.478-.106,1.191.447,1.423-.4.739-2.683,2.681-3.511,4.972-2.1.1.059.186.127.47.323" transform="translate(-146.803 0)" fill="#12263f"/>
        <path id="Trazado_615682" data-name="Trazado 615682" d="M171.089,135.2c1.212,0,2.425.03,3.635-.007a3.391,3.391,0,0,0,3.219-2.417c.222-.7.191-1.077-.695-.987-.6.061-1.211.008-1.817.008a1.172,1.172,0,0,1-1.194-.7,1.21,1.21,0,0,1,.313-1.35c1.252-1.42,2.482-2.859,3.743-4.269a1.115,1.115,0,0,1,1.92.056c1.116,1.433,2.224,2.874,3.274,4.355.665.938.178,1.983-.95,1.863-1.6-.169-2.177.351-2.562,1.945a5.248,5.248,0,0,1-5.236,3.774c-2.2.04-4.393,0-6.589.017a5.581,5.581,0,0,0-5.876,4.891c-.251,1.479-1.288.71-1.919.733-.762.027-.4-.717-.331-1.122a7.908,7.908,0,0,1,7.882-6.779c1.06-.019,2.121,0,3.181,0Zm9.291-5.742c-.561-.528-.718-1.376-1.274-1.323-.417.039-.766.788-1.235,1.323Z" transform="translate(-123.526 -96.541)" fill="#12263f"/>
        <path id="Trazado_615683" data-name="Trazado 615683" d="M57.632,143.136c-.773.221-1.019-.185-1.169-1.024a5.51,5.51,0,0,0-5.491-4.65c-2.158-.043-4.317,0-6.476-.013a5.624,5.624,0,0,1-6.016-5c-.113-.63-.362-.712-.87-.689a9.484,9.484,0,0,1-1.476-.014,1.1,1.1,0,0,1-.876-1.806c1.086-1.548,2.233-3.055,3.408-4.538a1.061,1.061,0,0,1,1.767-.032c1.32,1.46,2.624,2.936,3.878,4.453a1.112,1.112,0,0,1-.851,1.924,18.113,18.113,0,0,1-2.157.01c-.528-.022-.636.174-.546.67a3.438,3.438,0,0,0,3.443,2.732c2.234.03,4.469-.017,6.7.018a7.912,7.912,0,0,1,7.881,6.789c.2,1.166.2,1.166-1.153,1.167m-19.165-13.7a8.05,8.05,0,0,0,2.44-.066L39.622,127.9l-1.156,1.533" transform="translate(-27.04 -96.51)" fill="#12263f"/>
        <path id="Trazado_615684" data-name="Trazado 615684" d="M35.693,41.41a5.68,5.68,0,1,1,5.719-5.669,5.683,5.683,0,0,1-5.719,5.669m.05-9.082a3.4,3.4,0,1,0,3.392,3.384,3.417,3.417,0,0,0-3.392-3.384" transform="translate(-23.219 -23.217)" fill="#12263f"/>
        <path id="Trazado_615685" data-name="Trazado 615685" d="M231.411,35.759a5.68,5.68,0,1,1-5.68-5.707,5.68,5.68,0,0,1,5.68,5.707m-2.278-.073a3.4,3.4,0,1,0-3.328,3.448,3.419,3.419,0,0,0,3.328-3.448" transform="translate(-170.015 -23.219)" fill="#12263f"/>
      </g>
    </g>
  </g>
</svg>
