<svg xmlns="http://www.w3.org/2000/svg" xmlns:xlink="http://www.w3.org/1999/xlink" width="70" height="70" viewBox="0 0 70 70">
  <defs>
    <clipPath id="clip-path">
      <rect id="Rectángulo_379193" data-name="Rectángulo 379193" width="41" height="40.969" fill="#670303"/>
    </clipPath>
  </defs>
  <g id="Grupo_1073091" data-name="Grupo 1073091" transform="translate(-269 -958)">
    <circle id="Elipse_5614" data-name="Elipse 5614" cx="35" cy="35" r="35" transform="translate(269 958)" fill="#fff"/>
    <g id="Grupo_1073551" data-name="Grupo 1073551" transform="translate(283.5 972.516)">
      <g id="Grupo_1073549" data-name="Grupo 1073549" clip-path="url(#clip-path)">
        <path id="Trazado_615814" data-name="Trazado 615814" d="M33.255,16.676a15.944,15.944,0,0,1-2.7,9.094.871.871,0,0,0,.13,1.362c3.067,2.976,6.089,6,9.121,9.011a6.017,6.017,0,0,1,.74.849,2.577,2.577,0,0,1-.23,3.217,2.609,2.609,0,0,1-3.115.431A10.332,10.332,0,0,1,35,38.648c-2.679-2.687-5.353-5.38-7.986-8.112-.613-.635-.969-.127-1.394.131a16.338,16.338,0,0,1-16.166.948A16.354,16.354,0,0,1,.075,15.144a16.623,16.623,0,0,1,33.18,1.532m-18.578-.709c0,2.086-.025,4.172.009,6.257a1.958,1.958,0,1,0,3.909.2,4.368,4.368,0,0,0,.033-.614q0-5.8-.005-11.592a4.787,4.787,0,0,0-.154-1.214,1.676,1.676,0,0,0-1.621-1.326,1.906,1.906,0,0,0-2.165,2.129c-.03,2.051-.008,4.1-.006,6.155m6.432,2.544q0,1.744,0,3.488c0,.068,0,.137,0,.205a1.967,1.967,0,1,0,3.921.043c.044-2.461.047-4.925,0-7.386A1.888,1.888,0,0,0,22.983,12.8c-1.153.031-1.838.783-1.868,2.117-.027,1.2-.006,2.393-.007,3.59m-12.793,1.3c0,.889-.028,1.778.007,2.666a1.843,1.843,0,0,0,1.9,1.868,1.828,1.828,0,0,0,1.9-1.868q.055-2.614,0-5.229a1.834,1.834,0,0,0-1.851-1.92,1.852,1.852,0,0,0-1.956,1.92c-.034.853-.007,1.709-.007,2.563" transform="translate(0 0)" fill="#670303"/>
      </g>
    </g>
  </g>
</svg>
