<svg xmlns="http://www.w3.org/2000/svg" xmlns:xlink="http://www.w3.org/1999/xlink" width="70" height="70" viewBox="0 0 70 70">
  <defs>
    <clipPath id="clip-path">
      <rect id="Rectángulo_379225" data-name="Rectángulo 379225" width="35.395" height="35.362" fill="#670303"/>
    </clipPath>
  </defs>
  <g id="Grupo_1073135" data-name="Grupo 1073135" transform="translate(-269 -958)">
    <circle id="Elipse_5614" data-name="Elipse 5614" cx="35" cy="35" r="35" transform="translate(269 958)" fill="#fff"/>
    <g id="Grupo_1073598" data-name="Grupo 1073598" transform="translate(286.303 975.319)">
      <g id="Grupo_1073597" data-name="Grupo 1073597" clip-path="url(#clip-path)">
        <path id="Trazado_615907" data-name="Trazado 615907" d="M107.6,65.764c0,2.393,0,4.786,0,7.179a3.339,3.339,0,0,1-3.676,3.689q-6.293,0-12.585,0a3.243,3.243,0,0,1-3.55-3.586q0-9.661,0-19.321a3.237,3.237,0,0,1,3.591-3.545c2.659,0,5.318.016,7.976-.008a3.7,3.7,0,0,1,2.839,1.2c1.377,1.421,2.787,2.81,4.2,4.2a3.858,3.858,0,0,1,1.215,2.932c-.026,2.422-.008,4.845-.008,7.267" transform="translate(-72.215 -41.272)" fill="#670303"/>
        <path id="Trazado_615908" data-name="Trazado 615908" d="M0,16.539Q0,11.262,0,5.985c0-2.424,1.294-3.711,3.726-3.717.532,0,1.066-.031,1.6.006A3.128,3.128,0,0,0,8.175,1.2a4.121,4.121,0,0,1,6.117.35,1.706,1.706,0,0,0,1.567.732c.943-.051,1.892-.029,2.837-.008A3.254,3.254,0,0,1,22.061,5.89c-.017.526-.213.643-.687.641a24.314,24.314,0,0,0-3.188.078A5.4,5.4,0,0,0,13.224,12.2c-.018,3.7,0,7.391,0,11.086,0,2.276-.019,4.553.012,6.829.009.634-.138.878-.831.869-2.926-.038-5.853-.008-8.78-.019a3.364,3.364,0,0,1-3.614-3.6c-.013-3.607,0-7.213,0-10.82M10.953,6.074a1.63,1.63,0,0,0,1.786-1.546,1.637,1.637,0,0,0-1.608-1.816,1.661,1.661,0,0,0-1.8,1.638,1.645,1.645,0,0,0,1.621,1.724" transform="translate(0 0)" fill="#670303"/>
      </g>
    </g>
  </g>
</svg>
