<svg xmlns="http://www.w3.org/2000/svg" xmlns:xlink="http://www.w3.org/1999/xlink" width="148" height="148" viewBox="0 0 148 148">
  <defs>
    <clipPath id="clip-path">
      <rect id="Rectángulo_379140" data-name="Rectángulo 379140" width="63.197" height="86.86" fill="#12263f"/>
    </clipPath>
  </defs>
  <g id="Grupo_1073242" data-name="Grupo 1073242" transform="translate(-292.865 -9557)">
    <g id="Grupo_1072889" data-name="Grupo 1072889" transform="translate(292.865 9557)">
      <g id="Grupo_1072868" data-name="Grupo 1072868">
        <rect id="Rectángulo_377974" data-name="Rectángulo 377974" width="147.714" height="147.714" fill="none"/>
        <path id="Trazado_610930" data-name="Trazado 610930" d="M-10.279,9.952,111.342.268l15.952,134.154L-7.187,147.951Z" transform="translate(13.831 0.049)" fill="#ffed33"/>
        <path id="Trazado_610931" data-name="Trazado 610931" d="M-22845.346-5607.035l-31.521,31.011-1.01-2.023-2.7.843-2.023-.843-5.561-1.854,37.076-36.91v2.359h2.191v2.865Z" transform="translate(22993.346 5721.227)" fill="#ffa346"/>
        <path id="Trazado_610932" data-name="Trazado 610932" d="M-22845.346-5607.035l-31.521,31.011-1.01-2.023-2.7.843-2.023-.843-5.561-1.854,37.076-36.91v2.359h2.191v2.865Z" transform="translate(22888.156 5616.811)" fill="#ffa346"/>
      </g>
      <path id="Intersección_4" data-name="Intersección 4" d="M29.7,0l1.639,13.763L17.01,27.855,0,29.566Z" transform="translate(108.761 108.21)" fill="#fbdb0a"/>
      <path id="Intersección_3" data-name="Intersección 3" d="M5.772,31.685l-2.7.842-2.022-.842-.915-.305L0,25.336,24.523.931,36.2,0l2.1,2.7L6.782,33.708Z" transform="translate(4.512 7.08)" fill="#fbdb0a"/>
      <rect id="Rectángulo_377980" data-name="Rectángulo 377980" width="86.551" height="86.551" transform="translate(31.158 32.312)" fill="#ffed33"/>
      <g id="Grupo_1073515" data-name="Grupo 1073515" transform="translate(38.129 30.57)">
        <g id="Grupo_1073514" data-name="Grupo 1073514" clip-path="url(#clip-path)">
          <path id="Trazado_615773" data-name="Trazado 615773" d="M63.191,47.4q0,14.419-.005,28.837c-.009,4.967-2.554,8.672-6.892,10.1a11.611,11.611,0,0,1-3.64.52q-17.081.008-34.161,0-7.727-.011-10.221-7.327a1.255,1.255,0,0,0-.932-.937Q.013,76.086.01,68.37-.008,39.533.01,10.7C.014,4.154,4.188.015,10.764.008q16.859-.018,33.717,0c5.394,0,8.651,2.293,10.452,7.4a1.249,1.249,0,0,0,1,.868c4.707,1.558,7.244,5.086,7.255,10.135.021,9.662.006,19.323.006,28.985m-35.456-.049c-7.441,0-14.882.023-22.322-.025C4.3,47.316,4,47.63,4.007,48.735c.05,6.553.015,13.107.028,19.661C4.043,72.641,6.371,75,10.6,75q17.074.024,34.148,0c4.187-.007,6.577-2.43,6.589-6.648.019-6.5-.031-13.009.035-19.513.014-1.3-.445-1.524-1.612-1.516-7.342.048-14.685.024-22.027.024M27.682,4.033c-5.866,0-11.733-.032-17.6.012-3.671.027-5.968,2.365-6.044,6.031-.028,1.33-.007,2.662-.007,3.993,0,9.317.015,18.635-.021,27.952,0,1.042.168,1.55,1.353,1.428a18.457,18.457,0,0,1,3.25-.005c1.016.076,1.363-.241,1.344-1.3a9.449,9.449,0,0,1,4.385-8.384,23.846,23.846,0,0,1,2.9-1.76c1.006-.495,1.189-.857.491-1.915A11.816,11.816,0,0,1,32.847,13.07a11.808,11.808,0,0,1,4.668,17.114c-.576.887-.564,1.257.395,1.726a30.216,30.216,0,0,1,3.035,1.83,9.928,9.928,0,0,1,4.193,5.878c.353,1.238-.293,3.065.754,3.652s2.693.076,4.066.178c1.1.082,1.416-.264,1.411-1.385-.043-10.5-.012-21-.033-31.5-.008-4.17-2.359-6.514-6.5-6.526-5.718-.018-11.437,0-17.155,0m27.586,8.217v2.009q0,26.984,0,53.967c0,6.62-4.072,10.7-10.674,10.7q-15.229.012-30.458,0c-.3,0-.594.025-.887,0-.977-.095-.975.337-.557,1a5.754,5.754,0,0,0,5.156,2.894q17.668,0,35.337,0a5.759,5.759,0,0,0,5.578-3.649,7.113,7.113,0,0,0,.4-3.055q0-28.758,0-57.516a10.92,10.92,0,0,0-.079-1.77,5.721,5.721,0,0,0-3.816-4.586M27.627,43.425c4.187,0,8.374-.026,12.56.02.944.01,1.269-.229,1.253-1.222a6.007,6.007,0,0,0-3.011-5.4c-1.259-.769-2.547-1.491-3.783-2.3a1.763,1.763,0,0,0-2-.122,9.66,9.66,0,0,1-8.164.6,5.319,5.319,0,0,0-5.973.818c-.544.415-1.183.7-1.761,1.078a6.15,6.15,0,0,0-2.917,5.32c-.031.982.277,1.236,1.234,1.225,4.186-.049,8.373-.021,12.56-.021m7.863-19.71a7.725,7.725,0,0,0-7.872-7.844,7.817,7.817,0,0,0-7.842,7.762,7.857,7.857,0,1,0,15.713.081" transform="translate(0 0)" fill="#12263f"/>
          <path id="Trazado_615774" data-name="Trazado 615774" d="M56.086,190.719q-6.645,0-13.29,0a2.61,2.61,0,0,1-1.944-.511,1.946,1.946,0,0,1,.789-3.3,4.767,4.767,0,0,1,1.316-.105q12.994-.008,25.989,0a7.6,7.6,0,0,1,.885.019,1.872,1.872,0,0,1,1.889,2.034,1.771,1.771,0,0,1-1.9,1.84c-1.82.042-3.642.027-5.463.029q-4.134,0-8.269,0" transform="translate(-28.328 -131.539)" fill="#12263f"/>
          <path id="Trazado_615775" data-name="Trazado 615775" d="M52.033,217.489c-3.1,0-6.2.008-9.3,0-1.628-.006-2.595-.762-2.589-1.98s.916-1.931,2.614-1.934q9.23-.016,18.459,0c1.717,0,2.553.673,2.543,1.96s-.857,1.948-2.568,1.954c-3.052.011-6.1,0-9.155,0" transform="translate(-28.266 -150.39)" fill="#12263f"/>
        </g>
      </g>
    </g>
  </g>
</svg>
