<svg xmlns="http://www.w3.org/2000/svg" xmlns:xlink="http://www.w3.org/1999/xlink" width="1328" height="492.142" viewBox="0 0 1328 492.142">
  <defs>
    <linearGradient id="linear-gradient" x1="0.5" x2="0.5" y2="1" gradientUnits="objectBoundingBox">
      <stop offset="0" stop-color="#fffde6"/>
      <stop offset="1" stop-color="#fff"/>
    </linearGradient>
    <clipPath id="clip-path">
      <path id="Trazado_611582" data-name="Trazado 611582" d="M0,0H1328V487.609H0Z" fill="#fffde6"/>
    </clipPath>
    <clipPath id="clip-path-2">
      <rect id="Rect치ngulo_377960" data-name="Rect치ngulo 377960" width="956.679" height="760.039" fill="#fff"/>
    </clipPath>
  </defs>
  <g id="Grupo_1073809" data-name="Grupo 1073809" transform="translate(-136 -410.141)">
    <g id="Grupo_1072201" data-name="Grupo 1072201" transform="translate(136 421.563)">
      <path id="Trazado_609286" data-name="Trazado 609286" d="M0,0H1328V476.188H0Z" fill="#fffde6"/>
      <path id="Trazado_609287" data-name="Trazado 609287" d="M0,0H1328V97H0Z" transform="translate(1328 97) rotate(180)" fill="url(#linear-gradient)"/>
      <rect id="Rect치ngulo_377725" data-name="Rect치ngulo 377725" width="1328" height="97" transform="translate(0 383.72)" fill="url(#linear-gradient)"/>
    </g>
    <g id="Enmascarar_grupo_154388" data-name="Enmascarar grupo 154388" transform="translate(136 410.141)" clip-path="url(#clip-path)">
      <g id="Grupo_1072943" data-name="Grupo 1072943" transform="translate(575.851 12.906)">
        <g id="Grupo_1072830" data-name="Grupo 1072830" transform="translate(0 0)" clip-path="url(#clip-path-2)">
          <path id="Trazado_610553" data-name="Trazado 610553" d="M189.127,55.528a.139.139,0,0,0,.128-.123c0-.055-.056-.092-.128-.08a.142.142,0,0,0-.136.117.108.108,0,0,0,.136.086" transform="translate(193.623 -29.145)" fill="#fff"/>
          <path id="Trazado_610554" data-name="Trazado 610554" d="M195.2,54.651a.286.286,0,0,0,.264-.24c0-.111-.12-.185-.264-.166a.287.287,0,0,0-.265.24c0,.111.12.185.265.166" transform="translate(235.343 -34.71)" fill="#fff"/>
          <path id="Trazado_610555" data-name="Trazado 610555" d="M201.283,53.776a.434.434,0,0,0,.4-.363c0-.166-.184-.277-.4-.246s-.4.191-.4.357.184.283.4.252" transform="translate(277.057 -40.277)" fill="#fff"/>
          <path id="Trazado_610556" data-name="Trazado 610556" d="M207.126,52.524a.286.286,0,0,0,.265-.24c0-.111-.12-.185-.265-.166a.286.286,0,0,0-.264.24c0,.111.12.185.264.166" transform="translate(319.009 -45.67)" fill="#fff"/>
          <path id="Trazado_610557" data-name="Trazado 610557" d="M212.975,51.273a.139.139,0,0,0,.128-.117c0-.062-.056-.1-.128-.086s-.136.062-.136.117.064.1.136.086" transform="translate(360.954 -51.07)" fill="#fff"/>
          <path id="Trazado_610558" data-name="Trazado 610558" d="M171.234,64.68a.139.139,0,0,0,.128-.123c0-.055-.056-.092-.128-.08a.139.139,0,0,0-.128.117.1.1,0,0,0,.128.086" transform="translate(68.132 18.014)" fill="#fff"/>
          <path id="Trazado_610559" data-name="Trazado 610559" d="M177.547,64.18a.565.565,0,0,0,.529-.48c0-.222-.232-.375-.529-.332a.567.567,0,0,0-.529.48c0,.222.24.375.529.332" transform="translate(109.614 12.275)" fill="#fff"/>
          <path id="Trazado_610560" data-name="Trazado 610560" d="M184.091,64.06a1.286,1.286,0,0,0,1.194-1.077c0-.511-.537-.843-1.194-.757a1.291,1.291,0,0,0-1.194,1.083c0,.5.537.843,1.194.751" transform="translate(150.864 6.36)" fill="#fff"/>
          <path id="Trazado_610561" data-name="Trazado 610561" d="M190.636,63.937a1.99,1.99,0,0,0,1.852-1.68c0-.787-.826-1.31-1.852-1.169a2,2,0,0,0-1.86,1.68c0,.788.834,1.311,1.86,1.169" transform="translate(192.114 0.446)" fill="#fff"/>
          <path id="Trazado_610562" data-name="Trazado 610562" d="M197.061,63.625a2.566,2.566,0,0,0,2.389-2.16c0-1.009-1.074-1.68-2.389-1.5a2.567,2.567,0,0,0-2.389,2.154c0,1.015,1.074,1.686,2.389,1.507" transform="translate(233.484 -5.376)" fill="#fff"/>
          <path id="Trazado_610563" data-name="Trazado 610563" d="M203.135,62.75a2.7,2.7,0,0,0,2.517-2.277c0-1.071-1.122-1.778-2.517-1.587a2.7,2.7,0,0,0-2.517,2.277c0,1.064,1.13,1.778,2.517,1.587" transform="translate(275.204 -10.943)" fill="#fff"/>
          <path id="Trazado_610564" data-name="Trazado 610564" d="M208.985,61.5a2.566,2.566,0,0,0,2.389-2.16c0-1.009-1.074-1.68-2.389-1.5A2.566,2.566,0,0,0,206.6,60c0,1.009,1.074,1.68,2.389,1.5" transform="translate(317.149 -16.336)" fill="#fff"/>
          <path id="Trazado_610565" data-name="Trazado 610565" d="M214.6,59.871a2.132,2.132,0,0,0,1.988-1.8c0-.843-.89-1.4-1.988-1.255a2.138,2.138,0,0,0-1.988,1.8c0,.843.89,1.4,1.988,1.255" transform="translate(359.333 -21.557)" fill="#fff"/>
          <path id="Trazado_610566" data-name="Trazado 610566" d="M219.976,57.868a1.425,1.425,0,0,0,1.323-1.2c0-.56-.593-.935-1.323-.837a1.43,1.43,0,0,0-1.323,1.2c0,.56.593.935,1.323.837" transform="translate(401.748 -26.605)" fill="#fff"/>
          <path id="Trazado_610567" data-name="Trazado 610567" d="M225.361,55.859a.714.714,0,0,0,.665-.6c0-.283-.3-.468-.665-.418a.713.713,0,0,0-.665.6c0,.283.3.468.665.418" transform="translate(444.149 -31.654)" fill="#fff"/>
          <path id="Trazado_610568" data-name="Trazado 610568" d="M230.853,54.045a.139.139,0,0,0,.128-.123c0-.055-.056-.092-.128-.08a.139.139,0,0,0-.128.117.1.1,0,0,0,.128.086" transform="translate(486.452 -36.786)" fill="#fff"/>
          <path id="Trazado_610569" data-name="Trazado 610569" d="M165.392,71.892a.287.287,0,0,0,.264-.24c0-.111-.12-.185-.264-.166a.287.287,0,0,0-.265.24c0,.111.12.185.265.166" transform="translate(26.18 54.13)" fill="#fff"/>
          <path id="Trazado_610570" data-name="Trazado 610570" d="M172.28,72.338a1.425,1.425,0,0,0,1.323-1.2c0-.56-.593-.935-1.323-.837a1.43,1.43,0,0,0-1.323,1.2c0,.56.593.935,1.323.837" transform="translate(67.086 47.957)" fill="#fff"/>
          <path id="Trazado_610571" data-name="Trazado 610571" d="M179.406,73.155a2.85,2.85,0,0,0,2.654-2.4c0-1.12-1.186-1.87-2.654-1.667a2.845,2.845,0,0,0-2.653,2.393c0,1.126,1.186,1.877,2.653,1.674" transform="translate(107.754 41.614)" fill="#fff"/>
          <path id="Trazado_610572" data-name="Trazado 610572" d="M186.295,73.6c2.052-.283,3.712-1.784,3.712-3.359s-1.659-2.615-3.712-2.338-3.712,1.784-3.712,3.359,1.66,2.621,3.712,2.338" transform="translate(148.661 35.437)" fill="#fff"/>
          <path id="Trazado_610573" data-name="Trazado 610573" d="M192.951,73.664c2.485-.338,4.505-2.166,4.505-4.073s-2.02-3.187-4.505-2.843-4.505,2.166-4.505,4.073,2.012,3.181,4.505,2.843" transform="translate(189.799 29.439)" fill="#fff"/>
          <path id="Trazado_610574" data-name="Trazado 610574" d="M199.377,73.355c2.781-.381,5.034-2.418,5.034-4.553s-2.253-3.556-5.034-3.181-5.035,2.424-5.035,4.559,2.253,3.556,5.035,3.175" transform="translate(231.168 23.614)" fill="#fff"/>
          <path id="Trazado_610575" data-name="Trazado 610575" d="M205.57,72.668c2.926-.4,5.3-2.547,5.3-4.793s-2.373-3.747-5.3-3.347-5.3,2.547-5.3,4.8,2.373,3.741,5.3,3.341" transform="translate(272.77 17.957)" fill="#fff"/>
          <path id="Trazado_610576" data-name="Trazado 610576" d="M211.42,71.413c2.854-.388,5.171-2.486,5.171-4.676s-2.317-3.649-5.171-3.255-5.171,2.48-5.171,4.67,2.317,3.655,5.171,3.261" transform="translate(314.714 12.567)" fill="#fff"/>
          <path id="Trazado_610577" data-name="Trazado 610577" d="M216.919,69.6c2.565-.351,4.642-2.227,4.642-4.2s-2.076-3.273-4.642-2.923-4.642,2.227-4.642,4.2,2.076,3.273,4.642,2.923" transform="translate(357.01 7.431)" fill="#fff"/>
          <path id="Trazado_610578" data-name="Trazado 610578" d="M222.067,67.217c2.052-.283,3.712-1.784,3.712-3.359s-1.659-2.615-3.712-2.338-3.712,1.784-3.712,3.359,1.659,2.621,3.712,2.338" transform="translate(399.657 2.557)" fill="#fff"/>
          <path id="Trazado_610579" data-name="Trazado 610579" d="M227.1,64.646a2.85,2.85,0,0,0,2.653-2.4c0-1.12-1.186-1.87-2.653-1.667a2.845,2.845,0,0,0-2.653,2.393c0,1.126,1.186,1.877,2.653,1.674" transform="translate(442.409 -2.231)" fill="#fff"/>
          <path id="Trazado_610580" data-name="Trazado 610580" d="M232.018,61.891a1.572,1.572,0,0,0,1.459-1.317c0-.621-.657-1.034-1.459-.923a1.572,1.572,0,0,0-1.459,1.323c0,.615.657,1.028,1.459.917" transform="translate(485.287 -6.933)" fill="#fff"/>
          <path id="Trazado_610581" data-name="Trazado 610581" d="M237.054,59.318c.216-.031.4-.191.4-.357s-.185-.283-.4-.252-.4.191-.4.357.184.283.4.252" transform="translate(528.046 -11.72)" fill="#fff"/>
          <path id="Trazado_610582" data-name="Trazado 610582" d="M159.549,79.106a.434.434,0,0,0,.4-.363c0-.166-.184-.277-.4-.246s-.4.191-.4.357.184.283.4.252" transform="translate(-15.772 90.245)" fill="#fff"/>
          <path id="Trazado_610583" data-name="Trazado 610583" d="M166.788,80.115a1.99,1.99,0,0,0,1.852-1.68c0-.788-.826-1.31-1.852-1.169a2,2,0,0,0-1.86,1.68c0,.788.834,1.311,1.86,1.169" transform="translate(24.784 83.809)" fill="#fff"/>
          <path id="Trazado_610584" data-name="Trazado 610584" d="M174.251,81.5c1.98-.271,3.575-1.717,3.575-3.236s-1.6-2.529-3.575-2.258-3.575,1.723-3.575,3.236,1.6,2.529,3.575,2.258" transform="translate(65.115 77.207)" fill="#fff"/>
          <path id="Trazado_610585" data-name="Trazado 610585" d="M181.49,82.507c2.782-.382,5.034-2.418,5.034-4.553s-2.253-3.556-5.034-3.181-5.034,2.424-5.034,4.559,2.253,3.556,5.034,3.175" transform="translate(105.67 70.772)" fill="#fff"/>
          <path id="Trazado_610586" data-name="Trazado 610586" d="M188.617,83.325c3.511-.48,6.365-3.058,6.365-5.753s-2.854-4.492-6.365-4.012-6.365,3.058-6.365,5.753,2.854,4.492,6.365,4.012" transform="translate(146.338 64.43)" fill="#fff"/>
          <path id="Trazado_610587" data-name="Trazado 610587" d="M195.505,83.77c4.1-.56,7.423-3.569,7.423-6.713s-3.327-5.242-7.423-4.682-7.423,3.569-7.423,6.713,3.327,5.242,7.423,4.682" transform="translate(187.245 58.257)" fill="#fff"/>
          <path id="Trazado_610588" data-name="Trazado 610588" d="M202.043,83.646c4.465-.609,8.081-3.882,8.081-7.31s-3.615-5.71-8.081-5.1-8.081,3.882-8.081,7.31,3.615,5.71,8.081,5.1" transform="translate(228.502 52.345)" fill="#fff"/>
          <path id="Trazado_610589" data-name="Trazado 610589" d="M208.243,82.959c4.609-.634,8.353-4.012,8.353-7.55s-3.744-5.9-8.353-5.267-8.353,4.012-8.353,7.55,3.744,5.9,8.353,5.267" transform="translate(270.096 46.688)" fill="#fff"/>
          <path id="Trazado_610590" data-name="Trazado 610590" d="M213.967,81.519c4.465-.609,8.08-3.882,8.08-7.31s-3.615-5.71-8.08-5.1-8.081,3.882-8.081,7.31,3.616,5.71,8.081,5.1" transform="translate(312.167 41.385)" fill="#fff"/>
          <path id="Trazado_610591" data-name="Trazado 610591" d="M219.466,79.7c4.169-.572,7.552-3.63,7.552-6.83s-3.383-5.334-7.552-4.768-7.552,3.63-7.552,6.836,3.375,5.335,7.552,4.762" transform="translate(354.463 36.248)" fill="#fff"/>
          <path id="Trazado_610592" data-name="Trazado 610592" d="M224.5,77.132c3.583-.492,6.493-3.12,6.493-5.876s-2.91-4.584-6.493-4.092-6.493,3.12-6.493,5.87,2.91,4.59,6.493,4.1" transform="translate(397.222 31.46)" fill="#fff"/>
          <path id="Trazado_610593" data-name="Trazado 610593" d="M229.3,74.187c2.854-.394,5.171-2.486,5.171-4.676s-2.317-3.649-5.171-3.261-5.171,2.486-5.171,4.676,2.317,3.649,5.171,3.261" transform="translate(440.205 26.842)" fill="#fff"/>
          <path id="Trazado_610594" data-name="Trazado 610594" d="M233.871,70.864c1.98-.271,3.575-1.717,3.575-3.236s-1.6-2.529-3.575-2.258-3.576,1.723-3.576,3.236,1.6,2.529,3.576,2.258" transform="translate(483.435 22.401)" fill="#fff"/>
          <path id="Trazado_610595" data-name="Trazado 610595" d="M238.443,67.541a2.132,2.132,0,0,0,1.988-1.8c0-.843-.89-1.4-1.988-1.255a2.132,2.132,0,0,0-1.988,1.8c0,.843.89,1.4,1.988,1.255" transform="translate(526.656 17.966)" fill="#fff"/>
          <path id="Trazado_610596" data-name="Trazado 610596" d="M243.128,64.405a.573.573,0,0,0,.529-.48c0-.222-.24-.375-.529-.332a.56.56,0,0,0-.529.48c0,.221.232.375.529.332" transform="translate(569.766 13.435)" fill="#fff"/>
          <path id="Trazado_610597" data-name="Trazado 610597" d="M153.468,85.943a.286.286,0,0,0,.264-.24c0-.111-.12-.185-.264-.166a.281.281,0,0,0-.265.24c0,.111.12.185.265.166" transform="translate(-57.485 126.533)" fill="#fff"/>
          <path id="Trazado_610598" data-name="Trazado 610598" d="M160.826,87.141a1.99,1.99,0,0,0,1.852-1.68c0-.781-.826-1.311-1.852-1.169a2,2,0,0,0-1.86,1.68c0,.788.834,1.311,1.86,1.169" transform="translate(-17.049 120.013)" fill="#fff"/>
          <path id="Trazado_610599" data-name="Trazado 610599" d="M168.521,88.9c2.124-.289,3.84-1.846,3.84-3.476s-1.716-2.713-3.84-2.424-3.84,1.846-3.84,3.476,1.715,2.713,3.84,2.424" transform="translate(23.051 113.233)" fill="#fff"/>
          <path id="Trazado_610600" data-name="Trazado 610600" d="M176.223,90.663c3.223-.443,5.828-2.8,5.828-5.273s-2.605-4.122-5.828-3.679-5.828,2.806-5.828,5.273,2.605,4.122,5.828,3.679" transform="translate(63.143 106.456)" fill="#fff"/>
          <path id="Trazado_610601" data-name="Trazado 610601" d="M183.813,92.234c4.249-.578,7.688-3.692,7.688-6.953s-3.439-5.427-7.688-4.848-7.688,3.7-7.688,6.953,3.447,5.427,7.688,4.848" transform="translate(103.348 99.766)" fill="#fff"/>
          <path id="Trazado_610602" data-name="Trazado 610602" d="M191.164,93.427c5.123-.7,9.275-4.461,9.275-8.392s-4.153-6.547-9.275-5.845-9.275,4.455-9.275,8.386,4.152,6.553,9.275,5.851" transform="translate(143.791 93.251)" fill="#fff"/>
          <path id="Trazado_610603" data-name="Trazado 610603" d="M198.172,94.06c5.78-.794,10.47-5.033,10.47-9.469s-4.69-7.4-10.47-6.6-10.47,5.033-10.47,9.469,4.69,7.4,10.47,6.6" transform="translate(184.579 86.988)" fill="#fff"/>
          <path id="Trazado_610604" data-name="Trazado 610604" d="M204.828,94.128c6.221-.849,11.263-5.415,11.263-10.189s-5.042-7.956-11.263-7.107-11.263,5.414-11.263,10.2,5.042,7.956,11.263,7.1" transform="translate(225.717 80.983)" fill="#fff"/>
          <path id="Trazado_610605" data-name="Trazado 610605" d="M211.022,93.44c6.365-.874,11.528-5.538,11.528-10.429s-5.163-8.14-11.528-7.273-11.528,5.544-11.528,10.429,5.163,8.146,11.528,7.273" transform="translate(267.318 75.333)" fill="#fff"/>
          <path id="Trazado_610606" data-name="Trazado 610606" d="M216.752,92c6.221-.855,11.263-5.415,11.263-10.189s-5.042-7.956-11.263-7.107-11.263,5.415-11.263,10.189S210.531,92.85,216.752,92" transform="translate(309.382 70.023)" fill="#fff"/>
          <path id="Trazado_610607" data-name="Trazado 610607" d="M222.139,89.993c5.852-.8,10.6-5.095,10.6-9.592s-4.746-7.482-10.6-6.682-10.606,5.095-10.606,9.586,4.754,7.488,10.606,6.688" transform="translate(351.79 64.979)" fill="#fff"/>
          <path id="Trazado_610608" data-name="Trazado 610608" d="M226.936,87.046c5.123-.7,9.275-4.461,9.275-8.393s-4.153-6.553-9.275-5.845-9.275,4.455-9.275,8.386,4.153,6.553,9.275,5.851" transform="translate(394.787 60.364)" fill="#fff"/>
          <path id="Trazado_610609" data-name="Trazado 610609" d="M231.62,83.914c4.321-.591,7.816-3.759,7.816-7.07s-3.5-5.525-7.816-4.935-7.816,3.759-7.816,7.076,3.5,5.519,7.816,4.928" transform="translate(437.89 55.836)" fill="#fff"/>
          <path id="Trazado_610610" data-name="Trazado 610610" d="M235.961,80.214c3.295-.449,5.964-2.867,5.964-5.4s-2.67-4.208-5.964-3.759S230,73.926,230,76.455s2.669,4.209,5.964,3.759" transform="translate(481.344 51.568)" fill="#fff"/>
          <path id="Trazado_610611" data-name="Trazado 610611" d="M240.183,76.327c2.2-.3,3.976-1.914,3.976-3.593s-1.78-2.812-3.976-2.51-3.976,1.914-3.976,3.593,1.78,2.812,3.976,2.51" transform="translate(524.916 47.383)" fill="#fff"/>
          <path id="Trazado_610612" data-name="Trazado 610612" d="M244.405,72.439a2.132,2.132,0,0,0,1.988-1.8c0-.843-.89-1.4-1.988-1.255a2.138,2.138,0,0,0-1.988,1.8c0,.843.89,1.4,1.988,1.255" transform="translate(568.489 43.204)" fill="#fff"/>
          <path id="Trazado_610613" data-name="Trazado 610613" d="M248.978,69.115a.434.434,0,0,0,.4-.363c0-.166-.185-.277-.4-.246s-.4.191-.4.357.185.283.4.252" transform="translate(611.711 38.763)" fill="#fff"/>
          <path id="Trazado_610614" data-name="Trazado 610614" d="M147.394,92.782c.064-.012.136-.062.136-.117s-.072-.1-.136-.086-.136.061-.136.117.064.1.136.086" transform="translate(-99.199 162.82)" fill="#fff"/>
          <path id="Trazado_610615" data-name="Trazado 610615" d="M154.394,93.414a1.425,1.425,0,0,0,1.323-1.2c0-.56-.593-.935-1.323-.837a1.43,1.43,0,0,0-1.323,1.2c0,.56.593.935,1.323.837" transform="translate(-58.412 156.558)" fill="#fff"/>
          <path id="Trazado_610616" data-name="Trazado 610616" d="M162.327,95.551c1.98-.271,3.575-1.723,3.575-3.236s-1.6-2.529-3.575-2.258-3.575,1.723-3.575,3.236,1.6,2.529,3.575,2.258" transform="translate(-18.551 149.609)" fill="#fff"/>
          <path id="Trazado_610617" data-name="Trazado 610617" d="M170.261,97.688c3.223-.443,5.828-2.806,5.828-5.273s-2.605-4.122-5.828-3.679-5.828,2.806-5.828,5.273,2.605,4.122,5.828,3.679" transform="translate(21.31 142.655)" fill="#fff"/>
          <path id="Trazado_610618" data-name="Trazado 610618" d="M178.195,99.824c4.465-.609,8.081-3.882,8.081-7.31s-3.615-5.71-8.081-5.1-8.081,3.889-8.081,7.31,3.616,5.71,8.081,5.1" transform="translate(61.172 135.708)" fill="#fff"/>
          <path id="Trazado_610619" data-name="Trazado 610619" d="M186.016,101.772c5.636-.769,10.2-4.9,10.2-9.229s-4.569-7.205-10.2-6.436-10.205,4.9-10.205,9.229,4.569,7.205,10.205,6.436" transform="translate(101.145 128.843)" fill="#fff"/>
          <path id="Trazado_610620" data-name="Trazado 610620" d="M193.606,103.345c6.662-.911,12.057-5.8,12.057-10.909s-5.4-8.516-12.057-7.6-12.065,5.8-12.065,10.909,5.4,8.515,12.065,7.6" transform="translate(141.35 122.151)" fill="#fff"/>
          <path id="Trazado_610621" data-name="Trazado 610621" d="M200.957,104.542c7.536-1.034,13.652-6.559,13.652-12.349s-6.117-9.635-13.652-8.608-13.652,6.559-13.652,12.349,6.109,9.641,13.652,8.608" transform="translate(181.793 115.632)" fill="#fff"/>
          <path id="Trazado_610622" data-name="Trazado 610622" d="M207.726,104.794c8.048-1.1,14.574-7.008,14.574-13.186s-6.526-10.294-14.574-9.192S193.152,89.424,193.152,95.6s6.525,10.294,14.574,9.192" transform="translate(222.819 109.547)" fill="#fff"/>
          <path id="Trazado_610623" data-name="Trazado 610623" d="M214.039,104.295c8.273-1.132,14.975-7.2,14.975-13.542s-6.7-10.577-14.975-9.445S199.064,88.5,199.064,94.85s6.7,10.577,14.975,9.445" transform="translate(264.301 103.807)" fill="#fff"/>
          <path id="Trazado_610624" data-name="Trazado 610624" d="M219.769,102.855c8.129-1.114,14.71-7.07,14.71-13.3s-6.582-10.392-14.71-9.279-14.71,7.07-14.71,13.3,6.582,10.392,14.71,9.279" transform="translate(306.365 98.497)" fill="#fff"/>
          <path id="Trazado_610625" data-name="Trazado 610625" d="M224.918,100.476c7.608-1.04,13.78-6.627,13.78-12.466s-6.173-9.734-13.78-8.694-13.781,6.627-13.781,12.466,6.165,9.734,13.781,8.694" transform="translate(349.011 93.622)" fill="#fff"/>
          <path id="Trazado_610626" data-name="Trazado 610626" d="M229.49,97.152c6.734-.923,12.193-5.858,12.193-11.026s-5.459-8.614-12.193-7.691S217.3,84.293,217.3,89.461s5.459,8.614,12.193,7.691" transform="translate(392.233 89.181)" fill="#fff"/>
          <path id="Trazado_610627" data-name="Trazado 610627" d="M233.83,93.452c5.708-.781,10.341-4.965,10.341-9.352s-4.634-7.3-10.341-6.516-10.341,4.965-10.341,9.352,4.634,7.3,10.341,6.516" transform="translate(435.68 84.913)" fill="#fff"/>
          <path id="Trazado_610628" data-name="Trazado 610628" d="M237.933,89.377c4.537-.621,8.217-3.95,8.217-7.433s-3.68-5.8-8.217-5.181-8.217,3.95-8.217,7.433,3.68,5.8,8.217,5.181" transform="translate(479.372 80.817)" fill="#fff"/>
          <path id="Trazado_610629" data-name="Trazado 610629" d="M241.923,85.112c3.295-.449,5.964-2.867,5.964-5.4s-2.67-4.209-5.964-3.759-5.964,2.867-5.964,5.4,2.67,4.209,5.964,3.759" transform="translate(523.176 76.806)" fill="#fff"/>
          <path id="Trazado_610630" data-name="Trazado 610630" d="M245.914,80.849c2.052-.283,3.712-1.784,3.712-3.353s-1.66-2.621-3.712-2.344-3.712,1.784-3.712,3.359,1.659,2.621,3.712,2.338" transform="translate(566.981 72.8)" fill="#fff"/>
          <path id="Trazado_610631" data-name="Trazado 610631" d="M249.9,76.586a1.573,1.573,0,0,0,1.459-1.317c0-.622-.657-1.034-1.459-.923a1.565,1.565,0,0,0-1.459,1.317c0,.621.649,1.034,1.459.923" transform="translate(610.785 68.788)" fill="#fff"/>
          <path id="Trazado_610632" data-name="Trazado 610632" d="M254.7,73.638a.139.139,0,0,0,.128-.123c0-.055-.056-.092-.128-.08a.139.139,0,0,0-.128.117c0,.061.056.1.128.086" transform="translate(653.782 64.174)" fill="#fff"/>
          <path id="Trazado_610633" data-name="Trazado 610633" d="M147.745,99.307a.564.564,0,0,0,.521-.48c0-.222-.232-.375-.521-.332a.569.569,0,0,0-.537.48c0,.221.24.375.537.332" transform="translate(-99.55 193.28)" fill="#fff"/>
          <path id="Trazado_610634" data-name="Trazado 610634" d="M155.558,101.256a2.85,2.85,0,0,0,2.654-2.4c0-1.12-1.186-1.87-2.654-1.667a2.845,2.845,0,0,0-2.653,2.393c0,1.126,1.186,1.877,2.653,1.674" transform="translate(-59.576 186.415)" fill="#fff"/>
          <path id="Trazado_610635" data-name="Trazado 610635" d="M163.6,103.58c2.782-.381,5.034-2.418,5.034-4.553s-2.253-3.556-5.034-3.175-5.034,2.418-5.034,4.553,2.253,3.556,5.034,3.175" transform="translate(-19.828 179.378)" fill="#fff"/>
          <path id="Trazado_610636" data-name="Trazado 610636" d="M171.889,106.285c4.249-.585,7.688-3.692,7.688-6.953s-3.439-5.427-7.688-4.848-7.688,3.7-7.688,6.953,3.439,5.427,7.688,4.848" transform="translate(19.683 172.168)" fill="#fff"/>
          <path id="Trazado_610637" data-name="Trazado 610637" d="M180.054,108.8c5.636-.769,10.205-4.9,10.205-9.229s-4.569-7.2-10.205-6.436-10.205,4.9-10.205,9.229,4.57,7.2,10.205,6.436" transform="translate(59.312 165.042)" fill="#fff"/>
          <path id="Trazado_610638" data-name="Trazado 610638" d="M188.219,111.312c7.031-.96,12.722-6.116,12.722-11.506s-5.692-8.989-12.722-8.023S175.5,97.892,175.5,103.288s5.7,8.983,12.722,8.023" transform="translate(98.941 157.919)" fill="#fff"/>
          <path id="Trazado_610639" data-name="Trazado 610639" d="M196.153,113.447c8.273-1.132,14.975-7.2,14.975-13.542s-6.7-10.577-14.975-9.445S181.178,97.652,181.178,104s6.7,10.577,14.975,9.445" transform="translate(138.803 150.966)" fill="#fff"/>
          <path id="Trazado_610640" data-name="Trazado 610640" d="M203.743,115.02c9.3-1.274,16.835-8.085,16.835-15.222s-7.536-11.887-16.835-10.614-16.835,8.085-16.835,15.222,7.536,11.887,16.835,10.614" transform="translate(179.007 144.274)" fill="#fff"/>
          <path id="Trazado_610641" data-name="Trazado 610641" d="M210.743,115.651c9.957-1.36,18.021-8.663,18.021-16.3s-8.064-12.73-18.021-11.371-18.021,8.663-18.021,16.305,8.064,12.73,18.021,11.364" transform="translate(219.802 138.012)" fill="#fff"/>
          <path id="Trazado_610642" data-name="Trazado 610642" d="M217.168,115.341c10.245-1.4,18.55-8.915,18.55-16.779s-8.305-13.106-18.55-11.7-18.55,8.915-18.55,16.779,8.305,13.106,18.55,11.7" transform="translate(261.171 132.188)" fill="#fff"/>
          <path id="Trazado_610643" data-name="Trazado 610643" d="M222.786,113.713c10.029-1.372,18.158-8.725,18.158-16.422s-8.129-12.823-18.158-11.45-18.157,8.725-18.157,16.422,8.129,12.823,18.157,11.45" transform="translate(303.348 126.968)" fill="#fff"/>
          <path id="Trazado_610644" data-name="Trazado 610644" d="M227.7,110.955c9.371-1.28,16.963-8.152,16.963-15.345S237.074,83.63,227.7,84.916s-16.963,8.153-16.963,15.339,7.591,11.98,16.963,10.7" transform="translate(346.226 122.269)" fill="#fff"/>
          <path id="Trazado_610645" data-name="Trazado 610645" d="M232.044,107.255c8.345-1.144,15.111-7.26,15.111-13.665s-6.766-10.669-15.111-9.525-15.111,7.26-15.111,13.665,6.766,10.669,15.111,9.525" transform="translate(389.679 118.001)" fill="#fff"/>
          <path id="Trazado_610646" data-name="Trazado 610646" d="M236.033,102.99c7.1-.972,12.859-6.178,12.859-11.629s-5.756-9.075-12.859-8.1-12.858,6.178-12.858,11.623,5.756,9.082,12.858,8.109" transform="translate(433.477 113.99)" fill="#fff"/>
          <path id="Trazado_610647" data-name="Trazado 610647" d="M239.792,98.35c5.708-.781,10.341-4.965,10.341-9.352s-4.634-7.3-10.341-6.516-10.341,4.965-10.341,9.352,4.633,7.3,10.341,6.516" transform="translate(477.513 110.152)" fill="#fff"/>
          <path id="Trazado_610648" data-name="Trazado 610648" d="M243.544,93.711c4.321-.591,7.816-3.759,7.816-7.07s-3.5-5.525-7.816-4.935-7.816,3.759-7.816,7.076,3.5,5.519,7.816,4.928" transform="translate(521.555 106.318)" fill="#fff"/>
          <path id="Trazado_610649" data-name="Trazado 610649" d="M247.191,88.883c2.854-.394,5.171-2.486,5.171-4.676s-2.317-3.649-5.171-3.261-5.171,2.486-5.171,4.676,2.317,3.649,5.171,3.261" transform="translate(565.704 102.569)" fill="#fff"/>
          <path id="Trazado_610650" data-name="Trazado 610650" d="M251.062,84.428c1.539-.209,2.782-1.335,2.782-2.517s-1.243-1.969-2.782-1.754-2.782,1.335-2.782,2.517,1.243,1.963,2.782,1.754" transform="translate(609.627 98.644)" fill="#fff"/>
          <path id="Trazado_610651" data-name="Trazado 610651" d="M255.171,80.351a.713.713,0,0,0,.665-.6c0-.277-.3-.461-.665-.412a.707.707,0,0,0-.665.6c0,.283.3.468.665.418" transform="translate(653.312 94.55)" fill="#fff"/>
          <path id="Trazado_610652" data-name="Trazado 610652" d="M148.32,106.213a1.285,1.285,0,0,0,1.186-1.077c0-.5-.537-.843-1.186-.757a1.291,1.291,0,0,0-1.194,1.083c0,.5.537.843,1.194.751" transform="translate(-100.125 223.568)" fill="#fff"/>
          <path id="Trazado_610653" data-name="Trazado 610653" d="M156.485,108.726c2.052-.283,3.712-1.784,3.712-3.359s-1.659-2.615-3.712-2.338-3.712,1.784-3.712,3.36,1.659,2.621,3.712,2.338" transform="translate(-60.503 216.447)" fill="#fff"/>
          <path id="Trazado_610654" data-name="Trazado 610654" d="M164.769,111.426c3.511-.48,6.365-3.058,6.365-5.753s-2.854-4.492-6.365-4.012-6.365,3.058-6.365,5.753,2.854,4.492,6.365,4.012" transform="translate(-20.992 209.236)" fill="#fff"/>
          <path id="Trazado_610655" data-name="Trazado 610655" d="M173.278,114.508c5.122-.7,9.275-4.461,9.275-8.393s-4.153-6.553-9.275-5.851S164,104.725,164,108.657s4.152,6.553,9.275,5.851" transform="translate(18.293 201.847)" fill="#fff"/>
          <path id="Trazado_610656" data-name="Trazado 610656" d="M181.675,117.4c6.662-.911,12.057-5.8,12.057-10.909s-5.4-8.516-12.057-7.6-12.057,5.8-12.057,10.909,5.4,8.516,12.057,7.6" transform="translate(57.691 194.553)" fill="#fff"/>
          <path id="Trazado_610657" data-name="Trazado 610657" d="M190.191,120.473c8.273-1.132,14.975-7.2,14.975-13.542s-6.7-10.577-14.975-9.445-14.975,7.193-14.975,13.542,6.7,10.577,14.975,9.445" transform="translate(96.97 187.17)" fill="#fff"/>
          <path id="Trazado_610658" data-name="Trazado 610658" d="M198.475,123.177c9.732-1.335,17.628-8.472,17.628-15.942s-7.9-12.447-17.628-11.118-17.628,8.472-17.628,15.942,7.9,12.453,17.628,11.118" transform="translate(136.48 179.956)" fill="#fff"/>
          <path id="Trazado_610659" data-name="Trazado 610659" d="M206.409,125.314c10.975-1.5,19.881-9.555,19.881-17.979s-8.907-14.041-19.881-12.54-19.881,9.555-19.881,17.979,8.9,14.041,19.881,12.54" transform="translate(176.341 173.001)" fill="#fff"/>
          <path id="Trazado_610660" data-name="Trazado 610660" d="M213.88,126.7c11.929-1.637,21.6-10.38,21.6-19.541s-9.676-15.253-21.6-13.622-21.6,10.386-21.6,19.541,9.676,15.259,21.6,13.622" transform="translate(216.665 166.399)" fill="#fff"/>
          <path id="Trazado_610661" data-name="Trazado 610661" d="M220.3,126.387c12.225-1.674,22.133-10.638,22.133-20.015S232.53,90.737,220.3,92.411s-22.134,10.638-22.134,20.021,9.908,15.628,22.134,13.955" transform="translate(258.035 160.57)" fill="#fff"/>
          <path id="Trazado_610662" data-name="Trazado 610662" d="M225.8,124.568c11.929-1.637,21.6-10.38,21.6-19.535s-9.676-15.259-21.6-13.622-21.6,10.38-21.6,19.535,9.676,15.259,21.6,13.622" transform="translate(300.331 155.442)" fill="#fff"/>
          <path id="Trazado_610663" data-name="Trazado 610663" d="M230.369,121.248c11.055-1.514,20.009-9.617,20.009-18.1s-8.954-14.133-20.009-12.62-20.009,9.617-20.009,18.1,8.954,14.133,20.009,12.619" transform="translate(343.559 150.997)" fill="#fff"/>
          <path id="Trazado_610664" data-name="Trazado 610664" d="M234.36,116.984c9.8-1.341,17.757-8.534,17.757-16.065s-7.953-12.54-17.757-11.2S216.6,98.255,216.6,105.786s7.952,12.539,17.757,11.2" transform="translate(387.364 146.986)" fill="#fff"/>
          <path id="Trazado_610665" data-name="Trazado 610665" d="M238.005,112.153c8.345-1.144,15.111-7.26,15.111-13.665s-6.766-10.669-15.111-9.525-15.111,7.26-15.111,13.665,6.766,10.669,15.111,9.525" transform="translate(431.505 143.24)" fill="#fff"/>
          <path id="Trazado_610666" data-name="Trazado 610666" d="M241.533,107.136c6.806-.929,12.329-5.925,12.329-11.149s-5.523-8.7-12.329-7.771S229.2,94.141,229.2,99.365s5.523,8.7,12.33,7.771" transform="translate(475.772 139.575)" fill="#fff"/>
          <path id="Trazado_610667" data-name="Trazado 610667" d="M244.941,101.932c5.195-.714,9.411-4.522,9.411-8.509s-4.217-6.645-9.411-5.938-9.411,4.522-9.411,8.516,4.217,6.645,9.411,5.931" transform="translate(520.159 135.999)" fill="#fff"/>
          <path id="Trazado_610668" data-name="Trazado 610668" d="M248.467,96.914c3.656-.5,6.63-3.187,6.63-5.993s-2.974-4.682-6.63-4.178-6.629,3.181-6.629,5.993,2.966,4.676,6.629,4.178" transform="translate(564.426 132.336)" fill="#fff"/>
          <path id="Trazado_610669" data-name="Trazado 610669" d="M251.995,91.9c2.125-.289,3.84-1.846,3.84-3.476s-1.715-2.713-3.84-2.424-3.848,1.846-3.848,3.476,1.723,2.713,3.848,2.424" transform="translate(608.694 128.676)" fill="#fff"/>
          <path id="Trazado_610670" data-name="Trazado 610670" d="M255.866,87.447a1.573,1.573,0,0,0,1.459-1.317c0-.621-.658-1.034-1.459-.923a1.572,1.572,0,0,0-1.459,1.323c0,.615.657,1.027,1.459.917" transform="translate(652.618 124.753)" fill="#fff"/>
          <path id="Trazado_610671" data-name="Trazado 610671" d="M141.425,111.731c.072-.012.136-.062.136-.123s-.064-.092-.136-.08a.139.139,0,0,0-.128.117.1.1,0,0,0,.128.086" transform="translate(-141.024 260.461)" fill="#fff"/>
          <path id="Trazado_610672" data-name="Trazado 610672" d="M148.9,113.116a2.007,2.007,0,0,0,1.86-1.68c0-.788-.842-1.311-1.86-1.169a1.982,1.982,0,0,0-1.852,1.68c0,.788.818,1.311,1.852,1.169" transform="translate(-100.7 253.859)" fill="#fff"/>
          <path id="Trazado_610673" data-name="Trazado 610673" d="M157.179,115.817c2.485-.338,4.505-2.166,4.505-4.073s-2.02-3.187-4.505-2.843-4.505,2.166-4.505,4.073,2.012,3.181,4.505,2.843" transform="translate(-61.197 246.648)" fill="#fff"/>
          <path id="Trazado_610674" data-name="Trazado 610674" d="M165.7,118.9c4.1-.56,7.423-3.569,7.423-6.713s-3.327-5.242-7.423-4.682-7.423,3.569-7.423,6.713,3.327,5.242,7.423,4.682" transform="translate(-21.918 239.261)" fill="#fff"/>
          <path id="Trazado_610675" data-name="Trazado 610675" d="M174.324,122.162c5.78-.794,10.47-5.033,10.47-9.469s-4.69-7.4-10.47-6.6-10.47,5.033-10.47,9.469,4.69,7.4,10.47,6.6" transform="translate(17.248 231.793)" fill="#fff"/>
          <path id="Trazado_610676" data-name="Trazado 610676" d="M183.071,125.618c7.544-1.034,13.652-6.559,13.652-12.349s-6.109-9.635-13.652-8.608-13.652,6.565-13.652,12.349,6.117,9.642,13.652,8.608" transform="translate(56.295 224.234)" fill="#fff"/>
          <path id="Trazado_610677" data-name="Trazado 610677" d="M191.819,129.071c9.3-1.274,16.835-8.085,16.835-15.222s-7.536-11.887-16.835-10.614-16.835,8.085-16.835,15.222,7.536,11.887,16.835,10.614" transform="translate(95.342 216.677)" fill="#fff"/>
          <path id="Trazado_610678" data-name="Trazado 610678" d="M200.447,132.34c10.975-1.5,19.881-9.555,19.881-17.979s-8.907-14.041-19.881-12.54-19.881,9.555-19.881,17.979,8.9,14.041,19.881,12.54" transform="translate(134.508 209.205)" fill="#fff"/>
          <path id="Trazado_610679" data-name="Trazado 610679" d="M208.844,135.229c12.514-1.717,22.663-10.891,22.663-20.5s-10.149-16.01-22.663-14.293-22.663,10.891-22.663,20.5,10.149,16.01,22.663,14.293" transform="translate(173.906 201.905)" fill="#fff"/>
          <path id="Trazado_610680" data-name="Trazado 610680" d="M216.777,137.365c13.764-1.883,24.915-11.973,24.915-22.538s-11.151-17.591-24.915-15.708-24.915,11.973-24.915,22.532,11.151,17.6,24.915,15.714" transform="translate(213.767 194.957)" fill="#fff"/>
          <path id="Trazado_610681" data-name="Trazado 610681" d="M223.553,137.621c14.277-1.957,25.845-12.416,25.845-23.375S237.831,96,223.553,97.947s-25.845,12.423-25.845,23.375,11.576,18.255,25.845,16.3" transform="translate(254.786 188.868)" fill="#fff"/>
          <path id="Trazado_610682" data-name="Trazado 610682" d="M228.821,135.425c13.837-1.9,25.052-12.035,25.052-22.655s-11.215-17.689-25.052-15.794-25.052,12.035-25.052,22.655,11.215,17.689,25.052,15.794" transform="translate(297.313 183.908)" fill="#fff"/>
          <path id="Trazado_610683" data-name="Trazado 610683" d="M232.923,131.35c12.658-1.735,22.927-11.02,22.927-20.735S245.581,94.42,232.923,96.156,210,107.175,210,116.891s10.261,16.194,22.927,14.459" transform="translate(341.006 179.812)" fill="#fff"/>
          <path id="Trazado_610684" data-name="Trazado 610684" d="M236.451,126.334c11.127-1.52,20.146-9.679,20.146-18.219S247.578,93.89,236.451,95.41s-20.146,9.685-20.146,18.219,9.019,14.232,20.146,12.706" transform="translate(385.273 176.153)" fill="#fff"/>
          <path id="Trazado_610685" data-name="Trazado 610685" d="M239.626,120.751c9.371-1.28,16.963-8.153,16.963-15.345S249,93.426,239.626,94.712s-16.963,8.152-16.963,15.339,7.591,11.98,16.963,10.7" transform="translate(429.884 172.747)" fill="#fff"/>
          <path id="Trazado_610686" data-name="Trazado 610686" d="M242.922,115.359c7.688-1.052,13.917-6.688,13.917-12.589S250.61,92.945,242.922,94s-13.917,6.688-13.917,12.589,6.229,9.826,13.917,8.774" transform="translate(474.383 169.259)" fill="#fff"/>
          <path id="Trazado_610687" data-name="Trazado 610687" d="M246.1,109.775c5.932-.812,10.734-5.156,10.734-9.709s-4.8-7.58-10.734-6.768-10.734,5.156-10.734,9.709,4.8,7.58,10.734,6.768" transform="translate(519.001 165.855)" fill="#fff"/>
          <path id="Trazado_610688" data-name="Trazado 610688" d="M249.394,104.383c4.241-.578,7.688-3.692,7.688-6.953s-3.447-5.427-7.688-4.848-7.688,3.7-7.688,6.953,3.439,5.427,7.688,4.848" transform="translate(563.5 162.367)" fill="#fff"/>
          <path id="Trazado_610689" data-name="Trazado 610689" d="M252.8,99.175c2.637-.363,4.77-2.3,4.77-4.313s-2.133-3.372-4.77-3.009-4.77,2.289-4.77,4.313,2.132,3.372,4.77,3.009" transform="translate(607.887 158.789)" fill="#fff"/>
          <path id="Trazado_610690" data-name="Trazado 610690" d="M256.442,94.348a2.276,2.276,0,0,0,2.116-1.92c0-.9-.946-1.5-2.116-1.335a2.276,2.276,0,0,0-2.117,1.92c0,.9.946,1.5,2.117,1.335" transform="translate(652.042 155.04)" fill="#fff"/>
          <path id="Trazado_610691" data-name="Trazado 610691" d="M260.663,90.461c.072-.012.136-.061.136-.123s-.064-.092-.136-.08-.128.062-.128.117.056.1.128.086" transform="translate(695.615 150.86)" fill="#fff"/>
          <path id="Trazado_610692" data-name="Trazado 610692" d="M141.545,117.88a.286.286,0,0,0,.264-.24c0-.111-.12-.185-.264-.166a.286.286,0,0,0-.265.24c0,.111.12.185.265.166" transform="translate(-141.144 291.1)" fill="#fff"/>
          <path id="Trazado_610693" data-name="Trazado 610693" d="M149.366,119.829a2.564,2.564,0,0,0,2.381-2.16c0-1.009-1.074-1.68-2.381-1.5a2.566,2.566,0,0,0-2.389,2.154c0,1.015,1.074,1.686,2.389,1.507" transform="translate(-101.17 284.235)" fill="#fff"/>
          <path id="Trazado_610694" data-name="Trazado 610694" d="M157.642,122.53c2.782-.382,5.034-2.418,5.034-4.553s-2.253-3.556-5.034-3.175-5.034,2.418-5.034,4.553,2.253,3.556,5.034,3.175" transform="translate(-61.66 277.024)" fill="#fff"/>
          <path id="Trazado_610695" data-name="Trazado 610695" d="M166.271,125.8c4.465-.609,8.081-3.882,8.081-7.31s-3.615-5.71-8.081-5.1-8.081,3.889-8.081,7.31,3.616,5.71,8.081,5.1" transform="translate(-22.494 269.548)" fill="#fff"/>
          <path id="Trazado_610696" data-name="Trazado 610696" d="M175.018,129.256c6.221-.855,11.263-5.414,11.263-10.189s-5.043-7.956-11.263-7.106-11.263,5.414-11.263,10.189,5.042,7.956,11.263,7.107" transform="translate(16.553 261.992)" fill="#fff"/>
          <path id="Trazado_610697" data-name="Trazado 610697" d="M183.878,132.9c8.048-1.1,14.582-7.008,14.582-13.186s-6.534-10.294-14.582-9.192-14.574,7-14.574,13.185S175.829,134,183.878,132.9" transform="translate(55.488 254.352)" fill="#fff"/>
          <path id="Trazado_610698" data-name="Trazado 610698" d="M192.857,136.729c9.957-1.366,18.021-8.663,18.021-16.3s-8.065-12.73-18.021-11.371-18.021,8.663-18.021,16.305,8.065,12.73,18.021,11.364" transform="translate(94.304 246.619)" fill="#fff"/>
          <path id="Trazado_610699" data-name="Trazado 610699" d="M201.956,140.75c11.928-1.637,21.6-10.38,21.6-19.541s-9.676-15.253-21.6-13.622-21.6,10.386-21.6,19.541,9.676,15.253,21.6,13.622" transform="translate(133 238.801)" fill="#fff"/>
          <path id="Trazado_610700" data-name="Trazado 610700" d="M210.816,144.389c13.756-1.883,24.915-11.973,24.915-22.538s-11.159-17.591-24.915-15.708S185.9,118.117,185.9,128.675s11.151,17.6,24.916,15.714" transform="translate(171.935 231.156)" fill="#fff"/>
          <path id="Trazado_610701" data-name="Trazado 610701" d="M219.444,147.658c15.44-2.117,27.962-13.438,27.962-25.294s-12.522-19.744-27.962-17.634-27.962,13.438-27.962,25.294S204,149.775,219.444,147.658" transform="translate(211.101 223.685)" fill="#fff"/>
          <path id="Trazado_610702" data-name="Trazado 610702" d="M226.8,148.852c16.322-2.233,29.557-14.2,29.557-26.728s-13.235-20.877-29.557-18.637-29.557,14.2-29.557,26.728,13.235,20.871,29.557,18.637" transform="translate(251.537 217.169)" fill="#fff"/>
          <path id="Trazado_610703" data-name="Trazado 610703" d="M231.6,145.908c15.592-2.135,28.226-13.567,28.226-25.534s-12.634-19.935-28.226-17.8-28.226,13.567-28.226,25.534,12.634,19.935,28.226,17.8" transform="translate(294.535 212.551)" fill="#fff"/>
          <path id="Trazado_610704" data-name="Trazado 610704" d="M234.9,140.512c13.909-1.9,25.18-12.1,25.18-22.772S248.8,99.953,234.9,101.86s-25.18,12.1-25.18,22.772,11.271,17.782,25.18,15.881" transform="translate(339.034 209.062)" fill="#fff"/>
          <path id="Trazado_610705" data-name="Trazado 610705" d="M237.84,134.557c12-1.643,21.733-10.448,21.733-19.658s-9.732-15.351-21.733-13.709-21.733,10.448-21.733,19.658,9.732,15.351,21.733,13.709" transform="translate(383.884 205.832)" fill="#fff"/>
          <path id="Trazado_610706" data-name="Trazado 610706" d="M240.784,128.6c10.1-1.384,18.286-8.792,18.286-16.545s-8.185-12.915-18.286-11.53S222.5,109.308,222.5,117.061s8.185,12.921,18.286,11.537" transform="translate(428.726 202.605)" fill="#fff"/>
          <path id="Trazado_610707" data-name="Trazado 610707" d="M243.736,122.637c8.2-1.12,14.847-7.131,14.847-13.425s-6.646-10.485-14.847-9.359-14.846,7.131-14.846,13.426,6.646,10.478,14.846,9.358" transform="translate(473.569 199.373)" fill="#fff"/>
          <path id="Trazado_610708" data-name="Trazado 610708" d="M246.793,116.868c6.365-.874,11.527-5.544,11.527-10.429s-5.163-8.14-11.527-7.273-11.528,5.544-11.528,10.429,5.163,8.146,11.528,7.273" transform="translate(518.307 196.054)" fill="#fff"/>
          <path id="Trazado_610709" data-name="Trazado 610709" d="M249.976,111.286c4.61-.634,8.345-4.012,8.345-7.55s-3.735-5.9-8.345-5.267-8.353,4.012-8.353,7.55,3.744,5.9,8.353,5.267" transform="translate(562.918 192.653)" fill="#fff"/>
          <path id="Trazado_610710" data-name="Trazado 610710" d="M253.265,105.893c2.926-.4,5.3-2.547,5.3-4.793s-2.373-3.747-5.3-3.347-5.3,2.547-5.3,4.8,2.373,3.741,5.3,3.341" transform="translate(607.424 189.161)" fill="#fff"/>
          <path id="Trazado_610711" data-name="Trazado 610711" d="M256.792,100.874a2.711,2.711,0,0,0,2.517-2.277c0-1.071-1.131-1.778-2.517-1.587a2.7,2.7,0,0,0-2.517,2.277c0,1.064,1.122,1.778,2.517,1.587" transform="translate(651.691 185.505)" fill="#fff"/>
          <path id="Trazado_610712" data-name="Trazado 610712" d="M260.9,96.8c.216-.031.4-.191.4-.357s-.184-.283-.4-.252-.4.191-.4.357.184.283.4.252" transform="translate(695.377 181.409)" fill="#fff"/>
          <path id="Trazado_610713" data-name="Trazado 610713" d="M141.664,124.03a.434.434,0,0,0,.4-.363c0-.166-.185-.277-.4-.246s-.4.191-.4.357.184.283.4.252" transform="translate(-141.263 321.732)" fill="#fff"/>
          <path id="Trazado_610714" data-name="Trazado 610714" d="M149.485,125.979A2.7,2.7,0,0,0,152,123.7c0-1.071-1.122-1.778-2.517-1.588a2.714,2.714,0,0,0-2.525,2.277c0,1.064,1.138,1.778,2.525,1.588" transform="translate(-101.29 314.867)" fill="#fff"/>
          <path id="Trazado_610715" data-name="Trazado 610715" d="M157.874,128.872c2.926-.4,5.3-2.547,5.3-4.793s-2.373-3.747-5.3-3.347-5.3,2.553-5.3,4.8,2.373,3.741,5.3,3.341" transform="translate(-61.892 307.568)" fill="#fff"/>
          <path id="Trazado_610716" data-name="Trazado 610716" d="M166.509,132.136c4.609-.634,8.353-4.012,8.353-7.55s-3.744-5.9-8.353-5.267-8.353,4.012-8.353,7.55,3.744,5.9,8.353,5.267" transform="translate(-22.732 300.096)" fill="#fff"/>
          <path id="Trazado_610717" data-name="Trazado 610717" d="M175.25,135.593c6.365-.874,11.528-5.544,11.528-10.429s-5.163-8.14-11.528-7.273-11.528,5.544-11.528,10.429,5.163,8.146,11.528,7.273" transform="translate(16.322 292.541)" fill="#fff"/>
          <path id="Trazado_610718" data-name="Trazado 610718" d="M184.229,139.422c8.273-1.132,14.975-7.2,14.975-13.542s-6.7-10.577-14.975-9.445-14.975,7.193-14.975,13.542,6.7,10.577,14.975,9.445" transform="translate(55.137 284.812)" fill="#fff"/>
          <path id="Trazado_610719" data-name="Trazado 610719" d="M193.32,143.443c10.245-1.4,18.55-8.916,18.55-16.779s-8.305-13.106-18.55-11.7-18.55,8.916-18.55,16.779,8.3,13.106,18.55,11.7" transform="translate(93.841 276.994)" fill="#fff"/>
          <path id="Trazado_610720" data-name="Trazado 610720" d="M202.419,147.464c12.225-1.674,22.134-10.638,22.134-20.015s-9.909-15.634-22.134-13.961-22.134,10.638-22.134,20.021,9.908,15.628,22.134,13.955" transform="translate(132.537 269.177)" fill="#fff"/>
          <path id="Trazado_610721" data-name="Trazado 610721" d="M211.629,151.672c14.269-1.957,25.845-12.416,25.845-23.375S225.9,110.048,211.629,112s-25.845,12.423-25.845,23.375,11.568,18.256,25.845,16.3" transform="translate(171.121 261.271)" fill="#fff"/>
          <path id="Trazado_610722" data-name="Trazado 610722" d="M220.84,155.877c16.322-2.233,29.557-14.2,29.557-26.728s-13.235-20.877-29.557-18.637-29.557,14.2-29.557,26.728,13.235,20.87,29.557,18.637" transform="translate(209.705 253.368)" fill="#fff"/>
          <path id="Trazado_610723" data-name="Trazado 610723" d="M229.118,158.582c17.789-2.437,32.2-15.475,32.2-29.128s-14.414-22.741-32.2-20.311-32.2,15.481-32.2,29.128,14.414,22.747,32.2,20.311" transform="translate(249.222 246.16)" fill="#fff"/>
          <path id="Trazado_610724" data-name="Trazado 610724" d="M233,154.126c16.466-2.258,29.822-14.33,29.822-26.968S249.462,106.1,233,108.355s-29.821,14.324-29.821,26.968,13.356,21.061,29.821,18.8" transform="translate(293.139 242.235)" fill="#fff"/>
          <path id="Trazado_610725" data-name="Trazado 610725" d="M235.709,147.795c14.422-1.975,26.11-12.546,26.11-23.615s-11.688-18.44-26.11-16.465S209.6,120.261,209.6,131.33s11.688,18.44,26.11,16.465" transform="translate(338.22 239.177)" fill="#fff"/>
          <path id="Trazado_610726" data-name="Trazado 610726" d="M238.422,141.459c12.37-1.692,22.4-10.761,22.4-20.255s-10.029-15.819-22.4-14.127-22.4,10.761-22.4,20.261,10.029,15.813,22.4,14.121" transform="translate(383.301 236.124)" fill="#fff"/>
          <path id="Trazado_610727" data-name="Trazado 610727" d="M241.254,135.31c10.389-1.421,18.823-9.045,18.823-17.019s-8.434-13.29-18.823-11.869-18.823,9.045-18.823,17.019,8.434,13.29,18.823,11.869" transform="translate(428.256 232.981)" fill="#fff"/>
          <path id="Trazado_610728" data-name="Trazado 610728" d="M244.08,129.163c8.417-1.151,15.239-7.322,15.239-13.782s-6.822-10.767-15.239-9.611-15.24,7.322-15.24,13.782,6.822,10.761,15.24,9.611" transform="translate(473.225 229.837)" fill="#fff"/>
          <path id="Trazado_610729" data-name="Trazado 610729" d="M247.024,123.207c6.517-.892,11.792-5.667,11.792-10.669s-5.275-8.331-11.792-7.439-11.792,5.673-11.792,10.669,5.275,8.331,11.792,7.439" transform="translate(518.075 226.602)" fill="#fff"/>
          <path id="Trazado_610730" data-name="Trazado 610730" d="M250.208,117.623c4.754-.652,8.61-4.141,8.61-7.79s-3.856-6.085-8.61-5.433-8.618,4.141-8.618,7.79,3.856,6.085,8.618,5.433" transform="translate(562.686 223.202)" fill="#fff"/>
          <path id="Trazado_610731" data-name="Trazado 610731" d="M253.384,112.043c3-.412,5.435-2.609,5.435-4.916s-2.437-3.833-5.435-3.427-5.435,2.615-5.435,4.916,2.437,3.839,5.435,3.427" transform="translate(607.305 219.799)" fill="#fff"/>
          <path id="Trazado_610732" data-name="Trazado 610732" d="M256.912,107.024a2.85,2.85,0,0,0,2.653-2.4c0-1.12-1.186-1.87-2.653-1.667a2.845,2.845,0,0,0-2.654,2.393c0,1.126,1.186,1.877,2.654,1.674" transform="translate(651.572 216.137)" fill="#fff"/>
          <path id="Trazado_610733" data-name="Trazado 610733" d="M260.9,102.759c.216-.031.4-.191.4-.357s-.184-.283-.4-.252-.4.191-.4.357.184.283.4.252" transform="translate(695.377 212.125)" fill="#fff"/>
          <path id="Trazado_610734" data-name="Trazado 610734" d="M141.545,129.8a.286.286,0,0,0,.264-.24c0-.111-.12-.185-.264-.166a.287.287,0,0,0-.265.24c0,.111.12.185.265.166" transform="translate(-141.144 352.543)" fill="#fff"/>
          <path id="Trazado_610735" data-name="Trazado 610735" d="M149.366,131.753a2.565,2.565,0,0,0,2.381-2.16c0-1.009-1.074-1.68-2.381-1.5a2.566,2.566,0,0,0-2.389,2.153c0,1.015,1.074,1.686,2.389,1.507" transform="translate(-101.17 345.678)" fill="#fff"/>
          <path id="Trazado_610736" data-name="Trazado 610736" d="M157.762,134.645c2.854-.394,5.171-2.486,5.171-4.676s-2.317-3.649-5.171-3.261-5.171,2.486-5.171,4.676,2.317,3.649,5.171,3.261" transform="translate(-61.78 338.374)" fill="#fff"/>
          <path id="Trazado_610737" data-name="Trazado 610737" d="M166.271,137.722c4.465-.609,8.081-3.883,8.081-7.31s-3.615-5.71-8.081-5.1-8.081,3.889-8.081,7.31,3.616,5.71,8.081,5.1" transform="translate(-22.494 330.991)" fill="#fff"/>
          <path id="Trazado_610738" data-name="Trazado 610738" d="M175.018,141.18c6.221-.849,11.263-5.415,11.263-10.189s-5.043-7.956-11.263-7.107-11.263,5.415-11.263,10.2,5.042,7.956,11.263,7.1" transform="translate(16.553 323.435)" fill="#fff"/>
          <path id="Trazado_610739" data-name="Trazado 610739" d="M184,145.008c8.129-1.114,14.71-7.07,14.71-13.3s-6.582-10.392-14.71-9.278-14.71,7.07-14.71,13.3,6.582,10.392,14.71,9.278" transform="translate(55.369 315.706)" fill="#fff"/>
          <path id="Trazado_610740" data-name="Trazado 610740" d="M192.976,148.84c10.029-1.372,18.158-8.725,18.158-16.422s-8.129-12.823-18.158-11.451-18.157,8.725-18.157,16.422,8.129,12.823,18.157,11.45" transform="translate(94.184 307.972)" fill="#fff"/>
          <path id="Trazado_610741" data-name="Trazado 610741" d="M201.956,152.669c11.928-1.637,21.6-10.38,21.6-19.535s-9.676-15.259-21.6-13.622-21.6,10.38-21.6,19.535,9.676,15.259,21.6,13.622" transform="translate(133 300.243)" fill="#fff"/>
          <path id="Trazado_610742" data-name="Trazado 610742" d="M210.935,156.5c13.836-1.9,25.052-12.035,25.052-22.655s-11.215-17.69-25.052-15.795-25.052,12.035-25.052,22.655S197.1,158.4,210.935,156.5" transform="translate(171.815 292.515)" fill="#fff"/>
          <path id="Trazado_610743" data-name="Trazado 610743" d="M219.675,159.959c15.592-2.135,28.226-13.567,28.226-25.534s-12.634-19.935-28.226-17.8-28.226,13.567-28.226,25.534,12.634,19.935,28.226,17.8" transform="translate(210.87 284.954)" fill="#fff"/>
          <path id="Trazado_610744" data-name="Trazado 610744" d="M227.033,161.152c16.466-2.252,29.822-14.33,29.822-26.968s-13.355-21.061-29.822-18.8-29.821,14.324-29.821,26.968,13.356,21.061,29.821,18.8" transform="translate(251.306 278.439)" fill="#fff"/>
          <path id="Trazado_610745" data-name="Trazado 610745" d="M231.718,158.019c15.665-2.147,28.363-13.629,28.363-25.651s-12.7-20.027-28.363-17.886-28.362,13.629-28.362,25.651,12.7,20.034,28.362,17.886" transform="translate(294.416 273.906)" fill="#fff"/>
          <path id="Trazado_610746" data-name="Trazado 610746" d="M235.014,152.624C249,150.71,260.33,140.46,260.33,129.729S249,111.855,235.014,113.769,209.7,125.933,209.7,136.663s11.335,17.874,25.316,15.96" transform="translate(338.915 270.422)" fill="#fff"/>
          <path id="Trazado_610747" data-name="Trazado 610747" d="M237.959,146.667c12.081-1.655,21.869-10.509,21.869-19.775s-9.788-15.444-21.869-13.795-21.869,10.509-21.869,19.781,9.788,15.444,21.869,13.789" transform="translate(383.764 267.186)" fill="#fff"/>
          <path id="Trazado_610748" data-name="Trazado 610748" d="M240.784,140.52c10.1-1.384,18.286-8.786,18.286-16.539s-8.185-12.921-18.286-11.537S222.5,121.231,222.5,128.99s8.185,12.915,18.286,11.53" transform="translate(428.726 264.042)" fill="#fff"/>
          <path id="Trazado_610749" data-name="Trazado 610749" d="M243.848,134.749c8.273-1.132,14.975-7.2,14.975-13.542s-6.7-10.577-14.975-9.445-14.975,7.193-14.975,13.542,6.7,10.577,14.975,9.445" transform="translate(473.457 260.732)" fill="#fff"/>
          <path id="Trazado_610750" data-name="Trazado 610750" d="M246.793,128.792c6.365-.874,11.527-5.538,11.527-10.429s-5.163-8.14-11.527-7.273-11.528,5.544-11.528,10.429,5.163,8.146,11.528,7.273" transform="translate(518.307 257.497)" fill="#fff"/>
          <path id="Trazado_610751" data-name="Trazado 610751" d="M249.976,123.21c4.61-.634,8.345-4.012,8.345-7.55s-3.735-5.9-8.345-5.267-8.353,4.012-8.353,7.55,3.744,5.9,8.353,5.267" transform="translate(562.918 254.096)" fill="#fff"/>
          <path id="Trazado_610752" data-name="Trazado 610752" d="M253.265,117.817c2.926-.4,5.3-2.547,5.3-4.793s-2.373-3.747-5.3-3.347-5.3,2.547-5.3,4.8,2.373,3.741,5.3,3.341" transform="translate(607.424 250.603)" fill="#fff"/>
          <path id="Trazado_610753" data-name="Trazado 610753" d="M256.792,112.8a2.711,2.711,0,0,0,2.517-2.277c0-1.071-1.131-1.778-2.517-1.587a2.7,2.7,0,0,0-2.517,2.277c0,1.064,1.122,1.778,2.517,1.587" transform="translate(651.691 246.942)" fill="#fff"/>
          <path id="Trazado_610754" data-name="Trazado 610754" d="M260.9,108.721a.434.434,0,0,0,.4-.363c0-.166-.184-.277-.4-.246s-.4.191-.4.357.184.283.4.252" transform="translate(695.377 242.847)" fill="#fff"/>
          <path id="Trazado_610755" data-name="Trazado 610755" d="M141.425,135.579c.072-.012.136-.061.136-.123s-.064-.092-.136-.08a.134.134,0,0,0-.128.117.1.1,0,0,0,.128.086" transform="translate(-141.024 383.347)" fill="#fff"/>
          <path id="Trazado_610756" data-name="Trazado 610756" d="M149.015,137.151a2.13,2.13,0,0,0,1.98-1.8c0-.843-.89-1.4-1.98-1.255a2.125,2.125,0,0,0-1.988,1.8c0,.843.882,1.4,1.988,1.255" transform="translate(-100.82 376.656)" fill="#fff"/>
          <path id="Trazado_610757" data-name="Trazado 610757" d="M157.3,139.851c2.565-.351,4.642-2.227,4.642-4.2s-2.076-3.273-4.642-2.923-4.642,2.227-4.642,4.2,2.076,3.273,4.642,2.923" transform="translate(-61.317 369.445)" fill="#fff"/>
          <path id="Trazado_610758" data-name="Trazado 610758" d="M165.807,142.933c4.169-.572,7.552-3.63,7.552-6.836s-3.383-5.335-7.552-4.762-7.551,3.63-7.551,6.836,3.375,5.335,7.551,4.762" transform="translate(-22.031 362.057)" fill="#fff"/>
          <path id="Trazado_610759" data-name="Trazado 610759" d="M174.443,146.2c5.852-.8,10.606-5.095,10.606-9.592s-4.754-7.482-10.606-6.682-10.606,5.095-10.606,9.586,4.754,7.488,10.606,6.688" transform="translate(17.129 354.59)" fill="#fff"/>
          <path id="Trazado_610760" data-name="Trazado 610760" d="M183.184,149.654c7.616-1.04,13.78-6.627,13.78-12.466s-6.165-9.734-13.78-8.694S169.4,135.12,169.4,140.96s6.165,9.734,13.781,8.694" transform="translate(56.183 347.03)" fill="#fff"/>
          <path id="Trazado_610761" data-name="Trazado 610761" d="M191.931,153.106c9.372-1.28,16.963-8.152,16.963-15.345s-7.592-11.98-16.963-10.694-16.963,8.153-16.963,15.339,7.592,11.98,16.963,10.7" transform="translate(95.23 339.473)" fill="#fff"/>
          <path id="Trazado_610762" data-name="Trazado 610762" d="M200.559,156.375c11.055-1.514,20.009-9.617,20.009-18.1s-8.954-14.133-20.009-12.619-20.009,9.617-20.009,18.1,8.955,14.133,20.009,12.619" transform="translate(134.396 332.001)" fill="#fff"/>
          <path id="Trazado_610763" data-name="Trazado 610763" d="M209.076,159.452C221.733,157.717,232,148.432,232,138.717s-10.269-16.194-22.927-14.459-22.927,11.02-22.927,20.735,10.261,16.194,22.927,14.459" transform="translate(173.675 324.618)" fill="#fff"/>
          <path id="Trazado_610764" data-name="Trazado 610764" d="M217.009,161.589c13.909-1.9,25.18-12.1,25.18-22.772s-11.271-17.788-25.18-15.88-25.18,12.1-25.18,22.772,11.271,17.782,25.18,15.881" transform="translate(213.536 317.669)" fill="#fff"/>
          <path id="Trazado_610765" data-name="Trazado 610765" d="M223.785,161.846c14.422-1.975,26.11-12.546,26.11-23.615s-11.688-18.44-26.11-16.465-26.11,12.546-26.11,23.615,11.688,18.44,26.11,16.465" transform="translate(254.555 311.58)" fill="#fff"/>
          <path id="Trazado_610766" data-name="Trazado 610766" d="M229.052,159.649c13.981-1.914,25.316-12.164,25.316-22.895s-11.335-17.874-25.316-15.961-25.316,12.164-25.316,22.895,11.335,17.874,25.316,15.961" transform="translate(297.082 306.621)" fill="#fff"/>
          <path id="Trazado_610767" data-name="Trazado 610767" d="M233.043,155.387c12.738-1.741,23.063-11.081,23.063-20.858s-10.325-16.287-23.063-14.539-23.064,11.081-23.064,20.858,10.325,16.281,23.064,14.539" transform="translate(340.886 302.614)" fill="#fff"/>
          <path id="Trazado_610768" data-name="Trazado 610768" d="M236.563,150.37c11.2-1.532,20.274-9.746,20.274-18.342s-9.075-14.318-20.274-12.786-20.274,9.746-20.274,18.342,9.075,14.318,20.274,12.786" transform="translate(385.161 298.948)" fill="#fff"/>
          <path id="Trazado_610769" data-name="Trazado 610769" d="M239.745,144.786c9.444-1.292,17.1-8.214,17.1-15.462s-7.655-12.072-17.1-10.78-17.1,8.214-17.1,15.462,7.656,12.072,17.1,10.78" transform="translate(429.765 295.549)" fill="#fff"/>
          <path id="Trazado_610770" data-name="Trazado 610770" d="M242.922,139.206c7.688-1.052,13.917-6.688,13.917-12.589s-6.229-9.826-13.917-8.774-13.917,6.688-13.917,12.589,6.229,9.826,13.917,8.774" transform="translate(474.383 292.14)" fill="#fff"/>
          <path id="Trazado_610771" data-name="Trazado 610771" d="M246.1,133.623c5.932-.812,10.734-5.156,10.734-9.709s-4.8-7.58-10.734-6.768-10.734,5.156-10.734,9.709,4.8,7.58,10.734,6.768" transform="translate(519.001 288.74)" fill="#fff"/>
          <path id="Trazado_610772" data-name="Trazado 610772" d="M249.394,128.23c4.241-.578,7.688-3.692,7.688-6.953s-3.447-5.427-7.688-4.848-7.688,3.7-7.688,6.953,3.439,5.427,7.688,4.848" transform="translate(563.5 285.248)" fill="#fff"/>
          <path id="Trazado_610773" data-name="Trazado 610773" d="M252.8,123.023c2.637-.363,4.77-2.295,4.77-4.313s-2.133-3.372-4.77-3.009-4.77,2.289-4.77,4.313,2.132,3.372,4.77,3.009" transform="translate(607.887 281.675)" fill="#fff"/>
          <path id="Trazado_610774" data-name="Trazado 610774" d="M256.442,118.2a2.276,2.276,0,0,0,2.116-1.92c0-.9-.946-1.5-2.116-1.335a2.276,2.276,0,0,0-2.117,1.92c0,.9.946,1.5,2.117,1.335" transform="translate(652.042 277.925)" fill="#fff"/>
          <path id="Trazado_610775" data-name="Trazado 610775" d="M260.782,114.5a.287.287,0,0,0,.264-.24c0-.111-.12-.185-.264-.166a.286.286,0,0,0-.264.24c0,.111.12.185.264.166" transform="translate(695.496 273.657)" fill="#fff"/>
          <path id="Trazado_610776" data-name="Trazado 610776" d="M148.44,142.173a1.423,1.423,0,0,0,1.315-1.2c0-.56-.593-.935-1.315-.837a1.44,1.44,0,0,0-1.331,1.2c0,.56.6.935,1.331.837" transform="translate(-100.244 407.807)" fill="#fff"/>
          <path id="Trazado_610777" data-name="Trazado 610777" d="M156.485,144.5c2.052-.283,3.712-1.784,3.712-3.359s-1.659-2.615-3.712-2.338-3.712,1.784-3.712,3.36,1.659,2.621,3.712,2.338" transform="translate(-60.503 400.769)" fill="#fff"/>
          <path id="Trazado_610778" data-name="Trazado 610778" d="M164.881,147.387c3.583-.492,6.493-3.12,6.493-5.876s-2.91-4.584-6.493-4.092-6.493,3.119-6.493,5.87,2.91,4.59,6.493,4.1" transform="translate(-21.105 393.474)" fill="#fff"/>
          <path id="Trazado_610779" data-name="Trazado 610779" d="M173.278,150.274c5.122-.7,9.275-4.461,9.275-8.392s-4.153-6.547-9.275-5.845S164,140.491,164,144.423s4.152,6.553,9.275,5.851" transform="translate(18.293 386.175)" fill="#fff"/>
          <path id="Trazado_610780" data-name="Trazado 610780" d="M181.794,153.356c6.734-.923,12.193-5.857,12.193-11.026s-5.459-8.614-12.193-7.691S169.6,140.5,169.6,145.665s5.459,8.614,12.193,7.691" transform="translate(57.572 378.792)" fill="#fff"/>
          <path id="Trazado_610781" data-name="Trazado 610781" d="M190.31,156.433c8.345-1.144,15.111-7.26,15.111-13.666s-6.766-10.669-15.111-9.525S175.2,140.5,175.2,146.908s6.766,10.669,15.111,9.525" transform="translate(96.851 371.409)" fill="#fff"/>
          <path id="Trazado_610782" data-name="Trazado 610782" d="M198.588,159.137c9.8-1.341,17.757-8.534,17.757-16.065s-7.952-12.539-17.757-11.2-17.757,8.534-17.757,16.065,7.953,12.54,17.757,11.2" transform="translate(136.368 364.194)" fill="#fff"/>
          <path id="Trazado_610783" data-name="Trazado 610783" d="M206.641,161.461c11.127-1.526,20.145-9.678,20.145-18.218s-9.019-14.225-20.145-12.706-20.146,9.685-20.146,18.219,9.019,14.232,20.146,12.706" transform="translate(176.11 357.157)" fill="#fff"/>
          <path id="Trazado_610784" data-name="Trazado 610784" d="M213.992,162.659c12-1.643,21.733-10.441,21.733-19.658s-9.732-15.351-21.733-13.709-21.733,10.448-21.733,19.659,9.732,15.351,21.733,13.708" transform="translate(216.553 350.637)" fill="#fff"/>
          <path id="Trazado_610785" data-name="Trazado 610785" d="M220.536,162.534c12.369-1.692,22.4-10.762,22.4-20.255s-10.029-15.819-22.4-14.127-22.4,10.761-22.4,20.255,10.029,15.819,22.4,14.127" transform="translate(257.803 344.726)" fill="#fff"/>
          <path id="Trazado_610786" data-name="Trazado 610786" d="M226.035,160.718c12.081-1.655,21.869-10.509,21.869-19.775s-9.788-15.444-21.869-13.795-21.869,10.509-21.869,19.781,9.788,15.444,21.869,13.789" transform="translate(300.099 339.589)" fill="#fff"/>
          <path id="Trazado_610787" data-name="Trazado 610787" d="M230.608,157.4c11.2-1.532,20.274-9.746,20.274-18.342s-9.074-14.318-20.274-12.786-20.282,9.746-20.282,18.342,9.083,14.318,20.282,12.786" transform="translate(343.321 335.147)" fill="#fff"/>
          <path id="Trazado_610788" data-name="Trazado 610788" d="M234.479,152.944c9.884-1.354,17.893-8.6,17.893-16.182s-8.008-12.638-17.893-11.284-17.893,8.6-17.893,16.182,8.009,12.638,17.893,11.284" transform="translate(387.245 331.224)" fill="#fff"/>
          <path id="Trazado_610789" data-name="Trazado 610789" d="M238.118,148.112c8.417-1.151,15.239-7.322,15.239-13.782s-6.822-10.768-15.239-9.611-15.24,7.322-15.24,13.782,6.822,10.761,15.24,9.611" transform="translate(431.393 327.479)" fill="#fff"/>
          <path id="Trazado_610790" data-name="Trazado 610790" d="M241.533,142.909c6.806-.929,12.329-5.925,12.329-11.149s-5.523-8.706-12.329-7.771-12.33,5.925-12.33,11.149,5.523,8.7,12.33,7.771" transform="translate(475.772 323.902)" fill="#fff"/>
          <path id="Trazado_610791" data-name="Trazado 610791" d="M245.053,137.892c5.267-.72,9.54-4.584,9.54-8.632s-4.273-6.737-9.54-6.018-9.54,4.59-9.54,8.632,4.273,6.737,9.54,6.018" transform="translate(520.047 320.237)" fill="#fff"/>
          <path id="Trazado_610792" data-name="Trazado 610792" d="M248.467,132.686c3.656-.5,6.63-3.187,6.63-5.993s-2.974-4.682-6.63-4.178-6.629,3.181-6.629,5.993,2.966,4.676,6.629,4.178" transform="translate(564.426 316.664)" fill="#fff"/>
          <path id="Trazado_610793" data-name="Trazado 610793" d="M252.107,127.858c2.2-.3,3.976-1.914,3.976-3.593s-1.78-2.812-3.976-2.51-3.976,1.914-3.976,3.593,1.78,2.812,3.976,2.51" transform="translate(608.582 312.915)" fill="#fff"/>
          <path id="Trazado_610794" data-name="Trazado 610794" d="M255.866,123.218a1.573,1.573,0,0,0,1.459-1.317c0-.621-.658-1.034-1.459-.923a1.572,1.572,0,0,0-1.459,1.323c0,.615.657,1.027,1.459.917" transform="translate(652.618 309.076)" fill="#fff"/>
          <path id="Trazado_610795" data-name="Trazado 610795" d="M147.864,147.19a.711.711,0,0,0,.657-.6c0-.283-.3-.467-.657-.418a.717.717,0,0,0-.674.6c0,.283.3.468.674.418" transform="translate(-99.669 438.962)" fill="#fff"/>
          <path id="Trazado_610796" data-name="Trazado 610796" d="M155.558,148.952c1.467-.2,2.654-1.274,2.654-2.4s-1.186-1.871-2.654-1.668a2.845,2.845,0,0,0-2.653,2.394c0,1.126,1.186,1.877,2.653,1.674" transform="translate(-59.576 432.185)" fill="#fff"/>
          <path id="Trazado_610797" data-name="Trazado 610797" d="M163.724,151.464c2.854-.388,5.171-2.486,5.171-4.676s-2.317-3.649-5.171-3.255-5.171,2.48-5.171,4.67,2.317,3.655,5.171,3.261" transform="translate(-19.947 425.059)" fill="#fff"/>
          <path id="Trazado_610798" data-name="Trazado 610798" d="M172,154.168c4.321-.591,7.816-3.759,7.816-7.07s-3.5-5.525-7.816-4.935-7.816,3.76-7.816,7.076,3.5,5.519,7.816,4.928" transform="translate(19.57 417.844)" fill="#fff"/>
          <path id="Trazado_610799" data-name="Trazado 610799" d="M180.173,156.681c5.708-.781,10.341-4.965,10.341-9.346s-4.634-7.3-10.341-6.522-10.341,4.965-10.341,9.352,4.634,7.3,10.341,6.516" transform="translate(59.193 410.723)" fill="#fff"/>
          <path id="Trazado_610800" data-name="Trazado 610800" d="M188.339,159.194c7.1-.972,12.859-6.177,12.859-11.629s-5.756-9.076-12.859-8.1-12.859,6.178-12.859,11.623,5.756,9.082,12.859,8.11" transform="translate(98.822 403.602)" fill="#fff"/>
          <path id="Trazado_610801" data-name="Trazado 610801" d="M196.272,161.331c8.345-1.145,15.111-7.26,15.111-13.666s-6.766-10.669-15.111-9.525-15.111,7.26-15.111,13.659,6.766,10.675,15.111,9.531" transform="translate(138.683 396.647)" fill="#fff"/>
          <path id="Trazado_610802" data-name="Trazado 610802" d="M203.855,162.9c9.371-1.28,16.963-8.152,16.963-15.345s-7.591-11.979-16.963-10.694-16.963,8.153-16.963,15.339,7.592,11.986,16.963,10.7" transform="translate(178.895 389.955)" fill="#fff"/>
          <path id="Trazado_610803" data-name="Trazado 610803" d="M210.975,163.724c10.1-1.384,18.286-8.786,18.286-16.539s-8.185-12.921-18.286-11.537-18.286,8.792-18.286,16.545,8.185,12.915,18.286,11.53" transform="translate(219.57 383.609)" fill="#fff"/>
          <path id="Trazado_610804" data-name="Trazado 610804" d="M217.407,163.412c10.389-1.421,18.823-9.045,18.823-17.019s-8.434-13.29-18.823-11.869-18.823,9.045-18.823,17.019,8.433,13.29,18.823,11.869" transform="translate(260.933 377.782)" fill="#fff"/>
          <path id="Trazado_610805" data-name="Trazado 610805" d="M222.9,161.6c10.1-1.384,18.294-8.786,18.294-16.545S233,132.138,222.9,133.522s-18.286,8.786-18.286,16.545S212.8,162.982,222.9,161.6" transform="translate(303.236 372.649)" fill="#fff"/>
          <path id="Trazado_610806" data-name="Trazado 610806" d="M227.822,158.836c9.443-1.292,17.1-8.214,17.1-15.462s-7.656-12.072-17.1-10.78-17.1,8.214-17.1,15.462,7.656,12.072,17.1,10.78" transform="translate(346.107 367.947)" fill="#fff"/>
          <path id="Trazado_610807" data-name="Trazado 610807" d="M232.156,155.137c8.417-1.151,15.24-7.322,15.24-13.782s-6.822-10.768-15.24-9.611-15.239,7.322-15.239,13.782,6.822,10.761,15.239,9.611" transform="translate(389.567 363.678)" fill="#fff"/>
          <path id="Trazado_610808" data-name="Trazado 610808" d="M236.146,150.874c7.175-.984,12.987-6.239,12.987-11.746s-5.812-9.174-12.987-8.19-12.987,6.239-12.987,11.746,5.812,9.174,12.987,8.189" transform="translate(433.364 359.671)" fill="#fff"/>
          <path id="Trazado_610809" data-name="Trazado 610809" d="M239.9,146.234c5.78-.794,10.47-5.033,10.47-9.469s-4.69-7.4-10.47-6.6-10.47,5.033-10.47,9.469,4.69,7.4,10.47,6.6" transform="translate(477.4 355.833)" fill="#fff"/>
          <path id="Trazado_610810" data-name="Trazado 610810" d="M243.663,141.6c4.393-.6,7.952-3.821,7.952-7.193s-3.559-5.618-7.952-5.015-7.952,3.821-7.952,7.193,3.559,5.618,7.952,5.015" transform="translate(521.436 351.999)" fill="#fff"/>
          <path id="Trazado_610811" data-name="Trazado 610811" d="M247.3,136.766c2.926-.4,5.3-2.547,5.3-4.793s-2.373-3.747-5.3-3.347-5.3,2.553-5.3,4.8,2.373,3.741,5.3,3.341" transform="translate(565.591 348.245)" fill="#fff"/>
          <path id="Trazado_610812" data-name="Trazado 610812" d="M251.062,132.124c1.539-.209,2.782-1.335,2.782-2.517s-1.243-1.969-2.782-1.753-2.782,1.335-2.782,2.516,1.243,1.963,2.782,1.754" transform="translate(609.627 344.415)" fill="#fff"/>
          <path id="Trazado_610813" data-name="Trazado 610813" d="M255.171,128.047a.713.713,0,0,0,.665-.6c0-.283-.3-.468-.665-.418a.707.707,0,0,0-.665.6c0,.283.3.468.665.418" transform="translate(653.312 340.321)" fill="#fff"/>
          <path id="Trazado_610814" data-name="Trazado 610814" d="M147.394,152.4c.064-.012.136-.062.136-.123s-.072-.092-.136-.08-.136.062-.136.117a.108.108,0,0,0,.136.086" transform="translate(-99.199 470.028)" fill="#fff"/>
          <path id="Trazado_610815" data-name="Trazado 610815" d="M154.513,153.222a1.573,1.573,0,0,0,1.459-1.317c0-.621-.657-1.034-1.459-.923a1.572,1.572,0,0,0-1.459,1.323c0,.615.658,1.027,1.459.917" transform="translate(-58.531 463.682)" fill="#fff"/>
          <path id="Trazado_610816" data-name="Trazado 610816" d="M162.327,155.17c1.98-.271,3.575-1.717,3.575-3.236s-1.6-2.529-3.575-2.258-3.575,1.723-3.575,3.236,1.6,2.529,3.575,2.258" transform="translate(-18.551 456.818)" fill="#fff"/>
          <path id="Trazado_610817" data-name="Trazado 610817" d="M170.38,157.494c3.295-.449,5.964-2.867,5.964-5.4s-2.67-4.209-5.964-3.759-5.964,2.867-5.964,5.4,2.669,4.208,5.964,3.759" transform="translate(21.191 449.781)" fill="#fff"/>
          <path id="Trazado_610818" data-name="Trazado 610818" d="M178.314,159.631c4.537-.622,8.217-3.95,8.217-7.433s-3.68-5.8-8.217-5.181-8.217,3.95-8.217,7.433,3.68,5.8,8.217,5.181" transform="translate(61.052 442.826)" fill="#fff"/>
          <path id="Trazado_610819" data-name="Trazado 610819" d="M186.128,161.579c5.708-.781,10.341-4.965,10.341-9.352s-4.633-7.3-10.341-6.516-10.333,4.965-10.333,9.352,4.626,7.3,10.333,6.516" transform="translate(101.033 435.962)" fill="#fff"/>
          <path id="Trazado_610820" data-name="Trazado 610820" d="M193.837,163.34c6.806-.929,12.321-5.925,12.321-11.149s-5.515-8.7-12.321-7.771-12.329,5.925-12.329,11.149,5.523,8.7,12.329,7.771" transform="translate(141.118 429.186)" fill="#fff"/>
          <path id="Trazado_610821" data-name="Trazado 610821" d="M201.189,164.537c7.688-1.052,13.917-6.688,13.917-12.589s-6.229-9.826-13.917-8.774-13.917,6.688-13.917,12.589,6.229,9.826,13.917,8.774" transform="translate(181.561 422.667)" fill="#fff"/>
          <path id="Trazado_610822" data-name="Trazado 610822" d="M207.965,164.79c8.2-1.12,14.846-7.131,14.846-13.426s-6.646-10.484-14.846-9.359-14.847,7.131-14.847,13.426,6.646,10.478,14.847,9.359" transform="translate(222.58 416.581)" fill="#fff"/>
          <path id="Trazado_610823" data-name="Trazado 610823" d="M214.271,164.29c8.417-1.151,15.239-7.322,15.239-13.783s-6.822-10.767-15.239-9.611-15.24,7.322-15.24,13.782,6.822,10.761,15.24,9.611" transform="translate(264.069 410.842)" fill="#fff"/>
          <path id="Trazado_610824" data-name="Trazado 610824" d="M220,162.85c8.273-1.132,14.975-7.2,14.975-13.542s-6.7-10.577-14.975-9.445-14.975,7.193-14.975,13.542,6.7,10.577,14.975,9.445" transform="translate(306.133 405.533)" fill="#fff"/>
          <path id="Trazado_610825" data-name="Trazado 610825" d="M225.037,160.283c7.688-1.052,13.916-6.688,13.916-12.589s-6.229-9.826-13.916-8.774-13.917,6.688-13.917,12.589,6.229,9.826,13.917,8.774" transform="translate(348.892 400.747)" fill="#fff"/>
          <path id="Trazado_610826" data-name="Trazado 610826" d="M229.609,156.96c6.806-.935,12.322-5.925,12.322-11.149s-5.515-8.706-12.322-7.771-12.329,5.925-12.329,11.149,5.523,8.7,12.329,7.771" transform="translate(392.114 396.305)" fill="#fff"/>
          <path id="Trazado_610827" data-name="Trazado 610827" d="M233.943,153.26c5.78-.794,10.47-5.033,10.47-9.469s-4.69-7.4-10.47-6.6-10.47,5.033-10.47,9.469,4.69,7.4,10.47,6.6" transform="translate(435.568 392.037)" fill="#fff"/>
          <path id="Trazado_610828" data-name="Trazado 610828" d="M238.052,149.185c4.609-.634,8.353-4.012,8.353-7.55s-3.744-5.9-8.353-5.267-8.353,4.012-8.353,7.549,3.744,5.9,8.353,5.267" transform="translate(479.253 387.941)" fill="#fff"/>
          <path id="Trazado_610829" data-name="Trazado 610829" d="M242.036,144.92c3.367-.461,6.092-2.929,6.092-5.513s-2.726-4.307-6.092-3.846-6.093,2.929-6.093,5.513,2.726,4.307,6.093,3.845" transform="translate(523.064 383.93)" fill="#fff"/>
          <path id="Trazado_610830" data-name="Trazado 610830" d="M246.033,140.657c2.124-.289,3.84-1.846,3.84-3.476s-1.716-2.713-3.84-2.424-3.848,1.846-3.848,3.476,1.724,2.713,3.848,2.424" transform="translate(566.861 379.924)" fill="#fff"/>
          <path id="Trazado_610831" data-name="Trazado 610831" d="M250.016,136.392a1.711,1.711,0,0,0,1.587-1.44c0-.671-.714-1.12-1.587-1a1.7,1.7,0,0,0-1.587,1.44c0,.677.705,1.126,1.587,1" transform="translate(610.673 375.913)" fill="#fff"/>
          <path id="Trazado_610832" data-name="Trazado 610832" d="M254.7,133.258a.139.139,0,0,0,.128-.123c0-.055-.056-.092-.128-.08a.139.139,0,0,0-.128.117.1.1,0,0,0,.128.086" transform="translate(653.782 371.387)" fill="#fff"/>
          <path id="Trazado_610833" data-name="Trazado 610833" d="M153.587,157.675c.216-.031.4-.191.4-.357s-.184-.283-.4-.252-.4.191-.4.357.184.283.4.252" transform="translate(-57.605 495.1)" fill="#fff"/>
          <path id="Trazado_610834" data-name="Trazado 610834" d="M160.938,158.871a2.132,2.132,0,0,0,1.988-1.8c0-.843-.89-1.4-1.988-1.255a2.132,2.132,0,0,0-1.988,1.8c0,.843.89,1.4,1.988,1.255" transform="translate(-17.161 488.576)" fill="#fff"/>
          <path id="Trazado_610835" data-name="Trazado 610835" d="M168.64,160.632c2.2-.3,3.976-1.913,3.976-3.593s-1.78-2.812-3.976-2.51-3.976,1.913-3.976,3.6,1.78,2.806,3.976,2.5" transform="translate(22.931 481.8)" fill="#fff"/>
          <path id="Trazado_610836" data-name="Trazado 610836" d="M176.342,162.392c3.295-.449,5.965-2.867,5.965-5.4s-2.67-4.209-5.965-3.76-5.964,2.867-5.964,5.4,2.669,4.209,5.964,3.76" transform="translate(63.024 475.019)" fill="#fff"/>
          <path id="Trazado_610837" data-name="Trazado 610837" d="M183.925,163.965c4.321-.591,7.816-3.759,7.816-7.07s-3.5-5.525-7.816-4.935-7.816,3.76-7.816,7.076,3.5,5.519,7.816,4.928" transform="translate(103.236 468.327)" fill="#fff"/>
          <path id="Trazado_610838" data-name="Trazado 610838" d="M191.284,165.161c5.195-.714,9.411-4.522,9.411-8.509s-4.216-6.645-9.411-5.937-9.411,4.522-9.411,8.516,4.217,6.645,9.411,5.931" transform="translate(143.672 461.809)" fill="#fff"/>
          <path id="Trazado_610839" data-name="Trazado 610839" d="M198.4,165.979c5.932-.812,10.734-5.162,10.734-9.709s-4.8-7.58-10.734-6.768-10.734,5.156-10.734,9.709,4.8,7.58,10.734,6.768" transform="translate(184.347 455.466)" fill="#fff"/>
          <path id="Trazado_610840" data-name="Trazado 610840" d="M205.06,166.047c6.365-.874,11.528-5.537,11.528-10.429s-5.163-8.14-11.528-7.273-11.528,5.544-11.528,10.429,5.163,8.146,11.528,7.273" transform="translate(225.485 449.466)" fill="#fff"/>
          <path id="Trazado_610841" data-name="Trazado 610841" d="M211.253,165.36c6.517-.892,11.792-5.667,11.792-10.669s-5.275-8.331-11.792-7.439-11.792,5.673-11.792,10.669,5.275,8.331,11.792,7.439" transform="translate(267.086 443.81)" fill="#fff"/>
          <path id="Trazado_610842" data-name="Trazado 610842" d="M216.984,163.92c6.365-.874,11.528-5.544,11.528-10.429s-5.163-8.14-11.528-7.273-11.528,5.544-11.528,10.429,5.163,8.146,11.528,7.273" transform="translate(309.15 438.506)" fill="#fff"/>
          <path id="Trazado_610843" data-name="Trazado 610843" d="M222.251,161.725c5.932-.812,10.734-5.156,10.734-9.709s-4.8-7.58-10.734-6.768-10.734,5.156-10.734,9.709,4.8,7.58,10.734,6.768" transform="translate(351.678 433.546)" fill="#fff"/>
          <path id="Trazado_610844" data-name="Trazado 610844" d="M227.167,158.968c5.267-.72,9.54-4.584,9.54-8.632s-4.273-6.737-9.54-6.018-9.539,4.59-9.539,8.633,4.273,6.737,9.539,6.018" transform="translate(394.556 428.839)" fill="#fff"/>
          <path id="Trazado_610845" data-name="Trazado 610845" d="M231.739,155.646c4.393-.6,7.952-3.821,7.952-7.193s-3.559-5.618-7.952-5.015-7.952,3.821-7.952,7.193,3.559,5.617,7.952,5.015" transform="translate(437.771 424.402)" fill="#fff"/>
          <path id="Trazado_610846" data-name="Trazado 610846" d="M236.074,151.946c3.367-.461,6.092-2.929,6.092-5.513s-2.726-4.307-6.092-3.846-6.093,2.929-6.093,5.513,2.726,4.307,6.093,3.845" transform="translate(481.231 420.134)" fill="#fff"/>
          <path id="Trazado_610847" data-name="Trazado 610847" d="M240.3,148.058c2.268-.314,4.1-1.975,4.1-3.716s-1.836-2.9-4.1-2.59-4.1,1.975-4.1,3.716,1.836,2.9,4.1,2.59" transform="translate(524.804 415.949)" fill="#fff"/>
          <path id="Trazado_610848" data-name="Trazado 610848" d="M244.525,144.171a2.276,2.276,0,0,0,2.116-1.92c0-.9-.946-1.5-2.116-1.335a2.286,2.286,0,0,0-2.125,1.92c0,.9.954,1.5,2.125,1.335" transform="translate(568.37 411.771)" fill="#fff"/>
          <path id="Trazado_610849" data-name="Trazado 610849" d="M248.978,140.658c.216-.031.4-.191.4-.357s-.185-.283-.4-.252-.4.191-.4.357.185.283.4.252" transform="translate(611.711 407.413)" fill="#fff"/>
          <path id="Trazado_610850" data-name="Trazado 610850" d="M159.661,162.763a.573.573,0,0,0,.529-.48c0-.228-.241-.376-.529-.332a.567.567,0,0,0-.529.48c0,.221.24.375.529.332" transform="translate(-15.884 520.254)" fill="#fff"/>
          <path id="Trazado_610851" data-name="Trazado 610851" d="M166.9,163.77a2.132,2.132,0,0,0,1.988-1.8c0-.843-.89-1.4-1.988-1.255a2.132,2.132,0,0,0-1.988,1.8c0,.843.89,1.4,1.988,1.255" transform="translate(24.671 513.82)" fill="#fff"/>
          <path id="Trazado_610852" data-name="Trazado 610852" d="M174.371,165.154c2.052-.283,3.712-1.784,3.712-3.36s-1.659-2.615-3.712-2.338-3.712,1.784-3.712,3.359,1.659,2.621,3.712,2.338" transform="translate(64.995 507.212)" fill="#fff"/>
          <path id="Trazado_610853" data-name="Trazado 610853" d="M181.61,166.16c2.854-.388,5.171-2.486,5.171-4.676s-2.317-3.649-5.171-3.255-5.171,2.48-5.171,4.67,2.317,3.655,5.171,3.261" transform="translate(105.551 500.785)" fill="#fff"/>
          <path id="Trazado_610854" data-name="Trazado 610854" d="M188.849,167.169c3.655-.5,6.63-3.187,6.63-5.993s-2.974-4.682-6.63-4.178-6.63,3.181-6.63,5.993,2.966,4.676,6.63,4.178" transform="translate(146.107 494.35)" fill="#fff"/>
          <path id="Trazado_610855" data-name="Trazado 610855" d="M195.737,167.612c4.241-.578,7.688-3.692,7.688-6.953s-3.447-5.427-7.688-4.849-7.688,3.7-7.688,6.953,3.439,5.433,7.688,4.848" transform="translate(187.013 488.178)" fill="#fff"/>
          <path id="Trazado_610856" data-name="Trazado 610856" d="M202.281,167.49c4.61-.634,8.353-4.012,8.353-7.549s-3.744-5.9-8.353-5.267-8.353,4.012-8.353,7.55,3.744,5.9,8.353,5.267" transform="translate(228.264 482.264)" fill="#fff"/>
          <path id="Trazado_610857" data-name="Trazado 610857" d="M208.475,166.8c4.762-.652,8.618-4.141,8.618-7.79s-3.856-6.085-8.618-5.433-8.618,4.141-8.618,7.789,3.856,6.085,8.618,5.433" transform="translate(269.865 476.609)" fill="#fff"/>
          <path id="Trazado_610858" data-name="Trazado 610858" d="M214.205,165.363c4.609-.634,8.353-4.011,8.353-7.549s-3.744-5.9-8.353-5.267-8.353,4.011-8.353,7.549,3.744,5.9,8.353,5.267" transform="translate(311.929 471.304)" fill="#fff"/>
          <path id="Trazado_610859" data-name="Trazado 610859" d="M219.585,163.358c4.241-.578,7.688-3.692,7.688-6.953s-3.447-5.427-7.688-4.848-7.688,3.7-7.688,6.953,3.439,5.427,7.688,4.848" transform="translate(354.344 466.252)" fill="#fff"/>
          <path id="Trazado_610860" data-name="Trazado 610860" d="M224.621,160.787c3.656-.5,6.63-3.187,6.63-5.993s-2.974-4.682-6.63-4.178-6.63,3.181-6.63,5.993,2.966,4.676,6.63,4.178" transform="translate(397.103 461.47)" fill="#fff"/>
          <path id="Trazado_610861" data-name="Trazado 610861" d="M229.417,157.843c2.926-.4,5.3-2.547,5.3-4.793s-2.373-3.747-5.3-3.347-5.3,2.547-5.3,4.8,2.373,3.741,5.3,3.341" transform="translate(440.093 456.852)" fill="#fff"/>
          <path id="Trazado_610862" data-name="Trazado 610862" d="M234.1,154.707c2.124-.289,3.84-1.846,3.84-3.476s-1.716-2.714-3.84-2.424-3.84,1.846-3.84,3.476,1.716,2.713,3.84,2.424" transform="translate(483.203 452.322)" fill="#fff"/>
          <path id="Trazado_610863" data-name="Trazado 610863" d="M238.556,151.2a2.276,2.276,0,0,0,2.116-1.92c0-.9-.946-1.5-2.116-1.335a2.276,2.276,0,0,0-2.117,1.92c0,.9.946,1.5,2.117,1.335" transform="translate(526.544 447.97)" fill="#fff"/>
          <path id="Trazado_610864" data-name="Trazado 610864" d="M243.128,147.872a.573.573,0,0,0,.529-.48c0-.221-.24-.375-.529-.332a.56.56,0,0,0-.529.48c0,.221.232.375.529.332" transform="translate(569.766 443.528)" fill="#fff"/>
          <path id="Trazado_610865" data-name="Trazado 610865" d="M165.511,167.471c.217-.031.4-.191.4-.357s-.184-.283-.4-.252-.4.191-.4.357.184.283.4.252" transform="translate(26.061 545.577)" fill="#fff"/>
          <path id="Trazado_610866" data-name="Trazado 610866" d="M172.4,167.917a1.573,1.573,0,0,0,1.459-1.317c0-.621-.657-1.034-1.459-.923A1.572,1.572,0,0,0,170.94,167c0,.615.657,1.027,1.459.917" transform="translate(66.967 539.403)" fill="#fff"/>
          <path id="Trazado_610867" data-name="Trazado 610867" d="M179.519,168.734c1.539-.209,2.782-1.335,2.782-2.517s-1.243-1.969-2.782-1.754-2.782,1.335-2.782,2.517,1.243,1.963,2.782,1.754" transform="translate(107.642 533.061)" fill="#fff"/>
          <path id="Trazado_610868" data-name="Trazado 610868" d="M186.414,169.178c2.124-.289,3.84-1.846,3.84-3.476s-1.715-2.714-3.84-2.424-3.848,1.846-3.848,3.476,1.724,2.713,3.848,2.424" transform="translate(148.542 526.889)" fill="#fff"/>
          <path id="Trazado_610869" data-name="Trazado 610869" d="M193.183,169.43c2.637-.363,4.77-2.295,4.77-4.313s-2.132-3.372-4.77-3.009-4.77,2.289-4.77,4.313,2.132,3.372,4.77,3.009" transform="translate(189.567 520.803)" fill="#fff"/>
          <path id="Trazado_610870" data-name="Trazado 610870" d="M199.608,169.119c2.926-.4,5.3-2.547,5.3-4.793s-2.373-3.747-5.3-3.341-5.3,2.547-5.3,4.793,2.373,3.741,5.3,3.341" transform="translate(230.937 514.974)" fill="#fff"/>
          <path id="Trazado_610871" data-name="Trazado 610871" d="M205.689,168.246c3-.412,5.435-2.609,5.435-4.916s-2.437-3.833-5.435-3.427-5.436,2.615-5.436,4.916,2.437,3.839,5.436,3.427" transform="translate(272.65 509.405)" fill="#fff"/>
          <path id="Trazado_610872" data-name="Trazado 610872" d="M211.532,167c2.926-.4,5.3-2.547,5.3-4.793s-2.373-3.747-5.3-3.347-5.3,2.547-5.3,4.8,2.373,3.741,5.3,3.341" transform="translate(314.602 504.011)" fill="#fff"/>
          <path id="Trazado_610873" data-name="Trazado 610873" d="M217.031,165.176c2.637-.363,4.77-2.3,4.77-4.313s-2.133-3.372-4.77-3.009-4.77,2.289-4.77,4.313,2.132,3.372,4.77,3.009" transform="translate(356.898 498.883)" fill="#fff"/>
          <path id="Trazado_610874" data-name="Trazado 610874" d="M222.3,162.985c2.2-.3,3.976-1.913,3.976-3.6s-1.78-2.806-3.976-2.5-3.976,1.914-3.976,3.593,1.78,2.812,3.976,2.51" transform="translate(399.425 493.919)" fill="#fff"/>
          <path id="Trazado_610875" data-name="Trazado 610875" d="M227.214,160.226c1.539-.209,2.782-1.335,2.782-2.516s-1.243-1.969-2.782-1.754-2.782,1.335-2.782,2.517,1.243,1.963,2.782,1.754" transform="translate(442.297 489.22)" fill="#fff"/>
          <path id="Trazado_610876" data-name="Trazado 610876" d="M232.13,157.468a1.7,1.7,0,0,0,1.587-1.44c0-.671-.706-1.12-1.587-1a1.7,1.7,0,0,0-1.587,1.44c0,.677.705,1.126,1.587,1" transform="translate(485.175 484.515)" fill="#fff"/>
          <path id="Trazado_610877" data-name="Trazado 610877" d="M237.054,154.709c.216-.031.4-.191.4-.357s-.185-.283-.4-.252-.4.191-.4.357.184.283.4.252" transform="translate(528.046 479.816)" fill="#fff"/>
          <path id="Trazado_610878" data-name="Trazado 610878" d="M171.234,172a.139.139,0,0,0,.128-.117c0-.062-.056-.1-.128-.086s-.128.062-.128.117.056.1.128.086" transform="translate(68.132 570.993)" fill="#fff"/>
          <path id="Trazado_610879" data-name="Trazado 610879" d="M177.666,171.682a.713.713,0,0,0,.665-.6c0-.283-.3-.468-.665-.418a.707.707,0,0,0-.665.6c0,.283.3.467.665.418" transform="translate(109.495 565.166)" fill="#fff"/>
          <path id="Trazado_610880" data-name="Trazado 610880" d="M184.323,171.752a1.573,1.573,0,0,0,1.459-1.317c0-.621-.657-1.034-1.459-.923a1.564,1.564,0,0,0-1.459,1.323c0,.615.649,1.027,1.459.917" transform="translate(150.632 559.165)" fill="#fff"/>
          <path id="Trazado_610881" data-name="Trazado 610881" d="M190.86,171.628a2.276,2.276,0,0,0,2.116-1.92c0-.9-.946-1.5-2.116-1.335a2.276,2.276,0,0,0-2.116,1.92c0,.9.946,1.5,2.116,1.335" transform="translate(191.89 553.253)" fill="#fff"/>
          <path id="Trazado_610882" data-name="Trazado 610882" d="M197.173,171.128a2.711,2.711,0,0,0,2.517-2.277c0-1.071-1.13-1.778-2.517-1.587a2.7,2.7,0,0,0-2.517,2.277c0,1.065,1.13,1.778,2.517,1.587" transform="translate(233.372 547.513)" fill="#fff"/>
          <path id="Trazado_610883" data-name="Trazado 610883" d="M203.255,170.253a2.85,2.85,0,0,0,2.653-2.4c0-1.12-1.186-1.87-2.653-1.667a2.845,2.845,0,0,0-2.654,2.393c0,1.126,1.186,1.877,2.654,1.673" transform="translate(275.085 541.947)" fill="#fff"/>
          <path id="Trazado_610884" data-name="Trazado 610884" d="M209.1,169a2.7,2.7,0,0,0,2.517-2.276c0-1.071-1.122-1.778-2.517-1.588a2.711,2.711,0,0,0-2.517,2.277c0,1.064,1.13,1.778,2.517,1.587" transform="translate(317.037 536.553)" fill="#fff"/>
          <path id="Trazado_610885" data-name="Trazado 610885" d="M214.715,167.374a2.276,2.276,0,0,0,2.116-1.92c0-.9-.946-1.5-2.116-1.335a2.285,2.285,0,0,0-2.124,1.92c0,.9.954,1.5,2.124,1.335" transform="translate(359.213 531.333)" fill="#fff"/>
          <path id="Trazado_610886" data-name="Trazado 610886" d="M220.1,165.371a1.572,1.572,0,0,0,1.459-1.317c0-.621-.657-1.034-1.459-.923a1.564,1.564,0,0,0-1.459,1.323c0,.615.649,1.028,1.459.917" transform="translate(401.629 526.284)" fill="#fff"/>
          <path id="Trazado_610887" data-name="Trazado 610887" d="M225.361,163.174a.713.713,0,0,0,.665-.6c0-.283-.3-.468-.665-.418a.708.708,0,0,0-.665.6c0,.283.3.468.665.419" transform="translate(444.149 521.325)" fill="#fff"/>
          <path id="Trazado_610888" data-name="Trazado 610888" d="M230.853,161.359a.139.139,0,0,0,.128-.123c0-.055-.056-.092-.128-.08a.138.138,0,0,0-.128.117c0,.062.056.1.128.086" transform="translate(486.452 516.187)" fill="#fff"/>
          <path id="Trazado_610889" data-name="Trazado 610889" d="M189.127,174.766a.139.139,0,0,0,.128-.123c0-.055-.056-.092-.128-.08a.142.142,0,0,0-.136.117.108.108,0,0,0,.136.086" transform="translate(193.623 585.272)" fill="#fff"/>
          <path id="Trazado_610890" data-name="Trazado 610890" d="M195.321,174.078a.434.434,0,0,0,.4-.363c0-.166-.185-.277-.4-.246s-.4.191-.4.357.184.283.4.252" transform="translate(235.224 579.622)" fill="#fff"/>
          <path id="Trazado_610891" data-name="Trazado 610891" d="M201.283,173.014a.434.434,0,0,0,.4-.363c0-.166-.184-.277-.4-.246s-.4.191-.4.357.184.283.4.252" transform="translate(277.057 574.139)" fill="#fff"/>
          <path id="Trazado_610892" data-name="Trazado 610892" d="M207.245,171.95c.217-.031.4-.191.4-.357s-.184-.283-.4-.252-.4.191-.4.357.184.283.4.252" transform="translate(318.889 568.657)" fill="#fff"/>
          <path id="Trazado_610893" data-name="Trazado 610893" d="M213.088,170.7a.287.287,0,0,0,.265-.24c0-.111-.12-.185-.265-.166a.281.281,0,0,0-.265.24c0,.111.12.185.265.166" transform="translate(360.841 563.264)" fill="#fff"/>
        </g>
      </g>
    </g>
  </g>
</svg>
