<svg xmlns="http://www.w3.org/2000/svg" xmlns:xlink="http://www.w3.org/1999/xlink" width="1328" height="613.96" viewBox="0 0 1328 613.96">
  <defs>
    <linearGradient id="linear-gradient" x1="0.5" y1="1" x2="0.5" gradientUnits="objectBoundingBox">
      <stop offset="0" stop-color="#fff4e9"/>
      <stop offset="1" stop-color="#fff"/>
    </linearGradient>
    <linearGradient id="linear-gradient-2" y1="0" y2="1" xlink:href="#linear-gradient"/>
    <clipPath id="clip-path">
      <path id="Trazado_611582" data-name="Trazado 611582" d="M1328,0H0V597.037H1328Z" fill="#fffde6"/>
    </clipPath>
    <clipPath id="clip-path-2">
      <path id="Trazado_611924" data-name="Trazado 611924" d="M1328,0H0V601.583H1328Z" fill="#fffde6"/>
    </clipPath>
    <clipPath id="clip-path-3">
      <rect id="Rect치ngulo_378020" data-name="Rect치ngulo 378020" width="695.391" height="700.064" fill="#fff"/>
    </clipPath>
  </defs>
  <g id="Grupo_1073611" data-name="Grupo 1073611" transform="translate(-136 -4099.966)">
    <g id="Grupo_1072955" data-name="Grupo 1072955" transform="translate(136 4112.925)">
      <g id="Grupo_1072201" data-name="Grupo 1072201">
        <path id="Trazado_609286" data-name="Trazado 609286" d="M1328,0H0V597.037H1328Z" fill="#fff4e9"/>
        <path id="Trazado_609287" data-name="Trazado 609287" d="M0,97H1328V0H0Z" fill="url(#linear-gradient)"/>
        <rect id="Rect치ngulo_377725" data-name="Rect치ngulo 377725" width="1328" height="97" transform="translate(0 504)" fill="url(#linear-gradient-2)"/>
      </g>
    </g>
    <g id="Enmascarar_grupo_154389" data-name="Enmascarar grupo 154389" transform="translate(136 4099.966)" clip-path="url(#clip-path-2)">
      <g id="Grupo_1072957" data-name="Grupo 1072957" transform="translate(979.33 -52.958)">
        <g id="Grupo_1072956" data-name="Grupo 1072956" clip-path="url(#clip-path-3)">
          <path id="Trazado_611583" data-name="Trazado 611583" d="M189.084,55.512a.117.117,0,0,1-.093-.113.073.073,0,0,1,.093-.074.116.116,0,0,1,.1.108.081.081,0,0,1-.1.079" transform="translate(228.093 -31.21)" fill="#fff"/>
          <path id="Trazado_611584" data-name="Trazado 611584" d="M195.129,54.619a.237.237,0,0,1-.192-.221.157.157,0,0,1,.192-.153.237.237,0,0,1,.192.221.157.157,0,0,1-.192.153" transform="translate(187.307 -36.251)" fill="#fff"/>
          <path id="Trazado_611585" data-name="Trazado 611585" d="M201.173,53.728a.359.359,0,0,1-.291-.334.234.234,0,0,1,.291-.227.358.358,0,0,1,.291.329.235.235,0,0,1-.291.232" transform="translate(146.522 -41.294)" fill="#fff"/>
          <path id="Trazado_611586" data-name="Trazado 611586" d="M207.053,52.492a.237.237,0,0,1-.192-.221.157.157,0,0,1,.192-.153.237.237,0,0,1,.192.221.157.157,0,0,1-.192.153" transform="translate(105.901 -46.179)" fill="#fff"/>
          <path id="Trazado_611587" data-name="Trazado 611587" d="M212.932,51.257a.115.115,0,0,1-.093-.108.074.074,0,0,1,.093-.079.121.121,0,0,1,.1.108.079.079,0,0,1-.1.079" transform="translate(65.281 -51.07)" fill="#fff"/>
          <path id="Trazado_611588" data-name="Trazado 611588" d="M171.2,64.664a.117.117,0,0,1-.093-.113.073.073,0,0,1,.093-.074.115.115,0,0,1,.093.108.077.077,0,0,1-.093.079" transform="translate(350.201 11.505)" fill="#fff"/>
          <path id="Trazado_611589" data-name="Trazado 611589" d="M177.4,64.116a.469.469,0,0,1-.385-.442.309.309,0,0,1,.385-.306.47.47,0,0,1,.384.442.311.311,0,0,1-.384.306" transform="translate(309.257 6.307)" fill="#fff"/>
          <path id="Trazado_611590" data-name="Trazado 611590" d="M183.765,63.914a1.064,1.064,0,0,1-.868-.992.7.7,0,0,1,.868-.7,1.07,1.07,0,0,1,.868,1,.7.7,0,0,1-.868.691" transform="translate(268.153 0.948)" fill="#fff"/>
          <path id="Trazado_611591" data-name="Trazado 611591" d="M190.122,63.711a1.649,1.649,0,0,1-1.346-1.547,1.086,1.086,0,0,1,1.346-1.077,1.655,1.655,0,0,1,1.352,1.547,1.09,1.09,0,0,1-1.352,1.077" transform="translate(227.055 -4.408)" fill="#fff"/>
          <path id="Trazado_611592" data-name="Trazado 611592" d="M196.409,63.334a2.124,2.124,0,0,1-1.737-1.989,1.4,1.4,0,0,1,1.737-1.383,2.123,2.123,0,0,1,1.737,1.984,1.4,1.4,0,0,1-1.737,1.389" transform="translate(186.028 -9.681)" fill="#fff"/>
          <path id="Trazado_611593" data-name="Trazado 611593" d="M202.448,62.443a2.239,2.239,0,0,1-1.83-2.1,1.475,1.475,0,0,1,1.83-1.462,2.239,2.239,0,0,1,1.83,2.1,1.48,1.48,0,0,1-1.83,1.462" transform="translate(145.248 -14.724)" fill="#fff"/>
          <path id="Trazado_611594" data-name="Trazado 611594" d="M208.333,61.207a2.124,2.124,0,0,1-1.737-1.989,1.4,1.4,0,0,1,1.737-1.383,2.124,2.124,0,0,1,1.736,1.989,1.4,1.4,0,0,1-1.736,1.383" transform="translate(104.622 -19.609)" fill="#fff"/>
          <path id="Trazado_611595" data-name="Trazado 611595" d="M214.053,59.628a1.765,1.765,0,0,1-1.445-1.655,1.169,1.169,0,0,1,1.445-1.156,1.77,1.77,0,0,1,1.445,1.655,1.169,1.169,0,0,1-1.445,1.156" transform="translate(64.16 -24.337)" fill="#fff"/>
          <path id="Trazado_611596" data-name="Trazado 611596" d="M219.614,57.706a1.181,1.181,0,0,1-.961-1.105.78.78,0,0,1,.961-.771,1.185,1.185,0,0,1,.962,1.105.78.78,0,0,1-.962.771" transform="translate(23.858 -28.91)" fill="#fff"/>
          <path id="Trazado_611597" data-name="Trazado 611597" d="M225.18,55.778a.59.59,0,0,1-.484-.55.39.39,0,0,1,.484-.385.59.59,0,0,1,.484.55.39.39,0,0,1-.484.385" transform="translate(-16.442 -33.483)" fill="#fff"/>
          <path id="Trazado_611598" data-name="Trazado 611598" d="M230.818,54.029a.117.117,0,0,1-.093-.113.073.073,0,0,1,.093-.074.115.115,0,0,1,.093.108.076.076,0,0,1-.093.079" transform="translate(-56.822 -38.132)" fill="#fff"/>
          <path id="Trazado_611599" data-name="Trazado 611599" d="M165.319,71.86a.237.237,0,0,1-.192-.221.157.157,0,0,1,.192-.153.237.237,0,0,1,.192.221.157.157,0,0,1-.192.153" transform="translate(390.822 44.218)" fill="#fff"/>
          <path id="Trazado_611600" data-name="Trazado 611600" d="M171.919,72.176a1.181,1.181,0,0,1-.962-1.105.78.78,0,0,1,.962-.771,1.185,1.185,0,0,1,.961,1.105.78.78,0,0,1-.961.771" transform="translate(349.482 38.626)" fill="#fff"/>
          <path id="Trazado_611601" data-name="Trazado 611601" d="M178.682,72.831a2.36,2.36,0,0,1-1.929-2.21,1.556,1.556,0,0,1,1.929-1.536,2.354,2.354,0,0,1,1.929,2.2,1.557,1.557,0,0,1-1.929,1.542" transform="translate(307.978 32.881)" fill="#fff"/>
          <path id="Trazado_611602" data-name="Trazado 611602" d="M185.281,73.145a3.3,3.3,0,0,1-2.7-3.094,2.181,2.181,0,0,1,2.7-2.154,3.3,3.3,0,0,1,2.7,3.094,2.179,2.179,0,0,1-2.7,2.154" transform="translate(266.637 27.286)" fill="#fff"/>
          <path id="Trazado_611603" data-name="Trazado 611603" d="M191.721,73.114a4.01,4.01,0,0,1-3.275-3.752,2.645,2.645,0,0,1,3.275-2.618A4,4,0,0,1,195,70.5a2.645,2.645,0,0,1-3.275,2.618" transform="translate(225.456 21.854)" fill="#fff"/>
          <path id="Trazado_611604" data-name="Trazado 611604" d="M198,72.74a4.478,4.478,0,0,1-3.659-4.194A2.962,2.962,0,0,1,198,65.617a4.484,4.484,0,0,1,3.659,4.2A2.956,2.956,0,0,1,198,72.74" transform="translate(184.435 16.577)" fill="#fff"/>
          <path id="Trazado_611605" data-name="Trazado 611605" d="M204.123,72.021a4.715,4.715,0,0,1-3.852-4.415,3.113,3.113,0,0,1,3.852-3.083,4.722,4.722,0,0,1,3.852,4.421,3.112,3.112,0,0,1-3.852,3.077" transform="translate(143.573 11.453)" fill="#fff"/>
          <path id="Trazado_611606" data-name="Trazado 611606" d="M210.007,70.782a4.6,4.6,0,0,1-3.758-4.307,3.033,3.033,0,0,1,3.758-3,4.594,4.594,0,0,1,3.758,4.3,3.037,3.037,0,0,1-3.758,3" transform="translate(102.947 6.571)" fill="#fff"/>
          <path id="Trazado_611607" data-name="Trazado 611607" d="M215.651,69.03a4.126,4.126,0,0,1-3.374-3.865,2.725,2.725,0,0,1,3.374-2.692,4.125,4.125,0,0,1,3.374,3.865,2.725,2.725,0,0,1-3.374,2.692" transform="translate(62.562 1.919)" fill="#fff"/>
          <path id="Trazado_611608" data-name="Trazado 611608" d="M221.053,66.764a3.3,3.3,0,0,1-2.7-3.094,2.181,2.181,0,0,1,2.7-2.154,3.3,3.3,0,0,1,2.7,3.094,2.179,2.179,0,0,1-2.7,2.154" transform="translate(22.419 -2.496)" fill="#fff"/>
          <path id="Trazado_611609" data-name="Trazado 611609" d="M226.377,64.322a2.36,2.36,0,0,1-1.929-2.21,1.556,1.556,0,0,1,1.929-1.536,2.354,2.354,0,0,1,1.929,2.2,1.557,1.557,0,0,1-1.929,1.542" transform="translate(-17.639 -6.833)" fill="#fff"/>
          <path id="Trazado_611610" data-name="Trazado 611610" d="M231.619,61.713a1.3,1.3,0,0,1-1.061-1.213.858.858,0,0,1,1.061-.85,1.3,1.3,0,0,1,1.06,1.218.857.857,0,0,1-1.06.844" transform="translate(-57.623 -11.092)" fill="#fff"/>
          <path id="Trazado_611611" data-name="Trazado 611611" d="M236.944,59.27a.359.359,0,0,1-.291-.329.235.235,0,0,1,.291-.232.358.358,0,0,1,.291.329.235.235,0,0,1-.291.232" transform="translate(-97.689 -15.428)" fill="#fff"/>
          <path id="Trazado_611612" data-name="Trazado 611612" d="M159.439,79.058a.359.359,0,0,1-.291-.334.234.234,0,0,1,.291-.227.358.358,0,0,1,.291.329.235.235,0,0,1-.291.232" transform="translate(431.443 76.93)" fill="#fff"/>
          <path id="Trazado_611613" data-name="Trazado 611613" d="M166.274,79.889a1.649,1.649,0,0,1-1.346-1.547,1.086,1.086,0,0,1,1.346-1.077,1.655,1.655,0,0,1,1.352,1.547,1.09,1.09,0,0,1-1.352,1.077" transform="translate(389.867 71.1)" fill="#fff"/>
          <path id="Trazado_611614" data-name="Trazado 611614" d="M173.275,81.063a3.177,3.177,0,0,1-2.6-2.981,2.1,2.1,0,0,1,2.6-2.08,3.188,3.188,0,0,1,2.6,2.981,2.1,2.1,0,0,1-2.6,2.08" transform="translate(348.125 65.12)" fill="#fff"/>
          <path id="Trazado_611615" data-name="Trazado 611615" d="M180.115,81.892a4.478,4.478,0,0,1-3.659-4.194,2.962,2.962,0,0,1,3.659-2.93,4.484,4.484,0,0,1,3.659,4.2,2.956,2.956,0,0,1-3.659,2.924" transform="translate(306.544 59.292)" fill="#fff"/>
          <path id="Trazado_611616" data-name="Trazado 611616" d="M186.879,82.548a5.664,5.664,0,0,1-4.627-5.3,3.74,3.74,0,0,1,4.627-3.7,5.664,5.664,0,0,1,4.627,5.3,3.74,3.74,0,0,1-4.627,3.7" transform="translate(265.04 53.547)" fill="#fff"/>
          <path id="Trazado_611617" data-name="Trazado 611617" d="M193.478,82.863a6.607,6.607,0,0,1-5.4-6.183,4.363,4.363,0,0,1,5.4-4.313,6.612,6.612,0,0,1,5.4,6.183,4.36,4.36,0,0,1-5.4,4.313" transform="translate(223.699 47.955)" fill="#fff"/>
          <path id="Trazado_611618" data-name="Trazado 611618" d="M199.836,82.659a7.186,7.186,0,0,1-5.874-6.733,4.748,4.748,0,0,1,5.874-4.7,7.186,7.186,0,0,1,5.874,6.733,4.748,4.748,0,0,1-5.874,4.7" transform="translate(182.601 42.601)" fill="#fff"/>
          <path id="Trazado_611619" data-name="Trazado 611619" d="M205.962,81.939a7.434,7.434,0,0,1-6.072-6.954,4.9,4.9,0,0,1,6.072-4.851,7.434,7.434,0,0,1,6.072,6.954,4.907,4.907,0,0,1-6.072,4.851" transform="translate(141.734 37.477)" fill="#fff"/>
          <path id="Trazado_611620" data-name="Trazado 611620" d="M211.76,80.532a7.186,7.186,0,0,1-5.874-6.733,4.748,4.748,0,0,1,5.874-4.7,7.186,7.186,0,0,1,5.874,6.733,4.748,4.748,0,0,1-5.874,4.7" transform="translate(101.195 32.673)" fill="#fff"/>
          <path id="Trazado_611621" data-name="Trazado 611621" d="M217.4,78.78a6.723,6.723,0,0,1-5.489-6.291A4.44,4.44,0,0,1,217.4,68.1a6.718,6.718,0,0,1,5.489,6.3A4.434,4.434,0,0,1,217.4,78.78" transform="translate(60.81 28.021)" fill="#fff"/>
          <path id="Trazado_611622" data-name="Trazado 611622" d="M222.728,76.339a5.781,5.781,0,0,1-4.72-5.412,3.813,3.813,0,0,1,4.72-3.769,5.78,5.78,0,0,1,4.72,5.407,3.814,3.814,0,0,1-4.72,3.774" transform="translate(20.744 23.684)" fill="#fff"/>
          <path id="Trazado_611623" data-name="Trazado 611623" d="M227.893,73.556a4.605,4.605,0,0,1-3.759-4.307,3.04,3.04,0,0,1,3.759-3,4.605,4.605,0,0,1,3.758,4.307,3.039,3.039,0,0,1-3.758,3" transform="translate(-19.155 19.501)" fill="#fff"/>
          <path id="Trazado_611624" data-name="Trazado 611624" d="M232.894,70.427a3.177,3.177,0,0,1-2.6-2.981,2.1,2.1,0,0,1,2.6-2.08,3.182,3.182,0,0,1,2.6,2.981,2.1,2.1,0,0,1-2.6,2.08" transform="translate(-58.898 15.478)" fill="#fff"/>
          <path id="Trazado_611625" data-name="Trazado 611625" d="M237.9,67.3a1.765,1.765,0,0,1-1.445-1.655,1.169,1.169,0,0,1,1.445-1.156,1.765,1.765,0,0,1,1.445,1.655A1.169,1.169,0,0,1,237.9,67.3" transform="translate(-98.645 11.461)" fill="#fff"/>
          <path id="Trazado_611626" data-name="Trazado 611626" d="M242.984,64.341a.474.474,0,0,1-.385-.442.311.311,0,0,1,.385-.306.464.464,0,0,1,.385.442.309.309,0,0,1-.385.306" transform="translate(-138.469 7.357)" fill="#fff"/>
          <path id="Trazado_611627" data-name="Trazado 611627" d="M153.4,85.911a.237.237,0,0,1-.192-.221.157.157,0,0,1,.192-.153.232.232,0,0,1,.192.221.157.157,0,0,1-.192.153" transform="translate(472.228 109.799)" fill="#fff"/>
          <path id="Trazado_611628" data-name="Trazado 611628" d="M160.312,86.914a1.649,1.649,0,0,1-1.346-1.547,1.088,1.088,0,0,1,1.346-1.077,1.655,1.655,0,0,1,1.352,1.547,1.091,1.091,0,0,1-1.352,1.077" transform="translate(430.57 103.893)" fill="#fff"/>
          <path id="Trazado_611629" data-name="Trazado 611629" d="M167.472,88.431a3.414,3.414,0,0,1-2.791-3.2A2.255,2.255,0,0,1,167.472,83a3.414,3.414,0,0,1,2.791,3.2,2.255,2.255,0,0,1-2.791,2.233" transform="translate(388.669 97.752)" fill="#fff"/>
          <path id="Trazado_611630" data-name="Trazado 611630" d="M174.631,89.951a5.184,5.184,0,0,1-4.236-4.857,3.422,3.422,0,0,1,4.236-3.389,5.189,5.189,0,0,1,4.236,4.857,3.422,3.422,0,0,1-4.236,3.389" transform="translate(346.769 91.614)" fill="#fff"/>
          <path id="Trazado_611631" data-name="Trazado 611631" d="M181.713,91.3a6.833,6.833,0,0,1-5.588-6.4,4.517,4.517,0,0,1,5.588-4.466,6.849,6.849,0,0,1,5.588,6.4,4.517,4.517,0,0,1-5.588,4.466" transform="translate(304.946 85.553)" fill="#fff"/>
          <path id="Trazado_611632" data-name="Trazado 611632" d="M188.631,92.294a8.256,8.256,0,0,1-6.742-7.73c0-3.621,3.018-6.03,6.742-5.384a8.245,8.245,0,0,1,6.742,7.725c0,3.621-3.018,6.036-6.742,5.39" transform="translate(263.287 79.652)" fill="#fff"/>
          <path id="Trazado_611633" data-name="Trazado 611633" d="M195.312,92.782a9.32,9.32,0,0,1-7.61-8.722c0-4.086,3.409-6.812,7.61-6.081a9.321,9.321,0,0,1,7.61,8.722c0,4.086-3.409,6.812-7.61,6.081" transform="translate(221.865 73.979)" fill="#fff"/>
          <path id="Trazado_611634" data-name="Trazado 611634" d="M201.752,92.752a10.021,10.021,0,0,1-8.187-9.385c0-4.4,3.665-7.328,8.187-6.546a10.027,10.027,0,0,1,8.187,9.391c0,4.4-3.665,7.328-8.187,6.54" transform="translate(180.684 68.54)" fill="#fff"/>
          <path id="Trazado_611635" data-name="Trazado 611635" d="M207.873,92.032a10.259,10.259,0,0,1-8.379-9.606c0-4.5,3.753-7.5,8.379-6.7a10.264,10.264,0,0,1,8.379,9.606c0,4.506-3.753,7.5-8.379,6.7" transform="translate(139.822 63.423)" fill="#fff"/>
          <path id="Trazado_611636" data-name="Trazado 611636" d="M213.676,90.625a10.026,10.026,0,0,1-8.187-9.385c0-4.4,3.665-7.328,8.187-6.546a10.026,10.026,0,0,1,8.187,9.385c0,4.4-3.665,7.328-8.187,6.546" transform="translate(99.278 58.613)" fill="#fff"/>
          <path id="Trazado_611637" data-name="Trazado 611637" d="M219.236,88.7a9.432,9.432,0,0,1-7.7-8.835c0-4.137,3.45-6.891,7.7-6.155a9.436,9.436,0,0,1,7.709,8.83c0,4.143-3.455,6.9-7.709,6.16" transform="translate(58.977 54.045)" fill="#fff"/>
          <path id="Trazado_611638" data-name="Trazado 611638" d="M224.4,85.914a8.256,8.256,0,0,1-6.742-7.73c0-3.621,3.018-6.036,6.742-5.384a8.245,8.245,0,0,1,6.742,7.725c0,3.621-3.019,6.036-6.742,5.39" transform="translate(19.069 49.864)" fill="#fff"/>
          <path id="Trazado_611639" data-name="Trazado 611639" d="M229.485,82.959a6.954,6.954,0,0,1-5.681-6.512,4.591,4.591,0,0,1,5.681-4.545,6.955,6.955,0,0,1,5.681,6.517,4.59,4.59,0,0,1-5.681,4.54" transform="translate(-20.748 45.763)" fill="#fff"/>
          <path id="Trazado_611640" data-name="Trazado 611640" d="M234.332,79.486A5.306,5.306,0,0,1,230,74.516a3.5,3.5,0,0,1,4.335-3.463,5.306,5.306,0,0,1,4.335,4.97,3.5,3.5,0,0,1-4.335,3.463" transform="translate(-60.336 41.897)" fill="#fff"/>
          <path id="Trazado_611641" data-name="Trazado 611641" d="M239.1,75.841a3.54,3.54,0,0,1-2.89-3.31,2.336,2.336,0,0,1,2.89-2.312,3.54,3.54,0,0,1,2.89,3.31,2.336,2.336,0,0,1-2.89,2.312" transform="translate(-99.842 38.106)" fill="#fff"/>
          <path id="Trazado_611642" data-name="Trazado 611642" d="M243.862,72.2a1.765,1.765,0,0,1-1.445-1.655,1.169,1.169,0,0,1,1.445-1.156,1.77,1.77,0,0,1,1.445,1.655,1.169,1.169,0,0,1-1.445,1.156" transform="translate(-139.348 34.321)" fill="#fff"/>
          <path id="Trazado_611643" data-name="Trazado 611643" d="M248.868,69.067a.359.359,0,0,1-.292-.334.234.234,0,0,1,.292-.227.358.358,0,0,1,.291.329.235.235,0,0,1-.291.232" transform="translate(-179.095 30.298)" fill="#fff"/>
          <path id="Trazado_611644" data-name="Trazado 611644" d="M147.357,92.766a.128.128,0,0,1-.1-.108.081.081,0,0,1,.1-.079.121.121,0,0,1,.1.108.079.079,0,0,1-.1.079" transform="translate(513.001 142.666)" fill="#fff"/>
          <path id="Trazado_611645" data-name="Trazado 611645" d="M154.033,93.252a1.181,1.181,0,0,1-.962-1.105.78.78,0,0,1,.962-.771,1.186,1.186,0,0,1,.961,1.105.78.78,0,0,1-.961.771" transform="translate(471.591 136.995)" fill="#fff"/>
          <path id="Trazado_611646" data-name="Trazado 611646" d="M161.351,95.114a3.182,3.182,0,0,1-2.6-2.981,2.1,2.1,0,0,1,2.6-2.08,3.182,3.182,0,0,1,2.6,2.981,2.1,2.1,0,0,1-2.6,2.08" transform="translate(429.531 130.7)" fill="#fff"/>
          <path id="Trazado_611647" data-name="Trazado 611647" d="M168.669,96.976a5.189,5.189,0,0,1-4.236-4.857,3.422,3.422,0,0,1,4.236-3.389,5.189,5.189,0,0,1,4.236,4.857,3.422,3.422,0,0,1-4.236,3.389" transform="translate(387.472 124.402)" fill="#fff"/>
          <path id="Trazado_611648" data-name="Trazado 611648" d="M175.988,98.837a7.186,7.186,0,0,1-5.874-6.733,4.748,4.748,0,0,1,5.874-4.7,7.191,7.191,0,0,1,5.874,6.733,4.748,4.748,0,0,1-5.874,4.7" transform="translate(345.412 118.109)" fill="#fff"/>
          <path id="Trazado_611649" data-name="Trazado 611649" d="M183.229,100.526a9.078,9.078,0,0,1-7.418-8.5c0-3.984,3.321-6.636,7.418-5.928a9.078,9.078,0,0,1,7.418,8.5c0,3.984-3.321,6.636-7.418,5.928" transform="translate(303.43 111.891)" fill="#fff"/>
          <path id="Trazado_611650" data-name="Trazado 611650" d="M190.3,101.873c-4.842-.839-8.764-5.339-8.764-10.048s3.922-7.844,8.764-7,8.77,5.339,8.77,10.048-3.927,7.844-8.77,7" transform="translate(261.613 105.829)" fill="#fff"/>
          <path id="Trazado_611651" data-name="Trazado 611651" d="M197.228,102.875c-5.477-.952-9.923-6.041-9.923-11.374s4.446-8.875,9.923-7.929,9.924,6.041,9.924,11.374-4.44,8.881-9.924,7.928" transform="translate(219.949 99.925)" fill="#fff"/>
          <path id="Trazado_611652" data-name="Trazado 611652" d="M203.746,103.014c-5.85-1.014-10.594-6.455-10.594-12.145s4.743-9.481,10.594-8.467,10.594,6.455,10.594,12.145-4.743,9.481-10.594,8.467" transform="translate(178.691 94.413)" fill="#fff"/>
          <path id="Trazado_611653" data-name="Trazado 611653" d="M209.949,102.466c-6.014-1.043-10.885-6.631-10.885-12.474s4.871-9.742,10.885-8.7,10.885,6.625,10.885,12.474-4.872,9.742-10.885,8.7" transform="translate(137.746 89.214)" fill="#fff"/>
          <path id="Trazado_611654" data-name="Trazado 611654" d="M215.752,101.059c-5.909-1.026-10.693-6.512-10.693-12.253s4.784-9.572,10.693-8.546,10.693,6.512,10.693,12.253-4.784,9.572-10.693,8.546" transform="translate(97.203 84.404)" fill="#fff"/>
          <path id="Trazado_611655" data-name="Trazado 611655" d="M221.154,98.793c-5.53-.958-10.017-6.1-10.017-11.482s4.487-8.966,10.017-8.008,10.017,6.1,10.017,11.482-4.481,8.966-10.017,8.008" transform="translate(57.06 79.989)" fill="#fff"/>
          <path id="Trazado_611656" data-name="Trazado 611656" d="M226.16,95.663c-4.895-.85-8.863-5.4-8.863-10.156s3.968-7.934,8.863-7.084,8.863,5.4,8.863,10.156-3.968,7.934-8.863,7.084" transform="translate(17.312 75.966)" fill="#fff"/>
          <path id="Trazado_611657" data-name="Trazado 611657" d="M231.006,92.19a9.2,9.2,0,0,1-7.517-8.614c0-4.035,3.368-6.722,7.517-6a9.2,9.2,0,0,1,7.517,8.614c0,4.035-3.368,6.721-7.517,6" transform="translate(-22.269 72.1)" fill="#fff"/>
          <path id="Trazado_611658" data-name="Trazado 611658" d="M235.689,88.373a7.313,7.313,0,0,1-5.973-6.846,4.826,4.826,0,0,1,5.973-4.772,7.313,7.313,0,0,1,5.973,6.846,4.826,4.826,0,0,1-5.973,4.772" transform="translate(-61.693 68.391)" fill="#fff"/>
          <path id="Trazado_611659" data-name="Trazado 611659" d="M240.294,84.384a5.306,5.306,0,0,1-4.335-4.97,3.5,3.5,0,0,1,4.335-3.463,5.306,5.306,0,0,1,4.335,4.97,3.5,3.5,0,0,1-4.335,3.463" transform="translate(-101.039 64.757)" fill="#fff"/>
          <path id="Trazado_611660" data-name="Trazado 611660" d="M244.9,80.4a3.3,3.3,0,0,1-2.7-3.089,2.182,2.182,0,0,1,2.7-2.159,3.3,3.3,0,0,1,2.7,3.094,2.179,2.179,0,0,1-2.7,2.154" transform="translate(-140.386 61.129)" fill="#fff"/>
          <path id="Trazado_611661" data-name="Trazado 611661" d="M249.505,76.408a1.3,1.3,0,0,1-1.06-1.213.858.858,0,0,1,1.06-.85,1.3,1.3,0,0,1,1.06,1.213.856.856,0,0,1-1.06.85" transform="translate(-179.732 57.494)" fill="#fff"/>
          <path id="Trazado_611662" data-name="Trazado 611662" d="M254.666,73.622a.117.117,0,0,1-.093-.113.073.073,0,0,1,.093-.074.115.115,0,0,1,.093.108.074.074,0,0,1-.093.079" transform="translate(-219.634 53.315)" fill="#fff"/>
          <path id="Trazado_611663" data-name="Trazado 611663" d="M147.587,99.243a.469.469,0,0,1-.379-.442.306.306,0,0,1,.379-.306.469.469,0,0,1,.39.442.313.313,0,0,1-.39.306" transform="translate(512.772 170.256)" fill="#fff"/>
          <path id="Trazado_611664" data-name="Trazado 611664" d="M154.834,100.932a2.36,2.36,0,0,1-1.929-2.21,1.556,1.556,0,0,1,1.929-1.536,2.354,2.354,0,0,1,1.929,2.2,1.556,1.556,0,0,1-1.929,1.541" transform="translate(470.789 164.038)" fill="#fff"/>
          <path id="Trazado_611665" data-name="Trazado 611665" d="M162.229,102.965a4.478,4.478,0,0,1-3.659-4.194,2.956,2.956,0,0,1,3.659-2.924,4.478,4.478,0,0,1,3.659,4.194,2.956,2.956,0,0,1-3.659,2.924" transform="translate(428.653 157.664)" fill="#fff"/>
          <path id="Trazado_611666" data-name="Trazado 611666" d="M169.789,105.347a6.839,6.839,0,0,1-5.588-6.4,4.515,4.515,0,0,1,5.588-4.466,6.844,6.844,0,0,1,5.588,6.4,4.515,4.515,0,0,1-5.588,4.466" transform="translate(386.352 151.134)" fill="#fff"/>
          <path id="Trazado_611667" data-name="Trazado 611667" d="M177.267,107.551a9.078,9.078,0,0,1-7.418-8.5c0-3.984,3.321-6.636,7.418-5.928a9.078,9.078,0,0,1,7.418,8.5c0,3.984-3.322,6.636-7.418,5.928" transform="translate(344.133 144.679)" fill="#fff"/>
          <path id="Trazado_611668" data-name="Trazado 611668" d="M184.745,109.758c-5.11-.884-9.248-5.633-9.248-10.6s4.137-8.28,9.248-7.39,9.248,5.628,9.248,10.6-4.143,8.274-9.248,7.39" transform="translate(301.915 138.227)" fill="#fff"/>
          <path id="Trazado_611669" data-name="Trazado 611669" d="M192.063,111.618c-6.013-1.043-10.885-6.631-10.885-12.474s4.872-9.742,10.885-8.7,10.885,6.625,10.885,12.474-4.871,9.742-10.885,8.7" transform="translate(259.855 131.93)" fill="#fff"/>
          <path id="Trazado_611670" data-name="Trazado 611670" d="M199.145,112.965c-6.759-1.173-12.237-7.447-12.237-14.021s5.477-10.949,12.237-9.776,12.237,7.447,12.237,14.021-5.478,10.949-12.237,9.776" transform="translate(218.032 125.868)" fill="#fff"/>
          <path id="Trazado_611671" data-name="Trazado 611671" d="M205.821,113.451c-7.237-1.252-13.1-7.98-13.1-15.013s5.862-11.726,13.1-10.473,13.1,7.98,13.1,15.018-5.862,11.726-13.1,10.468" transform="translate(176.615 120.196)" fill="#fff"/>
          <path id="Trazado_611672" data-name="Trazado 611672" d="M212.1,113.075c-7.447-1.292-13.484-8.212-13.484-15.455s6.037-12.071,13.484-10.779,13.484,8.212,13.484,15.455-6.037,12.071-13.484,10.779" transform="translate(135.593 114.921)" fill="#fff"/>
          <path id="Trazado_611673" data-name="Trazado 611673" d="M217.827,111.5c-7.29-1.264-13.2-8.036-13.2-15.126s5.909-11.811,13.2-10.547,13.2,8.036,13.2,15.126-5.909,11.811-13.2,10.547" transform="translate(95.127 110.192)" fill="#fff"/>
          <path id="Trazado_611674" data-name="Trazado 611674" d="M223.07,108.883c-6.812-1.179-12.33-7.509-12.33-14.134s5.518-11.034,12.33-9.85,12.33,7.509,12.33,14.129-5.518,11.034-12.33,9.855" transform="translate(55.143 105.937)" fill="#fff"/>
          <path id="Trazado_611675" data-name="Trazado 611675" d="M227.917,105.41c-6.066-1.054-10.984-6.687-10.984-12.587S221.851,83,227.917,84.05,238.9,90.737,238.9,96.637s-4.918,9.827-10.984,8.773" transform="translate(15.555 102.071)" fill="#fff"/>
          <path id="Trazado_611676" data-name="Trazado 611676" d="M232.522,101.421c-5.163-.9-9.347-5.69-9.347-10.711s4.184-8.359,9.347-7.464,9.347,5.69,9.347,10.706-4.184,8.365-9.347,7.47" transform="translate(-23.784 98.438)" fill="#fff"/>
          <path id="Trazado_611677" data-name="Trazado 611677" d="M236.968,97.088a9.2,9.2,0,0,1-7.517-8.614c0-4.035,3.368-6.721,7.517-6a9.2,9.2,0,0,1,7.517,8.614c0,4.035-3.368,6.721-7.517,6" transform="translate(-62.972 94.961)" fill="#fff"/>
          <path id="Trazado_611678" data-name="Trazado 611678" d="M241.409,92.757a6.954,6.954,0,0,1-5.681-6.512,4.591,4.591,0,0,1,5.681-4.545,6.955,6.955,0,0,1,5.682,6.517,4.591,4.591,0,0,1-5.682,4.54" transform="translate(-102.154 91.488)" fill="#fff"/>
          <path id="Trazado_611679" data-name="Trazado 611679" d="M245.778,88.252a4.605,4.605,0,0,1-3.758-4.307,3.039,3.039,0,0,1,3.758-3,4.605,4.605,0,0,1,3.758,4.307,3.039,3.039,0,0,1-3.758,3" transform="translate(-141.264 88.092)" fill="#fff"/>
          <path id="Trazado_611680" data-name="Trazado 611680" d="M250.3,84.088a2.471,2.471,0,0,1-2.022-2.318,1.63,1.63,0,0,1,2.022-1.615,2.471,2.471,0,0,1,2.022,2.318,1.635,1.635,0,0,1-2.022,1.615" transform="translate(-180.529 84.538)" fill="#fff"/>
          <path id="Trazado_611681" data-name="Trazado 611681" d="M254.99,80.27a.591.591,0,0,1-.484-.555.389.389,0,0,1,.484-.38.584.584,0,0,1,.484.55.39.39,0,0,1-.484.385" transform="translate(-219.957 80.829)" fill="#fff"/>
          <path id="Trazado_611682" data-name="Trazado 611682" d="M147.988,106.067a1.065,1.065,0,0,1-.862-.992.7.7,0,0,1,.862-.7,1.07,1.07,0,0,1,.868,1,.7.7,0,0,1-.868.691" transform="translate(512.37 197.69)" fill="#fff"/>
          <path id="Trazado_611683" data-name="Trazado 611683" d="M155.471,108.273a3.3,3.3,0,0,1-2.7-3.094,2.181,2.181,0,0,1,2.7-2.154,3.3,3.3,0,0,1,2.7,3.094,2.179,2.179,0,0,1-2.7,2.154" transform="translate(470.152 191.24)" fill="#fff"/>
          <path id="Trazado_611684" data-name="Trazado 611684" d="M163.031,110.65a5.664,5.664,0,0,1-4.627-5.3,3.74,3.74,0,0,1,4.627-3.7,5.664,5.664,0,0,1,4.627,5.3,3.74,3.74,0,0,1-4.627,3.7" transform="translate(427.851 184.709)" fill="#fff"/>
          <path id="Trazado_611685" data-name="Trazado 611685" d="M170.745,113.375a8.256,8.256,0,0,1-6.742-7.73c0-3.621,3.018-6.036,6.742-5.39a8.256,8.256,0,0,1,6.742,7.73c0,3.621-3.018,6.036-6.742,5.39" transform="translate(385.396 178.016)" fill="#fff"/>
          <path id="Trazado_611686" data-name="Trazado 611686" d="M178.382,115.924c-4.842-.839-8.764-5.339-8.764-10.048s3.922-7.844,8.764-7,8.764,5.339,8.764,10.048-3.922,7.844-8.764,7" transform="translate(343.018 171.41)" fill="#fff"/>
          <path id="Trazado_611687" data-name="Trazado 611687" d="M186.1,118.644c-6.013-1.043-10.885-6.631-10.885-12.474s4.871-9.742,10.885-8.7,10.885,6.625,10.885,12.474-4.872,9.742-10.885,8.7" transform="translate(300.558 164.722)" fill="#fff"/>
          <path id="Trazado_611688" data-name="Trazado 611688" d="M193.661,121.025c-7.074-1.23-12.814-7.8-12.814-14.684s5.74-11.465,12.814-10.241,12.814,7.8,12.814,14.684-5.74,11.471-12.814,10.241" transform="translate(258.258 158.187)" fill="#fff"/>
          <path id="Trazado_611689" data-name="Trazado 611689" d="M200.979,122.886c-7.977-1.383-14.451-8.8-14.451-16.56S193,93.394,200.979,94.776s14.451,8.8,14.451,16.56-6.468,12.933-14.451,11.55" transform="translate(216.198 151.889)" fill="#fff"/>
          <path id="Trazado_611690" data-name="Trazado 611690" d="M207.979,124.061c-8.671-1.507-15.7-9.561-15.7-18s7.033-14.049,15.7-12.547,15.7,9.566,15.7,18-7.033,14.055-15.7,12.547" transform="translate(174.457 145.908)" fill="#fff"/>
          <path id="Trazado_611691" data-name="Trazado 611691" d="M214.259,123.685c-8.886-1.542-16.088-9.8-16.088-18.436s7.2-14.4,16.088-12.859,16.089,9.8,16.089,18.442-7.2,14.395-16.089,12.853" transform="translate(133.436 140.628)" fill="#fff"/>
          <path id="Trazado_611692" data-name="Trazado 611692" d="M219.9,121.931c-8.671-1.508-15.7-9.561-15.7-17.994s7.033-14.055,15.7-12.547,15.7,9.561,15.7,17.994-7.033,14.055-15.7,12.547" transform="translate(93.051 135.984)" fill="#fff"/>
          <path id="Trazado_611693" data-name="Trazado 611693" d="M224.9,118.8c-8.036-1.394-14.544-8.858-14.544-16.673s6.509-13.018,14.544-11.624,14.544,8.858,14.544,16.673S232.94,120.2,224.9,118.8" transform="translate(53.309 131.957)" fill="#fff"/>
          <path id="Trazado_611694" data-name="Trazado 611694" d="M229.51,114.816c-7.127-1.236-12.907-7.861-12.907-14.8s5.781-11.55,12.907-10.315,12.907,7.861,12.907,14.8-5.78,11.55-12.907,10.315" transform="translate(13.962 128.324)" fill="#fff"/>
          <path id="Trazado_611695" data-name="Trazado 611695" d="M233.878,110.308c-6.066-1.054-10.984-6.687-10.984-12.587s4.918-9.827,10.984-8.773,10.984,6.687,10.984,12.587-4.918,9.827-10.984,8.773" transform="translate(-25.141 124.931)" fill="#fff"/>
          <path id="Trazado_611696" data-name="Trazado 611696" d="M238.165,105.631c-4.947-.856-8.962-5.458-8.962-10.269s4.015-8.014,8.962-7.158,8.962,5.458,8.962,10.269-4.015,8.014-8.962,7.158" transform="translate(-64.169 121.612)" fill="#fff"/>
          <path id="Trazado_611697" data-name="Trazado 611697" d="M242.37,100.783a8.377,8.377,0,0,1-6.841-7.838c0-3.673,3.065-6.121,6.841-5.469a8.378,8.378,0,0,1,6.841,7.844c0,3.672-3.065,6.121-6.841,5.463" transform="translate(-103.115 118.372)" fill="#fff"/>
          <path id="Trazado_611698" data-name="Trazado 611698" d="M246.657,96.1a5.9,5.9,0,0,1-4.819-5.52,3.892,3.892,0,0,1,4.819-3.848,5.89,5.89,0,0,1,4.819,5.52,3.894,3.894,0,0,1-4.819,3.848" transform="translate(-142.143 115.055)" fill="#fff"/>
          <path id="Trazado_611699" data-name="Trazado 611699" d="M250.938,91.428a3.414,3.414,0,0,1-2.791-3.2,2.255,2.255,0,0,1,2.791-2.233,3.42,3.42,0,0,1,2.8,3.2,2.26,2.26,0,0,1-2.8,2.233" transform="translate(-181.165 111.74)" fill="#fff"/>
          <path id="Trazado_611700" data-name="Trazado 611700" d="M255.467,87.269a1.3,1.3,0,0,1-1.061-1.213.858.858,0,0,1,1.061-.85,1.3,1.3,0,0,1,1.061,1.218.857.857,0,0,1-1.061.844" transform="translate(-220.435 108.186)" fill="#fff"/>
          <path id="Trazado_611701" data-name="Trazado 611701" d="M141.4,111.715a.122.122,0,0,1-.1-.113.078.078,0,0,1,.1-.074.115.115,0,0,1,.093.108.077.077,0,0,1-.093.079" transform="translate(553.703 231.108)" fill="#fff"/>
          <path id="Trazado_611702" data-name="Trazado 611702" d="M148.4,112.889a1.661,1.661,0,0,1-1.352-1.547,1.093,1.093,0,0,1,1.352-1.077,1.643,1.643,0,0,1,1.346,1.547,1.083,1.083,0,0,1-1.346,1.077" transform="translate(511.962 225.127)" fill="#fff"/>
          <path id="Trazado_611703" data-name="Trazado 611703" d="M155.949,115.267a4.01,4.01,0,0,1-3.275-3.752,2.645,2.645,0,0,1,3.275-2.618,4,4,0,0,1,3.275,3.752,2.645,2.645,0,0,1-3.275,2.618" transform="translate(469.674 218.596)" fill="#fff"/>
          <path id="Trazado_611704" data-name="Trazado 611704" d="M163.668,117.99a6.607,6.607,0,0,1-5.4-6.183,4.363,4.363,0,0,1,5.4-4.313,6.612,6.612,0,0,1,5.4,6.183,4.36,4.36,0,0,1-5.4,4.313" transform="translate(427.214 211.905)" fill="#fff"/>
          <path id="Trazado_611705" data-name="Trazado 611705" d="M171.464,120.884a9.32,9.32,0,0,1-7.61-8.722c0-4.086,3.409-6.812,7.61-6.081a9.32,9.32,0,0,1,7.61,8.722c0,4.086-3.409,6.812-7.61,6.081" transform="translate(384.677 205.141)" fill="#fff"/>
          <path id="Trazado_611706" data-name="Trazado 611706" d="M179.342,123.951c-5.483-.952-9.923-6.041-9.923-11.374s4.44-8.875,9.923-7.929,9.924,6.047,9.924,11.374-4.446,8.881-9.924,7.929" transform="translate(342.058 198.294)" fill="#fff"/>
          <path id="Trazado_611707" data-name="Trazado 611707" d="M187.221,127.016c-6.759-1.173-12.237-7.447-12.237-14.021s5.477-10.949,12.237-9.776,12.237,7.447,12.237,14.021-5.477,10.949-12.237,9.776" transform="translate(299.438 191.448)" fill="#fff"/>
          <path id="Trazado_611708" data-name="Trazado 611708" d="M195.017,129.912c-7.977-1.383-14.451-8.8-14.451-16.56s6.474-12.933,14.451-11.55,14.451,8.8,14.451,16.56S203,131.3,195.017,129.912" transform="translate(256.901 184.681)" fill="#fff"/>
          <path id="Trazado_611709" data-name="Trazado 611709" d="M202.654,132.461c-9.1-1.581-16.473-10.031-16.473-18.878s7.377-14.746,16.473-13.165,16.473,10.031,16.473,18.878-7.377,14.746-16.473,13.165" transform="translate(214.523 178.069)" fill="#fff"/>
          <path id="Trazado_611710" data-name="Trazado 611710" d="M209.972,134.322c-10-1.734-18.11-11.029-18.11-20.759s8.105-16.2,18.11-14.469,18.111,11.029,18.111,20.754-8.105,16.209-18.111,14.474" transform="translate(172.464 171.776)" fill="#fff"/>
          <path id="Trazado_611711" data-name="Trazado 611711" d="M216.494,134.465c-10.378-1.8-18.786-11.437-18.786-21.53s8.408-16.809,18.786-15.013,18.786,11.442,18.786,21.53-8.414,16.815-18.786,15.013" transform="translate(131.201 166.26)" fill="#fff"/>
          <path id="Trazado_611712" data-name="Trazado 611712" d="M221.979,132.367c-10.058-1.746-18.21-11.085-18.21-20.867s8.152-16.294,18.21-14.548,18.209,11.085,18.209,20.867-8.152,16.294-18.209,14.548" transform="translate(90.976 161.767)" fill="#fff"/>
          <path id="Trazado_611713" data-name="Trazado 611713" d="M226.661,128.55c-9.2-1.6-16.665-10.15-16.665-19.1s7.465-14.916,16.665-13.318,16.665,10.15,16.665,19.1-7.459,14.916-16.665,13.318" transform="translate(51.552 158.058)" fill="#fff"/>
          <path id="Trazado_611714" data-name="Trazado 611714" d="M230.948,123.874c-8.088-1.4-14.643-8.915-14.643-16.781s6.555-13.1,14.643-11.7,14.643,8.92,14.643,16.781-6.555,13.109-14.643,11.7" transform="translate(12.524 154.743)" fill="#fff"/>
          <path id="Trazado_611715" data-name="Trazado 611715" d="M234.993,118.679c-6.812-1.179-12.33-7.509-12.33-14.134s5.518-11.034,12.33-9.85,12.33,7.509,12.33,14.129-5.518,11.034-12.33,9.855" transform="translate(-26.256 151.658)" fill="#fff"/>
          <path id="Trazado_611716" data-name="Trazado 611716" d="M239.121,113.66c-5.588-.969-10.116-6.16-10.116-11.6s4.528-9.051,10.116-8.082,10.116,6.16,10.116,11.6-4.528,9.051-10.116,8.082" transform="translate(-65.125 148.499)" fill="#fff"/>
          <path id="Trazado_611717" data-name="Trazado 611717" d="M243.166,108.464a9.547,9.547,0,0,1-7.8-8.943c0-4.194,3.49-6.982,7.8-6.234a9.547,9.547,0,0,1,7.8,8.943c0,4.188-3.49,6.982-7.8,6.234" transform="translate(-103.911 145.415)" fill="#fff"/>
          <path id="Trazado_611718" data-name="Trazado 611718" d="M247.294,103.445a6.839,6.839,0,0,1-5.588-6.4,4.517,4.517,0,0,1,5.588-4.466,6.844,6.844,0,0,1,5.588,6.4,4.515,4.515,0,0,1-5.588,4.466" transform="translate(-142.78 142.257)" fill="#fff"/>
          <path id="Trazado_611719" data-name="Trazado 611719" d="M251.5,98.593a4.246,4.246,0,0,1-3.467-3.973,2.8,2.8,0,0,1,3.467-2.771,4.236,4.236,0,0,1,3.467,3.973,2.8,2.8,0,0,1-3.467,2.771" transform="translate(-181.726 139.015)" fill="#fff"/>
          <path id="Trazado_611720" data-name="Trazado 611720" d="M255.863,94.089a1.886,1.886,0,0,1-1.538-1.768,1.242,1.242,0,0,1,1.538-1.23,1.886,1.886,0,0,1,1.539,1.768,1.242,1.242,0,0,1-1.539,1.23" transform="translate(-220.831 135.619)" fill="#fff"/>
          <path id="Trazado_611721" data-name="Trazado 611721" d="M260.634,90.445a.122.122,0,0,1-.1-.113.078.078,0,0,1,.1-.074.115.115,0,0,1,.093.108.074.074,0,0,1-.093.079" transform="translate(-260.343 131.833)" fill="#fff"/>
          <path id="Trazado_611722" data-name="Trazado 611722" d="M141.472,117.848a.237.237,0,0,1-.192-.221.157.157,0,0,1,.192-.153.237.237,0,0,1,.192.221.157.157,0,0,1-.192.153" transform="translate(553.627 258.859)" fill="#fff"/>
          <path id="Trazado_611723" data-name="Trazado 611723" d="M148.708,119.538a2.125,2.125,0,0,1-1.731-1.989,1.4,1.4,0,0,1,1.731-1.383,2.123,2.123,0,0,1,1.736,1.984,1.4,1.4,0,0,1-1.736,1.388" transform="translate(511.651 252.641)" fill="#fff"/>
          <path id="Trazado_611724" data-name="Trazado 611724" d="M156.267,121.915a4.478,4.478,0,0,1-3.659-4.194,2.956,2.956,0,0,1,3.659-2.924,4.473,4.473,0,0,1,3.659,4.194,2.956,2.956,0,0,1-3.659,2.924" transform="translate(469.356 246.11)" fill="#fff"/>
          <path id="Trazado_611725" data-name="Trazado 611725" d="M164.064,124.811a7.186,7.186,0,0,1-5.874-6.733,4.748,4.748,0,0,1,5.874-4.7,7.2,7.2,0,0,1,5.874,6.733,4.748,4.748,0,0,1-5.874,4.7" transform="translate(426.819 239.338)" fill="#fff"/>
          <path id="Trazado_611726" data-name="Trazado 611726" d="M171.942,127.88a10.026,10.026,0,0,1-8.187-9.385c0-4.4,3.665-7.328,8.187-6.546a10.026,10.026,0,0,1,8.187,9.385c0,4.4-3.665,7.328-8.187,6.546" transform="translate(384.199 232.494)" fill="#fff"/>
          <path id="Trazado_611727" data-name="Trazado 611727" d="M179.9,131.116c-5.85-1.014-10.6-6.455-10.6-12.145s4.749-9.481,10.6-8.467,10.594,6.449,10.594,12.145-4.743,9.482-10.594,8.467" transform="translate(341.497 225.574)" fill="#fff"/>
          <path id="Trazado_611728" data-name="Trazado 611728" d="M187.935,134.528c-7.237-1.258-13.1-7.98-13.1-15.013s5.862-11.726,13.1-10.473,13.1,7.98,13.1,15.018-5.862,11.726-13.1,10.468" transform="translate(298.724 218.569)" fill="#fff"/>
          <path id="Trazado_611729" data-name="Trazado 611729" d="M196.055,138.112c-8.671-1.507-15.7-9.561-15.7-18s7.033-14.049,15.7-12.547,15.7,9.566,15.7,18-7.033,14.049-15.7,12.547" transform="translate(255.863 211.488)" fill="#fff"/>
          <path id="Trazado_611730" data-name="Trazado 611730" d="M204.01,141.347c-10-1.734-18.111-11.029-18.111-20.759s8.111-16.2,18.111-14.469,18.111,11.029,18.111,20.754-8.106,16.209-18.111,14.474" transform="translate(213.167 204.564)" fill="#fff"/>
          <path id="Trazado_611731" data-name="Trazado 611731" d="M211.807,144.244c-11.223-1.95-20.325-12.377-20.325-23.3s9.1-18.186,20.325-16.242,20.325,12.377,20.325,23.3-9.1,18.192-20.325,16.243" transform="translate(170.629 197.796)" fill="#fff"/>
          <path id="Trazado_611732" data-name="Trazado 611732" d="M218.729,145.244c-11.864-2.057-21.484-13.08-21.484-24.619s9.62-19.229,21.484-17.166,21.484,13.08,21.484,24.619-9.62,19.224-21.484,17.166" transform="translate(128.966 191.894)" fill="#fff"/>
          <path id="Trazado_611733" data-name="Trazado 611733" d="M223.89,142.461c-11.334-1.967-20.517-12.5-20.517-23.519s9.184-18.362,20.517-16.4,20.517,12.5,20.517,23.519-9.183,18.362-20.517,16.4" transform="translate(89.064 187.712)" fill="#fff"/>
          <path id="Trazado_611734" data-name="Trazado 611734" d="M228.018,137.438c-10.11-1.751-18.3-11.148-18.3-20.975s8.193-16.384,18.3-14.627,18.3,11.142,18.3,20.975-8.193,16.379-18.3,14.627" transform="translate(50.196 184.552)" fill="#fff"/>
          <path id="Trazado_611735" data-name="Trazado 611735" d="M231.9,131.9c-8.723-1.513-15.8-9.623-15.8-18.107s7.074-14.14,15.8-12.627,15.8,9.623,15.8,18.107-7.074,14.14-15.8,12.627" transform="translate(11.568 181.625)" fill="#fff"/>
          <path id="Trazado_611736" data-name="Trazado 611736" d="M235.79,126.364c-7.342-1.275-13.292-8.1-13.292-15.239s5.95-11.9,13.292-10.62,13.291,8.093,13.291,15.234-5.949,11.9-13.291,10.626" transform="translate(-27.052 178.702)" fill="#fff"/>
          <path id="Trazado_611737" data-name="Trazado 611737" d="M239.681,120.825c-5.961-1.031-10.792-6.568-10.792-12.366s4.831-9.657,10.792-8.62,10.792,6.568,10.792,12.366-4.831,9.651-10.792,8.62" transform="translate(-65.684 175.775)" fill="#fff"/>
          <path id="Trazado_611738" data-name="Trazado 611738" d="M243.644,115.46a10.264,10.264,0,0,1-8.379-9.606c0-4.5,3.753-7.5,8.379-6.7a10.263,10.263,0,0,1,8.379,9.606c0,4.506-3.753,7.5-8.379,6.7" transform="translate(-104.389 172.769)" fill="#fff"/>
          <path id="Trazado_611739" data-name="Trazado 611739" d="M247.689,110.266a7.428,7.428,0,0,1-6.066-6.954,4.9,4.9,0,0,1,6.066-4.851,7.434,7.434,0,0,1,6.072,6.954,4.907,4.907,0,0,1-6.072,4.851" transform="translate(-143.175 169.689)" fill="#fff"/>
          <path id="Trazado_611740" data-name="Trazado 611740" d="M251.818,105.246a4.715,4.715,0,0,1-3.852-4.415,3.113,3.113,0,0,1,3.852-3.083,4.717,4.717,0,0,1,3.852,4.421,3.112,3.112,0,0,1-3.852,3.077" transform="translate(-182.044 166.525)" fill="#fff"/>
          <path id="Trazado_611741" data-name="Trazado 611741" d="M256.1,100.567a2.245,2.245,0,0,1-1.83-2.1,1.478,1.478,0,0,1,1.83-1.462,2.233,2.233,0,0,1,1.83,2.1,1.478,1.478,0,0,1-1.83,1.462" transform="translate(-221.072 163.214)" fill="#fff"/>
          <path id="Trazado_611742" data-name="Trazado 611742" d="M260.792,96.75a.358.358,0,0,1-.291-.329.235.235,0,0,1,.291-.232.358.358,0,0,1,.291.329.235.235,0,0,1-.291.232" transform="translate(-260.501 159.504)" fill="#fff"/>
          <path id="Trazado_611743" data-name="Trazado 611743" d="M141.554,123.982a.359.359,0,0,1-.291-.334.234.234,0,0,1,.291-.227.358.358,0,0,1,.291.329.235.235,0,0,1-.291.232" transform="translate(553.545 286.605)" fill="#fff"/>
          <path id="Trazado_611744" data-name="Trazado 611744" d="M148.79,125.672a2.239,2.239,0,0,1-1.83-2.1,1.476,1.476,0,0,1,1.83-1.462,2.245,2.245,0,0,1,1.835,2.1,1.485,1.485,0,0,1-1.835,1.462" transform="translate(511.569 280.387)" fill="#fff"/>
          <path id="Trazado_611745" data-name="Trazado 611745" d="M156.427,128.225a4.716,4.716,0,0,1-3.852-4.415,3.113,3.113,0,0,1,3.852-3.083,4.727,4.727,0,0,1,3.852,4.421,3.112,3.112,0,0,1-3.852,3.077" transform="translate(469.196 273.776)" fill="#fff"/>
          <path id="Trazado_611746" data-name="Trazado 611746" d="M164.228,131.117a7.434,7.434,0,0,1-6.072-6.954,4.907,4.907,0,0,1,6.072-4.851,7.434,7.434,0,0,1,6.072,6.954,4.907,4.907,0,0,1-6.072,4.851" transform="translate(426.654 267.007)" fill="#fff"/>
          <path id="Trazado_611747" data-name="Trazado 611747" d="M172.1,134.185a10.264,10.264,0,0,1-8.379-9.606c0-4.5,3.753-7.5,8.379-6.7a10.264,10.264,0,0,1,8.379,9.606c0,4.505-3.753,7.5-8.379,6.7" transform="translate(384.04 260.165)" fill="#fff"/>
          <path id="Trazado_611748" data-name="Trazado 611748" d="M180.139,137.593c-6.014-1.043-10.885-6.631-10.885-12.474s4.871-9.742,10.885-8.7,10.885,6.625,10.885,12.474-4.871,9.742-10.885,8.7" transform="translate(341.261 253.163)" fill="#fff"/>
          <path id="Trazado_611749" data-name="Trazado 611749" d="M188.254,141.177c-7.447-1.292-13.484-8.212-13.484-15.455s6.037-12.071,13.484-10.779,13.484,8.212,13.484,15.455-6.037,12.071-13.484,10.779" transform="translate(298.405 246.082)" fill="#fff"/>
          <path id="Trazado_611750" data-name="Trazado 611750" d="M196.374,144.762c-8.886-1.541-16.089-9.8-16.089-18.436s7.2-14.4,16.089-12.859,16.089,9.8,16.089,18.441-7.2,14.395-16.089,12.854" transform="translate(255.545 239.002)" fill="#fff"/>
          <path id="Trazado_611751" data-name="Trazado 611751" d="M204.57,148.516c-10.372-1.8-18.786-11.437-18.786-21.53s8.414-16.809,18.786-15.013,18.787,11.442,18.787,21.53-8.409,16.815-18.787,15.013" transform="translate(212.607 231.841)" fill="#fff"/>
          <path id="Trazado_611752" data-name="Trazado 611752" d="M212.767,152.269c-11.864-2.057-21.484-13.08-21.484-24.619s9.621-19.229,21.484-17.166,21.484,13.08,21.484,24.619-9.621,19.223-21.484,17.166" transform="translate(169.669 224.682)" fill="#fff"/>
          <path id="Trazado_611753" data-name="Trazado 611753" d="M220.322,154.649c-12.93-2.244-23.407-14.253-23.407-26.829s10.477-20.946,23.407-18.708,23.407,14.259,23.407,26.829-10.477,20.952-23.407,18.708" transform="translate(127.373 218.153)" fill="#fff"/>
          <path id="Trazado_611754" data-name="Trazado 611754" d="M224.851,150.485c-11.969-2.08-21.677-13.2-21.677-24.84s9.708-19.4,21.677-17.319,21.677,13.194,21.677,24.84-9.708,19.4-21.677,17.319" transform="translate(88.104 214.599)" fill="#fff"/>
          <path id="Trazado_611755" data-name="Trazado 611755" d="M228.578,144.607c-10.483-1.819-18.979-11.556-18.979-21.751s8.5-16.985,18.979-15.166,18.979,11.556,18.979,21.751-8.5,16.985-18.979,15.166" transform="translate(49.636 211.829)" fill="#fff"/>
          <path id="Trazado_611756" data-name="Trazado 611756" d="M232.3,138.724c-8.991-1.559-16.281-9.912-16.281-18.657s7.29-14.571,16.281-13.012,16.281,9.912,16.281,18.663-7.29,14.565-16.281,13.007" transform="translate(11.167 209.063)" fill="#fff"/>
          <path id="Trazado_611757" data-name="Trazado 611757" d="M236.113,133.013c-7.552-1.309-13.682-8.331-13.682-15.676s6.13-12.241,13.682-10.932,13.682,8.331,13.682,15.676-6.13,12.241-13.682,10.932" transform="translate(-27.376 206.217)" fill="#fff"/>
          <path id="Trazado_611758" data-name="Trazado 611758" d="M239.917,127.3c-6.118-1.06-11.077-6.744-11.077-12.695s4.959-9.918,11.077-8.852,11.077,6.744,11.077,12.695-4.959,9.912-11.077,8.852" transform="translate(-65.921 203.369)" fill="#fff"/>
          <path id="Trazado_611759" data-name="Trazado 611759" d="M243.8,121.767a10.49,10.49,0,0,1-8.572-9.827c0-4.6,3.834-7.674,8.572-6.852a10.5,10.5,0,0,1,8.572,9.827c0,4.608-3.834,7.674-8.572,6.852" transform="translate(-104.548 200.438)" fill="#fff"/>
          <path id="Trazado_611760" data-name="Trazado 611760" d="M247.848,116.571a7.666,7.666,0,0,1-6.258-7.175c0-3.366,2.8-5.6,6.258-5a7.665,7.665,0,0,1,6.264,7.175c0,3.366-2.8,5.6-6.264,5" transform="translate(-143.334 197.359)" fill="#fff"/>
          <path id="Trazado_611761" data-name="Trazado 611761" d="M251.9,111.379a4.837,4.837,0,0,1-3.951-4.528,3.2,3.2,0,0,1,3.951-3.157,4.843,4.843,0,0,1,3.951,4.528,3.191,3.191,0,0,1-3.951,3.157" transform="translate(-182.126 194.277)" fill="#fff"/>
          <path id="Trazado_611762" data-name="Trazado 611762" d="M256.187,106.7a2.36,2.36,0,0,1-1.929-2.21,1.556,1.556,0,0,1,1.929-1.536,2.354,2.354,0,0,1,1.929,2.2,1.557,1.557,0,0,1-1.929,1.542" transform="translate(-221.154 190.959)" fill="#fff"/>
          <path id="Trazado_611763" data-name="Trazado 611763" d="M260.792,102.711a.359.359,0,0,1-.291-.329.235.235,0,0,1,.291-.232.358.358,0,0,1,.291.329.235.235,0,0,1-.291.232" transform="translate(-260.501 187.326)" fill="#fff"/>
          <path id="Trazado_611764" data-name="Trazado 611764" d="M141.472,129.772a.237.237,0,0,1-.192-.221.157.157,0,0,1,.192-.153.237.237,0,0,1,.192.221.157.157,0,0,1-.192.153" transform="translate(553.627 314.512)" fill="#fff"/>
          <path id="Trazado_611765" data-name="Trazado 611765" d="M148.708,131.462a2.125,2.125,0,0,1-1.731-1.989,1.4,1.4,0,0,1,1.731-1.383,2.123,2.123,0,0,1,1.736,1.984,1.4,1.4,0,0,1-1.736,1.389" transform="translate(511.651 308.294)" fill="#fff"/>
          <path id="Trazado_611766" data-name="Trazado 611766" d="M156.35,134.014a4.605,4.605,0,0,1-3.759-4.307,3.039,3.039,0,0,1,3.759-3,4.6,4.6,0,0,1,3.758,4.307,3.039,3.039,0,0,1-3.758,3" transform="translate(469.274 301.679)" fill="#fff"/>
          <path id="Trazado_611767" data-name="Trazado 611767" d="M164.064,136.735A7.186,7.186,0,0,1,158.19,130a4.748,4.748,0,0,1,5.874-4.7,7.191,7.191,0,0,1,5.874,6.733,4.748,4.748,0,0,1-5.874,4.7" transform="translate(426.819 294.991)" fill="#fff"/>
          <path id="Trazado_611768" data-name="Trazado 611768" d="M171.942,139.8a10.021,10.021,0,0,1-8.187-9.385c0-4.4,3.665-7.328,8.187-6.546a10.027,10.027,0,0,1,8.187,9.391c0,4.4-3.665,7.328-8.187,6.54" transform="translate(384.199 288.147)" fill="#fff"/>
          <path id="Trazado_611769" data-name="Trazado 611769" d="M179.98,143.212c-5.909-1.026-10.693-6.512-10.693-12.253s4.784-9.572,10.693-8.546,10.693,6.512,10.693,12.253-4.784,9.572-10.693,8.546" transform="translate(341.42 281.146)" fill="#fff"/>
          <path id="Trazado_611770" data-name="Trazado 611770" d="M188.017,146.624c-7.29-1.264-13.2-8.036-13.2-15.126s5.909-11.811,13.2-10.547,13.2,8.036,13.2,15.126-5.909,11.811-13.2,10.547" transform="translate(298.642 274.142)" fill="#fff"/>
          <path id="Trazado_611771" data-name="Trazado 611771" d="M196.055,150.032c-8.671-1.507-15.7-9.561-15.7-17.994s7.033-14.055,15.7-12.547,15.7,9.561,15.7,17.994-7.033,14.055-15.7,12.547" transform="translate(255.863 267.14)" fill="#fff"/>
          <path id="Trazado_611772" data-name="Trazado 611772" d="M204.092,153.444c-10.057-1.746-18.209-11.085-18.209-20.867s8.152-16.294,18.209-14.548S222.3,129.114,222.3,138.9s-8.152,16.294-18.21,14.548" transform="translate(213.085 260.14)" fill="#fff"/>
          <path id="Trazado_611773" data-name="Trazado 611773" d="M211.966,156.512c-11.334-1.967-20.517-12.5-20.517-23.519s9.183-18.362,20.517-16.4,20.517,12.5,20.517,23.519-9.183,18.362-20.517,16.4" transform="translate(170.47 253.292)" fill="#fff"/>
          <path id="Trazado_611774" data-name="Trazado 611774" d="M218.889,157.511c-11.969-2.074-21.677-13.2-21.677-24.84s9.708-19.4,21.677-17.319,21.677,13.194,21.677,24.84-9.708,19.4-21.677,17.319" transform="translate(128.807 247.391)" fill="#fff"/>
          <path id="Trazado_611775" data-name="Trazado 611775" d="M223.972,154.556c-11.386-1.978-20.616-12.553-20.616-23.627s9.23-18.447,20.616-16.475,20.616,12.553,20.616,23.627-9.23,18.453-20.616,16.475" transform="translate(88.982 243.285)" fill="#fff"/>
          <path id="Trazado_611776" data-name="Trazado 611776" d="M228.1,149.533c-10.162-1.762-18.4-11.2-18.4-21.088s8.239-16.464,18.4-14.7,18.4,11.2,18.4,21.088-8.239,16.464-18.4,14.7" transform="translate(50.114 240.13)" fill="#fff"/>
          <path id="Trazado_611777" data-name="Trazado 611777" d="M231.986,144c-8.781-1.525-15.9-9.68-15.9-18.215s7.115-14.225,15.9-12.706,15.9,9.68,15.9,18.22-7.115,14.225-15.9,12.7" transform="translate(11.486 237.199)" fill="#fff"/>
          <path id="Trazado_611778" data-name="Trazado 611778" d="M235.79,138.287c-7.342-1.275-13.292-8.093-13.292-15.234s5.95-11.9,13.292-10.626,13.291,8.093,13.291,15.239-5.949,11.9-13.291,10.621" transform="translate(-27.052 234.351)" fill="#fff"/>
          <path id="Trazado_611779" data-name="Trazado 611779" d="M239.758,132.92c-6.013-1.043-10.885-6.631-10.885-12.474s4.871-9.742,10.885-8.7,10.885,6.625,10.885,12.474-4.871,9.742-10.885,8.7" transform="translate(-65.762 231.353)" fill="#fff"/>
          <path id="Trazado_611780" data-name="Trazado 611780" d="M243.644,127.384a10.259,10.259,0,0,1-8.379-9.606c0-4.5,3.753-7.5,8.379-6.7a10.264,10.264,0,0,1,8.379,9.606c0,4.506-3.753,7.5-8.379,6.7" transform="translate(-104.389 228.422)" fill="#fff"/>
          <path id="Trazado_611781" data-name="Trazado 611781" d="M247.689,122.19a7.428,7.428,0,0,1-6.066-6.954,4.9,4.9,0,0,1,6.066-4.851,7.434,7.434,0,0,1,6.072,6.954,4.907,4.907,0,0,1-6.072,4.851" transform="translate(-143.175 225.342)" fill="#fff"/>
          <path id="Trazado_611782" data-name="Trazado 611782" d="M251.818,117.17a4.715,4.715,0,0,1-3.852-4.415,3.113,3.113,0,0,1,3.852-3.083,4.722,4.722,0,0,1,3.852,4.421,3.112,3.112,0,0,1-3.852,3.077" transform="translate(-182.044 222.178)" fill="#fff"/>
          <path id="Trazado_611783" data-name="Trazado 611783" d="M256.1,112.49a2.245,2.245,0,0,1-1.83-2.1,1.478,1.478,0,0,1,1.83-1.462,2.233,2.233,0,0,1,1.83,2.1,1.478,1.478,0,0,1-1.83,1.462" transform="translate(-221.072 218.862)" fill="#fff"/>
          <path id="Trazado_611784" data-name="Trazado 611784" d="M260.792,108.673a.359.359,0,0,1-.291-.334.234.234,0,0,1,.291-.227.358.358,0,0,1,.291.329.235.235,0,0,1-.291.232" transform="translate(-260.501 215.152)" fill="#fff"/>
          <path id="Trazado_611785" data-name="Trazado 611785" d="M141.4,135.563a.122.122,0,0,1-.1-.113.078.078,0,0,1,.1-.074.111.111,0,0,1,.093.108.077.077,0,0,1-.093.079" transform="translate(553.703 342.414)" fill="#fff"/>
          <path id="Trazado_611786" data-name="Trazado 611786" d="M148.466,136.908a1.765,1.765,0,0,1-1.439-1.655,1.167,1.167,0,0,1,1.439-1.156,1.759,1.759,0,0,1,1.445,1.655,1.167,1.167,0,0,1-1.445,1.156" transform="translate(511.892 336.354)" fill="#fff"/>
          <path id="Trazado_611787" data-name="Trazado 611787" d="M156.031,139.285a4.126,4.126,0,0,1-3.374-3.865,2.725,2.725,0,0,1,3.374-2.692,4.125,4.125,0,0,1,3.374,3.865,2.725,2.725,0,0,1-3.374,2.692" transform="translate(469.592 329.822)" fill="#fff"/>
          <path id="Trazado_611788" data-name="Trazado 611788" d="M163.745,142.01a6.724,6.724,0,0,1-5.489-6.3,4.436,4.436,0,0,1,5.489-4.387,6.718,6.718,0,0,1,5.489,6.3,4.434,4.434,0,0,1-5.489,4.387" transform="translate(427.137 323.13)" fill="#fff"/>
          <path id="Trazado_611789" data-name="Trazado 611789" d="M171.546,144.9a9.437,9.437,0,0,1-7.709-8.835c0-4.137,3.455-6.891,7.709-6.155a9.436,9.436,0,0,1,7.709,8.83c0,4.143-3.455,6.9-7.709,6.16" transform="translate(384.595 316.367)" fill="#fff"/>
          <path id="Trazado_611790" data-name="Trazado 611790" d="M179.42,147.971c-5.536-.958-10.017-6.1-10.017-11.482s4.481-8.966,10.017-8.008,10.017,6.1,10.017,11.482-4.481,8.966-10.017,8.008" transform="translate(341.98 309.519)" fill="#fff"/>
          <path id="Trazado_611791" data-name="Trazado 611791" d="M187.3,151.035c-6.812-1.179-12.33-7.509-12.33-14.134s5.518-11.034,12.33-9.85,12.33,7.509,12.33,14.129-5.518,11.034-12.33,9.855" transform="translate(299.361 302.674)" fill="#fff"/>
          <path id="Trazado_611792" data-name="Trazado 611792" d="M195.094,153.932c-8.035-1.394-14.544-8.858-14.544-16.673s6.509-13.018,14.544-11.623,14.544,8.858,14.544,16.673-6.509,13.018-14.544,11.624" transform="translate(256.824 295.907)" fill="#fff"/>
          <path id="Trazado_611793" data-name="Trazado 611793" d="M202.813,156.653c-9.2-1.6-16.665-10.15-16.665-19.1s7.464-14.916,16.665-13.318,16.666,10.15,16.666,19.1-7.459,14.916-16.666,13.318" transform="translate(214.364 289.219)" fill="#fff"/>
          <path id="Trazado_611794" data-name="Trazado 611794" d="M210.132,158.515c-10.11-1.751-18.3-11.148-18.3-20.975s8.193-16.384,18.3-14.627,18.3,11.142,18.3,20.975-8.193,16.379-18.3,14.628" transform="translate(172.304 282.925)" fill="#fff"/>
          <path id="Trazado_611795" data-name="Trazado 611795" d="M216.654,158.658c-10.483-1.819-18.979-11.556-18.979-21.751s8.5-16.985,18.979-15.166,18.979,11.556,18.979,21.751-8.5,16.985-18.979,15.166" transform="translate(131.042 277.409)" fill="#fff"/>
          <path id="Trazado_611796" data-name="Trazado 611796" d="M222.138,156.558c-10.162-1.763-18.4-11.2-18.4-21.088s8.24-16.464,18.4-14.7,18.4,11.2,18.4,21.088-8.239,16.464-18.4,14.7" transform="translate(90.816 272.917)" fill="#fff"/>
          <path id="Trazado_611797" data-name="Trazado 611797" d="M226.743,152.571c-9.259-1.6-16.764-10.207-16.764-19.212s7.505-15,16.764-13.392,16.764,10.207,16.764,19.212-7.505,15-16.764,13.392" transform="translate(51.47 269.288)" fill="#fff"/>
          <path id="Trazado_611798" data-name="Trazado 611798" d="M231.026,147.894c-8.14-1.411-14.737-8.977-14.737-16.894s6.6-13.188,14.737-11.777,14.737,8.977,14.737,16.894-6.6,13.188-14.737,11.777" transform="translate(12.447 265.968)" fill="#fff"/>
          <path id="Trazado_611799" data-name="Trazado 611799" d="M235.075,142.7c-6.865-1.19-12.429-7.566-12.429-14.242s5.565-11.119,12.429-9.929S247.5,126.094,247.5,132.77s-5.565,11.119-12.429,9.929" transform="translate(-26.338 262.889)" fill="#fff"/>
          <path id="Trazado_611800" data-name="Trazado 611800" d="M239.121,137.507c-5.588-.969-10.116-6.16-10.116-11.6s4.528-9.051,10.116-8.082,10.116,6.16,10.116,11.6-4.528,9.051-10.116,8.082" transform="translate(-65.125 259.801)" fill="#fff"/>
          <path id="Trazado_611801" data-name="Trazado 611801" d="M243.166,132.312a9.547,9.547,0,0,1-7.8-8.943c0-4.194,3.49-6.982,7.8-6.234a9.547,9.547,0,0,1,7.8,8.943c0,4.188-3.49,6.982-7.8,6.234" transform="translate(-103.911 256.722)" fill="#fff"/>
          <path id="Trazado_611802" data-name="Trazado 611802" d="M247.294,127.292a6.839,6.839,0,0,1-5.588-6.4,4.52,4.52,0,0,1,5.588-4.466,6.843,6.843,0,0,1,5.588,6.4,4.515,4.515,0,0,1-5.588,4.466" transform="translate(-142.78 253.559)" fill="#fff"/>
          <path id="Trazado_611803" data-name="Trazado 611803" d="M251.5,122.441a4.246,4.246,0,0,1-3.467-3.973A2.8,2.8,0,0,1,251.5,115.7a4.236,4.236,0,0,1,3.467,3.973,2.8,2.8,0,0,1-3.467,2.771" transform="translate(-181.726 250.322)" fill="#fff"/>
          <path id="Trazado_611804" data-name="Trazado 611804" d="M255.863,117.937a1.886,1.886,0,0,1-1.538-1.768,1.242,1.242,0,0,1,1.538-1.23,1.886,1.886,0,0,1,1.539,1.768,1.243,1.243,0,0,1-1.539,1.23" transform="translate(-220.831 246.926)" fill="#fff"/>
          <path id="Trazado_611805" data-name="Trazado 611805" d="M260.71,114.463a.237.237,0,0,1-.192-.221.157.157,0,0,1,.192-.153.237.237,0,0,1,.192.221.157.157,0,0,1-.192.153" transform="translate(-260.419 243.06)" fill="#fff"/>
          <path id="Trazado_611806" data-name="Trazado 611806" d="M148.065,142.011a1.181,1.181,0,0,1-.956-1.105.777.777,0,0,1,.956-.771,1.191,1.191,0,0,1,.967,1.1.784.784,0,0,1-.967.771" transform="translate(512.294 364.569)" fill="#fff"/>
          <path id="Trazado_611807" data-name="Trazado 611807" d="M155.471,144.044a3.3,3.3,0,0,1-2.7-3.094,2.181,2.181,0,0,1,2.7-2.154,3.3,3.3,0,0,1,2.7,3.094,2.179,2.179,0,0,1-2.7,2.154" transform="translate(470.152 358.195)" fill="#fff"/>
          <path id="Trazado_611808" data-name="Trazado 611808" d="M163.108,146.594a5.781,5.781,0,0,1-4.72-5.412,3.813,3.813,0,0,1,4.72-3.769,5.779,5.779,0,0,1,4.72,5.407,3.814,3.814,0,0,1-4.72,3.774" transform="translate(427.774 351.587)" fill="#fff"/>
          <path id="Trazado_611809" data-name="Trazado 611809" d="M170.745,149.141a8.256,8.256,0,0,1-6.742-7.73c0-3.621,3.018-6.03,6.742-5.384a8.245,8.245,0,0,1,6.742,7.725c0,3.621-3.018,6.036-6.742,5.39" transform="translate(385.396 344.976)" fill="#fff"/>
          <path id="Trazado_611810" data-name="Trazado 611810" d="M178.464,151.867c-4.895-.85-8.863-5.4-8.863-10.156s3.968-7.934,8.863-7.084,8.863,5.4,8.863,10.156-3.968,7.934-8.863,7.084" transform="translate(342.936 338.289)" fill="#fff"/>
          <path id="Trazado_611811" data-name="Trazado 611811" d="M186.183,154.588C180.117,153.534,175.2,147.9,175.2,142s4.918-9.827,10.984-8.773,10.984,6.688,10.984,12.587-4.918,9.827-10.984,8.773" transform="translate(300.476 331.601)" fill="#fff"/>
          <path id="Trazado_611812" data-name="Trazado 611812" d="M193.738,156.969c-7.126-1.236-12.907-7.861-12.907-14.8s5.78-11.55,12.907-10.314,12.907,7.861,12.907,14.8-5.781,11.55-12.907,10.315" transform="translate(258.18 325.066)" fill="#fff"/>
          <path id="Trazado_611813" data-name="Trazado 611813" d="M201.138,159c-8.088-1.405-14.643-8.915-14.643-16.781s6.555-13.1,14.643-11.7,14.644,8.92,14.644,16.781-6.555,13.109-14.644,11.7" transform="translate(216.039 318.692)" fill="#fff"/>
          <path id="Trazado_611814" data-name="Trazado 611814" d="M208.056,160c-8.723-1.513-15.8-9.617-15.8-18.107s7.074-14.14,15.8-12.627,15.8,9.623,15.8,18.107-7.074,14.14-15.8,12.627" transform="translate(174.38 312.787)" fill="#fff"/>
          <path id="Trazado_611815" data-name="Trazado 611815" d="M214.419,159.8c-8.991-1.559-16.281-9.912-16.281-18.657s7.29-14.571,16.281-13.012,16.281,9.912,16.281,18.657-7.29,14.571-16.281,13.012" transform="translate(133.276 307.432)" fill="#fff"/>
          <path id="Trazado_611816" data-name="Trazado 611816" d="M220.062,158.048c-8.781-1.524-15.9-9.68-15.9-18.215s7.115-14.225,15.9-12.706,15.9,9.68,15.9,18.22-7.115,14.225-15.9,12.7" transform="translate(92.892 302.779)" fill="#fff"/>
          <path id="Trazado_611817" data-name="Trazado 611817" d="M225.063,154.919c-8.141-1.411-14.737-8.977-14.737-16.894s6.6-13.188,14.737-11.777,14.743,8.977,14.743,16.894-6.6,13.188-14.743,11.777" transform="translate(53.151 298.756)" fill="#fff"/>
          <path id="Trazado_611818" data-name="Trazado 611818" d="M229.592,150.759c-7.185-1.247-13.006-7.917-13.006-14.905s5.821-11.641,13.006-10.394,13.006,7.923,13.006,14.905-5.821,11.641-13.006,10.394" transform="translate(13.88 295.203)" fill="#fff"/>
          <path id="Trazado_611819" data-name="Trazado 611819" d="M233.955,146.252c-6.118-1.06-11.077-6.744-11.077-12.695s4.959-9.918,11.077-8.852,11.077,6.744,11.077,12.695-4.959,9.912-11.077,8.852" transform="translate(-25.218 291.81)" fill="#fff"/>
          <path id="Trazado_611820" data-name="Trazado 611820" d="M238.165,141.4c-4.947-.856-8.962-5.458-8.962-10.269s4.015-8.019,8.962-7.158,8.962,5.458,8.962,10.269-4.015,8.014-8.962,7.158" transform="translate(-64.169 288.57)" fill="#fff"/>
          <path id="Trazado_611821" data-name="Trazado 611821" d="M242.447,136.727a8.489,8.489,0,0,1-6.934-7.951c0-3.723,3.106-6.206,6.934-5.543a8.5,8.5,0,0,1,6.934,7.951c0,3.729-3.106,6.206-6.934,5.543" transform="translate(-103.192 285.251)" fill="#fff"/>
          <path id="Trazado_611822" data-name="Trazado 611822" d="M246.657,131.876a5.9,5.9,0,0,1-4.819-5.52,3.892,3.892,0,0,1,4.819-3.848,5.89,5.89,0,0,1,4.819,5.52,3.894,3.894,0,0,1-4.819,3.848" transform="translate(-142.143 282.014)" fill="#fff"/>
          <path id="Trazado_611823" data-name="Trazado 611823" d="M251.021,127.372a3.54,3.54,0,0,1-2.89-3.31,2.336,2.336,0,0,1,2.89-2.312,3.54,3.54,0,0,1,2.89,3.31,2.334,2.334,0,0,1-2.89,2.312" transform="translate(-181.248 278.618)" fill="#fff"/>
          <path id="Trazado_611824" data-name="Trazado 611824" d="M255.467,123.04a1.3,1.3,0,0,1-1.061-1.213.858.858,0,0,1,1.061-.85,1.3,1.3,0,0,1,1.061,1.218.857.857,0,0,1-1.061.844" transform="translate(-220.435 275.141)" fill="#fff"/>
          <path id="Trazado_611825" data-name="Trazado 611825" d="M147.669,147.109a.59.59,0,0,1-.478-.55.387.387,0,0,1,.478-.385.59.59,0,0,1,.49.55.394.394,0,0,1-.49.385" transform="translate(512.69 392.789)" fill="#fff"/>
          <path id="Trazado_611826" data-name="Trazado 611826" d="M154.834,148.628a2.36,2.36,0,0,1-1.929-2.21,1.556,1.556,0,0,1,1.929-1.536,2.355,2.355,0,0,1,1.929,2.2,1.557,1.557,0,0,1-1.929,1.542" transform="translate(470.789 386.651)" fill="#fff"/>
          <path id="Trazado_611827" data-name="Trazado 611827" d="M162.311,150.833a4.6,4.6,0,0,1-3.758-4.307,3.033,3.033,0,0,1,3.758-3,4.594,4.594,0,0,1,3.758,4.3,3.037,3.037,0,0,1-3.758,3" transform="translate(428.571 380.196)" fill="#fff"/>
          <path id="Trazado_611828" data-name="Trazado 611828" d="M169.866,153.213a6.954,6.954,0,0,1-5.681-6.512,4.591,4.591,0,0,1,5.681-4.545,6.955,6.955,0,0,1,5.681,6.517,4.59,4.59,0,0,1-5.681,4.54" transform="translate(386.275 373.661)" fill="#fff"/>
          <path id="Trazado_611829" data-name="Trazado 611829" d="M177.349,155.419a9.2,9.2,0,0,1-7.517-8.609c0-4.041,3.368-6.727,7.517-6.007a9.2,9.2,0,0,1,7.517,8.614c0,4.035-3.368,6.721-7.517,6" transform="translate(344.051 367.211)" fill="#fff"/>
          <path id="Trazado_611830" data-name="Trazado 611830" d="M184.827,157.625c-5.163-.9-9.347-5.69-9.347-10.711s4.184-8.36,9.347-7.464,9.347,5.69,9.347,10.706-4.184,8.365-9.347,7.47" transform="translate(301.833 360.76)" fill="#fff"/>
          <path id="Trazado_611831" data-name="Trazado 611831" d="M192.145,159.486c-6.066-1.054-10.984-6.687-10.984-12.587s4.918-9.827,10.984-8.773,10.984,6.687,10.984,12.582-4.918,9.833-10.984,8.779" transform="translate(259.773 354.461)" fill="#fff"/>
          <path id="Trazado_611832" data-name="Trazado 611832" d="M199.222,160.832c-6.812-1.179-12.33-7.509-12.33-14.134s5.518-11.034,12.33-9.85,12.33,7.509,12.33,14.129-5.518,11.04-12.33,9.855" transform="translate(217.955 348.4)" fill="#fff"/>
          <path id="Trazado_611833" data-name="Trazado 611833" d="M205.981,161.491c-7.342-1.275-13.292-8.093-13.292-15.234s5.95-11.9,13.292-10.626,13.292,8.1,13.292,15.239-5.949,11.9-13.292,10.621" transform="translate(176.456 342.652)" fill="#fff"/>
          <path id="Trazado_611834" data-name="Trazado 611834" d="M212.266,161.114c-7.552-1.309-13.682-8.331-13.682-15.676s6.13-12.241,13.682-10.932,13.682,8.331,13.682,15.676-6.13,12.241-13.682,10.932" transform="translate(135.429 337.373)" fill="#fff"/>
          <path id="Trazado_611835" data-name="Trazado 611835" d="M217.91,159.364c-7.342-1.275-13.3-8.093-13.3-15.239s5.955-11.9,13.3-10.621S231.2,141.6,231.2,148.744s-5.95,11.9-13.292,10.621" transform="translate(95.044 332.724)" fill="#fff"/>
          <path id="Trazado_611836" data-name="Trazado 611836" d="M223.152,156.749c-6.864-1.19-12.429-7.566-12.429-14.242s5.565-11.119,12.429-9.929,12.429,7.566,12.429,14.242-5.565,11.119-12.429,9.929" transform="translate(55.061 328.465)" fill="#fff"/>
          <path id="Trazado_611837" data-name="Trazado 611837" d="M227.994,153.277c-6.118-1.06-11.077-6.744-11.077-12.695s4.959-9.918,11.077-8.852,11.077,6.744,11.077,12.695-4.959,9.912-11.077,8.852" transform="translate(15.478 324.598)" fill="#fff"/>
          <path id="Trazado_611838" data-name="Trazado 611838" d="M232.6,149.288c-5.215-.907-9.44-5.747-9.44-10.819s4.225-8.45,9.44-7.543,9.44,5.747,9.44,10.819-4.225,8.45-9.44,7.543" transform="translate(-23.861 320.97)" fill="#fff"/>
          <path id="Trazado_611839" data-name="Trazado 611839" d="M237.045,144.956a9.321,9.321,0,0,1-7.61-8.722c0-4.086,3.409-6.812,7.61-6.081a9.32,9.32,0,0,1,7.61,8.722c0,4.086-3.409,6.812-7.61,6.081" transform="translate(-63.049 317.493)" fill="#fff"/>
          <path id="Trazado_611840" data-name="Trazado 611840" d="M241.491,140.624a7.076,7.076,0,0,1-5.78-6.625,4.669,4.669,0,0,1,5.78-4.619,7.076,7.076,0,0,1,5.78,6.625,4.669,4.669,0,0,1-5.78,4.619" transform="translate(-102.236 314.02)" fill="#fff"/>
          <path id="Trazado_611841" data-name="Trazado 611841" d="M245.856,136.119A4.716,4.716,0,0,1,242,131.7a3.113,3.113,0,0,1,3.852-3.083,4.727,4.727,0,0,1,3.852,4.421,3.112,3.112,0,0,1-3.852,3.077" transform="translate(-141.341 310.62)" fill="#fff"/>
          <path id="Trazado_611842" data-name="Trazado 611842" d="M250.3,131.784a2.471,2.471,0,0,1-2.022-2.318,1.63,1.63,0,0,1,2.022-1.615,2.471,2.471,0,0,1,2.022,2.318,1.635,1.635,0,0,1-2.022,1.615" transform="translate(-180.529 307.151)" fill="#fff"/>
          <path id="Trazado_611843" data-name="Trazado 611843" d="M254.99,127.966a.59.59,0,0,1-.484-.55.39.39,0,0,1,.484-.385.584.584,0,0,1,.484.55.39.39,0,0,1-.484.385" transform="translate(-219.957 303.442)" fill="#fff"/>
          <path id="Trazado_611844" data-name="Trazado 611844" d="M147.357,152.385a.129.129,0,0,1-.1-.113.08.08,0,0,1,.1-.074.121.121,0,0,1,.1.108.081.081,0,0,1-.1.079" transform="translate(513.001 420.928)" fill="#fff"/>
          <path id="Trazado_611845" data-name="Trazado 611845" d="M154.115,153.044a1.3,1.3,0,0,1-1.061-1.213.858.858,0,0,1,1.061-.85,1.3,1.3,0,0,1,1.061,1.219.857.857,0,0,1-1.061.844" transform="translate(471.509 415.18)" fill="#fff"/>
          <path id="Trazado_611846" data-name="Trazado 611846" d="M161.351,154.733a3.177,3.177,0,0,1-2.6-2.981,2.1,2.1,0,0,1,2.6-2.08,3.182,3.182,0,0,1,2.6,2.981,2.1,2.1,0,0,1-2.6,2.08" transform="translate(429.531 408.962)" fill="#fff"/>
          <path id="Trazado_611847" data-name="Trazado 611847" d="M168.751,156.766a5.306,5.306,0,0,1-4.335-4.97,3.5,3.5,0,0,1,4.335-3.463,5.306,5.306,0,0,1,4.335,4.97,3.5,3.5,0,0,1-4.335,3.463" transform="translate(387.39 402.588)" fill="#fff"/>
          <path id="Trazado_611848" data-name="Trazado 611848" d="M176.07,158.627a7.313,7.313,0,0,1-5.973-6.846,4.826,4.826,0,0,1,5.973-4.772,7.313,7.313,0,0,1,5.973,6.846,4.826,4.826,0,0,1-5.973,4.772" transform="translate(345.331 396.289)" fill="#fff"/>
          <path id="Trazado_611849" data-name="Trazado 611849" d="M183.312,160.317a9.2,9.2,0,0,1-7.517-8.614c0-4.035,3.368-6.722,7.517-6a9.2,9.2,0,0,1,7.511,8.614c0,4.035-3.362,6.722-7.511,6" transform="translate(303.347 390.071)" fill="#fff"/>
          <path id="Trazado_611850" data-name="Trazado 611850" d="M190.464,161.835c-4.947-.856-8.956-5.458-8.956-10.269s4.009-8.014,8.956-7.158,8.962,5.458,8.962,10.269-4.015,8.014-8.962,7.158" transform="translate(261.454 383.935)" fill="#fff"/>
          <path id="Trazado_611851" data-name="Trazado 611851" d="M197.388,162.838c-5.588-.969-10.116-6.16-10.116-11.6s4.528-9.051,10.116-8.082,10.116,6.16,10.116,11.6-4.528,9.051-10.116,8.082" transform="translate(219.789 378.029)" fill="#fff"/>
          <path id="Trazado_611852" data-name="Trazado 611852" d="M203.91,162.978c-5.961-1.032-10.792-6.569-10.792-12.366s4.831-9.657,10.792-8.62S214.7,148.56,214.7,154.358s-4.831,9.652-10.792,8.62" transform="translate(178.527 372.517)" fill="#fff"/>
          <path id="Trazado_611853" data-name="Trazado 611853" d="M210.108,162.43c-6.118-1.06-11.077-6.744-11.077-12.695s4.959-9.918,11.077-8.852,11.077,6.744,11.077,12.695-4.959,9.912-11.077,8.852" transform="translate(137.587 367.318)" fill="#fff"/>
          <path id="Trazado_611854" data-name="Trazado 611854" d="M215.911,161.021c-6.014-1.043-10.885-6.631-10.885-12.474s4.871-9.742,10.885-8.7,10.885,6.625,10.885,12.474-4.871,9.742-10.885,8.7" transform="translate(97.043 362.51)" fill="#fff"/>
          <path id="Trazado_611855" data-name="Trazado 611855" d="M221.236,158.584c-5.588-.969-10.116-6.16-10.116-11.6s4.528-9.051,10.116-8.082,10.116,6.16,10.116,11.6-4.528,9.051-10.116,8.082" transform="translate(56.978 358.174)" fill="#fff"/>
          <path id="Trazado_611856" data-name="Trazado 611856" d="M226.236,155.455c-4.947-.861-8.956-5.458-8.956-10.269s4.009-8.019,8.956-7.158,8.962,5.458,8.962,10.269-4.015,8.014-8.962,7.158" transform="translate(17.236 354.151)" fill="#fff"/>
          <path id="Trazado_611857" data-name="Trazado 611857" d="M231.083,151.982a9.32,9.32,0,0,1-7.61-8.722c0-4.086,3.409-6.812,7.61-6.081a9.32,9.32,0,0,1,7.61,8.722c0,4.086-3.409,6.812-7.61,6.081" transform="translate(-22.346 350.285)" fill="#fff"/>
          <path id="Trazado_611858" data-name="Trazado 611858" d="M235.771,148.165a7.434,7.434,0,0,1-6.072-6.954,4.9,4.9,0,0,1,6.072-4.851,7.434,7.434,0,0,1,6.072,6.954,4.907,4.907,0,0,1-6.072,4.851" transform="translate(-61.774 346.576)" fill="#fff"/>
          <path id="Trazado_611859" data-name="Trazado 611859" d="M240.371,144.176a5.421,5.421,0,0,1-4.428-5.078,3.579,3.579,0,0,1,4.428-3.542,5.421,5.421,0,0,1,4.429,5.078,3.579,3.579,0,0,1-4.429,3.542" transform="translate(-101.116 342.943)" fill="#fff"/>
          <path id="Trazado_611860" data-name="Trazado 611860" d="M244.976,140.187a3.414,3.414,0,0,1-2.791-3.2,2.255,2.255,0,0,1,2.791-2.233,3.42,3.42,0,0,1,2.8,3.2,2.26,2.26,0,0,1-2.8,2.233" transform="translate(-140.462 339.314)" fill="#fff"/>
          <path id="Trazado_611861" data-name="Trazado 611861" d="M249.583,136.2a1.418,1.418,0,0,1-1.154-1.326.936.936,0,0,1,1.154-.924,1.412,1.412,0,0,1,1.154,1.326.929.929,0,0,1-1.154.924" transform="translate(-179.81 335.681)" fill="#fff"/>
          <path id="Trazado_611862" data-name="Trazado 611862" d="M254.666,133.242a.117.117,0,0,1-.093-.113.073.073,0,0,1,.093-.074.115.115,0,0,1,.093.108.077.077,0,0,1-.093.079" transform="translate(-219.634 331.581)" fill="#fff"/>
          <path id="Trazado_611863" data-name="Trazado 611863" d="M153.477,157.627a.358.358,0,0,1-.291-.329.235.235,0,0,1,.291-.232.358.358,0,0,1,.291.329.235.235,0,0,1-.291.232" transform="translate(472.146 443.637)" fill="#fff"/>
          <path id="Trazado_611864" data-name="Trazado 611864" d="M160.4,158.628a1.765,1.765,0,0,1-1.445-1.655,1.169,1.169,0,0,1,1.445-1.156,1.765,1.765,0,0,1,1.445,1.655,1.17,1.17,0,0,1-1.445,1.156" transform="translate(430.487 437.728)" fill="#fff"/>
          <path id="Trazado_611865" data-name="Trazado 611865" d="M167.554,160.147a3.54,3.54,0,0,1-2.89-3.31,2.336,2.336,0,0,1,2.89-2.312,3.541,3.541,0,0,1,2.89,3.315,2.333,2.333,0,0,1-2.89,2.306" transform="translate(388.587 431.59)" fill="#fff"/>
          <path id="Trazado_611866" data-name="Trazado 611866" d="M174.714,161.664a5.306,5.306,0,0,1-4.335-4.97,3.5,3.5,0,0,1,4.335-3.463,5.306,5.306,0,0,1,4.335,4.97,3.5,3.5,0,0,1-4.335,3.463" transform="translate(346.687 425.448)" fill="#fff"/>
          <path id="Trazado_611867" data-name="Trazado 611867" d="M181.79,163.01a6.954,6.954,0,0,1-5.681-6.512,4.591,4.591,0,0,1,5.681-4.545,6.955,6.955,0,0,1,5.681,6.518,4.59,4.59,0,0,1-5.681,4.539" transform="translate(304.869 419.387)" fill="#fff"/>
          <path id="Trazado_611868" data-name="Trazado 611868" d="M188.713,164.012a8.377,8.377,0,0,1-6.841-7.838c0-3.672,3.065-6.121,6.841-5.469a8.378,8.378,0,0,1,6.841,7.844c0,3.672-3.065,6.121-6.841,5.463" transform="translate(263.205 413.483)" fill="#fff"/>
          <path id="Trazado_611869" data-name="Trazado 611869" d="M195.472,164.668a9.552,9.552,0,0,1-7.8-8.943c0-4.194,3.49-6.982,7.8-6.234a9.547,9.547,0,0,1,7.8,8.943c0,4.188-3.491,6.982-7.8,6.234" transform="translate(221.706 407.738)" fill="#fff"/>
          <path id="Trazado_611870" data-name="Trazado 611870" d="M201.911,164.639a10.258,10.258,0,0,1-8.379-9.606c0-4.5,3.753-7.5,8.379-6.7a10.264,10.264,0,0,1,8.379,9.606c0,4.505-3.753,7.5-8.379,6.7" transform="translate(180.525 402.303)" fill="#fff"/>
          <path id="Trazado_611871" data-name="Trazado 611871" d="M208.033,163.919a10.49,10.49,0,0,1-8.572-9.827c0-4.6,3.834-7.674,8.572-6.852a10.5,10.5,0,0,1,8.572,9.827c0,4.608-3.834,7.673-8.572,6.852" transform="translate(139.663 397.18)" fill="#fff"/>
          <path id="Trazado_611872" data-name="Trazado 611872" d="M213.835,162.512a10.264,10.264,0,0,1-8.379-9.606c0-4.5,3.753-7.5,8.379-6.7a10.264,10.264,0,0,1,8.379,9.606c0,4.505-3.753,7.5-8.379,6.7" transform="translate(99.119 392.376)" fill="#fff"/>
          <path id="Trazado_611873" data-name="Trazado 611873" d="M219.319,160.414a9.547,9.547,0,0,1-7.8-8.943c0-4.188,3.491-6.982,7.8-6.234a9.547,9.547,0,0,1,7.8,8.943c0,4.188-3.491,6.982-7.8,6.234" transform="translate(58.894 387.883)" fill="#fff"/>
          <path id="Trazado_611874" data-name="Trazado 611874" d="M224.562,157.8a8.489,8.489,0,0,1-6.934-7.951c0-3.723,3.106-6.206,6.934-5.543a8.5,8.5,0,0,1,6.934,7.951c0,3.724-3.106,6.206-6.934,5.543" transform="translate(18.91 383.619)" fill="#fff"/>
          <path id="Trazado_611875" data-name="Trazado 611875" d="M229.567,154.675a7.076,7.076,0,0,1-5.78-6.625,4.669,4.669,0,0,1,5.78-4.619,7.076,7.076,0,0,1,5.78,6.625,4.669,4.669,0,0,1-5.78,4.619" transform="translate(-20.83 379.601)" fill="#fff"/>
          <path id="Trazado_611876" data-name="Trazado 611876" d="M234.41,151.2a5.421,5.421,0,0,1-4.429-5.078,3.579,3.579,0,0,1,4.429-3.542,5.421,5.421,0,0,1,4.429,5.078,3.578,3.578,0,0,1-4.429,3.542" transform="translate(-60.413 375.735)" fill="#fff"/>
          <path id="Trazado_611877" data-name="Trazado 611877" d="M239.174,147.557a3.656,3.656,0,0,1-2.983-3.423,2.409,2.409,0,0,1,2.983-2.386,3.651,3.651,0,0,1,2.984,3.423,2.412,2.412,0,0,1-2.984,2.386" transform="translate(-99.919 371.945)" fill="#fff"/>
          <path id="Trazado_611878" data-name="Trazado 611878" d="M243.938,143.912a1.887,1.887,0,0,1-1.538-1.768,1.242,1.242,0,0,1,1.538-1.23,1.892,1.892,0,0,1,1.544,1.768,1.247,1.247,0,0,1-1.544,1.23" transform="translate(-139.424 368.16)" fill="#fff"/>
          <path id="Trazado_611879" data-name="Trazado 611879" d="M248.868,140.61a.358.358,0,0,1-.292-.329.235.235,0,0,1,.292-.232.358.358,0,0,1,.291.329.235.235,0,0,1-.291.232" transform="translate(-179.095 364.213)" fill="#fff"/>
          <path id="Trazado_611880" data-name="Trazado 611880" d="M159.517,162.7a.475.475,0,0,1-.385-.442.308.308,0,0,1,.385-.306.47.47,0,0,1,.384.442.311.311,0,0,1-.384.306" transform="translate(431.365 466.421)" fill="#fff"/>
          <path id="Trazado_611881" data-name="Trazado 611881" d="M166.357,163.527a1.765,1.765,0,0,1-1.445-1.655,1.169,1.169,0,0,1,1.445-1.156,1.765,1.765,0,0,1,1.445,1.655,1.169,1.169,0,0,1-1.445,1.156" transform="translate(389.784 460.593)" fill="#fff"/>
          <path id="Trazado_611882" data-name="Trazado 611882" d="M173.357,164.7a3.3,3.3,0,0,1-2.7-3.094,2.181,2.181,0,0,1,2.7-2.153,3.3,3.3,0,0,1,2.7,3.094,2.178,2.178,0,0,1-2.7,2.154" transform="translate(348.043 454.608)" fill="#fff"/>
          <path id="Trazado_611883" data-name="Trazado 611883" d="M180.2,165.529a4.6,4.6,0,0,1-3.758-4.307,3.033,3.033,0,0,1,3.758-3,4.594,4.594,0,0,1,3.758,4.3,3.037,3.037,0,0,1-3.758,3" transform="translate(306.462 448.787)" fill="#fff"/>
          <path id="Trazado_611884" data-name="Trazado 611884" d="M187.038,166.359a5.9,5.9,0,0,1-4.819-5.52,3.892,3.892,0,0,1,4.819-3.848,5.89,5.89,0,0,1,4.819,5.52,3.9,3.9,0,0,1-4.819,3.848" transform="translate(264.88 442.958)" fill="#fff"/>
          <path id="Trazado_611885" data-name="Trazado 611885" d="M193.637,166.674a6.839,6.839,0,0,1-5.588-6.4,4.517,4.517,0,0,1,5.588-4.466,6.844,6.844,0,0,1,5.588,6.4,4.512,4.512,0,0,1-5.588,4.466" transform="translate(223.54 437.367)" fill="#fff"/>
          <path id="Trazado_611886" data-name="Trazado 611886" d="M200,166.47a7.434,7.434,0,0,1-6.072-6.954A4.9,4.9,0,0,1,200,154.665a7.434,7.434,0,0,1,6.072,6.954A4.907,4.907,0,0,1,200,166.47" transform="translate(182.436 432.011)" fill="#fff"/>
          <path id="Trazado_611887" data-name="Trazado 611887" d="M206.121,165.749a7.665,7.665,0,0,1-6.264-7.175c0-3.366,2.8-5.6,6.264-5a7.665,7.665,0,0,1,6.264,7.175c0,3.366-2.8,5.6-6.264,5" transform="translate(141.574 426.889)" fill="#fff"/>
          <path id="Trazado_611888" data-name="Trazado 611888" d="M211.924,164.343a7.434,7.434,0,0,1-6.072-6.954,4.9,4.9,0,0,1,6.072-4.851A7.434,7.434,0,0,1,218,159.492a4.907,4.907,0,0,1-6.072,4.851" transform="translate(101.03 422.084)" fill="#fff"/>
          <path id="Trazado_611889" data-name="Trazado 611889" d="M217.485,162.419a6.84,6.84,0,0,1-5.588-6.4,4.517,4.517,0,0,1,5.588-4.466,6.844,6.844,0,0,1,5.588,6.4,4.515,4.515,0,0,1-5.588,4.466" transform="translate(60.728 417.508)" fill="#fff"/>
          <path id="Trazado_611890" data-name="Trazado 611890" d="M222.81,159.978a5.9,5.9,0,0,1-4.819-5.52,3.892,3.892,0,0,1,4.819-3.848,5.89,5.89,0,0,1,4.819,5.52,3.894,3.894,0,0,1-4.819,3.848" transform="translate(20.662 413.176)" fill="#fff"/>
          <path id="Trazado_611891" data-name="Trazado 611891" d="M227.97,157.2a4.715,4.715,0,0,1-3.852-4.415,3.113,3.113,0,0,1,3.852-3.083,4.721,4.721,0,0,1,3.852,4.421,3.112,3.112,0,0,1-3.852,3.077" transform="translate(-19.232 408.993)" fill="#fff"/>
          <path id="Trazado_611892" data-name="Trazado 611892" d="M233.053,154.238a3.414,3.414,0,0,1-2.791-3.2,2.255,2.255,0,0,1,2.791-2.233,3.414,3.414,0,0,1,2.791,3.2,2.255,2.255,0,0,1-2.791,2.233" transform="translate(-59.057 404.89)" fill="#fff"/>
          <path id="Trazado_611893" data-name="Trazado 611893" d="M237.977,150.937a1.886,1.886,0,0,1-1.538-1.768,1.242,1.242,0,0,1,1.538-1.23,1.887,1.887,0,0,1,1.539,1.768,1.243,1.243,0,0,1-1.539,1.23" transform="translate(-98.722 400.948)" fill="#fff"/>
          <path id="Trazado_611894" data-name="Trazado 611894" d="M242.984,147.808a.475.475,0,0,1-.385-.442.311.311,0,0,1,.385-.306.464.464,0,0,1,.385.442.309.309,0,0,1-.385.306" transform="translate(-138.469 396.925)" fill="#fff"/>
          <path id="Trazado_611895" data-name="Trazado 611895" d="M165.4,167.423a.358.358,0,0,1-.291-.329.235.235,0,0,1,.291-.232.358.358,0,0,1,.291.329.235.235,0,0,1-.291.232" transform="translate(390.74 489.358)" fill="#fff"/>
          <path id="Trazado_611896" data-name="Trazado 611896" d="M172,167.739a1.3,1.3,0,0,1-1.061-1.213.858.858,0,0,1,1.061-.85,1.3,1.3,0,0,1,1.061,1.219.857.857,0,0,1-1.061.844" transform="translate(349.4 483.766)" fill="#fff"/>
          <path id="Trazado_611897" data-name="Trazado 611897" d="M178.759,168.394a2.471,2.471,0,0,1-2.022-2.318,1.63,1.63,0,0,1,2.022-1.615,2.471,2.471,0,0,1,2.022,2.318,1.635,1.635,0,0,1-2.022,1.615" transform="translate(307.9 478.022)" fill="#fff"/>
          <path id="Trazado_611898" data-name="Trazado 611898" d="M185.357,168.708a3.414,3.414,0,0,1-2.791-3.2,2.255,2.255,0,0,1,2.791-2.233,3.419,3.419,0,0,1,2.8,3.2,2.26,2.26,0,0,1-2.8,2.233" transform="translate(266.561 472.431)" fill="#fff"/>
          <path id="Trazado_611899" data-name="Trazado 611899" d="M191.88,168.848a4.246,4.246,0,0,1-3.467-3.973,2.8,2.8,0,0,1,3.467-2.771,4.236,4.236,0,0,1,3.467,3.973,2.8,2.8,0,0,1-3.467,2.771" transform="translate(225.297 466.919)" fill="#fff"/>
          <path id="Trazado_611900" data-name="Trazado 611900" d="M198.161,168.472a4.715,4.715,0,0,1-3.852-4.415,3.11,3.11,0,0,1,3.852-3.077,4.715,4.715,0,0,1,3.852,4.415,3.112,3.112,0,0,1-3.852,3.077" transform="translate(184.276 461.639)" fill="#fff"/>
          <path id="Trazado_611901" data-name="Trazado 611901" d="M204.2,167.582a4.837,4.837,0,0,1-3.951-4.528A3.2,3.2,0,0,1,204.2,159.9a4.842,4.842,0,0,1,3.951,4.528,3.191,3.191,0,0,1-3.951,3.157" transform="translate(143.491 456.595)" fill="#fff"/>
          <path id="Trazado_611902" data-name="Trazado 611902" d="M210.085,166.348a4.715,4.715,0,0,1-3.852-4.415,3.113,3.113,0,0,1,3.852-3.083,4.722,4.722,0,0,1,3.852,4.421,3.112,3.112,0,0,1-3.852,3.077" transform="translate(102.87 451.708)" fill="#fff"/>
          <path id="Trazado_611903" data-name="Trazado 611903" d="M215.728,164.594a4.246,4.246,0,0,1-3.467-3.973,2.8,2.8,0,0,1,3.467-2.771,4.236,4.236,0,0,1,3.467,3.973,2.8,2.8,0,0,1-3.467,2.771" transform="translate(62.485 447.064)" fill="#fff"/>
          <path id="Trazado_611904" data-name="Trazado 611904" d="M221.212,162.5a3.541,3.541,0,0,1-2.89-3.315,2.335,2.335,0,0,1,2.89-2.307,3.54,3.54,0,0,1,2.89,3.31,2.336,2.336,0,0,1-2.89,2.312" transform="translate(22.26 442.568)" fill="#fff"/>
          <path id="Trazado_611905" data-name="Trazado 611905" d="M226.454,159.886a2.471,2.471,0,0,1-2.022-2.318,1.63,1.63,0,0,1,2.022-1.615,2.471,2.471,0,0,1,2.022,2.318,1.632,1.632,0,0,1-2.022,1.615" transform="translate(-17.717 438.312)" fill="#fff"/>
          <path id="Trazado_611906" data-name="Trazado 611906" d="M231.7,157.274a1.412,1.412,0,0,1-1.154-1.326.934.934,0,0,1,1.154-.924,1.412,1.412,0,0,1,1.154,1.326.929.929,0,0,1-1.154.924" transform="translate(-57.7 434.049)" fill="#fff"/>
          <path id="Trazado_611907" data-name="Trazado 611907" d="M236.944,154.661a.359.359,0,0,1-.291-.329.235.235,0,0,1,.291-.232.358.358,0,0,1,.291.329.235.235,0,0,1-.291.232" transform="translate(-97.689 429.794)" fill="#fff"/>
          <path id="Trazado_611908" data-name="Trazado 611908" d="M171.2,171.979a.115.115,0,0,1-.093-.108.074.074,0,0,1,.093-.079.115.115,0,0,1,.093.108.074.074,0,0,1-.093.079" transform="translate(350.201 512.38)" fill="#fff"/>
          <path id="Trazado_611909" data-name="Trazado 611909" d="M177.485,171.6a.59.59,0,0,1-.484-.55.39.39,0,0,1,.484-.385.584.584,0,0,1,.484.55.39.39,0,0,1-.484.385" transform="translate(309.175 507.101)" fill="#fff"/>
          <path id="Trazado_611910" data-name="Trazado 611910" d="M183.924,171.574a1.3,1.3,0,0,1-1.06-1.213.858.858,0,0,1,1.06-.85,1.3,1.3,0,0,1,1.06,1.219.855.855,0,0,1-1.06.844" transform="translate(267.994 501.665)" fill="#fff"/>
          <path id="Trazado_611911" data-name="Trazado 611911" d="M190.282,171.369a1.886,1.886,0,0,1-1.538-1.768,1.242,1.242,0,0,1,1.538-1.23,1.886,1.886,0,0,1,1.538,1.768,1.242,1.242,0,0,1-1.538,1.23" transform="translate(226.895 496.311)" fill="#fff"/>
          <path id="Trazado_611912" data-name="Trazado 611912" d="M196.486,170.821a2.245,2.245,0,0,1-1.83-2.1,1.478,1.478,0,0,1,1.83-1.462,2.24,2.24,0,0,1,1.83,2.1,1.48,1.48,0,0,1-1.83,1.462" transform="translate(185.951 491.112)" fill="#fff"/>
          <path id="Trazado_611913" data-name="Trazado 611913" d="M202.53,169.929a2.36,2.36,0,0,1-1.929-2.21,1.555,1.555,0,0,1,1.929-1.536,2.355,2.355,0,0,1,1.929,2.2,1.556,1.556,0,0,1-1.929,1.541" transform="translate(145.166 486.07)" fill="#fff"/>
          <path id="Trazado_611914" data-name="Trazado 611914" d="M208.41,168.694a2.238,2.238,0,0,1-1.83-2.1,1.476,1.476,0,0,1,1.83-1.462,2.245,2.245,0,0,1,1.83,2.1,1.48,1.48,0,0,1-1.83,1.462" transform="translate(104.545 481.185)" fill="#fff"/>
          <path id="Trazado_611915" data-name="Trazado 611915" d="M214.129,167.115a1.886,1.886,0,0,1-1.538-1.768,1.242,1.242,0,0,1,1.538-1.23,1.892,1.892,0,0,1,1.544,1.768,1.247,1.247,0,0,1-1.544,1.23" transform="translate(64.084 476.456)" fill="#fff"/>
          <path id="Trazado_611916" data-name="Trazado 611916" d="M219.7,165.192a1.3,1.3,0,0,1-1.061-1.213.858.858,0,0,1,1.061-.85,1.3,1.3,0,0,1,1.061,1.218.855.855,0,0,1-1.061.844" transform="translate(23.776 471.883)" fill="#fff"/>
          <path id="Trazado_611917" data-name="Trazado 611917" d="M225.18,163.093a.59.59,0,0,1-.484-.55.39.39,0,0,1,.484-.385.585.585,0,0,1,.484.55.39.39,0,0,1-.484.385" transform="translate(-16.442 467.392)" fill="#fff"/>
          <path id="Trazado_611918" data-name="Trazado 611918" d="M230.818,161.343a.116.116,0,0,1-.093-.113.073.073,0,0,1,.093-.074.115.115,0,0,1,.093.107.074.074,0,0,1-.093.079" transform="translate(-56.822 462.738)" fill="#fff"/>
          <path id="Trazado_611919" data-name="Trazado 611919" d="M189.084,174.75a.117.117,0,0,1-.093-.113.073.073,0,0,1,.093-.074.116.116,0,0,1,.1.108.081.081,0,0,1-.1.079" transform="translate(228.093 525.313)" fill="#fff"/>
          <path id="Trazado_611920" data-name="Trazado 611920" d="M195.211,174.03a.359.359,0,0,1-.291-.334.234.234,0,0,1,.291-.227.358.358,0,0,1,.291.329.235.235,0,0,1-.291.232" transform="translate(187.225 520.195)" fill="#fff"/>
          <path id="Trazado_611921" data-name="Trazado 611921" d="M201.173,172.966a.359.359,0,0,1-.291-.334.234.234,0,0,1,.291-.227.358.358,0,0,1,.291.329.235.235,0,0,1-.291.232" transform="translate(146.522 515.229)" fill="#fff"/>
          <path id="Trazado_611922" data-name="Trazado 611922" d="M207.135,171.9a.358.358,0,0,1-.291-.329.235.235,0,0,1,.291-.232.358.358,0,0,1,.291.329.235.235,0,0,1-.291.232" transform="translate(105.819 510.263)" fill="#fff"/>
          <path id="Trazado_611923" data-name="Trazado 611923" d="M213.015,170.666a.237.237,0,0,1-.192-.221.157.157,0,0,1,.192-.153.232.232,0,0,1,.192.221.157.157,0,0,1-.192.153" transform="translate(65.198 505.378)" fill="#fff"/>
        </g>
      </g>
    </g>
    <path id="tag-solid" d="M0,34.639V42.86a3.52,3.52,0,0,0,1.028,2.491l9.678,9.678a3.518,3.518,0,0,0,4.976,0l7.341-7.341a3.518,3.518,0,0,0,0-4.976l-9.678-9.678a3.52,3.52,0,0,0-2.491-1.028L2.639,32A2.64,2.64,0,0,0,0,34.639ZM6.159,36.4a1.76,1.76,0,1,1-1.76,1.76A1.76,1.76,0,0,1,6.159,36.4Z" transform="translate(195.188 4657.866)" fill="#fff"/>
  </g>
</svg>
