<svg xmlns="http://www.w3.org/2000/svg" xmlns:xlink="http://www.w3.org/1999/xlink" width="122.67" height="110.498" viewBox="0 0 122.67 110.498">
  <defs>
    <clipPath id="clip-path">
      <rect id="Rectángulo_378932" data-name="Rectángulo 378932" width="64.52" height="51.85" fill="#12263f"/>
    </clipPath>
  </defs>
  <g id="Grupo_1072888" data-name="Grupo 1072888" transform="translate(-1160.836 -423.291)">
    <path id="Trazado_610915" data-name="Trazado 610915" d="M0,1.279,83.9,0,96.389,86.991l-83.04,1.578Z" transform="matrix(0.966, -0.259, 0.259, 0.966, 1165.775, 448.238)" fill="#fff"/>
    <path id="Trazado_610916" data-name="Trazado 610916" d="M-11500.193-11241.632l-14.439,57.769s-8.67-2.943-9.684-4.547,13.961-53.222,13.961-53.222l1.873,2.406,2.674-2.406Z" transform="matrix(0.996, 0.087, -0.087, 0.996, 11666.61, 12635.998)" fill="#5e6a74" opacity="0.32"/>
    <path id="Trazado_610921" data-name="Trazado 610921" d="M-11500.193-11241.632l-14.439,57.769s-8.67-2.943-9.684-4.547,13.961-53.222,13.961-53.222l1.873,2.406,2.674-2.406Z" transform="translate(-10240.86 -10716.336) rotate(180)" fill="#5e6a74" opacity="0.32"/>
    <g id="Grupo_1073428" data-name="Grupo 1073428" transform="translate(1194.813 452.615)">
      <g id="Grupo_1073427" data-name="Grupo 1073427" clip-path="url(#clip-path)">
        <path id="Trazado_615560" data-name="Trazado 615560" d="M45.76,138.613a4.358,4.358,0,0,0,1.651-.759q4.541-2.625,9.064-5.283a12.614,12.614,0,0,1,4.213-1.7,4.186,4.186,0,0,1,4.87,2.436,4.263,4.263,0,0,1-1.964,5.255q-8.669,5.34-17.338,10.68a8.1,8.1,0,0,1-6.761.965c-3.862-1.08-7.751-2.065-11.61-3.152a2.367,2.367,0,0,0-2.008.514c-.38.223-.139.465-.026.7,1.524,3.161,1.336,3.538-1.7,5.374-2.772,1.675-4.006,1.489-5.66-1.588-2.311-4.3-4.786-8.509-7.189-12.758-.97-1.715-.616-3.031,1.081-4.013.749-.433,1.5-.863,2.262-1.274a2.455,2.455,0,0,1,3.647.93c.363.617.609.635,1.179.3,2.26-1.347,4.558-2.629,6.826-3.963a8.522,8.522,0,0,1,8.026-.7,46.672,46.672,0,0,0,8.515,2.619,3.862,3.862,0,0,1,3.011,4.793c-.038.2-.056.4-.088.629m-1.718,2.463c-3.106-.169-6.022-1.208-9-1.978-.765-.2-1.331-.589-1.038-1.458.272-.806.936-.756,1.641-.556a60.835,60.835,0,0,0,6.125,1.586,1.679,1.679,0,0,0,2.1-1.369,1.831,1.831,0,0,0-1.482-2.07,47.782,47.782,0,0,1-8.911-2.75,6.394,6.394,0,0,0-5.954.5c-2.365,1.376-4.726,2.759-7.112,4.1-.567.318-.6.559-.284,1.107,1.362,2.332,2.7,4.679,3.982,7.057.367.683.686.61,1.185.253a2.953,2.953,0,0,1,2.714-.552c3.927,1.109,7.892,2.086,11.817,3.2a6.422,6.422,0,0,0,5.455-.744c5.708-3.549,11.443-7.055,17.166-10.58a2.122,2.122,0,0,0,1.12-2.781c-.377-.945-1.3-1.333-2.637-1.08a10.291,10.291,0,0,0-3.252,1.332q-4.8,2.8-9.605,5.6a7.442,7.442,0,0,1-4.034,1.188m-28.136-5.383c-.925.533-1.929,1.078-2.89,1.688-.244.155-.117.5.031.759q3.968,7,7.922,14c.256.454.556.574,1.011.311.749-.433,1.494-.873,2.256-1.281a.631.631,0,0,0,.3-1.011q-3.969-7-7.93-14c-.132-.232-.271-.5-.7-.471" transform="translate(-8.526 -102.845)" fill="#12263f"/>
        <path id="Trazado_615561" data-name="Trazado 615561" d="M25.041,14.248c0,2.046-.02,4.092.01,6.137a1.611,1.611,0,0,1-.911,1.59q-5.37,3.061-10.7,6.185a1.636,1.636,0,0,1-1.835-.015Q6.266,25.026.9,21.96a1.621,1.621,0,0,1-.9-1.6Q.036,14.225,0,8.087A1.7,1.7,0,0,1,.965,6.418Q6.291,3.386,11.584.3A1.685,1.685,0,0,1,13.5.3Q18.79,3.4,24.121,6.429a1.676,1.676,0,0,1,.931,1.682c-.034,2.045-.012,4.092-.012,6.137M13.569,25.511a2.106,2.106,0,0,0,.422-.106c2.82-1.621,5.631-3.257,8.461-4.86a.986.986,0,0,0,.5-1.027c-.009-1.975,0-3.95,0-5.925V9.407c-3.138,1.814-6.093,3.526-9.054,5.228a.688.688,0,0,0-.328.7c0,3.36,0,6.719,0,10.177M9.534,13.854c0,.855,0,1.646,0,2.436-.007,1.87-.674,2.266-2.289,1.288C3.4,15.25,4.157,16.665,4.08,12.1c-.03-1.786-.049-1.845-1.976-2.538,0,3.452,0,6.874-.005,10.3,0,.508.4.6.71.786q3.909,2.269,7.828,4.52c.228.131.436.356.842.238,0-2.952-.1-5.928.041-8.894a2.251,2.251,0,0,0-1.985-2.65M3.169,7.578c.864.377,1.433,1.374,2.32.9,3-1.622,5.935-3.375,9.143-5.221-1.065-.18-1.529-1.382-2.575-.792C9.142,4.106,6.253,5.8,3.169,7.578m18.613.083c-1.647-1.333-1.646-1.332-3.228-.42-.72.415-1.444.821-2.162,1.238-1.9,1.1-3.806,2.213-5.82,3.384.509.3.9.514,1.28.747.357.219.666.429,1.131.156,2.893-1.7,5.8-3.37,8.8-5.105M17.738,5.3a1.4,1.4,0,0,0-2.03-.28C13.221,6.522,10.682,7.942,8.169,9.4c-.278.162-.634.241-.8.652.5.119.821.746,1.42.4,2.967-1.7,5.927-3.416,8.952-5.162m-10.3,8.491H7.436c0-.31.013-.621,0-.93A.934.934,0,0,0,6.441,12c-.454-.008-.232.544-.259.849a8.832,8.832,0,0,0,0,1.342.942.942,0,0,0,1.008.845c.482,0,.164-.546.243-.841a1.636,1.636,0,0,0,.006-.412" transform="translate(0 0)" fill="#12263f"/>
        <path id="Trazado_615562" data-name="Trazado 615562" d="M210.568,24.543a12.149,12.149,0,0,1,7.755,9.616c.2,1.186-.14,1.617-1.358,1.619q-10.61.016-21.221,0c-1.271,0-1.607-.437-1.382-1.686a11.963,11.963,0,0,1,7.1-9.232c.212-.1.418-.21.632-.317-3.09-4.1-3.117-7.633-.095-10.284a6.613,6.613,0,0,1,8.971.251c2.807,2.732,2.68,6.282-.4,10.033m-4.244,9.147c2.982,0,5.965-.009,8.947.008.6,0,.859-.048.639-.789a10.059,10.059,0,0,0-19.119-.1c-.2.673-.049.9.69.894,2.947-.035,5.9-.014,8.843-.015m4.58-14.333a4.561,4.561,0,1,0-4.646,4.478,4.642,4.642,0,0,0,4.646-4.478" transform="translate(-153.856 -9.998)" fill="#12263f"/>
        <path id="Trazado_615563" data-name="Trazado 615563" d="M137.344,34.466c-.112-.45-.469-.675-.462-1.1a.979.979,0,0,1,1.591-.863c1.091.667,2.151,1.39,3.182,2.147a1.017,1.017,0,0,1-.024,1.8c-.862.638-1.765,1.219-2.654,1.82-.545.369-1.1.853-1.754.234s-.314-1.235.306-1.947h-5.851c-.866,0-1.732,0-2.6-.011-.634-.012-1.081-.3-1.11-.978s.429-.984,1.035-1.071a7.446,7.446,0,0,1,1.037-.031c2.42,0,4.839,0,7.3,0" transform="translate(-101.334 -25.575)" fill="#12263f"/>
        <path id="Trazado_615564" data-name="Trazado 615564" d="M132.478,75.342c2.8,0,5.395,0,7.993,0a1.365,1.365,0,0,1,1.361.564c.446.768-.1,1.517-1.136,1.524-2.427.016-4.854.006-7.281.006H132.6c-.079.391.292.485.367.748a1.087,1.087,0,0,1-.2,1.164.931.931,0,0,1-1.234.159c-1.129-.741-2.269-1.469-3.346-2.28a.949.949,0,0,1,.042-1.663c1.025-.767,2.1-1.473,3.175-2.168a1,1,0,0,1,1.412.152c.5.6.163,1.157-.337,1.8" transform="translate(-101.133 -57.943)" fill="#12263f"/>
        <path id="Trazado_615565" data-name="Trazado 615565" d="M29.545,165.344a.921.921,0,0,1,.95.984.975.975,0,0,1-1.95,0,.938.938,0,0,1,1-.985" transform="translate(-22.604 -130.929)" fill="#12263f"/>
      </g>
    </g>
  </g>
</svg>
