<svg xmlns="http://www.w3.org/2000/svg" xmlns:xlink="http://www.w3.org/1999/xlink" width="125" height="125" viewBox="0 0 125 125">
  <defs>
    <clipPath id="clip-path">
      <rect id="Rectángulo_379139" data-name="Rectángulo 379139" width="71.719" height="74.523" fill="#12263f"/>
    </clipPath>
  </defs>
  <g id="Grupo_1073190" data-name="Grupo 1073190" transform="translate(-1104.668 -5996)">
    <g id="Grupo_1072869" data-name="Grupo 1072869" transform="translate(719 1)">
      <rect id="Rectángulo_377974" data-name="Rectángulo 377974" width="125" height="125" transform="translate(385.668 5995)" fill="none"/>
      <path id="Trazado_610930" data-name="Trazado 610930" d="M-10.279,8.447,92.441.268l13.473,113.306L-7.668,125Z" transform="translate(398.947 5995)" fill="#fff"/>
      <path id="Trazado_610931" data-name="Trazado 610931" d="M-22852-5608.555l-26.621,26.192-.854-1.708-2.277.712-1.709-.712-4.7-1.565,31.316-31.174v1.993h1.85v2.42Z" transform="translate(23362.668 11700)" fill="#ffa346"/>
      <path id="Trazado_610932" data-name="Trazado 610932" d="M-22852-5608.555l-26.621,26.192-.854-1.708-2.277.712-1.709-.712-4.7-1.565,31.316-31.174v1.993h1.85v2.42Z" transform="translate(23273.826 11611.811)" fill="#ffa346"/>
    </g>
    <path id="Intersección_6" data-name="Intersección 6" d="M23221.221,11791.125l1.383,11.624-12.1,11.9-14.367,1.445Z" transform="translate(-21999.613 -5703.732)" fill="#ffe3c7"/>
    <path id="Intersección_5" data-name="Intersección 5" d="M23116.354,11732.74l-2.279.711-1.707-.711-.773-.258-.115-5.1,20.711-20.613,9.867-.786,1.77,2.278-26.621,26.19Z" transform="translate(-22003 -5704)" fill="#ffe3c7"/>
    <rect id="Rectángulo_377981" data-name="Rectángulo 377981" width="73" height="73" transform="translate(1130.668 6023)" fill="#fff"/>
    <g id="Grupo_1073513" data-name="Grupo 1073513" transform="translate(1127.757 6021.238)">
      <g id="Grupo_1073512" data-name="Grupo 1073512" clip-path="url(#clip-path)">
        <path id="Trazado_615764" data-name="Trazado 615764" d="M22.685,183.226a1.551,1.551,0,0,0,.233.242c.9.513,1.8,1.417,2.709,1.42.932,0,1.457-1.326,2.286-1.944a18.581,18.581,0,0,1,3.226-1.9,7.907,7.907,0,0,1-2.882-7.019,7.528,7.528,0,0,1,2.858-5.1,7.626,7.626,0,0,1,10.171.588c3.184,3.185,2.989,7.069-.615,11.571a13.049,13.049,0,0,1,4.9,3.577.58.58,0,0,0,.907.143c.831-.54,1.7-1.026,2.554-1.536-3.606-4.238-3.78-8.431-.5-11.6a7.662,7.662,0,0,1,10.46-.173c3.406,3.087,3.31,7.3-.309,11.811.283.156.553.314.832.456a12.481,12.481,0,0,1,6.27,6.957,1.291,1.291,0,0,0,1.432,1.049c3.227-.03,4.5,1.287,4.506,4.5,0,1.041.024,2.083-.01,3.123a2.138,2.138,0,0,1-2.1,2.18c-.358.031-.72.014-1.081.014H3.18c-2.568,0-3.159-.6-3.16-3.185,0-.921-.009-1.842,0-2.763a3.584,3.584,0,0,1,3.81-3.848,2.072,2.072,0,0,0,2.377-1.642,12.028,12.028,0,0,1,5.937-6.343c.248-.129.5-.246.745-.383.062-.035.094-.124.139-.188-4.314-4.139-3.044-9.191-.346-11.674a7.673,7.673,0,0,1,10.635.238c2.576,2.582,3.589,7.505-.635,11.435M35.8,199.168H66.659c2.658,0,2.658,0,2.655-2.686,0-2.13-.2-2.333-2.325-2.333H4.783c-.32,0-.641-.013-.96.007A1.313,1.313,0,0,0,2.43,195.61a18.292,18.292,0,0,1-.02,2.28c-.139,1.091.286,1.307,1.321,1.3,10.688-.04,21.376-.025,32.064-.025m.006-7.427c1.639,0,3.279-.031,4.917.016a.943.943,0,0,0,1.1-.781,10.541,10.541,0,0,1,1.932-3.56.792.792,0,0,0-.008-1.214,10.438,10.438,0,0,0-15.727-.01c-.366.451-.428.742-.036,1.215a10.064,10.064,0,0,1,1.929,3.559c.205.692.594.8,1.219.786,1.558-.035,3.118-.011,4.677-.012m18.1,0c2.884,0,5.767-.019,8.65.012.8.009,1.131-.119.69-.968-1.962-3.776-5.053-5.885-9.307-5.912-4.305-.027-7.448,2.062-9.442,5.886-.4.776-.261,1.011.638,1,2.923-.043,5.847-.016,8.77-.016m-26.405,0a2.379,2.379,0,0,0-.03-.431,10.31,10.31,0,0,0-9.423-6.456,10.487,10.487,0,0,0-9.547,5.937c-.4.9-.057.965.712.961,4.683-.022,9.366-.011,14.049-.011h4.24m8.346-11.569a5.25,5.25,0,1,0-5.247-5.31,5.322,5.322,0,0,0,5.247,5.31m-17.993,2.235a5.226,5.226,0,1,0-5.233-5.3,5.26,5.26,0,0,0,5.233,5.3m36.047,0a5.234,5.234,0,1,0-5.3-5.224,5.278,5.278,0,0,0,5.3,5.224" transform="translate(-0.013 -127.06)" fill="#12263f"/>
        <path id="Trazado_615765" data-name="Trazado 615765" d="M12.586,13.929a9.281,9.281,0,0,1,3.385,3.794c.128.282.324.311.577.155a3.294,3.294,0,0,1,.325-.153c2.933-1.4,2.908-1.4,2.941-4.662a53.014,53.014,0,0,1,.129-6.956A6.827,6.827,0,0,1,26.953.018c5.165-.032,10.33-.01,15.5-.01,7.367,0,14.735-.015,22.1.008a6.935,6.935,0,0,1,6.983,5.3,6.764,6.764,0,0,1,.172,1.9q.011,9.55,0,19.1a6.851,6.851,0,0,1-6.779,7.2c-1.356.086-2.722.038-4.083.039q-16.637,0-33.274,0c-3.719,0-6.243-1.627-7.333-4.682a8,8,0,0,1-.423-2.833c.01-.611-.116-.748-.744-.5-1.663.655-2.569,1.538-2.405,3.6.249,3.144.075,6.321.061,9.484-.011,2.374-1.076,3.414-3.473,3.418q-4.925.008-9.85,0C1.062,42.045.011,41.013.009,38.709,0,32.944.026,27.178,0,21.412a8.214,8.214,0,0,1,3.491-7c.457-.339.689-.484.135-1.029C.5,10.31.447,5.921,3.43,3.039a7.106,7.106,0,0,1,10.038.186c2.84,2.961,2.591,7.382-.582,10.355-.085.08-.154.177-.3.348M45.779,2.42q-9.247,0-18.493,0c-3.146,0-5.013,1.833-5.057,4.968-.03,2.081.038,4.164-.025,6.244-.031,1,.119,1.6,1.317,1.479a1.818,1.818,0,0,1,1.227.393c.793.676,1.2.25,1.709-.364,1.951-2.332,3.95-4.624,5.915-6.945.6-.709,1.274-1.249,2.113-.5.815.728.283,1.418-.276,2.067q-3.329,3.865-6.626,7.758c-.275.324-.692.59-.64,1.1.241,2.363-1.108,3.666-3.085,4.44a2.387,2.387,0,0,0-1.672,2.709c.122,3.615,1.782,5.352,5.421,5.365,3.042.011,6.084,0,9.127,0,9.087,0,18.174-.066,27.259.032a4.931,4.931,0,0,0,5.355-5.307c-.149-6.041-.162-12.091,0-18.131a4.962,4.962,0,0,0-5.315-5.356c-6.082.128-12.168.039-18.252.039M14.305,28.1c-.867.405-1.5.741-2.158,1a3.9,3.9,0,0,1-5.425-3.686c0-.864.149-1.729,1.191-1.741.993-.012,1.263.716,1.252,1.663a1.494,1.494,0,0,0,2.287,1.446c.622-.269,1.215-.607,1.818-.919,3.406-1.763,6.817-3.515,10.212-5.3a1.569,1.569,0,0,0,.466-2.72,1.594,1.594,0,0,0-1.994-.051c-2.44,1.273-4.887,2.531-7.386,3.822-.2-.823-.346-1.563-.57-2.278a5.906,5.906,0,0,0-6.215-4.056c-3.008.417-5.307,2.644-5.337,5.4-.064,6-.022,12.005-.038,18.008,0,.643.2.955.89.951,3.362-.018,6.723-.013,10.085,0,.57,0,.925-.161.924-.8-.005-3.517,0-7.034,0-10.741M8.362,12.789A4.626,4.626,0,0,0,13.03,8.152,4.738,4.738,0,0,0,8.4,3.433,4.783,4.783,0,0,0,3.654,8.178a4.676,4.676,0,0,0,4.707,4.611" transform="translate(0 -0.001)" fill="#12263f"/>
        <path id="Trazado_615766" data-name="Trazado 615766" d="M164.118,53.446c-3.439,0-6.877-.008-10.316.006-.878,0-1.7-.11-1.668-1.208.029-1.051.829-1.209,1.711-1.208q10.316.013,20.632,0c.89,0,1.671.186,1.666,1.246-.006,1.105-.845,1.172-1.709,1.168-3.439-.013-6.877-.005-10.316-.005" transform="translate(-115.571 -38.77)" fill="#12263f"/>
        <path id="Trazado_615767" data-name="Trazado 615767" d="M182.633,108.3c-2.723,0-5.447.015-8.17-.008-1.072-.009-1.591-.574-1.43-1.453.147-.805.725-.949,1.43-.948q8.11.011,16.219,0c.861,0,1.472.332,1.471,1.193s-.624,1.225-1.47,1.223c-2.683-.007-5.366,0-8.05,0" transform="translate(-131.426 -80.437)" fill="#12263f"/>
        <path id="Trazado_615768" data-name="Trazado 615768" d="M153.393,80.888c-2.162,0-4.324.006-6.486,0-.863,0-1.688-.175-1.649-1.269.036-1.018.847-1.143,1.65-1.144q6.486-.01,12.971,0c.823,0,1.627.174,1.661,1.148.037,1.055-.784,1.269-1.661,1.271q-3.243,0-6.486,0" transform="translate(-110.347 -59.609)" fill="#12263f"/>
        <path id="Trazado_615769" data-name="Trazado 615769" d="M161.624,23.986c1.716,0,3.433.012,5.149,0,.838-.008,1.454.263,1.429,1.193-.025.9-.657,1.211-1.469,1.212q-5.149.008-10.3,0c-.865,0-1.522-.319-1.481-1.306.04-.951.719-1.109,1.522-1.1,1.716.019,3.433.006,5.15.006" transform="translate(-117.711 -18.216)" fill="#12263f"/>
        <path id="Trazado_615770" data-name="Trazado 615770" d="M226.769,24.011c.757,0,1.515.009,2.272,0a1.1,1.1,0,0,1,1.224,1.053,1.12,1.12,0,0,1-1.1,1.309c-1.631.073-3.269.075-4.9,0a1.1,1.1,0,0,1-1.085-1.309,1.054,1.054,0,0,1,1.2-1.05c.8,0,1.594,0,2.392,0" transform="translate(-169.539 -18.238)" fill="#12263f"/>
        <path id="Trazado_615771" data-name="Trazado 615771" d="M227.5,78.517c.719,0,1.441-.041,2.157.011a1.115,1.115,0,0,1,1.18,1.229,1.086,1.086,0,0,1-1.168,1.117c-1.477.038-2.957.041-4.433-.006a1.165,1.165,0,0,1-.011-2.328c.755-.055,1.517-.013,2.276-.013,0,0,0-.007,0-.01" transform="translate(-170.247 -59.635)" fill="#12263f"/>
        <path id="Trazado_615772" data-name="Trazado 615772" d="M135.129,105.934c.756,0,1.512-.015,2.267,0a1.177,1.177,0,0,1,.138,2.33c-1.666.078-3.34.08-5.006,0a1.063,1.063,0,0,1-.989-1.269,1.106,1.106,0,0,1,1.2-1.072c.8,0,1.591,0,2.387,0v0" transform="translate(-99.92 -80.47)" fill="#12263f"/>
      </g>
    </g>
  </g>
</svg>
