<svg xmlns="http://www.w3.org/2000/svg" xmlns:xlink="http://www.w3.org/1999/xlink" width="125" height="125" viewBox="0 0 125 125">
  <defs>
    <clipPath id="clip-path">
      <rect id="Rectángulo_379130" data-name="Rectángulo 379130" width="58.049" height="79.519" fill="none"/>
    </clipPath>
  </defs>
  <g id="Grupo_1073063" data-name="Grupo 1073063" transform="translate(-1104.668 -5996)">
    <g id="Grupo_1072869" data-name="Grupo 1072869" transform="translate(719 1)">
      <rect id="Rectángulo_377974" data-name="Rectángulo 377974" width="125" height="125" transform="translate(385.668 5995)" fill="none"/>
      <path id="Trazado_610930" data-name="Trazado 610930" d="M-10.279,8.447,92.441.268l13.473,113.306L-7.668,125Z" transform="translate(398.947 5995)" fill="#fff"/>
      <path id="Trazado_610931" data-name="Trazado 610931" d="M-22852-5608.555l-26.621,26.192-.854-1.708-2.277.712-1.709-.712-4.7-1.565,31.316-31.174v1.993h1.85v2.42Z" transform="translate(23362.668 11700)" fill="#ffa346"/>
      <path id="Trazado_610932" data-name="Trazado 610932" d="M-22852-5608.555l-26.621,26.192-.854-1.708-2.277.712-1.709-.712-4.7-1.565,31.316-31.174v1.993h1.85v2.42Z" transform="translate(23273.826 11611.811)" fill="#ffa346"/>
    </g>
    <path id="Intersección_6" data-name="Intersección 6" d="M23221.221,11791.125l1.383,11.624-12.1,11.9-14.367,1.445Z" transform="translate(-21999.613 -5703.732)" fill="#ffe3c7"/>
    <path id="Intersección_5" data-name="Intersección 5" d="M23116.354,11732.74l-2.279.711-1.707-.711-.773-.258-.115-5.1,20.711-20.613,9.867-.786,1.77,2.278-26.621,26.19Z" transform="translate(-22003 -5704)" fill="#ffe3c7"/>
    <rect id="Rectángulo_377981" data-name="Rectángulo 377981" width="73" height="73" transform="translate(1136.668 6027)" fill="#fff"/>
    <g id="Grupo_1073495" data-name="Grupo 1073495" transform="translate(1134.433 6018.74)">
      <g id="Grupo_1073494" data-name="Grupo 1073494" clip-path="url(#clip-path)">
        <path id="Trazado_615718" data-name="Trazado 615718" d="M15.937,51.765c-1.447-.184-2.809-.286-4.142-.542A6.183,6.183,0,0,1,6.7,45.711c-.208-1.724-.393-3.453-.51-5.185a5.5,5.5,0,0,0-1.349-3.381c-1.06-1.217-2.061-2.485-3.089-3.729a6.371,6.371,0,0,1-.075-8.7,17.266,17.266,0,0,1,1.744-2.1c2.358-2.106,2.976-4.849,3.04-7.827.007-.331.018-.662.047-.992.437-4.935,2.651-7.064,7.606-7.331.7-.038,1.4-.185,2.1-.166A8.15,8.15,0,0,0,22.3,3.69a33.021,33.021,0,0,1,2.677-2.217A6.359,6.359,0,0,1,33.1,1.46a18.417,18.417,0,0,1,2.38,1.987c2.1,2.292,4.776,2.944,7.723,3a19.628,19.628,0,0,1,2.343.236,6.35,6.35,0,0,1,5.893,6.128c.169,1.77.36,3.538.52,5.31A4.392,4.392,0,0,0,53,20.591q1.666,2.006,3.314,4.027a6.446,6.446,0,0,1-.007,8.807,26.925,26.925,0,0,1-2.224,2.666A8.25,8.25,0,0,0,51.7,42.015c-.053,1.033-.165,2.062-.256,3.092a6.5,6.5,0,0,1-6.267,6.339,21.026,21.026,0,0,1-2.1.175c-.875,0-.92.288-.6,1.034,2.3,5.439,4.565,10.9,6.841,16.347.366.877.72,1.759,1.112,2.625a1.666,1.666,0,0,1-.132,1.963,1.726,1.726,0,0,1-1.948.381c-1.793-.49-3.607-.923-5.354-1.545-1.292-.46-1.975-.21-2.554,1.073-.763,1.69-1.767,3.271-2.655,4.906a1.7,1.7,0,0,1-1.635,1.111,1.734,1.734,0,0,1-1.5-1.3c-1.389-3.359-2.8-6.71-4.2-10.065-.288-.69-.276-1.358.477-1.694a1.159,1.159,0,0,1,1.682.762c.123.307.268.605.4.91q1.435,3.429,2.87,6.858c.124.294.148.663.6.848.81-1.465,1.623-2.944,2.444-4.419.949-1.7,1.8-2.068,3.675-1.548,1.623.45,3.24.925,4.881,1.4.15-.527-.146-.857-.295-1.214-2.371-5.681-4.768-11.35-7.107-17.043-.36-.876-.743-1.244-1.6-.684-2.226,1.446-4.114,3.322-6.21,4.935-.234.18-.314.571-.441.875q-4.136,9.89-8.262,19.784c-.328.788-.656,1.561-1.669,1.6-.95.034-1.346-.664-1.732-1.374-.968-1.779-1.972-3.539-2.912-5.332a.947.947,0,0,0-1.352-.577c-1.928.608-3.889,1.112-5.839,1.652-.81.224-1.622.448-2.291-.334-.634-.741-.293-1.475.011-2.2q3.827-9.146,7.659-18.289c.172-.411.327-.829.509-1.294M2.413,29.076A3.889,3.889,0,0,0,3.4,31.684c1.109,1.338,2.191,2.7,3.319,4.02a7.281,7.281,0,0,1,1.805,4.384c.111,1.691.3,3.377.462,5.064a4.055,4.055,0,0,0,3.825,3.869q2.529.264,5.063.475a7.394,7.394,0,0,1,4.307,1.7q2.035,1.724,4.119,3.391a3.945,3.945,0,0,0,5.517-.026c1.352-1.092,2.7-2.185,4.021-3.318A7.349,7.349,0,0,1,40.13,49.5c1.689-.149,3.377-.3,5.063-.474a3.917,3.917,0,0,0,3.813-3.571c.225-1.553.382-3.121.464-4.688a8.17,8.17,0,0,1,2.074-5.305c1.055-1.163,2.015-2.413,3.008-3.632a4.02,4.02,0,0,0,.01-5.622c-1.142-1.417-2.3-2.82-3.466-4.219a6.48,6.48,0,0,1-1.5-3.6c-.192-1.975-.332-3.958-.61-5.921a4.013,4.013,0,0,0-3.778-3.5c-1.071-.1-2.142-.262-3.214-.262a10.372,10.372,0,0,1-7.688-3.156A27,27,0,0,0,31.732,3.4a4.01,4.01,0,0,0-5.437.039Q24.123,5.2,21.978,6.984a6.3,6.3,0,0,1-3.363,1.461c-1.849.21-3.7.363-5.56.505a4.19,4.19,0,0,0-4.067,3.932q-.261,2.654-.489,5.311A6.692,6.692,0,0,1,6.945,22.03c-1.167,1.4-2.306,2.817-3.469,4.217a4.058,4.058,0,0,0-1.063,2.829m19.33,47.017c2.487-5.942,4.888-11.682,7.3-17.419.222-.529-.033-.672-.485-.691a7.393,7.393,0,0,1-4.489-2.151c-1.353-1.152-2.709-2.31-4.155-3.339-1.122-.8-1.4-.651-1.9.54q-2.2,5.251-4.4,10.5c-1.059,2.53-2.113,5.062-3.258,7.806,1.9-.544,3.545-1.036,5.2-1.489,1.81-.494,2.655-.125,3.573,1.521.841,1.507,1.673,3.019,2.612,4.717" transform="translate(0 0)"/>
        <path id="Trazado_615719" data-name="Trazado 615719" d="M77.228,61.121a16.011,16.011,0,0,0-17.3-16.067c-.165.013-.33.033-.494.055-.873.112-1.557-.21-1.606-1.111-.045-.83.6-1.2,1.4-1.268a18.493,18.493,0,0,1,20.4,19.551c-.466,8.839-7.519,16.062-16.749,17.154-8.21.971-16.8-4.742-19.236-12.8a18.492,18.492,0,0,1,8.778-21.768,6.711,6.711,0,0,1,1.229-.584c.642-.194,1.287-.134,1.558.6a1.141,1.141,0,0,1-.641,1.547,15.686,15.686,0,0,0-4.3,2.906c-4.691,4.632-6.29,10.207-4.353,16.472S52.35,75.846,58.821,76.934A15.983,15.983,0,0,0,77.228,61.121" transform="translate(-32.172 -32.045)"/>
        <path id="Trazado_615720" data-name="Trazado 615720" d="M69.2,88.619a4.238,4.238,0,0,1,3.075,1.64c1.975,2,1.985,1.991,3.987-.01q3.159-3.159,6.314-6.319c1.77-1.764,3.957-1.9,5.476-.351,1.481,1.509,1.357,3.7-.337,5.4Q82.423,94.3,77.105,99.6c-1.841,1.835-3.823,1.854-5.654.055-1.652-1.624-3.3-3.258-4.91-4.919a3.515,3.515,0,0,1-.7-4.021A3.469,3.469,0,0,1,69.2,88.619m5.024,9.955c.669,0,1.007-.455,1.381-.828q5.138-5.126,10.265-10.264a7.616,7.616,0,0,0,.587-.638,1.081,1.081,0,0,0-.083-1.561,1.142,1.142,0,0,0-1.574-.167,5.661,5.661,0,0,0-.823.748q-4.215,4.207-8.425,8.419c-1.083,1.079-1.511,1.082-2.576.034q-1.371-1.348-2.723-2.715c-.633-.644-1.333-.921-2.044-.21-.691.692-.336,1.348.252,1.933q2.374,2.362,4.74,4.733a1.3,1.3,0,0,0,1.022.515" transform="translate(-49.225 -62.002)"/>
      </g>
    </g>
  </g>
</svg>
