<svg xmlns="http://www.w3.org/2000/svg" xmlns:xlink="http://www.w3.org/1999/xlink" width="125" height="125" viewBox="0 0 125 125">
  <defs>
    <clipPath id="clip-path">
      <rect id="Rectángulo_379138" data-name="Rectángulo 379138" width="62.211" height="63.857" fill="#12263f"/>
    </clipPath>
  </defs>
  <g id="Grupo_1073188" data-name="Grupo 1073188" transform="translate(-1104.668 -5996)">
    <g id="Grupo_1072869" data-name="Grupo 1072869" transform="translate(719 1)">
      <rect id="Rectángulo_377974" data-name="Rectángulo 377974" width="125" height="125" transform="translate(385.668 5995)" fill="none"/>
      <path id="Trazado_610930" data-name="Trazado 610930" d="M-10.279,8.447,92.441.268l13.473,113.306L-7.668,125Z" transform="translate(398.947 5995)" fill="#fff"/>
      <path id="Trazado_610931" data-name="Trazado 610931" d="M-22852-5608.555l-26.621,26.192-.854-1.708-2.277.712-1.709-.712-4.7-1.565,31.316-31.174v1.993h1.85v2.42Z" transform="translate(23362.668 11700)" fill="#ffa346"/>
      <path id="Trazado_610932" data-name="Trazado 610932" d="M-22852-5608.555l-26.621,26.192-.854-1.708-2.277.712-1.709-.712-4.7-1.565,31.316-31.174v1.993h1.85v2.42Z" transform="translate(23273.826 11611.811)" fill="#ffa346"/>
    </g>
    <path id="Intersección_6" data-name="Intersección 6" d="M23221.221,11791.125l1.383,11.624-12.1,11.9-14.367,1.445Z" transform="translate(-21999.613 -5703.732)" fill="#ffe3c7"/>
    <path id="Intersección_5" data-name="Intersección 5" d="M23116.354,11732.74l-2.279.711-1.707-.711-.773-.258-.115-5.1,20.711-20.613,9.867-.786,1.77,2.278-26.621,26.19Z" transform="translate(-22003 -5704)" fill="#ffe3c7"/>
    <rect id="Rectángulo_377981" data-name="Rectángulo 377981" width="73" height="73" transform="translate(1130.668 6023)" fill="#fff"/>
    <g id="Grupo_1073511" data-name="Grupo 1073511" transform="translate(1133 6026.571)">
      <g id="Grupo_1073510" data-name="Grupo 1073510" clip-path="url(#clip-path)">
        <path id="Trazado_615758" data-name="Trazado 615758" d="M8.328,130.795a34.807,34.807,0,0,1-4.054-5.323A24.9,24.9,0,0,1,.846,114.26q-.485-7-.838-14.018a3.464,3.464,0,0,1,2.58-3.867c1.636-.519,3.119.084,4.211,1.773a.9.9,0,0,0,.885.435,3.539,3.539,0,0,1,3.706,3.487q.331,4.319.578,8.644a1.412,1.412,0,0,0,.6,1.143c2.446,1.989,4.863,4.015,7.269,6.053,2.183,1.849,2.7,4.387,2.871,7.069.106,1.689.287,3.373.374,5.063.032.623.2.843.863.848,1.571.01,2.333.844,2.344,2.445q.016,2.541,0,5.082a2.186,2.186,0,0,1-2.462,2.45c-1.76.012-3.521,0-5.281.005-.664,0-1.242-.137-1.255-.931-.013-.819.581-.924,1.24-.92,1.661.01,3.322-.02,4.982.014.643.013.875-.187.856-.853-.043-1.56-.036-3.122,0-4.683.013-.619-.215-.792-.811-.79q-7.573.028-15.146,0c-.625,0-.8.234-.792.821.027,1.527.036,3.056,0,4.583-.018.684.191.942.9.924,1.66-.043,3.321-.006,4.982-.016.661,0,1.246.11,1.239.924s-.6.927-1.254.926c-1.794,0-3.587.012-5.381-.005a2.123,2.123,0,0,1-2.345-2.343c-.014-1.661-.006-3.321,0-4.982,0-1.839.581-2.491,2.575-2.744m7.671.074c1.527,0,3.054,0,4.582,0,.4,0,.717,0,.656-.573-.264-2.474-.28-4.971-.676-7.432a5.356,5.356,0,0,0-1.706-3.3q-3.609-3.13-7.317-6.146a2.15,2.15,0,0,0-2.984.078c-.648.742-.506,1.752.389,2.761.11.124.223.246.338.365q2.29,2.357,4.582,4.712c.474.485,1.053.989.388,1.674-.718.739-1.246.12-1.742-.385-1.3-1.327-2.55-2.711-3.908-3.976a6.935,6.935,0,0,1-2.4-5.212c-.118-4.409-.531-8.809-.8-13.214-.088-1.431-.751-2.182-1.94-2.1-1.1.077-1.716.959-1.627,2.293.276,4.138.639,8.274.792,12.417A24.792,24.792,0,0,0,10.3,130.111a2.233,2.233,0,0,0,1.818.776c1.291-.066,2.589-.018,3.884-.018m-6-21.791c-.137-2.225-.27-4.509-.421-6.793a1.792,1.792,0,0,0-1.254-1.735c-.608-.2-1.042-.172-.968.676.11,1.255.166,2.514.247,3.772.126,1.953.261,3.905.374,5.859.025.431.1.562.59.423,1.48-.423,1.488-.4,1.433-1.943,0-.066,0-.133,0-.259" transform="translate(0 -77.015)" fill="#12263f"/>
        <path id="Trazado_615759" data-name="Trazado 615759" d="M198.249,130.823c1.839.235,2.412.884,2.415,2.73,0,1.661.011,3.322,0,4.983a2.125,2.125,0,0,1-2.352,2.337c-1.794.017-3.587,0-5.381.005-.657,0-1.245-.128-1.247-.933s.589-.921,1.247-.917c1.628.01,3.256-.025,4.883.015.7.018,1.027-.145,1-.931-.054-1.526-.035-3.056-.007-4.583.011-.6-.187-.815-.8-.812q-7.574.027-15.147,0c-.607,0-.813.19-.8.8.033,1.594.03,3.189,0,4.783-.01.575.211.748.759.741,1.694-.023,3.388,0,5.082-.011.663,0,1.254.107,1.24.921-.014.786-.587.937-1.255.933-1.827-.01-3.654.015-5.481-.011a2.115,2.115,0,0,1-2.266-2.238c-.03-1.827-.027-3.654,0-5.481a2.071,2.071,0,0,1,2.233-2.249c.748.008.925-.229.984-.943.2-2.478.268-4.968.673-7.431a7.985,7.985,0,0,1,2.919-4.942q3.51-2.943,7.07-5.825a1.215,1.215,0,0,0,.425-1.032c.19-2.915.374-5.831.593-8.744a3.519,3.519,0,0,1,3.593-3.388,1.082,1.082,0,0,0,1.087-.606,3.505,3.505,0,0,1,4.014-1.643,3.433,3.433,0,0,1,2.684,3.6c-.234,5.473-.453,10.955-1.085,16.394a24.5,24.5,0,0,1-6.551,13.7c-.205.228-.565.382-.525.786m-8.01.054c1.462,0,2.924,0,4.386,0a1.382,1.382,0,0,0,1.081-.364c4.606-4.453,7.53-9.725,7.961-16.223q.254-3.827.507-7.655c.143-2.154.3-4.307.421-6.462a1.793,1.793,0,0,0-1.691-2.05,1.739,1.739,0,0,0-1.866,1.769q-.129,1.838-.24,3.678-.342,5.618-.676,11.236a3.361,3.361,0,0,1-.671,1.949,74.679,74.679,0,0,1-6.05,6.333.907.907,0,0,1-1.51-.571c-.063-.492.286-.786.585-1.1,1.709-1.766,3.438-3.514,5.12-5.306a1.938,1.938,0,0,0,.342-2.54,2.156,2.156,0,0,0-2.729-.372,4.148,4.148,0,0,0-.646.464q-3.255,2.707-6.5,5.424a5.831,5.831,0,0,0-2.1,3.3c-.544,2.644-.5,5.35-.781,8.023-.057.549.358.453.672.455,1.462.006,2.924,0,4.386,0m6.193-22.01c-.059,2.041-.052,2.014,1.416,2.422.478.133.565.014.592-.424.192-3.111.408-6.221.595-9.333.02-.337.225-.809-.172-1a1.255,1.255,0,0,0-1.293.3,1.881,1.881,0,0,0-.735,1.46c-.14,2.251-.276,4.5-.4,6.576" transform="translate(-144.203 -77.024)" fill="#12263f"/>
        <path id="Trazado_615760" data-name="Trazado 615760" d="M103.264,67.618A13.087,13.087,0,1,1,90.311,80.8a13.145,13.145,0,0,1,12.953-13.178m-8.1,20.54a8.26,8.26,0,0,1,2.756-4.374c.631-.5.752-.815.336-1.575a5.822,5.822,0,0,1,4.331-8.53,5.591,5.591,0,0,1,5.621,2.455,5.7,5.7,0,0,1,.327,6.213c-.2.395-.6.7.013,1.145a8.429,8.429,0,0,1,3.1,4.63c3.419-3.168,4.38-10.17.1-14.92a11.257,11.257,0,0,0-16.212-.483c-4.222,4.156-4.441,11.611-.374,15.438m8.153,3.735a11.488,11.488,0,0,0,6.106-1.734.929.929,0,0,0,.493-1.138,6.848,6.848,0,0,0-2.731-4.239.924.924,0,0,0-1.09-.1,5.663,5.663,0,0,1-5.34.015.931.931,0,0,0-1.093.069A6.9,6.9,0,0,0,96.91,88.99a.981.981,0,0,0,.549,1.2,11.335,11.335,0,0,0,5.858,1.7m4.087-12.4a3.994,3.994,0,0,0-7.987-.06,3.994,3.994,0,1,0,7.987.06" transform="translate(-72.304 -54.135)" fill="#12263f"/>
        <path id="Trazado_615761" data-name="Trazado 615761" d="M63.979,30.809a3.49,3.49,0,0,1-.637-.182,5.4,5.4,0,0,0-4.409-.006c-1.322.509-1.856.13-1.752-1.262a5.81,5.81,0,0,0-1.416-4.285c-.907-1.124-.736-1.665.68-2.036a6.109,6.109,0,0,0,3.7-2.746c.706-1.074,1.339-1.081,2.039.021A6.121,6.121,0,0,0,66,23.065c1.232.325,1.447.929.651,1.874a6.016,6.016,0,0,0-1.5,4.753c.078.713-.264,1.142-1.171,1.117m-1.137-2.264c.458.163.526-.119.488-.459a3.745,3.745,0,0,1,.969-3.015c.374-.423.166-.641-.285-.734a3.657,3.657,0,0,1-2.479-1.819c-.216-.361-.48-.474-.732-.033a3.8,3.8,0,0,1-2.555,1.881c-.441.1-.592.3-.259.661a3.75,3.75,0,0,1,.969,3.111c-.046.413.143.54.532.378a3.641,3.641,0,0,1,3.35.029" transform="translate(-44.197 -15.601)" fill="#12263f"/>
        <path id="Trazado_615762" data-name="Trazado 615762" d="M205.951,30.81a4.876,4.876,0,0,1-.826-.235,5,5,0,0,0-4.025-.016c-1.578.592-2.081.252-1.965-1.382a5.783,5.783,0,0,0-1.406-4.09c-.889-1.165-.746-1.684.661-2.049a6.1,6.1,0,0,0,3.7-2.741c.714-1.083,1.345-1.091,2.037,0a6.181,6.181,0,0,0,3.809,2.753c1.229.337,1.453.938.678,1.87a6.013,6.013,0,0,0-1.519,4.746c.082.7-.229,1.158-1.15,1.14m.525-6.1c-.05-.351-.358-.342-.542-.382a3.542,3.542,0,0,1-2.4-1.769c-.307-.531-.589-.407-.856.035a3.418,3.418,0,0,1-2.328,1.7c-.675.133-.68.48-.263.936a3.182,3.182,0,0,1,.844,2.653c-.086.7.207.811.784.548a3.38,3.38,0,0,1,2.875.014c.553.242.813.111.729-.513a3.405,3.405,0,0,1,.912-2.829,2.568,2.568,0,0,0,.247-.4" transform="translate(-157.86 -15.598)" fill="#12263f"/>
        <path id="Trazado_615763" data-name="Trazado 615763" d="M138.09,4.764a1.5,1.5,0,0,1-.455.808A5.636,5.636,0,0,0,136.2,9.947c.075,1.294-.442,1.7-1.617,1.233a6.282,6.282,0,0,0-4.8.011c-1.088.418-1.645.025-1.568-1.1a6.266,6.266,0,0,0-1.511-4.658c-.742-.895-.516-1.554.606-1.833A6.1,6.1,0,0,0,131.2.8c.666-1.057,1.349-1.074,1.986-.037A5.944,5.944,0,0,0,137.154,3.6a1.076,1.076,0,0,1,.936,1.165m-2.355.314A4.541,4.541,0,0,1,132.477,2.9c-.135-.263-.37-.311-.526-.021a4.458,4.458,0,0,1-3.285,2.182,4.43,4.43,0,0,1,1.375,3.684c-.065.419.263.4.526.285a3.863,3.863,0,0,1,3.251-.013c.311.137.633.129.558-.347a4.336,4.336,0,0,1,1.36-3.591" transform="translate(-101.098 0)" fill="#12263f"/>
      </g>
    </g>
  </g>
</svg>
