<svg xmlns="http://www.w3.org/2000/svg" xmlns:xlink="http://www.w3.org/1999/xlink" width="70" height="70" viewBox="0 0 70 70">
  <defs>
    <clipPath id="clip-path">
      <rect id="Rectángulo_379194" data-name="Rectángulo 379194" width="42.51" height="34.123" fill="#670303"/>
    </clipPath>
  </defs>
  <g id="Grupo_1073090" data-name="Grupo 1073090" transform="translate(-269 -958)">
    <circle id="Elipse_5614" data-name="Elipse 5614" cx="35" cy="35" r="35" transform="translate(269 958)" fill="#fff"/>
    <g id="Grupo_1073553" data-name="Grupo 1073553" transform="translate(282.745 975.938)">
      <g id="Grupo_1073552" data-name="Grupo 1073552" clip-path="url(#clip-path)">
        <path id="Trazado_615815" data-name="Trazado 615815" d="M61.581,148.386q-4.574,0-9.147,0c-1.748,0-2.266-.69-2.18-2.447a8.8,8.8,0,0,1,7.255-7.97,7.9,7.9,0,0,1,1.274-.085c2.137-.008,4.274.008,6.411-.013.481,0,.8.08.958.6a1.819,1.819,0,0,0,.788.986c.492.305.54.529.071.945a2.744,2.744,0,0,0-.849,3.587,8.212,8.212,0,0,0,1.422,2.417,2.941,2.941,0,0,0,3.374.959c.217-.069.5-.373.673-.054a1.361,1.361,0,0,1,.117.905c-.078.312-.442.164-.678.165q-4.744.013-9.489.006" transform="translate(-41.653 -114.292)" fill="#670303"/>
        <path id="Trazado_615816" data-name="Trazado 615816" d="M155.1,102.983c.083.029.325.1.561.2a2.161,2.161,0,0,0,3.094-1.856,1.089,1.089,0,0,1,1.084-1.155,7.4,7.4,0,0,1,1.612-.068c.895.083,1.412.377,1.5,1.442a2.1,2.1,0,0,0,3.008,1.632,1.244,1.244,0,0,1,1.762.451,5.1,5.1,0,0,1,.7,1.168c.393,1.032.787,1.156-.45,2.126a2.085,2.085,0,0,0,.127,3.373,1.2,1.2,0,0,1,.437,1.81c-.212.369-.394.758-.628,1.113-.7,1.058-.886,1.113-2.082.694a2.166,2.166,0,0,0-2.909,1.865A1.151,1.151,0,0,1,161.7,117a11.259,11.259,0,0,1-1.448.032c-1.165-.08-1.3-.227-1.489-1.388a2.167,2.167,0,0,0-2.866-1.742c-1.223.5-1.427.422-2.264-.831a8.445,8.445,0,0,1-.467-.815c-.523-1.011-.469-1.255.408-1.946a2.13,2.13,0,0,0-.007-3.487c-.863-.673-.9-.866-.415-1.858a6.458,6.458,0,0,1,.982-1.592,1.028,1.028,0,0,1,.972-.395m5.748,8.337a2.744,2.744,0,1,0-2.767-2.7,2.8,2.8,0,0,0,2.767,2.7" transform="translate(-126.691 -82.965)" fill="#670303"/>
        <path id="Trazado_615817" data-name="Trazado 615817" d="M100.273,56.676a6.351,6.351,0,0,1-6.352,6.237,6.348,6.348,0,1,1,6.352-6.237" transform="translate(-72.629 -41.629)" fill="#670303"/>
        <path id="Trazado_615818" data-name="Trazado 615818" d="M15.216,83.259c-.284.238-.61.154-.913.154q-6.113.009-12.226,0c-1.8,0-2.305-.623-1.989-2.394A6.99,6.99,0,0,1,7.38,74.944a14.272,14.272,0,0,1,4.746.373.774.774,0,0,1,.636.919,8.45,8.45,0,0,0,2.373,6.8c.05.052.054.149.08.228" transform="translate(0.001 -62.109)" fill="#670303"/>
        <path id="Trazado_615819" data-name="Trazado 615819" d="M168.917,5.3a5.254,5.254,0,1,1,10.508.012A5.254,5.254,0,1,1,168.917,5.3" transform="translate(-140.028 0)" fill="#670303"/>
        <path id="Trazado_615820" data-name="Trazado 615820" d="M35.446,5.3a5.24,5.24,0,0,1-5.259,5.271A5.346,5.346,0,0,1,24.882,5.31,5.419,5.419,0,0,1,30.176,0a5.34,5.34,0,0,1,5.27,5.3" transform="translate(-20.626 -0.002)" fill="#670303"/>
        <path id="Trazado_615821" data-name="Trazado 615821" d="M185.033,81.173a3.165,3.165,0,0,0-3.873-.929c-.353.143-.382-.056-.41-.307a3.132,3.132,0,0,0-3.546-2.813,18.077,18.077,0,0,0-1.877.065,2.84,2.84,0,0,0-2.73,2.6c-.038.193.134.613-.341.5-.361-.086-.369-.327-.259-.661a7.81,7.81,0,0,0,.4-3.7.549.549,0,0,1,.458-.691,8.518,8.518,0,0,1,1.068-.293,17.136,17.136,0,0,1,5.779.063,7.031,7.031,0,0,1,5.324,5.621,4.678,4.678,0,0,1,0,.547" transform="translate(-142.53 -61.948)" fill="#670303"/>
      </g>
    </g>
  </g>
</svg>
