<svg xmlns="http://www.w3.org/2000/svg" xmlns:xlink="http://www.w3.org/1999/xlink" width="125" height="125" viewBox="0 0 125 125">
  <defs>
    <clipPath id="clip-path">
      <rect id="Rectángulo_379125" data-name="Rectángulo 379125" width="53.657" height="71.602" fill="#12263f"/>
    </clipPath>
  </defs>
  <g id="Grupo_1073067" data-name="Grupo 1073067" transform="translate(-743.668 -5996)">
    <g id="Grupo_1072868" data-name="Grupo 1072868" transform="translate(358 1)">
      <rect id="Rectángulo_377974" data-name="Rectángulo 377974" width="125" height="125" transform="translate(385.668 5995)" fill="none"/>
      <path id="Trazado_610930" data-name="Trazado 610930" d="M-10.279,8.447,92.441.268l13.473,113.306L-7.668,125Z" transform="translate(398.947 5995)" fill="#fff"/>
      <path id="Trazado_610931" data-name="Trazado 610931" d="M-22852-5608.555l-26.621,26.192-.854-1.708-2.277.712-1.709-.712-4.7-1.565,31.316-31.174v1.993h1.85v2.42Z" transform="translate(23362.668 11700)" fill="#ffa346"/>
      <path id="Trazado_610932" data-name="Trazado 610932" d="M-22852-5608.555l-26.621,26.192-.854-1.708-2.277.712-1.709-.712-4.7-1.565,31.316-31.174v1.993h1.85v2.42Z" transform="translate(23273.826 11611.811)" fill="#ffa346"/>
    </g>
    <path id="Intersección_4" data-name="Intersección 4" d="M23221.221,11791.125l1.383,11.624-12.1,11.9-14.367,1.445Z" transform="translate(-22360.613 -5703.732)" fill="#ffe3c7"/>
    <path id="Intersección_3" data-name="Intersección 3" d="M23116.354,11732.74l-2.279.711-1.707-.711-.773-.258-.115-5.1,20.711-20.613,9.867-.786,1.77,2.278-26.621,26.19Z" transform="translate(-22364 -5704)" fill="#ffe3c7"/>
    <rect id="Rectángulo_377980" data-name="Rectángulo 377980" width="73" height="73" transform="translate(769.668 6023)" fill="#fff"/>
    <g id="Grupo_1073485" data-name="Grupo 1073485" transform="translate(773.668 6022.699)">
      <g id="Grupo_1073484" data-name="Grupo 1073484" clip-path="url(#clip-path)">
        <path id="Trazado_615686" data-name="Trazado 615686" d="M23.449,238.9c-1.56-.149-3.634-.815-5.754-1.248A26.066,26.066,0,0,0,14.4,237a5.211,5.211,0,0,0-2.827.542c-.585.3-1.038.571-.9,1.428a1.642,1.642,0,0,1-1.317,1.844c-.89.281-1.792.534-2.7.732a1.9,1.9,0,0,1-2.513-1.574q-2-7.412-3.989-14.827c-.421-1.566.045-2.418,1.613-2.878.717-.21,1.458-.337,2.17-.561a1.843,1.843,0,0,1,2.342.781c.277.444.473.321.776.086.858-.665,1.709-1.342,2.6-1.966a6.657,6.657,0,0,1,5.872-.991c3.529.977,7.058,1.951,10.6,2.879a5.065,5.065,0,0,1,3.961,3.264c.232.693.542.375.9.171q4.617-2.665,9.236-5.327a5.307,5.307,0,0,1,2.19-.809,4.391,4.391,0,0,1,4.594,3.036A4.332,4.332,0,0,1,44.9,228.02c-4.781,2.793-9.586,5.545-14.383,8.313-1,.58-2.007,1.162-3.021,1.726a7.219,7.219,0,0,1-4.052.84m.537-2.141a5.875,5.875,0,0,0,2.887-.922q5-2.9,10.009-5.783c2.3-1.328,4.6-2.65,6.9-3.99a2.058,2.058,0,0,0,1.127-2.25,2.037,2.037,0,0,0-1.595-1.7,2.324,2.324,0,0,0-1.819.357q-5.438,3.151-10.889,6.278a2.926,2.926,0,0,0-.972,1.04,4.406,4.406,0,0,1-4.6,2.14c-2.364-.378-4.626-1.188-6.936-1.8-.8-.212-1.166-.724-.9-1.5.245-.721.808-.843,1.547-.633,2.048.584,4.1,1.157,6.176,1.636a2.416,2.416,0,0,0,3.125-1.795,2.457,2.457,0,0,0-1.92-2.961c-3.813-1.065-7.64-2.081-11.459-3.126a4.142,4.142,0,0,0-3.626.647c-1.162.819-2.266,1.719-3.414,2.559a.8.8,0,0,0-.355.96q1.256,4.652,2.5,9.307c.1.388.236.621.687.366,2.472-1.395,4.992-.812,7.525-.194,1.994.487,4,.91,6.006,1.362M8.3,238.466c-.06-.276-.086-.424-.124-.568q-.953-3.569-1.909-7.136C5.707,228.709,5.1,226.668,4.6,224.6c-.186-.755-.632-.708-1.055-.439-.372.236-1.348-.209-1.071.834q1.824,6.871,3.651,13.741c.131.5.374.6.8.379.461-.242,1.234.051,1.373-.653" transform="translate(0 -170.024)" fill="#12263f"/>
        <path id="Trazado_615687" data-name="Trazado 615687" d="M117.8,96.283c0-2.958-.018-5.916.012-8.874.008-.74-.066-1.13-.989-1.173a1.7,1.7,0,0,1-1.343-2.773c1.657-2.264,3.383-4.479,5.144-6.663a1.686,1.686,0,0,1,2.8.053c1.734,2.158,3.439,4.342,5.078,6.573a1.707,1.707,0,0,1-1.284,2.8c-1,.035-1.035.481-1.032,1.241.02,5.8.012,11.608.01,17.411,0,1.661-.222,1.887-1.869,1.893-1.685.006-3.37-.006-5.055,0-1.02,0-1.493-.452-1.483-1.5.028-3,.01-5.991.009-8.987m4.2-17.62L117.956,83.9c2.044.3,2.1.364,2.1,2.3q0,7.862,0,15.725c0,2.6,0,2.56,2.652,2.612.955.019,1.27-.195,1.26-1.22-.056-5.615-.032-11.232-.02-16.848A3.258,3.258,0,0,1,124.2,84.5c.412-.616,1.145-.371,1.839-.609L122,78.663" transform="translate(-89.225 -58.974)" fill="#12263f"/>
        <path id="Trazado_615688" data-name="Trazado 615688" d="M180.212,121.367c0-1.948-.021-3.9.011-5.843.01-.629-.106-.893-.831-.967-1.771-.181-2.379-1.642-1.311-3.061q2.364-3.14,4.8-6.224a1.794,1.794,0,0,1,3.1.023q2.441,3.08,4.811,6.216a1.78,1.78,0,0,1-1.265,3.038c-.781.08-.9.383-.9,1.046.02,3.783.014,7.566.006,11.349,0,1.5-.276,1.767-1.779,1.775-1.723.01-3.446-.007-5.169,0-1.032.007-1.5-.479-1.485-1.513.023-1.947.007-3.9.006-5.843m.188-9.192c2.066.408,2.067.408,2.067,2.411q0,4.607,0,9.213c0,2.676,0,2.624,2.7,2.687,1.027.024,1.243-.316,1.23-1.273-.052-3.707-.025-7.415-.018-11.123,0-1.438.156-1.6,1.554-1.768a4.854,4.854,0,0,0,.532-.14c-1.266-1.639-2.475-3.2-3.68-4.767-.212-.275-.4-.439-.683-.06-1.214,1.6-2.444,3.181-3.7,4.819" transform="translate(-137.635 -80.923)" fill="#12263f"/>
        <path id="Trazado_615689" data-name="Trazado 615689" d="M55.553,131.425c0-1.535-.017-3.071.007-4.606.009-.571-.1-.826-.777-.9-1.82-.194-2.435-1.69-1.334-3.146q2.3-3.044,4.666-6.042c1.017-1.292,2.242-1.308,3.26-.025q2.406,3.034,4.739,6.127a1.8,1.8,0,0,1-1.331,3.078c-.745.067-.826.344-.822.954.021,3,.015,5.991.007,8.987,0,1.356-.3,1.659-1.644,1.672-1.76.016-3.52-.01-5.28.008-1.037.011-1.507-.471-1.494-1.5.019-1.535,0-3.071,0-4.606m8.325-7.788c-1.335-1.733-2.562-3.322-3.783-4.916-.2-.263-.4-.335-.621-.045-1.251,1.611-2.5,3.224-3.808,4.913,2.109.26,2.151.309,2.152,2.331q0,3.258,0,6.516c0,2.891,0,2.852,2.88,2.855.894,0,1.043-.333,1.032-1.12-.04-2.808-.016-5.617-.015-8.426,0-1.88.08-1.965,2.164-2.108" transform="translate(-41.008 -89.73)" fill="#12263f"/>
        <path id="Trazado_615690" data-name="Trazado 615690" d="M110.126,15.1c.272-1.148.556-2.46.9-3.757A1.133,1.133,0,0,0,110.593,10c-.963-.769-1.872-1.606-2.807-2.412a1.178,1.178,0,0,1-.518-1.362,1.254,1.254,0,0,1,1.235-.8c1.23-.085,2.458-.209,3.688-.292a1.155,1.155,0,0,0,1.132-.867c.409-1.121.9-2.214,1.37-3.31.211-.489.475-.929,1.116-.956.7-.028,1,.413,1.231.951.47,1.1.956,2.191,1.372,3.31a1.179,1.179,0,0,0,1.14.872c1.23.084,2.459.2,3.689.289a1.174,1.174,0,0,1,.71,2.175c-.938.8-1.846,1.64-2.813,2.4a1.158,1.158,0,0,0-.425,1.367c.3,1.155.578,2.315.855,3.475a1.242,1.242,0,0,1-.339,1.431,1.273,1.273,0,0,1-1.558-.049c-1.049-.646-2.123-1.255-3.154-1.927a1.046,1.046,0,0,0-1.305.012c-1.067.688-2.148,1.357-3.257,1.975-1.013.565-1.857.07-1.828-1.182M115.87,4.06C115.4,6.7,113.841,7.712,111.248,7.4c.725,1.057,1.88,1.38,2.215,2.36.346,1.011-.471,1.993-.311,3.34,1.824-2,3.65-1.763,5.618-.179-1.233-2.453-.348-4.09,1.733-5.433-2.63.239-4.125-.807-4.634-3.431" transform="translate(-83.098 0.001)" fill="#12263f"/>
      </g>
    </g>
  </g>
</svg>
