<svg xmlns="http://www.w3.org/2000/svg" xmlns:xlink="http://www.w3.org/1999/xlink" width="120" height="120" viewBox="0 0 120 120">
  <defs>
    <clipPath id="clip-path">
      <rect id="Rectángulo_379131" data-name="Rectángulo 379131" width="62.942" height="64.015" fill="none"/>
    </clipPath>
  </defs>
  <g id="Grupo_1073083" data-name="Grupo 1073083" transform="translate(-292.865 -9557)">
    <g id="Grupo_1072889" data-name="Grupo 1072889" transform="translate(292.865 9557)">
      <g id="Grupo_1072868" data-name="Grupo 1072868">
        <rect id="Rectángulo_377974" data-name="Rectángulo 377974" width="119.714" height="119.714" fill="none"/>
        <path id="Trazado_610930" data-name="Trazado 610930" d="M-10.279,8.116,86.589.268,99.294,108.987-7.817,119.951Z" transform="translate(13.831 0.049)" fill="#ffed33"/>
        <path id="Trazado_610931" data-name="Trazado 610931" d="M-22845.346-5607.035l-31.521,31.011-1.01-2.023-2.7.843-2.023-.843-5.561-1.854,37.076-36.91v2.359h2.191v2.865Z" transform="translate(22965.346 5693.227)" fill="#ffa346"/>
        <path id="Trazado_610932" data-name="Trazado 610932" d="M-22845.346-5607.035l-31.521,31.011-1.01-2.023-2.7.843-2.023-.843-5.561-1.854,37.076-36.91v2.359h2.191v2.865Z" transform="translate(22888.156 5616.811)" fill="#ffa346"/>
      </g>
      <path id="Intersección_4" data-name="Intersección 4" d="M29.7,0l1.639,13.763L17.01,27.855,0,29.566Z" transform="translate(80.761 80.21)" fill="#fbdb0a"/>
      <path id="Intersección_3" data-name="Intersección 3" d="M5.772,31.685l-2.7.842-2.022-.842-.915-.305L0,25.336,24.523.931,36.2,0l2.1,2.7L6.782,33.708Z" transform="translate(4.512 7.08)" fill="#fbdb0a"/>
      <rect id="Rectángulo_377980" data-name="Rectángulo 377980" width="58.551" height="86.551" transform="translate(31.158 17.589)" fill="#ffed33"/>
      <g id="Grupo_1073497" data-name="Grupo 1073497" transform="translate(26.767 25.993)">
        <g id="Grupo_1073496" data-name="Grupo 1073496" clip-path="url(#clip-path)">
          <path id="Trazado_615721" data-name="Trazado 615721" d="M89.638,97c0-2.239.049-4.3-.023-6.363-.032-.908.4-.946,1.081-.93.629.015,1.137-.07,1.1.894-.08,2.2.019,4.4-.046,6.593a2.292,2.292,0,0,0,.9,2.154c.425.311.794.7,1.3,1.149V96.526q0-.649,0-1.3c0-1.311,0-1.268,1.265-1.3.685-.016.827.238.821.863-.028,2.8,0,5.6-.019,8.393a6.207,6.207,0,0,0,.342,2.145,13.163,13.163,0,0,1,.672,5.8c-.058.555-.138.972.718,1.034s.307.888.423,1.359c.1.4-.033.761-.558.662-.913-.172-1.123.4-1.541,1.077-.98,1.591-.406,2.527.8,3.658,2.747,2.568,5.351,5.289,8.009,7.953,1.016,1.019,1.016,1.4.027,2.393-.8.8-1.594,1.608-2.4,2.4-.924.91-1.332.912-2.251,0-2.948-2.939-5.9-5.871-8.822-8.84a.97.97,0,0,0-1.475-.165,14.828,14.828,0,0,1-21.737-7.523,1.237,1.237,0,0,0-1.418-.961c-4.163.038-8.327-.01-12.49.04-.883.011-.941-.367-.94-1.06s.051-1.071.938-1.06c4,.052,7.994,0,11.99.042.86.009,1.176-.15,1.053-1.09a11.936,11.936,0,0,1,.634-5.6,6.982,6.982,0,0,0,.371-2.441c-.022-3.064.029-6.129-.031-9.192-.017-.9.4-.922,1.074-.934.713-.013,1.071.092,1.045.955-.066,2.187-.022,4.377-.022,6.615,1.755-1.118,2.176-1.862,2.176-3.762,0-1.665.057-3.334-.023-5-.043-.891.366-.933,1.055-.939.727-.006,1.173.034,1.127.982-.081,1.692-.023,3.39-.023,5.218.667-.3,1.226-.555,1.794-.791.385-.16.287-.489.291-.768.014-.966.026-1.932,0-2.9-.026-1.019.729-.62,1.2-.67s1.048-.136.975.689c-.044.5-.008,1-.008,1.5,0,1.267,0,1.224,1.292,1.171.654-.027.856-.244.845-.884-.032-1.965.044-3.932-.034-5.894-.039-1,.539-.837,1.137-.859.626-.023,1.065-.014,1.035.859-.067,1.93-.025,3.863-.018,5.795,0,.968.215,1.117,1.722,1.081.761-.018.376-.651.38-.97.036-2.664.065-5.33,0-7.993-.024-.934.44-.921,1.093-.91.627.011,1.145-.073,1.122.892-.066,2.763.033,5.53-.052,8.292-.032,1.038.169,1.713,1.237,1.976a5.556,5.556,0,0,1,.883.426m5.347,12.952a12.8,12.8,0,1,0-12.839,12.807,12.795,12.795,0,0,0,12.839-12.807m8.331,18.147a9.352,9.352,0,0,1-.889-.657q-3.636-3.62-7.258-7.254c-1.111-1.111-1.08-1.079-2.151-.01-.488.487-.507.756,0,1.248,2.609,2.557,5.177,5.157,7.772,7.728.2.2.376.685.778.4.562-.4,1.063-.876,1.753-1.457" transform="translate(-42.706 -68.335)"/>
          <path id="Trazado_615722" data-name="Trazado 615722" d="M58.822,42.865q10.542,0,21.084,0a5.31,5.31,0,0,1,5.352,3.825,6.168,6.168,0,0,1,.18,1.88q.009,16.688.011,33.375a5.853,5.853,0,0,1-.811,3.239c-.3.483-.534.665-1.05.189-.606-.559-1.236-.978-.505-1.911a2.5,2.5,0,0,0,.287-1.548q-.006-16.688-.007-33.375a3.259,3.259,0,0,0-3.546-3.56q-20.985-.02-41.969,0a3.218,3.218,0,0,0-3.541,3.543q-.021,16.737,0,33.475c0,2.267,1.29,3.492,3.565,3.494,4.2,0,8.394.03,12.59-.021.887-.011.95.368.943,1.062s.016,1.167-.961,1.154c-4.2-.056-8.394,0-12.59-.031a5.349,5.349,0,0,1-5.679-5.713q-.019-16.688,0-33.375c0-3.535,2.2-5.7,5.762-5.7q10.442-.013,20.885,0" transform="translate(-25.737 -34.294)"/>
          <path id="Trazado_615723" data-name="Trazado 615723" d="M26.72.036q10.543,0,21.085.005A5.3,5.3,0,0,1,53.16,4a8.868,8.868,0,0,1,.162,1.78c.084.855-.523.7-.984.661-.44-.035-1.145.341-1.1-.634a3.4,3.4,0,0,0-1.008-2.724A3.012,3.012,0,0,0,48.068,2.2q-21.385.009-42.77.011A3.128,3.128,0,0,0,2.161,5.418c-.039.664-.01,1.332-.01,2q0,15.589-.01,31.178c0,1.682.38,3.029,2.022,3.893.766.4.062,1.166-.056,1.747-.132.653-.605.257-.86.137A5.147,5.147,0,0,1,.065,39.789c-.078-1.362-.026-2.73-.026-4.1C.038,25.8.108,15.906,0,6.014A5.707,5.707,0,0,1,6.035,0c6.893.12,13.79.035,20.685.035" transform="translate(-0.001 0)"/>
          <path id="Trazado_615724" data-name="Trazado 615724" d="M87.533,150.683c0,1.827-.051,3.657.02,5.481.04,1.045-.631.769-1.177.8-.575.029-1.066.1-1.053-.812q.08-5.581,0-11.163c-.013-.93.508-.812,1.068-.8s1.2-.2,1.161.818c-.069,1.891-.02,3.787-.02,5.681" transform="translate(-68.267 -115.354)"/>
          <path id="Trazado_615725" data-name="Trazado 615725" d="M106.63,164.777c0-1.328.041-2.657-.013-3.983-.042-1.014.663-.688,1.148-.7s1.065-.244,1.048.687q-.074,4.082,0,8.166c.017.908-.537.746-1.034.713s-1.2.319-1.162-.7c.047-1.393.012-2.788.012-4.182" transform="translate(-85.303 -128.059)"/>
          <path id="Trazado_615726" data-name="Trazado 615726" d="M64.189,179.254c0-.8.05-1.6-.014-2.393-.07-.86.463-.8,1.008-.762.512.031,1.166-.242,1.132.744-.057,1.661-.044,3.326,0,4.987.02.855-.554.68-1.008.648s-1.153.331-1.119-.63c.03-.864.006-1.729.006-2.594" transform="translate(-51.341 -140.883)"/>
          <path id="Trazado_615727" data-name="Trazado 615727" d="M21.406,22.156c-.264-1.01.372-.95,1.1-1.025,1.126-.117.967.547,1.039,1.263.108,1.066-.541.9-1.209.974-1.043.111-1.039-.479-.932-1.212" transform="translate(-17.078 -16.896)"/>
          <path id="Trazado_615728" data-name="Trazado 615728" d="M44.745,22.368c.262.988-.328.979-1.082,1.037-.963.074-1.017-.353-1.065-1.136-.061-1,.382-1.071,1.2-1.113,1.018-.052,1.069.461.948,1.212" transform="translate(-34.078 -16.924)"/>
          <path id="Trazado_615729" data-name="Trazado 615729" d="M54.462,64.114c1.086-.285,1.011.379,1.076,1.1.092,1.02-.469.962-1.191,1.027-1.013.092-.982-.444-1.028-1.179-.062-.979.378-1.151,1.143-.951" transform="translate(-42.656 -51.239)"/>
          <path id="Trazado_615730" data-name="Trazado 615730" d="M76.754,65.095c.148.809-.026,1.222-1,1.186-.833-.031-1.184-.176-1.144-1.1.034-.76.121-1.166,1.021-1.1.71.056,1.4-.044,1.12,1.01" transform="translate(-59.695 -51.268)"/>
          <path id="Trazado_615731" data-name="Trazado 615731" d="M64.171,22.264c-.207-.893.174-1.1,1.044-1.123.951-.026,1.046.357,1.073,1.155.029.881-.232,1.1-1.1,1.106-.915.006-1.2-.29-1.012-1.137" transform="translate(-51.299 -16.913)"/>
          <path id="Trazado_615732" data-name="Trazado 615732" d="M96.225,65.061c-.241-.928.28-.965,1.025-1.025.994-.081,1.021.394,1.052,1.16.034.865-.291,1.013-1.081,1.043-.966.038-1.153-.372-1-1.178" transform="translate(-76.942 -51.228)"/>
          <path id="Trazado_615733" data-name="Trazado 615733" d="M154.837,176.172a10.64,10.64,0,1,1,10.729-10.533,10.549,10.549,0,0,1-10.729,10.533m5.45-16.968c0,1.814-.057,3.631.023,5.441.041.94-.446.918-1.094.9-.6-.017-1.165.134-1.122-.863.084-1.927-.048-3.864.053-5.789.055-1.043-.286-1.481-1.282-1.669-.68-.128-.893-.017-.883.691.031,2.23-.033,4.462.033,6.69.026.875-.349.947-1.054.952-.736.006-1.151-.05-1.12-.987.073-2.194.029-4.393.016-6.59,0-.273.145-.622-.213-.8-.563-.28-1.9.522-1.9,1.147-.007,2.13,0,4.261-.01,6.391,0,.271.154.707-.232.768a3.789,3.789,0,0,1-1.677-.021c-.493-.158-.232-.756-.24-1.154-.028-1.431,0-2.862-.018-4.293,0-.276.118-.592-.14-.835a8.2,8.2,0,0,0-2.877,8c.131.443.393.538.809.537q7.589-.014,15.178,0a.682.682,0,0,0,.792-.673,7.94,7.94,0,0,0-3.039-7.844m-5.254,10.584c-2.16,0-4.32,0-6.481.006-.25,0-.579-.134-.74.118-.179.28.125.48.269.683a8.515,8.515,0,0,0,13.689.006c.146-.2.446-.4.279-.682-.157-.262-.487-.123-.736-.124-2.094-.011-4.187-.006-6.281-.006" transform="translate(-115.446 -123.93)"/>
        </g>
      </g>
    </g>
  </g>
</svg>
