<svg xmlns="http://www.w3.org/2000/svg" xmlns:xlink="http://www.w3.org/1999/xlink" width="125" height="125" viewBox="0 0 125 125">
  <defs>
    <clipPath id="clip-path">
      <rect id="Rectángulo_379122" data-name="Rectángulo 379122" width="73.541" height="79.786" fill="#12263f"/>
    </clipPath>
  </defs>
  <g id="Grupo_1073066" data-name="Grupo 1073066" transform="translate(-743.668 -5996)">
    <g id="Grupo_1072868" data-name="Grupo 1072868" transform="translate(358 1)">
      <rect id="Rectángulo_377974" data-name="Rectángulo 377974" width="125" height="125" transform="translate(385.668 5995)" fill="none"/>
      <path id="Trazado_610930" data-name="Trazado 610930" d="M-10.279,8.447,92.441.268l13.473,113.306L-7.668,125Z" transform="translate(398.947 5995)" fill="#fff"/>
      <path id="Trazado_610931" data-name="Trazado 610931" d="M-22852-5608.555l-26.621,26.192-.854-1.708-2.277.712-1.709-.712-4.7-1.565,31.316-31.174v1.993h1.85v2.42Z" transform="translate(23362.668 11700)" fill="#ffa346"/>
      <path id="Trazado_610932" data-name="Trazado 610932" d="M-22852-5608.555l-26.621,26.192-.854-1.708-2.277.712-1.709-.712-4.7-1.565,31.316-31.174v1.993h1.85v2.42Z" transform="translate(23273.826 11611.811)" fill="#ffa346"/>
    </g>
    <path id="Intersección_4" data-name="Intersección 4" d="M23221.221,11791.125l1.383,11.624-12.1,11.9-14.367,1.445Z" transform="translate(-22360.613 -5703.732)" fill="#ffe3c7"/>
    <path id="Intersección_3" data-name="Intersección 3" d="M23116.354,11732.74l-2.279.711-1.707-.711-.773-.258-.115-5.1,20.711-20.613,9.867-.786,1.77,2.278-26.621,26.19Z" transform="translate(-22364 -5704)" fill="#ffe3c7"/>
    <rect id="Rectángulo_377980" data-name="Rectángulo 377980" width="73" height="73" transform="translate(779.668 6023)" fill="#fff"/>
    <g id="Grupo_1073479" data-name="Grupo 1073479" transform="translate(763.652 6018.607)">
      <g id="Grupo_1073478" data-name="Grupo 1073478" clip-path="url(#clip-path)">
        <path id="Trazado_615662" data-name="Trazado 615662" d="M43.339,20.2c2.037,4.4,3.833,8.506,5.825,12.51a7.165,7.165,0,0,1,.115,6.515c-3.666,8.575-7.167,17.22-10.762,25.825a2.2,2.2,0,0,0,.041,1.993c1.317,2.725,2.575,5.479,3.868,8.216.839,1.775,1.954,2.2,3.735,1.37Q57.832,71.2,69.485,65.726c1.7-.8,2.113-2.037,1.294-3.792q-5.943-12.738-11.9-25.468c-.123-.263-.267-.518-.367-.789a1.169,1.169,0,0,1,.613-1.665c.707-.3,1.213.1,1.51.719,1.07,2.246,2.118,4.5,3.173,6.755q4.51,9.632,9.016,19.265c1.522,3.262.623,5.712-2.632,7.236q-11.377,5.329-22.757,10.65c-3.251,1.519-5.7.628-7.234-2.622-1.062-2.244-2.123-4.49-3.3-6.973-.848,2.016-1.609,3.818-2.365,5.622-.288.688-.553,1.386-.85,2.07a4.69,4.69,0,0,1-6.367,2.637c-4.646-1.891-9.268-3.839-13.908-5.742-.79-.324-1.366-.782-1.02-1.672.4-1.014,1.211-.782,1.99-.458q6.548,2.714,13.1,5.427c2.384.994,3.34.61,4.34-1.8q7.717-18.608,15.456-37.206a4.393,4.393,0,0,0-.1-3.909c-2.184-4.562-4.286-9.164-6.4-13.757a4.657,4.657,0,0,0-1.739-2.061c-.42-.266-.716-.357-.8.346-.155,1.264-.385,2.372.765,3.49a3.528,3.528,0,0,1,.053,4.6A3.934,3.934,0,0,1,34.6,28.032a3.956,3.956,0,0,1,.012-7.477c.811-.269,1.649-1.871,1.283-2.6-.277-.553-.715-.125-1.061.006-4.3,1.632-8.556,3.4-12.914,4.86a6.253,6.253,0,0,0-4.086,4.048C12.885,39.037,7.824,51.163,2.8,63.3c-.891,2.152-.463,3.177,1.715,4.088,1.224.512,2.453,1.01,3.679,1.518.778.322,1.318.829.91,1.721-.374.819-1.063.777-1.8.461-1.333-.571-2.685-1.1-4.018-1.673-3.011-1.3-4.015-3.748-2.753-6.8Q6.183,48.943,11.862,35.277c1.476-3.561,2.978-7.112,4.412-10.69A5.636,5.636,0,0,1,19.8,21.165c5.384-1.919,10.612-4.264,16.083-5.951.7-.216.564-.838.638-1.335a53.062,53.062,0,0,1,1.686-8.15,9.885,9.885,0,0,1,2.482-4.256,4.242,4.242,0,0,1,4.9-1.1,4.318,4.318,0,0,1,2.617,4.3A10.163,10.163,0,0,1,47.13,8.983a54.99,54.99,0,0,1-4.252,7.593c-.416.627-.485.9.379,1.159,2.937.873,5.843,1.851,8.771,2.758a5.066,5.066,0,0,1,3.271,2.84c.9,1.959,1.826,3.907,2.749,5.856.368.778.577,1.573-.4,2.007-.992.442-1.4-.3-1.75-1.067-.885-1.92-1.8-3.825-2.693-5.742a2.481,2.481,0,0,0-1.432-1.475c-2.7-.881-5.416-1.741-8.439-2.709M45.824,4.79c.006-.953-.144-1.831-1.159-2.266a2.1,2.1,0,0,0-2.529.8,7.661,7.661,0,0,0-1.549,2.673,56.68,56.68,0,0,0-1.853,8.733c-.158.868.527.889.983,1.17.537.33.809.029,1.09-.4A55.967,55.967,0,0,0,45.2,7.565a6.774,6.774,0,0,0,.626-2.775M34.261,24.254A1.567,1.567,0,0,0,35.807,25.9a1.516,1.516,0,0,0,1.635-1.513,1.592,1.592,0,1,0-3.181-.131" transform="translate(0 0)" fill="#12263f"/>
        <path id="Trazado_615663" data-name="Trazado 615663" d="M64.875,143.872c7.006.052,12.909,5.751,12.968,12.5.008.874-.1,1.681-1.153,1.691-.962.009-1.113-.762-1.185-1.579-.539-6.153-5.062-10.405-10.949-10.327a10.844,10.844,0,0,0-10.4,9.171,10.73,10.73,0,0,0,20.059,6.657c.419-.751.892-1.451,1.818-1,1.031.506.687,1.361.25,2.129a12.565,12.565,0,0,1-11.619,6.839,12.414,12.414,0,0,1-11.7-7.5,13,13,0,0,1,11.913-18.582" transform="translate(-38.795 -108.005)" fill="#12263f"/>
        <path id="Trazado_615664" data-name="Trazado 615664" d="M87,180.959c.722-1.024-.016-1.441-.874-1.945a1.9,1.9,0,0,1-.808-1.964,1.154,1.154,0,0,1,.963-1.138,1.052,1.052,0,0,1,1.3.7c.46,1.328,1.738,1.019,2.677,1.346.355.123.659-.3.745-.692a.7.7,0,0,0-.423-.818c-.452-.2-.934-.327-1.4-.48a3.239,3.239,0,0,1-2.454-3.321,3.077,3.077,0,0,1,2.974-2.934c.507-.055.829-.125.953-.716.175-.834.619-1.558,1.631-1.218.9.3.958,1.03.616,1.834-.22.517-.062.782.5,1.013a2.1,2.1,0,0,1,1.361,2.392,1.129,1.129,0,0,1-1.05,1.063,1.056,1.056,0,0,1-1.2-.686c-.477-1.283-1.709-1.068-2.676-1.343-.32-.091-.621.2-.723.557a.72.72,0,0,0,.409.933c.491.211,1.016.341,1.521.522a3.2,3.2,0,0,1,2.3,3.423,2.991,2.991,0,0,1-2.982,2.77c-.844.051-.863.563-1.031,1.1a1.145,1.145,0,0,1-1.426.878c-.638-.118-.857-.581-.9-1.274" transform="translate(-64.034 -125.886)" fill="#12263f"/>
        <path id="Trazado_615665" data-name="Trazado 615665" d="M212.168,207.806a1.111,1.111,0,0,1-.674,1.089.943.943,0,0,1-1.234-.238,4.051,4.051,0,0,1-.621-1.063q-3.425-7.242-6.836-14.491c-.071-.15-.13-.3-.2-.454-.333-.694-.291-1.357.439-1.7.765-.362,1.333-.019,1.693.751,1.489,3.189,3,6.368,4.5,9.552.865,1.836,1.732,3.67,2.587,5.51a1.963,1.963,0,0,1,.348,1.047" transform="translate(-151.944 -143.236)" fill="#12263f"/>
        <path id="Trazado_615666" data-name="Trazado 615666" d="M224.671,179.466a1.378,1.378,0,0,1,1.189.915q3.62,7.7,7.242,15.4c.348.739.331,1.427-.477,1.787s-1.3-.089-1.653-.834c-2.386-5.1-4.8-10.19-7.182-15.29-.478-1.022-.058-1.929.881-1.976" transform="translate(-167.852 -134.727)" fill="#12263f"/>
      </g>
    </g>
  </g>
</svg>
