<svg xmlns="http://www.w3.org/2000/svg" xmlns:xlink="http://www.w3.org/1999/xlink" width="70" height="70" viewBox="0 0 70 70">
  <defs>
    <clipPath id="clip-path">
      <rect id="Rectángulo_379226" data-name="Rectángulo 379226" width="44.343" height="35.455" fill="#670303"/>
    </clipPath>
  </defs>
  <g id="Grupo_1073136" data-name="Grupo 1073136" transform="translate(-269 -958)">
    <circle id="Elipse_5614" data-name="Elipse 5614" cx="35" cy="35" r="35" transform="translate(269 958)" fill="#fff"/>
    <g id="Grupo_1073600" data-name="Grupo 1073600" transform="translate(281.828 975.272)">
      <g id="Grupo_1073599" data-name="Grupo 1073599" clip-path="url(#clip-path)">
        <path id="Trazado_615909" data-name="Trazado 615909" d="M14.533,24.313a16.56,16.56,0,0,1-6.754-1.37,1.356,1.356,0,0,0-1.33.037A11.452,11.452,0,0,1,1.6,24.3c-.608.036-1.2.02-1.5-.667s.154-1.037.58-1.427a9.711,9.711,0,0,0,.924-.957c1.273-1.532,1.271-1.584.182-3.227C-1.372,13.253-.265,7.244,4.49,3.354A16.208,16.208,0,0,1,25.674,4.6a10.835,10.835,0,0,1-.665,15.769,15.747,15.747,0,0,1-10.477,3.939" transform="translate(0 0)" fill="#670303"/>
        <path id="Trazado_615910" data-name="Trazado 615910" d="M118.006,86.919a11.433,11.433,0,0,1-4.6-1.231,1.907,1.907,0,0,0-1.752-.035c-6.29,2.316-12.1,1.632-17.242-2.9a10.492,10.492,0,0,1-2.554-3.6c-.453-.995-.4-1.036.656-1.2a17.145,17.145,0,0,0,10.674-5.673,13.471,13.471,0,0,0,3.251-8.907c.009-.465-.028-.81.626-.719a15.347,15.347,0,0,1,9.847,4.973,10.6,10.6,0,0,1,.561,13.5,1.359,1.359,0,0,0-.057,1.875,9.588,9.588,0,0,0,1.553,1.822c.46.4.8.833.547,1.459-.279.692-.9.675-1.508.631" transform="translate(-75.286 -51.495)" fill="#670303"/>
      </g>
    </g>
  </g>
</svg>
