<svg xmlns="http://www.w3.org/2000/svg" xmlns:xlink="http://www.w3.org/1999/xlink" width="125" height="125" viewBox="0 0 125 125">
  <defs>
    <clipPath id="clip-path">
      <rect id="Rectángulo_379127" data-name="Rectángulo 379127" width="55.131" height="68.367" fill="none"/>
    </clipPath>
  </defs>
  <g id="Grupo_1073058" data-name="Grupo 1073058" transform="translate(-1104.668 -5996)">
    <g id="Grupo_1072869" data-name="Grupo 1072869" transform="translate(719 1)">
      <rect id="Rectángulo_377974" data-name="Rectángulo 377974" width="125" height="125" transform="translate(385.668 5995)" fill="none"/>
      <path id="Trazado_610930" data-name="Trazado 610930" d="M-10.279,8.447,92.441.268l13.473,113.306L-7.668,125Z" transform="translate(398.947 5995)" fill="#fff"/>
      <path id="Trazado_610931" data-name="Trazado 610931" d="M-22852-5608.555l-26.621,26.192-.854-1.708-2.277.712-1.709-.712-4.7-1.565,31.316-31.174v1.993h1.85v2.42Z" transform="translate(23362.668 11700)" fill="#ffa346"/>
      <path id="Trazado_610932" data-name="Trazado 610932" d="M-22852-5608.555l-26.621,26.192-.854-1.708-2.277.712-1.709-.712-4.7-1.565,31.316-31.174v1.993h1.85v2.42Z" transform="translate(23273.826 11611.811)" fill="#ffa346"/>
    </g>
    <path id="Intersección_6" data-name="Intersección 6" d="M23221.221,11791.125l1.383,11.624-12.1,11.9-14.367,1.445Z" transform="translate(-21999.613 -5703.732)" fill="#ffe3c7"/>
    <path id="Intersección_5" data-name="Intersección 5" d="M23116.354,11732.74l-2.279.711-1.707-.711-.773-.258-.115-5.1,20.711-20.613,9.867-.786,1.77,2.278-26.621,26.19Z" transform="translate(-22003 -5704)" fill="#ffe3c7"/>
    <rect id="Rectángulo_377981" data-name="Rectángulo 377981" width="73" height="73" transform="translate(1130.668 6023)" fill="#fff"/>
    <g id="Grupo_1073489" data-name="Grupo 1073489" transform="translate(1142.668 6041)">
      <g id="Grupo_1073488" data-name="Grupo 1073488" transform="translate(-6.109 -17.736)" clip-path="url(#clip-path)">
        <path id="Trazado_615700" data-name="Trazado 615700" d="M9.924,59.088c0-1.029,0-2.057,0-3.086,0-.77-.112-1.568.8-1.98.369-.166.174-.516.148-.787a16.229,16.229,0,0,0-4.634-10.1A20.455,20.455,0,0,1,.29,32.075,19.77,19.77,0,0,1,11.075,10.848a19.171,19.171,0,0,1,15.585-.811c.83.3,1.119.062,1.488-.6C29.7,6.65,31.3,3.886,32.885,1.119c.862-1.5,1.738-1.492,2.608.029Q41.75,12.084,48,23.026c.954,1.67.561,2.309-1.406,2.311-2.094,0-4.188.027-6.281-.014-.69-.014-.887.176-.806.869.781,6.656-1.393,12.249-6.079,16.965a15.9,15.9,0,0,0-4.6,9.988c-.026.277-.243.672.068.815,1.121.517.872,1.5.878,2.385.014,2.057.018,4.114,0,6.171a2.245,2.245,0,0,1-2.521,2.512,8.413,8.413,0,0,1-1.1-.005,2.459,2.459,0,0,0-2.759,1.387,4.261,4.261,0,0,1-7.461-.549,1.237,1.237,0,0,0-1.4-.844,21.184,21.184,0,0,1-2.313,0,2.184,2.184,0,0,1-2.285-2.3c-.034-1.211-.007-2.424-.009-3.636M2.3,29.944l.4.3c.6-.721,1.192-1.456,1.816-2.159A1.2,1.2,0,0,1,6.5,28.058c.877.889,1.8,1.737,2.639,2.657.548.6.971.769,1.536.034.355-.462.864-.8,1.225-1.263.593-.751.936-.177,1.274.213.323.373,1.125.637.339,1.354-.894.816-1.734,1.693-2.579,2.561a1.258,1.258,0,0,1-2.075-.048c-.892-.925-1.833-1.8-2.713-2.74-.434-.462-.754-.6-1.226-.042a18.3,18.3,0,0,1-1.631,1.639,1.126,1.126,0,0,0-.306,1.363,16.906,16.906,0,0,0,4.083,6.959A19.8,19.8,0,0,1,13.11,53.138c.068.719.35.877,1.02.872q5.73-.044,11.46,0c.71.007.93-.217.988-.9a18.52,18.52,0,0,1,2.516-7.893c.551-.938.4-1.233-1.112-2.468-.816-.668-1.025.237-1.342.553-2.625,2.617-2.248,2.46-4.894-.171a1.31,1.31,0,0,1-.151-.16c-.5-.706.3-.848.563-1.172.217-.265.433-.889,1.02-.383.376.325.665,1.015,1.155.877.469-.132.818-.7,1.214-1.08.343-.331.685-.666,1.014-1.011a1.215,1.215,0,0,1,1.991-.023c.643.655,1.3,1.293,1.95,1.945.248.25.422.434.79.079,4.421-4.271,6.753-9.324,6.061-15.6-.114-1.038-.417-1.31-1.445-1.3-4.774.059-9.55.029-14.325.024-1.719,0-2.126-.7-1.28-2.185,1.885-3.316,3.761-6.638,5.687-9.93.414-.708.422-1.009-.435-1.3A17.688,17.688,0,0,0,3.264,22.664,16.265,16.265,0,0,0,2.3,29.944M34.181,3.31,22.91,23.038H45.458L34.181,3.31M19.9,56.208c-2.314,0-4.629.015-6.943-.011-.581-.007-.856.1-.839.771q.066,2.533,0,5.068c-.016.645.21.815.82.791,1.064-.043,2.131.007,3.2-.017a1.308,1.308,0,0,1,1.542,1.3,2.178,2.178,0,0,0,4.342-.005,1.31,1.31,0,0,1,1.547-1.3c1.065.024,2.132-.026,3.2.017.615.025.831-.156.815-.8-.041-1.652-.057-3.307.005-4.958.03-.784-.293-.889-.958-.879-2.24.033-4.481.013-6.722.013" transform="translate(0 0)"/>
        <path id="Trazado_615701" data-name="Trazado 615701" d="M153.668,212.972a1.22,1.22,0,0,1,.487.113c1.161.864,1.938-.179,2.845-.556.365-.152.208-.506.266-.773a2.144,2.144,0,0,1,2.307-1.912c.918-.019,1.837-.017,2.755,0a2.149,2.149,0,0,1,2.367,1.968,2.357,2.357,0,0,0,2.653,1.428,2.077,2.077,0,0,1,2.776.816c.553.821,1.061,1.674,1.54,2.541a2.01,2.01,0,0,1-.6,2.816,1.965,1.965,0,0,0,.013,2.922,2,2,0,0,1,.626,2.727c-.488.9-1.024,1.784-1.6,2.634a2.077,2.077,0,0,1-2.785.789,2.349,2.349,0,0,0-2.637,1.444,2.153,2.153,0,0,1-2.37,1.966c-.918.016-1.837.02-2.755,0a2.145,2.145,0,0,1-2.3-1.921,2.3,2.3,0,0,0-2.716-1.442,2.017,2.017,0,0,1-2.619-.73,27.832,27.832,0,0,1-1.719-2.815,1.957,1.957,0,0,1,.643-2.63,1.956,1.956,0,0,0-.027-2.988,1.868,1.868,0,0,1-.676-2.435,32.651,32.651,0,0,1,1.864-3.11,2.155,2.155,0,0,1,1.658-.847m1.821,12.946a12.788,12.788,0,0,1,3.647,2.185.728.728,0,0,1,.223.491c-.121,1.2.653,1.152,1.462,1.094a8.536,8.536,0,0,1,.991,0c.413.018.635-.054.712-.568.2-1.326,3.2-3.384,4.5-3.156a1.121,1.121,0,0,1,.412.145c.725.471,1.1.1,1.409-.539a6.318,6.318,0,0,1,.562-.944c.244-.345.163-.539-.155-.813-1.063-.914-1.458-4.119-.69-5.27.041-.061.076-.142.135-.171,1.278-.631.656-1.37.172-2.164-.379-.622-.692-1.06-1.5-.566a1.772,1.772,0,0,1-1.867-.249c-.541-.307-1.065-.652-1.629-.91a1.985,1.985,0,0,1-1.355-1.827c-.01-.488-.214-.64-.669-.608a7.371,7.371,0,0,1-1.1,0c-.789-.063-1.439-.033-1.386,1.062a1.185,1.185,0,0,1-.64.984c-.948.55-1.914,1.069-2.886,1.576a1.728,1.728,0,0,1-1.487-.093c-.225-.087-.519-.388-.7-.153a10.45,10.45,0,0,0-1.219,1.944c-.235.52.452.552.687.836a2.285,2.285,0,0,1,.609,1.6,18.639,18.639,0,0,0-.006,1.87,2.146,2.146,0,0,1-.934,2.094c-.28.189-.577.349-.294.772a9.207,9.207,0,0,0,1.143,1.729c.354.327.839-.27,1.3-.309.11-.009.219-.015.546-.038" transform="translate(-116.869 -163.56)"/>
        <path id="Trazado_615702" data-name="Trazado 615702" d="M149.947,44.216c0-1.248.042-2.5-.014-3.744-.044-.98.634-.7,1.11-.691s1.143-.316,1.127.673c-.04,2.5-.036,4.993,0,7.489.013.915-.618.662-1.052.628s-1.2.406-1.176-.612c.024-1.248.006-2.5.006-3.744" transform="translate(-116.87 -30.974)"/>
        <path id="Trazado_615703" data-name="Trazado 615703" d="M152.062,85.821c.244.941-.155,1.165-1.069,1.178s-1.171-.253-1.146-1.163c.023-.817.165-1.164,1.078-1.114.8.044,1.435.025,1.137,1.1" transform="translate(-116.803 -66.037)"/>
        <path id="Trazado_615704" data-name="Trazado 615704" d="M180.029,244.294a4.406,4.406,0,1,1,4.391,4.423,4.406,4.406,0,0,1-4.391-4.423m4.419,2.21a2.194,2.194,0,1,0-2.205-2.155,2.221,2.221,0,0,0,2.205,2.155" transform="translate(-140.331 -187.003)"/>
      </g>
    </g>
  </g>
</svg>
