<svg xmlns="http://www.w3.org/2000/svg" xmlns:xlink="http://www.w3.org/1999/xlink" width="70" height="70" viewBox="0 0 70 70">
  <defs>
    <clipPath id="clip-path">
      <rect id="Rectángulo_379223" data-name="Rectángulo 379223" width="46.138" height="36.897" fill="#670303"/>
    </clipPath>
  </defs>
  <g id="Grupo_1073133" data-name="Grupo 1073133" transform="translate(-269 -958)">
    <circle id="Elipse_5614" data-name="Elipse 5614" cx="35" cy="35" r="35" transform="translate(269 958)" fill="#fff"/>
    <g id="Grupo_1073594" data-name="Grupo 1073594" transform="translate(280.931 974.552)">
      <g id="Grupo_1073593" data-name="Grupo 1073593" clip-path="url(#clip-path)">
        <path id="Trazado_615901" data-name="Trazado 615901" d="M30,133.5c-.248.19-.534.084-.8.084q-13.314.01-26.628.005c-1.9,0-2.75-.944-2.552-2.848.608-5.859,4.126-10.181,9.468-11.569a11.7,11.7,0,0,1,2.822-.436,81.538,81.538,0,0,1,9.051.118c.153.016.305.044.459.054.893.061,1.254.477,1.361,1.429a18.407,18.407,0,0,0,6.384,12.6c.174.146.435.249.431.559" transform="translate(0 -96.714)" fill="#670303"/>
        <path id="Trazado_615902" data-name="Trazado 615902" d="M55.962,9.219a9.142,9.142,0,1,1-18.285.008,9.143,9.143,0,1,1,18.285-.008" transform="translate(-30.707 0)" fill="#670303"/>
        <path id="Trazado_615903" data-name="Trazado 615903" d="M137.535,94.124c-.114-1.73.215-2.21,1.649-2.776,2.518-.994,5.036-1.989,7.537-3.026a2.7,2.7,0,0,1,2.214-.024q3.923,1.619,7.884,3.143a1.937,1.937,0,0,1,1.391,2.045c-.274,5.992-2.854,12.222-9.57,14.969a1.941,1.941,0,0,1-1.6-.017,14.838,14.838,0,0,1-8.927-10.7,16.633,16.633,0,0,1-.582-3.613m10.288,4.127c0,2.032,0,4.063,0,6.1,0,.377-.1.934.608.526,3.875-2.244,5.781-5.726,6.331-10.064.057-.453-.16-.664-.554-.819-1.888-.744-3.774-1.495-5.65-2.268-.583-.24-.751-.071-.745.526.02,2,.008,4,.007,6" transform="translate(-112.075 -71.779)" fill="#670303"/>
      </g>
    </g>
  </g>
</svg>
