<svg xmlns="http://www.w3.org/2000/svg" xmlns:xlink="http://www.w3.org/1999/xlink" width="70" height="70" viewBox="0 0 70 70">
  <defs>
    <clipPath id="clip-path">
      <rect id="Rectángulo_379224" data-name="Rectángulo 379224" width="30.521" height="40.6" fill="#670303"/>
    </clipPath>
  </defs>
  <g id="Grupo_1073134" data-name="Grupo 1073134" transform="translate(-269 -958)">
    <circle id="Elipse_5614" data-name="Elipse 5614" cx="35" cy="35" r="35" transform="translate(269 958)" fill="#fff"/>
    <g id="Grupo_1073596" data-name="Grupo 1073596" transform="translate(288.74 972.7)">
      <g id="Grupo_1073595" data-name="Grupo 1073595" clip-path="url(#clip-path)">
        <path id="Trazado_615904" data-name="Trazado 615904" d="M1.906,9.808c-.36-1.86.5-2.993,2.152-3.677A3.894,3.894,0,0,0,6.311,3.907a3.141,3.141,0,0,1,3.831-2.221A4.163,4.163,0,0,0,13.46.708,2.907,2.907,0,0,1,17.216.667a5.081,5.081,0,0,0,3.922,1A2.576,2.576,0,0,1,24.107,3.3a5.642,5.642,0,0,0,3.25,3.159,2.474,2.474,0,0,1,1.514,2.928,4.83,4.83,0,0,0,1.013,3.9c1.066,1.479,1.055,2.278-.032,3.793a4.718,4.718,0,0,0-.982,3.8,2.576,2.576,0,0,1-1.68,3.034,5.154,5.154,0,0,0-2.993,3,2.571,2.571,0,0,1-3,1.741,4.972,4.972,0,0,0-4.078,1.109,2.557,2.557,0,0,1-3.457.019A5.144,5.144,0,0,0,9.49,28.66a2.454,2.454,0,0,1-2.8-1.574A5.912,5.912,0,0,0,3.4,23.816,2.311,2.311,0,0,1,1.9,21.2,5.824,5.824,0,0,0,.726,16.711a2.625,2.625,0,0,1,.051-3.228C1.5,12.371,2.3,11.266,1.906,9.808M15.3,21.564A6.406,6.406,0,1,0,8.966,15.1a6.355,6.355,0,0,0,6.33,6.462" transform="translate(-0.154 0)" fill="#670303"/>
        <path id="Trazado_615905" data-name="Trazado 615905" d="M3.36,133.5a2.573,2.573,0,0,1,.7,1.07,5.186,5.186,0,0,0,5.5,3c1.517-.193,2.442.821,3.6,1.382.333.162.214.452.108.709-.881,2.13-1.735,4.273-2.659,6.384a1.18,1.18,0,0,1-2.174.167q-1.126-1.57-2.16-3.206a1.007,1.007,0,0,0-1.179-.524c-1.066.192-2.143.331-3.216.484-.575.082-1.148.169-1.6-.364a1.4,1.4,0,0,1-.07-1.615c1.04-2.46,2.066-4.925,3.138-7.487" transform="translate(0 -106.261)" fill="#670303"/>
        <path id="Trazado_615906" data-name="Trazado 615906" d="M93.691,132.633c.66,1.551,1.217,2.853,1.767,4.158.5,1.189,1.027,2.368,1.48,3.575.509,1.356-.15,2.133-1.586,1.928-1.109-.158-2.219-.31-3.321-.51a1.033,1.033,0,0,0-1.185.536q-.991,1.544-2.042,3.049c-.786,1.13-1.815,1.031-2.366-.247-.861-2-1.669-4.013-2.526-6.01-.217-.505-.132-.762.358-1.059a6.383,6.383,0,0,1,3.976-1.149c2.235.162,3.833-1.127,4.873-3.082.158-.3.292-.6.574-1.191" transform="translate(-66.698 -105.568)" fill="#670303"/>
      </g>
    </g>
  </g>
</svg>
