<svg xmlns="http://www.w3.org/2000/svg" xmlns:xlink="http://www.w3.org/1999/xlink" width="125" height="125" viewBox="0 0 125 125">
  <defs>
    <clipPath id="clip-path">
      <rect id="Rectángulo_379136" data-name="Rectángulo 379136" width="75.255" height="63.802" fill="#12263f"/>
    </clipPath>
  </defs>
  <g id="Grupo_1073617" data-name="Grupo 1073617" transform="translate(-385.668 -2520)">
    <g id="Grupo_1073185" data-name="Grupo 1073185" transform="translate(0 -3475)">
      <rect id="Rectángulo_377974" data-name="Rectángulo 377974" width="125" height="125" transform="translate(385.668 5995)" fill="none"/>
      <path id="Trazado_610930" data-name="Trazado 610930" d="M-10.279,8.447,92.441.268l13.473,113.306L-7.668,125Z" transform="translate(398.947 5995)" fill="#fff"/>
      <path id="Trazado_610931" data-name="Trazado 610931" d="M-22852-5608.555l-26.621,26.192-.854-1.708-2.277.712-1.709-.712-4.7-1.565,31.316-31.174v1.993h1.85v2.42Z" transform="translate(23362.668 11700)" fill="#ffa346"/>
      <path id="Trazado_610932" data-name="Trazado 610932" d="M-22852-5608.555l-26.621,26.192-.854-1.708-2.277.712-1.709-.712-4.7-1.565,31.316-31.174v1.993h1.85v2.42Z" transform="translate(23273.826 11611.811)" fill="#ffa346"/>
    </g>
    <path id="Intersección_9" data-name="Intersección 9" d="M23221.221,11791.125l1.383,11.624-12.1,11.9-14.367,1.445Z" transform="translate(-22718.613 -9179.732)" fill="#ffe3c7"/>
    <path id="Intersección_10" data-name="Intersección 10" d="M23116.354,11732.74l-2.279.711-1.707-.711-.773-.258-.115-5.1,20.711-20.613,9.867-.786,1.77,2.278-26.621,26.19Z" transform="translate(-22722 -9180)" fill="#ffe3c7"/>
    <rect id="Rectángulo_379061" data-name="Rectángulo 379061" width="73" height="73" transform="translate(411.668 2547)" fill="#fff"/>
    <g id="Grupo_1073507" data-name="Grupo 1073507" transform="translate(405.652 2547.591)">
      <g id="Grupo_1073506" data-name="Grupo 1073506" clip-path="url(#clip-path)">
        <path id="Trazado_615754" data-name="Trazado 615754" d="M18.609,20.726a7.984,7.984,0,0,1-2.289-8.237c.85-3.081,3.633-5.22,6.417-4.959a6.844,6.844,0,0,1,5.986,6.263,8.555,8.555,0,0,1-1.508,5.781c1.8-.235,3.34-.452,4.887-.632.6-.071.747-.417.695-.934a1.61,1.61,0,0,1,1.295-1.827c.39-.129.761-.314,1.139-.476,2.346-1,3.062-2.721,2.116-5.073a5.194,5.194,0,0,0-.294-.679,2.163,2.163,0,0,1,.6-3.127,21.316,21.316,0,0,0,2.277-2.268,1.724,1.724,0,0,1,2.22-.456,7.34,7.34,0,0,1,1.135.478c1.431,1,2.733.346,4.039-.266.815-.382.868-1.267,1.172-1.957C49.523.015,49.5,0,51.993,0h.124c4.5.041,3.519-.481,5.2,3.325a3.768,3.768,0,0,0,3.83,1.619c3.956-1.466,2.785-1.858,6.03,1.332.265.26.509.546.8.778a1.8,1.8,0,0,1,.535,2.506,13.3,13.3,0,0,0-.561,1.37,3.438,3.438,0,0,0,1.95,4.657c3.068,1.332,2.436.688,2.748,3.973.268,2.82-.617,4.423-3.379,5.09-.971.234-1.948,2.55-1.668,3.515.987,3.409.987,3.409,4.21,1.99,3.08-1.356,3.447-1.12,3.447,2.218q0,14.6,0,29.208c0,1.863-.356,2.213-2.246,2.214q-35.4,0-70.793,0a5.907,5.907,0,0,1-1.109-.05A1.266,1.266,0,0,1,.019,62.7,1.055,1.055,0,0,1,.758,61.42c1.952-.433,2.363-1.971,2.873-3.575,3.553-11.174,7.161-22.33,10.734-33.5a4.784,4.784,0,0,1,4.244-3.623M72.715,32.482,7.671,61.056c.244.348.465.252.647.252q31.683.008,63.366.029c1.025,0,1.1-.407,1.1-1.235-.023-8.828-.014-17.657-.016-26.485,0-.321-.03-.643-.054-1.136m-31-25.86c-1.036.065-2.527,2.3-2.054,3.111.976,1.684.76,3.2.09,4.994a5.311,5.311,0,0,1-3.733,3.349c-.613.2-1.05.458-.158.987a3.028,3.028,0,0,1,1.528,2.788.741.741,0,0,0,.553.831c.694.224.961.8,1.272,1.407,1.076,2.12,1.769,4.17.34,6.473-.684,1.1.782,1.414,1.213,2.117.411.672.947.693,1.68.38.892-.381,1.822-1.2,2.764-.875,2.175.76,4.81,1.049,5.393,4,.228,1.151.994,1.266,2,1.248,1.047-.019,1.938.018,2.232-1.3a3.909,3.909,0,0,1,3.1-3.13,3.042,3.042,0,0,0,.8-.332,3.324,3.324,0,0,1,3.281-.055c1.906.863,1.9.763,3.4-.643a1.349,1.349,0,0,0,.35-1.82c-.38-.813-1.132-1.73-.854-2.52.745-2.113.867-4.747,3.743-5.463.482-.12,1.251-.218,1.345-.731a8.77,8.77,0,0,0,.033-2.827c-.094-.626-.894-.674-1.4-.832a3.684,3.684,0,0,1-2.79-2.808,3.574,3.574,0,0,0-.432-1.022,3.027,3.027,0,0,1,.017-3.375c.8-1.295.572-2.248-.622-3.238a1.657,1.657,0,0,0-2.039-.371c-.812.369-1.69,1.112-2.533.81-2.209-.791-4.878-1.106-5.467-4.1-.216-1.1-.953-1.244-1.915-1.2-.943.044-1.906-.159-2.2,1.156a4.288,4.288,0,0,1-3.454,3.423,3.877,3.877,0,0,0-1.03.411,2.263,2.263,0,0,1-2.344,0c-.692-.352-1.445-.583-2.106-.842M26.774,49.946l10.178-4.467C40.87,43.76,44.793,42.05,48.7,40.3c.3-.132,1.119-.089.735-.752-.582-1.006-.926-2.1-1.424-3.138-.434-.9-2.766-1.985-3.574-1.466-2.706,1.74-4.592.827-6.445-1.458-1.508-1.859-1.777-1.788-.717-3.915a4.287,4.287,0,0,0-.216-4.188,1.066,1.066,0,0,0-1.409-.622c-3.494.938-6.985,1.886-10.494,2.762a1.6,1.6,0,0,0-1.287,1.263c-.652,2.122-1.356,4.229-2.046,6.339-.8,2.442-.8,2.441,1.727,3.252.313.1.622.215.935.314,3.282,1.031,4.667,3.7,3.622,6.959-.422,1.316-.819,2.64-1.33,4.295m7.289-28.773c-5.219.7-10.439,1.4-15.655,2.122a1.905,1.905,0,0,0-1.545,1.444c-1.048,3.246-2.059,6.5-3.125,9.743-.187.57-.126.786.477.954,1.226.34,2.434.753,3.635,1.176.627.221.9.082,1.109-.586.961-3.1,2.013-6.172,2.962-9.276a1.66,1.66,0,0,1,1.383-1.3c3.591-.882,7.162-1.843,10.743-2.768.511-.132.969-.269.842-.956-.089-.481-.413-.561-.827-.552M26.3,14.759l-.071,0a7.944,7.944,0,0,0,0-.862,4.287,4.287,0,0,0-3.559-3.868c-1.738-.175-3.252,1.027-3.946,3.066a5.683,5.683,0,0,0-.213,2.312,4.321,4.321,0,0,0,3.575,4.122c1.806.162,3.43-1.151,4.03-3.305a9.963,9.963,0,0,0,.189-1.459M12.958,37.638A3.716,3.716,0,0,0,15.906,41.5c1.836.6,3.68,1.169,5.521,1.75,1.59.5,1.791.875,1.3,2.415C22,47.957,21.273,50.246,20.494,52.7c1-.437,1.779-.809,2.583-1.119a1.221,1.221,0,0,0,.809-.837c.656-2.119,1.383-4.218,1.977-6.354a2.421,2.421,0,0,0-1.657-3.145c-3.705-1.221-7.429-2.385-11.249-3.605m-1.47,3.844-5.6,17.41c1.139-.521,2.6-.326,3.077-1.561,1.679-4.374,3.274-8.78,4.9-13.175.13-.351.3-.678-.219-.911a8.992,8.992,0,0,1-2.165-1.763m.5,14.95c1.806-.786,3.306-1.463,4.827-2.088a1.485,1.485,0,0,0,.88-1.084c.657-2.12,1.349-4.23,2.018-6.346.467-1.477.46-1.479-1.083-1.95-2.138-.653-2.152-.658-2.913,1.382C14.5,49.609,13.3,52.881,11.992,56.432M57.649,36.376,61,34.9a3.9,3.9,0,0,0-3.346,1.477" transform="translate(0 0)" fill="#12263f"/>
        <path id="Trazado_615755" data-name="Trazado 615755" d="M194.247,52.95a9.1,9.1,0,1,1-9.22-9.032,9.162,9.162,0,0,1,9.22,9.032m-2.5.073a6.613,6.613,0,1,0-6.617,6.576,6.631,6.631,0,0,0,6.617-6.576" transform="translate(-132.45 -33.042)" fill="#12263f"/>
      </g>
    </g>
  </g>
</svg>
