<svg xmlns="http://www.w3.org/2000/svg" xmlns:xlink="http://www.w3.org/1999/xlink" width="120" height="120" viewBox="0 0 120 120">
  <defs>
    <clipPath id="clip-path">
      <rect id="Rectángulo_379133" data-name="Rectángulo 379133" width="59.744" height="58.53" fill="#12263f"/>
    </clipPath>
  </defs>
  <g id="Grupo_1073085" data-name="Grupo 1073085" transform="translate(-292.865 -9557)">
    <g id="Grupo_1072889" data-name="Grupo 1072889" transform="translate(292.865 9557)">
      <g id="Grupo_1072868" data-name="Grupo 1072868">
        <rect id="Rectángulo_377974" data-name="Rectángulo 377974" width="119.714" height="119.714" fill="none"/>
        <path id="Trazado_610930" data-name="Trazado 610930" d="M-10.279,8.116,86.589.268,99.294,108.987-7.817,119.951Z" transform="translate(13.831 0.049)" fill="#ffed33"/>
        <path id="Trazado_610931" data-name="Trazado 610931" d="M-22845.346-5607.035l-31.521,31.011-1.01-2.023-2.7.843-2.023-.843-5.561-1.854,37.076-36.91v2.359h2.191v2.865Z" transform="translate(22965.346 5693.227)" fill="#ffa346"/>
        <path id="Trazado_610932" data-name="Trazado 610932" d="M-22845.346-5607.035l-31.521,31.011-1.01-2.023-2.7.843-2.023-.843-5.561-1.854,37.076-36.91v2.359h2.191v2.865Z" transform="translate(22888.156 5616.811)" fill="#ffa346"/>
      </g>
      <path id="Intersección_4" data-name="Intersección 4" d="M29.7,0l1.639,13.763L17.01,27.855,0,29.566Z" transform="translate(80.761 80.21)" fill="#fbdb0a"/>
      <path id="Intersección_3" data-name="Intersección 3" d="M5.772,31.685l-2.7.842-2.022-.842-.915-.305L0,25.336,24.523.931,36.2,0l2.1,2.7L6.782,33.708Z" transform="translate(4.512 7.08)" fill="#fbdb0a"/>
      <rect id="Rectángulo_377980" data-name="Rectángulo 377980" width="58.551" height="86.551" transform="translate(31.158 17.589)" fill="#ffed33"/>
      <g id="Grupo_1073501" data-name="Grupo 1073501" transform="translate(29.158 30.589)">
        <g id="Grupo_1073500" data-name="Grupo 1073500" clip-path="url(#clip-path)">
          <path id="Trazado_615737" data-name="Trazado 615737" d="M8.8,188.943c0-2.224-.012-4.447,0-6.671a2.668,2.668,0,0,1,2.885-2.906c1.235-.012,2.471,0,3.706,0a2.522,2.522,0,0,1,2.063.89,1.23,1.23,0,0,0,1.172.479,29.905,29.905,0,0,1,9.457.68,5.9,5.9,0,0,0,1.469.132c2.753.012,5.506,0,8.259.007,2.721.007,4.113,1.192,4.474,3.87.068.506.293.574.687.529a4.816,4.816,0,0,0,1.842-.757q6.09-3.516,12.182-7.027a3.652,3.652,0,0,1,4.185.184,3.585,3.585,0,0,1,1.512,3.61,3.282,3.282,0,0,1-1.557,2.53c-6.045,3.483-11.94,7.24-18.2,10.328-4.517,2.227-9.423,2.536-14.363,2.247-3.167-.186-6.325-.515-9.483-.823-.62-.06-.934.053-1.176.676a2.345,2.345,0,0,1-2.3,1.563c-1.412.018-2.824.041-4.235,0a2.536,2.536,0,0,1-2.571-2.65c-.029-2.294-.008-4.588-.009-6.882m9.381-.513c0,1.729.008,3.458-.005,5.187,0,.475.047.775.655.823,2.916.23,5.824.582,8.743.756a33.846,33.846,0,0,0,12.156-1.049,21.12,21.12,0,0,0,4.254-1.853c5.261-3.008,10.505-6.045,15.76-9.063a2,2,0,0,0,1.175-2.064,1.945,1.945,0,0,0-1.648-1.708,2.436,2.436,0,0,0-1.78.514q-6,3.46-11.991,6.924a4.294,4.294,0,0,1-2.259.807,3.2,3.2,0,0,0-2.615.946,3.348,3.348,0,0,1-2.476.728c-3-.014-6-.005-9-.005l-.423,0c-.569,0-.978-.237-1.009-.843-.035-.684.416-.915,1.019-.937.317-.012.635-.007.953-.007,2.823,0,5.646.024,8.468-.014a2.071,2.071,0,0,0,2.313-2.178c-.045-1.229-.923-1.969-2.381-1.973-2.717-.008-5.434-.018-8.151.006a9.679,9.679,0,0,1-2.508-.272,27.064,27.064,0,0,0-8.4-.636c-.7.042-.883.271-.866.937.042,1.657.014,3.316.014,4.975m-1.827.6c0-2.15.009-4.3,0-6.451-.007-1.2-.219-1.4-1.436-1.416-1.022-.012-2.045.007-3.067,0-.885-.01-1.274.412-1.272,1.294q.017,6.5,0,13.007c0,.9.429,1.272,1.3,1.256,1.057-.021,2.116-.03,3.172,0,.96.03,1.321-.416,1.31-1.344-.026-2.115-.008-4.23-.008-6.345" transform="translate(-6.931 -139.971)" fill="#12263f"/>
          <path id="Trazado_615738" data-name="Trazado 615738" d="M88.506,70.413c-3.458,0-6.916.01-10.374,0-2.393-.008-3.614-1.174-3.63-3.548q-.044-6.616,0-13.232c.017-2.327,1.3-3.541,3.653-3.562,1.058-.01,2.119-.042,3.175.012.718.036,1.056-.156.965-.928a6.222,6.222,0,0,1,.012-1.268A2.76,2.76,0,0,1,85.255,45.2c2.187-.023,4.375-.02,6.563,0a2.814,2.814,0,0,1,3.042,3.034c.067,1.836.067,1.836,1.94,1.836.812,0,1.624-.018,2.435.005a3.163,3.163,0,0,1,3.393,3.273q.085,6.932,0,13.866A3.04,3.04,0,0,1,99.3,70.4c-3.6.028-7.2.008-10.8.009M76.311,57.167c0,3.341-.005,6.446,0,9.551,0,1.461.442,1.912,1.894,1.913q10.379.011,20.758,0c1.431,0,1.868-.465,1.871-1.937q.01-4.289,0-8.579c0-.257.124-.561-.183-.808-.3.151-.619.3-.925.461-2.8,1.5-5.6,2.982-8.385,4.5a5.96,5.96,0,0,1-3.469.692,6.146,6.146,0,0,1-2.364-.866c-3.006-1.606-6.008-3.219-9.195-4.928m12.324-5.239c-3.489,0-6.978.012-10.467-.008-.855-.005-1.554.161-1.806,1.088a1.988,1.988,0,0,0,.862,2.571c3.069,1.647,6.157,3.261,9.2,4.954a4.075,4.075,0,0,0,4.291.011c3.047-1.687,6.132-3.306,9.2-4.954.916-.492,1.205-1.313.875-2.567-.244-.925-.935-1.108-1.795-1.1-3.454.021-6.908.008-10.362.008m.036-1.86h2.639c1.792,0,1.771,0,1.719-1.837-.024-.841-.386-1.208-1.226-1.2-2.146.018-4.293.022-6.439,0-.912-.01-1.281.416-1.237,1.29a5.44,5.44,0,0,1,0,.949c-.086.683.244.828.854.81,1.23-.036,2.463-.011,3.694-.01" transform="translate(-58.702 -35.61)" fill="#12263f"/>
          <path id="Trazado_615739" data-name="Trazado 615739" d="M22.208,70.365a.853.853,0,0,1-1.2.92,23.308,23.308,0,0,1-2.543-1.464.776.776,0,0,1-.249-1.034.757.757,0,0,1,.928-.508,10.916,10.916,0,0,1,2.891,1.665c.116.092.129.315.169.421" transform="translate(-14.286 -53.782)" fill="#12263f"/>
          <path id="Trazado_615740" data-name="Trazado 615740" d="M245.6,71.379c-.509-.03-.809-.168-.957-.542a.789.789,0,0,1,.164-.969,11.853,11.853,0,0,1,2.817-1.594.754.754,0,0,1,.883.417.707.707,0,0,1,0,.887,11.968,11.968,0,0,1-2.9,1.8" transform="translate(-192.748 -53.78)" fill="#12263f"/>
          <path id="Trazado_615741" data-name="Trazado 615741" d="M70.352,22.173a.749.749,0,0,1-.632-.38c-.463-.783-.933-1.563-1.357-2.367a.887.887,0,0,1,1.529-.893A22.364,22.364,0,0,1,71.3,20.99c.294.625-.194,1.219-.945,1.182" transform="translate(-53.782 -14.267)" fill="#12263f"/>
          <path id="Trazado_615742" data-name="Trazado 615742" d="M201.986,18.985a9.222,9.222,0,0,1-1.826,3.12.921.921,0,0,1-.992-.122.766.766,0,0,1-.257-.948c.48-.893.989-1.773,1.54-2.623a.752.752,0,0,1,.952-.232.9.9,0,0,1,.583.8" transform="translate(-156.71 -14.271)" fill="#12263f"/>
          <path id="Trazado_615743" data-name="Trazado 615743" d="M2.211,136.936c.458,0,.916-.013,1.373,0a.785.785,0,0,1,.82.8.813.813,0,0,1-.8.931c-.949.041-1.9.045-2.85-.007-.535-.029-.787-.419-.75-.958a.763.763,0,0,1,.835-.766c.457-.015.915,0,1.373,0v0" transform="translate(0 -107.92)" fill="#12263f"/>
          <path id="Trazado_615744" data-name="Trazado 615744" d="M263.362,138.681c-.422,0-.846.019-1.267,0a.838.838,0,0,1-.865-.879.792.792,0,0,1,.859-.864c.915-.013,1.831-.016,2.746.005a.745.745,0,0,1,.8.8.806.806,0,0,1-.792.929c-.489.043-.985.009-1.478.009v.006" transform="translate(-205.888 -107.916)" fill="#12263f"/>
          <path id="Trazado_615745" data-name="Trazado 615745" d="M136.877,2.048c0-.423-.022-.847,0-1.268A.77.77,0,0,1,137.708,0c.484-.016.864.207.886.707.043.984.041,1.973,0,2.957a.765.765,0,0,1-.868.738.784.784,0,0,1-.844-.77c-.033-.526-.007-1.056-.008-1.585" transform="translate(-107.872 0)" fill="#12263f"/>
        </g>
      </g>
    </g>
  </g>
</svg>
