<svg xmlns="http://www.w3.org/2000/svg" xmlns:xlink="http://www.w3.org/1999/xlink" width="125" height="125" viewBox="0 0 125 125">
  <defs>
    <clipPath id="clip-path">
      <rect id="Rectángulo_379121" data-name="Rectángulo 379121" width="65.857" height="62.502" fill="#12263f"/>
    </clipPath>
  </defs>
  <g id="Grupo_1073046" data-name="Grupo 1073046" transform="translate(-1104.668 -5996)">
    <g id="Grupo_1072869" data-name="Grupo 1072869" transform="translate(719 1)">
      <rect id="Rectángulo_377974" data-name="Rectángulo 377974" width="125" height="125" transform="translate(385.668 5995)" fill="none"/>
      <path id="Trazado_610930" data-name="Trazado 610930" d="M-10.279,8.447,92.441.268l13.473,113.306L-7.668,125Z" transform="translate(398.947 5995)" fill="#fff"/>
      <path id="Trazado_610931" data-name="Trazado 610931" d="M-22852-5608.555l-26.621,26.192-.854-1.708-2.277.712-1.709-.712-4.7-1.565,31.316-31.174v1.993h1.85v2.42Z" transform="translate(23362.668 11700)" fill="#ffa346"/>
      <path id="Trazado_610932" data-name="Trazado 610932" d="M-22852-5608.555l-26.621,26.192-.854-1.708-2.277.712-1.709-.712-4.7-1.565,31.316-31.174v1.993h1.85v2.42Z" transform="translate(23273.826 11611.811)" fill="#ffa346"/>
    </g>
    <path id="Intersección_6" data-name="Intersección 6" d="M23221.221,11791.125l1.383,11.624-12.1,11.9-14.367,1.445Z" transform="translate(-21999.613 -5703.732)" fill="#ffe3c7"/>
    <path id="Intersección_5" data-name="Intersección 5" d="M23116.354,11732.74l-2.279.711-1.707-.711-.773-.258-.115-5.1,20.711-20.613,9.867-.786,1.77,2.278-26.621,26.19Z" transform="translate(-22003 -5704)" fill="#ffe3c7"/>
    <rect id="Rectángulo_377981" data-name="Rectángulo 377981" width="73" height="73" transform="translate(1130.668 6023)" fill="#fff"/>
    <g id="Grupo_1073477" data-name="Grupo 1073477" transform="translate(1134.239 6027.249)">
      <g id="Grupo_1073476" data-name="Grupo 1073476" clip-path="url(#clip-path)">
        <path id="Trazado_615661" data-name="Trazado 615661" d="M41.337,40.99c.768,1.961,1.477,3.8,2.208,5.631A21.875,21.875,0,0,1,45.151,54a7.812,7.812,0,0,1-7.787,8.485A15.568,15.568,0,0,1,34.7,62.4a3.657,3.657,0,0,1-3.3-3.165c-.327-1.678-.646-3.357-.925-5.043a2.272,2.272,0,0,0-.592-1.159C26.2,48.787,22.5,44.564,18.878,40.27c-.774-.918-1.64-.628-2.517-.634-.4,0-.3.39-.3.644-.013.754-.031,1.509,0,2.261.024.526-.145.722-.693.721q-7.35-.024-14.7,0c-.479,0-.707-.141-.65-.641a4.548,4.548,0,0,0,0-.514Q.02,21.647,0,1.19C0,.283.187-.012,1.156,0c4.66.056,9.32.039,13.98.01.7,0,1.006.15.928.9-.06.576.023,1.166-.021,1.746-.051.684.146.831.8.572,2.035-.8,4.092-1.549,6.133-2.338a4.049,4.049,0,0,1,1.5-.273Q38.712.628,52.95.626a6.439,6.439,0,0,1,6.25,8.83c-.185.533-.1.765.374,1.041A6.364,6.364,0,0,1,62.5,18.911c-.2.5-.118.679.3.973,3.863,2.737,4.1,7.458.536,10.577a.7.7,0,0,0-.207,1.016,6.471,6.471,0,0,1-6.045,9.509c-4.832.018-9.663,0-14.5,0H41.337M16.052,21.6c0,3.666-.016,7.332.01,11,.007,1.014-.441,2.315.2,2.964.6.605,1.891.17,2.876.166a1.763,1.763,0,0,1,1.5.674q6.422,7.487,12.894,14.932A2.177,2.177,0,0,1,34.1,52.4c.231,1.347.421,2.7.71,4.038.587,2.7-.145,2.156,2.623,2.147a3.854,3.854,0,0,0,3.885-4.049,14.687,14.687,0,0,0-.919-5.23c-1.4-3.673-2.846-7.327-4.272-10.989-.466-1.2-.465-1.2.815-1.2q10.022,0,20.044-.006c1.843,0,3.05-1.061,3.054-2.612s-1.23-2.625-3.037-2.631c-2.33-.008-4.66,0-6.99,0-2.788,0-2.745,0-2.8-2.763-.017-.937.281-1.131,1.161-1.119,3.6.049,7.2.03,10.793.016a2.588,2.588,0,0,0,2.753-2.863c-.084-1.488-1.2-2.408-3.007-2.416-3.7-.015-7.4-.022-11.1.01-.71.006-.984-.184-.92-.915a11.786,11.786,0,0,0,0-2.053c-.066-.742.234-.916.931-.908,2.809.034,5.619.029,8.428.007,1.823-.014,3-1.105,2.962-2.685-.035-1.555-1.191-2.561-2.968-2.563-3.324,0-6.647.007-9.971-.007-.886,0-2.034.371-2.589-.15-.616-.578-.109-1.757-.223-2.664-.11-.874.247-1.093,1.09-1.079,2.843.048,5.688.04,8.531.006a2.556,2.556,0,0,0,2.664-2.934,2.577,2.577,0,0,0-2.79-2.3q-13.98-.021-27.959-.013a3.613,3.613,0,0,0-1.3.275C21.443,5.6,19.181,6.481,16.9,7.3a1.1,1.1,0,0,0-.863,1.25c.038,4.351.019,8.7.019,13.054m-3.868.009c0-5.581-.01-11.163.013-16.744,0-.673-.115-.965-.88-.947-2.19.052-4.383.035-6.574.007-.583-.007-.84.09-.839.771q.032,16.949,0,33.9c0,.638.206.818.821.81,2.123-.029,4.248-.064,6.368.014.955.035,1.113-.306,1.108-1.168-.037-5.547-.019-11.094-.019-16.641" transform="translate(0 0)" fill="#12263f"/>
      </g>
    </g>
  </g>
</svg>
