<svg xmlns="http://www.w3.org/2000/svg" xmlns:xlink="http://www.w3.org/1999/xlink" width="120" height="120" viewBox="0 0 120 120">
  <defs>
    <clipPath id="clip-path">
      <rect id="Rectángulo_379134" data-name="Rectángulo 379134" width="70.016" height="70.012" fill="#12263f"/>
    </clipPath>
  </defs>
  <g id="Grupo_1073087" data-name="Grupo 1073087" transform="translate(-292.865 -9557)">
    <g id="Grupo_1072889" data-name="Grupo 1072889" transform="translate(292.865 9557)">
      <g id="Grupo_1072868" data-name="Grupo 1072868">
        <rect id="Rectángulo_377974" data-name="Rectángulo 377974" width="119.714" height="119.714" fill="none"/>
        <path id="Trazado_610930" data-name="Trazado 610930" d="M-10.279,8.116,86.589.268,99.294,108.987-7.817,119.951Z" transform="translate(13.831 0.049)" fill="#ffed33"/>
        <path id="Trazado_610931" data-name="Trazado 610931" d="M-22845.346-5607.035l-31.521,31.011-1.01-2.023-2.7.843-2.023-.843-5.561-1.854,37.076-36.91v2.359h2.191v2.865Z" transform="translate(22965.346 5693.227)" fill="#ffa346"/>
        <path id="Trazado_610932" data-name="Trazado 610932" d="M-22845.346-5607.035l-31.521,31.011-1.01-2.023-2.7.843-2.023-.843-5.561-1.854,37.076-36.91v2.359h2.191v2.865Z" transform="translate(22888.156 5616.811)" fill="#ffa346"/>
      </g>
      <path id="Intersección_4" data-name="Intersección 4" d="M29.7,0l1.639,13.763L17.01,27.855,0,29.566Z" transform="translate(80.761 80.21)" fill="#fbdb0a"/>
      <path id="Intersección_3" data-name="Intersección 3" d="M5.772,31.685l-2.7.842-2.022-.842-.915-.305L0,25.336,24.523.931,36.2,0l2.1,2.7L6.782,33.708Z" transform="translate(4.512 7.08)" fill="#fbdb0a"/>
      <rect id="Rectángulo_377980" data-name="Rectángulo 377980" width="58.551" height="86.551" transform="translate(31.158 17.589)" fill="#ffed33"/>
      <g id="Grupo_1073503" data-name="Grupo 1073503" transform="translate(23.663 25.859)">
        <g id="Grupo_1073502" data-name="Grupo 1073502" clip-path="url(#clip-path)">
          <path id="Trazado_615746" data-name="Trazado 615746" d="M7.882,163.535c-3.76-3.656-2.7-8.106-.383-10.3a6.832,6.832,0,0,1,9.484.012,6.99,6.99,0,0,1-.418,10.285,13.261,13.261,0,0,1,5.053,3.547c.231.273.414.2.607-.049a16.69,16.69,0,0,1,8.018-5.677,8.918,8.918,0,0,1-3.814-7.89,8.426,8.426,0,0,1,2.885-5.935,8.763,8.763,0,0,1,12.3.553c2.877,3.069,3.778,9.061-1.431,13.25.692.3,1.356.568,2,.876a15.559,15.559,0,0,1,5.678,4.52c.375.485.6.7,1.125.089a12.109,12.109,0,0,1,4.864-3.283,6.889,6.889,0,0,1-2.471-6.4,6.434,6.434,0,0,1,2.26-4.12,6.779,6.779,0,0,1,9.313.32c2.117,2.087,3.355,6.4-.482,10.215a13.593,13.593,0,0,1,4.83,3.316,12.606,12.606,0,0,1,2.613,4.379,3.673,3.673,0,0,1-3.6,5.1c-4.522.03-9.045.041-13.567-.015-1.062-.013-1.429.2-1.405,1.358.077,3.741-2.034,5.8-5.793,5.8q-10.394.007-20.788,0c-3.744,0-5.823-2.063-5.764-5.836.017-1.065-.276-1.336-1.328-1.322-4.449.06-8.9.033-13.348.022-3.277-.008-4.9-2.374-3.741-5.443A12.346,12.346,0,0,1,6.918,164c.29-.143.582-.282.965-.466m27.3,17.762c3.607,0,7.213.012,10.819-.005a2.955,2.955,0,0,0,3.16-2.685,19.28,19.28,0,0,0-.018-3.6A14.116,14.116,0,0,0,29.8,163.878c-5.612,2.321-8.658,7.253-8.633,13.976.009,2.278,1.149,3.436,3.415,3.441,3.534.007,7.067,0,10.6,0m6.566-27.291a6.571,6.571,0,1,0-6.592,6.618,6.565,6.565,0,0,0,6.592-6.618m-30.6,20.15c2.367,0,4.734-.02,7.1.013.657.009.959-.157,1.067-.861a10.749,10.749,0,0,1,1.071-3.191,1.015,1.015,0,0,0-.139-1.272,9.945,9.945,0,0,0-9.732-3.678,9.788,9.788,0,0,0-7.95,6.679c-.541,1.461.1,2.3,1.7,2.306,2.294.014,4.588,0,6.882,0m47.928,0c2.367,0,4.734.014,7.1-.005,1.507-.012,2.132-.873,1.611-2.288a9.785,9.785,0,0,0-7.937-6.693,9.94,9.94,0,0,0-9.736,3.664,1.008,1.008,0,0,0-.16,1.269,9.055,9.055,0,0,1,1.017,2.977c.121.965.591,1.115,1.441,1.095,2.22-.054,4.442-.018,6.663-.019M53.521,158.12a4.6,4.6,0,0,0,4.584,4.7,4.658,4.658,0,1,0-4.584-4.7m-36.693.053a4.611,4.611,0,1,0-4.64,4.643,4.617,4.617,0,0,0,4.64-4.643" transform="translate(-0.165 -113.484)" fill="#12263f"/>
          <path id="Trazado_615747" data-name="Trazado 615747" d="M243.077,47.8a1.8,1.8,0,0,1-.832,1.456c-1.2.952-2.367,1.945-3.592,2.861a1.09,1.09,0,0,0-.448,1.388c.448,1.5.792,3.026,1.247,4.521a1.577,1.577,0,0,1-.506,1.855,1.482,1.482,0,0,1-1.916.007c-1.276-.843-2.582-1.645-3.829-2.529a1.293,1.293,0,0,0-1.749-.028c-1.21.873-2.49,1.648-3.733,2.475a1.6,1.6,0,0,1-2.016.109,1.657,1.657,0,0,1-.529-1.965c.394-1.437.782-2.877,1.209-4.3a1.228,1.228,0,0,0-.484-1.578c-1.236-.9-2.391-1.909-3.587-2.863a1.6,1.6,0,0,1,.961-2.957c1.529-.081,3.057-.182,4.588-.214.656-.014,1.034-.146,1.259-.863.446-1.42,1.045-2.791,1.564-4.189.285-.767.686-1.393,1.6-1.393s1.334.57,1.619,1.366c.514,1.438,1.117,2.845,1.616,4.288a1,1,0,0,0,1.094.791c1.566.03,3.132.122,4.7.217,1.112.068,1.745.647,1.762,1.55m-6.312,9.282a17.562,17.562,0,0,0-.912-3.85,1.888,1.888,0,0,1,.758-2.274c1-.764,1.952-1.581,3.18-2.583-1.557-.07-2.781-.165-4-.17a1.948,1.948,0,0,1-2.038-1.46c-.416-1.191-.9-2.359-1.442-3.781-.457,1.189-.818,2.122-1.174,3.057-.809,2.123-.828,2.127-3.062,2.193-.985.029-1.969.108-3.246.181,1.2.968,2.122,1.739,3.076,2.461a2,2,0,0,1,.823,2.468c-.389,1.186-.647,2.414-1.022,3.853,1.314-.854,2.424-1.546,3.5-2.285a1.784,1.784,0,0,1,2.221,0c1.047.711,2.117,1.39,3.342,2.19" transform="translate(-173.061 -30.927)" fill="#12263f"/>
          <path id="Trazado_615748" data-name="Trazado 615748" d="M10.8,39.552a1.562,1.562,0,0,1,1.464,1.1c.564,1.5,1.2,2.969,1.7,4.487a1.1,1.1,0,0,0,1.256.868c1.493.025,2.985.134,4.478.205a1.627,1.627,0,0,1,.992,3.04c-1.169.93-2.3,1.918-3.505,2.79a1.223,1.223,0,0,0-.485,1.576c.417,1.392.788,2.8,1.18,4.2a1.717,1.717,0,0,1-.5,2.07,1.659,1.659,0,0,1-2.109-.166c-1.21-.81-2.462-1.563-3.638-2.419a1.288,1.288,0,0,0-1.748.033c-1.218.862-2.493,1.644-3.737,2.47a1.548,1.548,0,0,1-2.012.05,1.634,1.634,0,0,1-.474-1.96c.457-1.456.778-2.954,1.216-4.416a1.094,1.094,0,0,0-.445-1.39c-1.195-.9-2.325-1.878-3.5-2.8-.652-.508-1.119-1.074-.848-1.947.288-.928,1.047-1.109,1.9-1.141,1.493-.056,2.985-.172,4.478-.2a1,1,0,0,0,1.1-.789c.521-1.512,1.127-2.995,1.69-4.493A1.608,1.608,0,0,1,10.8,39.552m4.594,17.607c-.4-1.511-.683-2.746-1.058-3.952a1.887,1.887,0,0,1,.753-2.29c1-.763,1.959-1.578,3.068-2.478a20.406,20.406,0,0,0-3.882-.263,1.929,1.929,0,0,1-2.049-1.438c-.416-1.2-.9-2.369-1.447-3.808-.539,1.4-1.022,2.57-1.433,3.76a1.986,1.986,0,0,1-2.131,1.49,17.01,17.01,0,0,0-3.8.281c1.114.9,2.056,1.7,3.033,2.451a1.848,1.848,0,0,1,.773,2.267c-.388,1.2-.647,2.434-1.039,3.953,1.271-.825,2.3-1.43,3.262-2.135a2.037,2.037,0,0,1,2.69.02c.971.7,2,1.32,3.256,2.142" transform="translate(0 -30.896)" fill="#12263f"/>
          <path id="Trazado_615749" data-name="Trazado 615749" d="M114.344,58.205c.375-1.408.78-3.108,1.294-4.774a.984.984,0,0,0-.42-1.268c-1.214-.932-2.383-1.923-3.593-2.86a1.689,1.689,0,0,1-.787-1.976,1.747,1.747,0,0,1,1.84-1.087c1.494-.053,2.985-.186,4.479-.193a1.073,1.073,0,0,0,1.168-.856c.469-1.338,1.007-2.651,1.493-3.983.3-.82.634-1.6,1.673-1.61,1.1-.014,1.437.8,1.747,1.659.471,1.3,1.008,2.574,1.452,3.882a1.132,1.132,0,0,0,1.245.909c1.493.006,2.985.137,4.478.2a1.7,1.7,0,0,1,1.8,1.133,1.731,1.731,0,0,1-.841,1.96c-1.21.937-2.381,1.925-3.591,2.862a.9.9,0,0,0-.4,1.178c.477,1.487.833,3.014,1.241,4.523a1.7,1.7,0,0,1-.55,2.055,1.621,1.621,0,0,1-2.016-.172c-1.181-.789-2.412-1.511-3.545-2.364a1.464,1.464,0,0,0-2.026.035c-1.24.894-2.549,1.691-3.834,2.521a1.391,1.391,0,0,1-1.64.009,1.625,1.625,0,0,1-.67-1.779M126.15,57.2c-.393-1.447-.675-2.6-1.024-3.74a2.072,2.072,0,0,1,.786-2.581c.99-.715,1.91-1.526,3.088-2.48-1.372-.072-2.448-.148-3.527-.18-1.817-.055-2-.2-2.688-1.938a16.832,16.832,0,0,0-1.329-3.152c-.5,1.293-.966,2.434-1.369,3.6a1.982,1.982,0,0,1-2.127,1.492,18.72,18.72,0,0,0-3.822.265c1.1.891,2.03,1.7,3.022,2.424a2.038,2.038,0,0,1,.769,2.493c-.344,1.173-.651,2.357-1.048,3.806,1.29-.837,2.373-1.491,3.4-2.222a1.931,1.931,0,0,1,2.5.014c1,.711,2.059,1.352,3.369,2.2" transform="translate(-86.509 -30.933)" fill="#12263f"/>
          <path id="Trazado_615750" data-name="Trazado 615750" d="M112,30.953a1.107,1.107,0,0,1-.5,1.029,1.01,1.01,0,0,1-1.23-.033c-1.556-1.366-3.1-2.747-4.61-4.164a.985.985,0,0,1-.007-1.469.911.911,0,0,1,1.36-.156q2.377,2.081,4.7,4.218a1.6,1.6,0,0,1,.285.575" transform="translate(-82.276 -20.247)" fill="#12263f"/>
          <path id="Trazado_615751" data-name="Trazado 615751" d="M190.7,27.129a1.412,1.412,0,0,1-.577,1.02q-1.991,1.779-3.966,3.577c-.579.526-1.212.773-1.805.114-.615-.683-.217-1.255.356-1.765,1.356-1.208,2.694-2.437,4.054-3.642a1.065,1.065,0,0,1,1.276-.323,1.093,1.093,0,0,1,.662,1.019" transform="translate(-143.765 -20.312)" fill="#12263f"/>
          <path id="Trazado_615752" data-name="Trazado 615752" d="M154.971,3.015c0-.653-.028-1.307.008-1.958A1.012,1.012,0,0,1,156,0a1.006,1.006,0,0,1,1.129,1.058c.038,1.341.035,2.685,0,4.026a1.079,1.079,0,0,1-2.156,0c-.031-.688-.007-1.378-.007-2.067" transform="translate(-121.048 0)" fill="#12263f"/>
        </g>
      </g>
    </g>
  </g>
</svg>
