<svg xmlns="http://www.w3.org/2000/svg" xmlns:xlink="http://www.w3.org/1999/xlink" width="70" height="70" viewBox="0 0 70 70">
  <defs>
    <clipPath id="clip-path">
      <rect id="Rectángulo_379195" data-name="Rectángulo 379195" width="41.373" height="41.349" fill="#670303"/>
    </clipPath>
  </defs>
  <g id="Grupo_1073092" data-name="Grupo 1073092" transform="translate(-269 -958)">
    <circle id="Elipse_5614" data-name="Elipse 5614" cx="35" cy="35" r="35" transform="translate(269 958)" fill="#fff"/>
    <g id="Grupo_1073555" data-name="Grupo 1073555" transform="translate(283.314 972.326)">
      <g id="Grupo_1073554" data-name="Grupo 1073554" clip-path="url(#clip-path)">
        <path id="Trazado_615822" data-name="Trazado 615822" d="M20.7,41.349A20.674,20.674,0,1,1,41.373,20.738,20.67,20.67,0,0,1,20.7,41.349M18.708,15.168H18.7c0,1.8.011,3.591-.005,5.386a2.042,2.042,0,0,0,.932,1.85c2.555,1.7,5.1,3.418,7.671,5.1a1.857,1.857,0,0,0,2.05.156,1.942,1.942,0,0,0,.149-3.456q-2.856-2.052-5.83-3.936a1.971,1.971,0,0,1-1.012-1.943c.048-2.8.014-5.593.017-8.389a1.982,1.982,0,1,0-3.947-.26c-.058,1.828-.014,3.659-.014,5.489" transform="translate(0 0)" fill="#670303"/>
      </g>
    </g>
  </g>
</svg>
