<svg xmlns="http://www.w3.org/2000/svg" xmlns:xlink="http://www.w3.org/1999/xlink" width="125" height="125" viewBox="0 0 125 125">
  <defs>
    <clipPath id="clip-path">
      <rect id="Rectángulo_379129" data-name="Rectángulo 379129" width="75.166" height="75.177" fill="none"/>
    </clipPath>
  </defs>
  <g id="Grupo_1073062" data-name="Grupo 1073062" transform="translate(-743.668 -5996)">
    <g id="Grupo_1072868" data-name="Grupo 1072868" transform="translate(358 1)">
      <rect id="Rectángulo_377974" data-name="Rectángulo 377974" width="125" height="125" transform="translate(385.668 5995)" fill="none"/>
      <path id="Trazado_610930" data-name="Trazado 610930" d="M-10.279,8.447,92.441.268l13.473,113.306L-7.668,125Z" transform="translate(398.947 5995)" fill="#fff"/>
      <path id="Trazado_610931" data-name="Trazado 610931" d="M-22852-5608.555l-26.621,26.192-.854-1.708-2.277.712-1.709-.712-4.7-1.565,31.316-31.174v1.993h1.85v2.42Z" transform="translate(23362.668 11700)" fill="#ffa346"/>
      <path id="Trazado_610932" data-name="Trazado 610932" d="M-22852-5608.555l-26.621,26.192-.854-1.708-2.277.712-1.709-.712-4.7-1.565,31.316-31.174v1.993h1.85v2.42Z" transform="translate(23273.826 11611.811)" fill="#ffa346"/>
    </g>
    <path id="Intersección_4" data-name="Intersección 4" d="M23221.221,11791.125l1.383,11.624-12.1,11.9-14.367,1.445Z" transform="translate(-22360.613 -5703.732)" fill="#ffe3c7"/>
    <path id="Intersección_3" data-name="Intersección 3" d="M23116.354,11732.74l-2.279.711-1.707-.711-.773-.258-.115-5.1,20.711-20.613,9.867-.786,1.77,2.278-26.621,26.19Z" transform="translate(-22364 -5704)" fill="#ffe3c7"/>
    <rect id="Rectángulo_377980" data-name="Rectángulo 377980" width="73" height="73" transform="translate(769.668 6023)" fill="#fff"/>
    <g id="Grupo_1073493" data-name="Grupo 1073493" transform="translate(767.502 6020.823)">
      <g id="Grupo_1073492" data-name="Grupo 1073492" clip-path="url(#clip-path)">
        <path id="Trazado_615710" data-name="Trazado 615710" d="M146.017.032A21.823,21.823,0,0,1,160.9,4.608a21.313,21.313,0,0,1,1.111,32.527,2.434,2.434,0,0,0-.961,2.084c.068,2.308.012,4.619.028,6.929a1.551,1.551,0,0,1-.868,1.638,1.474,1.474,0,0,1-1.784-.486c-1.536-1.508-3.076-3.012-4.566-4.565a1.725,1.725,0,0,0-1.746-.522c-6.2.907-12.358,1.092-18.08-2.019a20.759,20.759,0,0,1-11.065-15.419A21.3,21.3,0,0,1,140.482.307a26.292,26.292,0,0,1,5.535-.274m11.849,42.8.355-.255c0-1.6.04-3.2-.015-4.8a2.375,2.375,0,0,1,1-2.1,17.991,17.991,0,0,0,6.606-11.253A18.5,18.5,0,0,0,155.925,4.9c-3.95-1.966-8.126-2.008-12.366-1.913A18.509,18.509,0,0,0,125.694,19.4a18.555,18.555,0,0,0,11.761,19.133c4.855,1.757,9.839,1.555,14.8.615a2.753,2.753,0,0,1,3.022.836c.822.98,1.72,1.9,2.585,2.842" transform="translate(-93.852 0)"/>
        <path id="Trazado_615711" data-name="Trazado 615711" d="M24.687,153.566c0-1.028-.008-1.718,0-2.408.022-1.474.5-1.978,1.978-1.981,4.814-.012,9.628,0,14.442,0,5.242,0,8.237-2.981,8.239-8.2q0-4.227,0-8.454a5.526,5.526,0,0,1,.053-1.053,1.371,1.371,0,0,1,1.384-1.209,1.28,1.28,0,0,1,1.438,1.254c-.009,4.293.542,8.623-.318,12.87a9.76,9.76,0,0,1-9.009,7.645c-4.612.171-9.235.112-13.852.067-1.126-.011-1.539.274-1.431,1.426.1,1.047.015,2.111.016,3.168a1.548,1.548,0,0,1-2.8,1.176c-1.69-1.685-3.39-3.361-5.054-5.072a2.069,2.069,0,0,0-1.645-.684c-2.426.035-4.853.025-7.28.01C4.372,152.079.026,147.743.015,141.288,0,133.969-.017,126.65.026,119.331a10.182,10.182,0,0,1,8.113-10.142,6.75,6.75,0,0,1,1.508-.181c5.049-.018,10.1-.012,15.147-.029.879,0,1.56.235,1.735,1.192.183,1-.49,1.66-1.721,1.663-4.736.012-9.472-.04-14.207.022A7.328,7.328,0,0,0,3.7,116.092a7.423,7.423,0,0,0-.735,3.4c.006,7.358-.023,14.716.013,22.074a7.324,7.324,0,0,0,7.635,7.6q4.344.022,8.689-.006a2.33,2.33,0,0,1,1.928.875c1,1.142,2.126,2.181,3.462,3.528" transform="translate(0 -83.376)"/>
        <path id="Trazado_615712" data-name="Trazado 615712" d="M50.874,196.853H36.441c-.352,0-.706.014-1.055-.02a1.281,1.281,0,0,1-1.294-1.375,1.3,1.3,0,0,1,1.347-1.445c.273-.022.547-.014.821-.014H65.712c.274,0,.549-.006.821.013a1.417,1.417,0,0,1-.053,2.832c-.312.014-.626.009-.939.01H50.874" transform="translate(-26.082 -148.421)"/>
        <path id="Trazado_615713" data-name="Trazado 615713" d="M48.107,229H59.616c.313,0,.626.007.939,0a1.425,1.425,0,1,1,.052,2.845c-.313,0-.626.006-.939.006H36.18c-1.528-.007-2.1-.387-2.117-1.4-.016-1.032.57-1.451,2.066-1.452q5.989-.006,11.979,0" transform="translate(-26.06 -175.198)"/>
        <path id="Trazado_615714" data-name="Trazado 615714" d="M46.161,161.851c-3.4,0-6.81,0-10.214,0-1.3,0-1.868-.436-1.884-1.4-.016-.981.55-1.451,1.828-1.452q10.273-.01,20.546,0c1.25,0,1.888.484,1.906,1.4.018.948-.647,1.451-1.966,1.454q-5.107.009-10.214,0" transform="translate(-26.059 -121.641)"/>
        <path id="Trazado_615715" data-name="Trazado 615715" d="M168.786,230.5a1.423,1.423,0,1,1-2.846-.042,1.3,1.3,0,0,1,1.432-1.354c.9,0,1.32.543,1.415,1.4" transform="translate(-126.952 -175.277)"/>
        <path id="Trazado_615716" data-name="Trazado 615716" d="M201.564,57.639c0-.43-.006-.861,0-1.291a2.7,2.7,0,0,1,2.193-3.026,3.292,3.292,0,0,0,2.414-3.975,3.262,3.262,0,0,0-6.426.427c-.011.077-.009.156-.016.234-.079.971-.576,1.547-1.577,1.492-1.052-.057-1.348-.767-1.31-1.713a6.2,6.2,0,0,1,5.077-5.8,6.273,6.273,0,0,1,6.789,3.69,6.124,6.124,0,0,1-3.271,8.106,1.316,1.316,0,0,0-1,1.541c.059.62-.011,1.252.016,1.877.043,1.016-.374,1.69-1.411,1.8-.9.1-1.448-.626-1.477-1.84-.012-.508,0-1.017,0-1.526" transform="translate(-150.596 -33.589)"/>
        <path id="Trazado_615717" data-name="Trazado 615717" d="M219.924,130.6A1.35,1.35,0,0,1,218.5,132a1.279,1.279,0,0,1-1.434-1.35,1.348,1.348,0,0,1,1.448-1.476,1.4,1.4,0,0,1,1.407,1.432" transform="translate(-166.071 -98.822)"/>
      </g>
    </g>
  </g>
</svg>
