<svg xmlns="http://www.w3.org/2000/svg" xmlns:xlink="http://www.w3.org/1999/xlink" width="125" height="125" viewBox="0 0 125 125">
  <defs>
    <clipPath id="clip-path">
      <rect id="Rectángulo_379128" data-name="Rectángulo 379128" width="69.746" height="70.036" fill="#12263f"/>
    </clipPath>
  </defs>
  <g id="Grupo_1073068" data-name="Grupo 1073068" transform="translate(-743.668 -5996)">
    <g id="Grupo_1072868" data-name="Grupo 1072868" transform="translate(358 1)">
      <rect id="Rectángulo_377974" data-name="Rectángulo 377974" width="125" height="125" transform="translate(385.668 5995)" fill="none"/>
      <path id="Trazado_610930" data-name="Trazado 610930" d="M-10.279,8.447,92.441.268l13.473,113.306L-7.668,125Z" transform="translate(398.947 5995)" fill="#fff"/>
      <path id="Trazado_610931" data-name="Trazado 610931" d="M-22852-5608.555l-26.621,26.192-.854-1.708-2.277.712-1.709-.712-4.7-1.565,31.316-31.174v1.993h1.85v2.42Z" transform="translate(23362.668 11700)" fill="#ffa346"/>
      <path id="Trazado_610932" data-name="Trazado 610932" d="M-22852-5608.555l-26.621,26.192-.854-1.708-2.277.712-1.709-.712-4.7-1.565,31.316-31.174v1.993h1.85v2.42Z" transform="translate(23273.826 11611.811)" fill="#ffa346"/>
    </g>
    <path id="Intersección_4" data-name="Intersección 4" d="M23221.221,11791.125l1.383,11.624-12.1,11.9-14.367,1.445Z" transform="translate(-22360.613 -5703.732)" fill="#ffe3c7"/>
    <path id="Intersección_3" data-name="Intersección 3" d="M23116.354,11732.74l-2.279.711-1.707-.711-.773-.258-.115-5.1,20.711-20.613,9.867-.786,1.77,2.278-26.621,26.19Z" transform="translate(-22364 -5704)" fill="#ffe3c7"/>
    <rect id="Rectángulo_377980" data-name="Rectángulo 377980" width="73" height="73" transform="translate(769.668 6023)" fill="#fff"/>
    <g id="Grupo_1073491" data-name="Grupo 1073491" transform="translate(765.78 6023)">
      <g id="Grupo_1073490" data-name="Grupo 1073490" clip-path="url(#clip-path)">
        <path id="Trazado_615705" data-name="Trazado 615705" d="M21.042,0q7.711,0,15.422,0c3.653,0,5.45,1.789,5.457,5.416,0,1.594,0,1.594,1.642,1.594q10.664,0,21.328,0a4.522,4.522,0,0,1,4.61,2.99,4.715,4.715,0,0,1,.225,1.721c0,9.151.059,18.3-.035,27.452-.064,6.247-3.5,10.265-9.636,11.607a31.88,31.88,0,0,1-6.188.6c-.8.016-1.518-.154-1.536-1.132-.018-.943.619-1.178,1.456-1.232a4.609,4.609,0,0,0,.325-9.161c-2.648-.294-5.318-.074-7.978-.112-.729-.011-.493.379-.336.778,1.631,4.122.854,10.247-2.933,13.61a10.05,10.05,0,0,1-2.589,1.8c-.9.392-.669.91-.253,1.453a2.211,2.211,0,0,0,1.511.8c.685.1,1.373.187,2.062.238a5.679,5.679,0,0,1,5.28,5.432c.054,1.785-.032,3.574.044,5.358.042,1-.579.805-1.132.8-.574-.006-1.267.234-1.22-.827.068-1.528.026-3.062.012-4.593a3.789,3.789,0,0,0-1.13-2.969,2.4,2.4,0,0,0-3.069-.473,56.95,56.95,0,0,1-5.733,2.672c-.543.186-.51.522-.511.918,0,1.422-.052,2.846.014,4.265.053,1.14-.721.829-1.318.87-.613.042-1.135.073-1.087-.855.075-1.454,0-2.916.029-4.374a.831.831,0,0,0-.571-.9c-1.822-.828-3.626-1.694-5.428-2.563a2.954,2.954,0,0,0-4.445,2.63c-.092,1.526-.029,3.061-.032,4.592,0,1.42-.615,1.862-1.985,1.461a.487.487,0,0,1-.4-.548A55.312,55.312,0,0,1,21,63.751c.4-3.537,2.56-5.412,6.134-5.538a4.292,4.292,0,0,0,2.3-.576c1.035-.682,1-1.384-.059-1.96A11.817,11.817,0,0,1,23.566,42.77a1.156,1.156,0,0,0-.208-1.186A10.416,10.416,0,0,1,20.963,35.6c-.124-1.307.312-1.835,1.64-1.843,2.953-.018,5.907-.042,8.859.015.919.018,1.158-.259,1.167-1.162.009-.937-.3-1.137-1.183-1.13-5.067.044-10.136-.017-15.2.045a4.607,4.607,0,0,0-4.152,6.521,4.392,4.392,0,0,0,3.725,2.659,4.242,4.242,0,0,1,.852.166,1.035,1.035,0,0,1,.749,1.182.987.987,0,0,1-.955,1.024c-4.569.027-9.063-.3-12.765-3.455A10.006,10.006,0,0,1,.1,31.934C-.019,23.988.026,16.04.006,8.092,0,7.072-.008,6.05.009,5.03.063,1.874,1.919.018,5.074.008,10.4-.008,15.719,0,21.042,0M10.609,40.247c-1.235-2.127-1.777-4.214-.864-6.47a7.365,7.365,0,0,1,7.224-4.671c6.488-.017,12.975,0,19.463-.005,2.463,0,3.157-.7,3.159-3.2q.005-10.169,0-20.338c0-.291.007-.585-.021-.874a2.251,2.251,0,0,0-2.488-2.307q-16.128-.012-32.256,0A2.326,2.326,0,0,0,2.293,4.89c-.016,8.529-.043,17.058.018,25.586.02,2.831.67,5.5,3,7.456a11.5,11.5,0,0,0,5.3,2.315m48.709,8.069c5.006-.717,8.118-4.087,8.152-8.883.063-9.077.037-18.155.042-27.232,0-2.092-.78-2.856-2.923-2.858-7.145,0-14.291.02-21.436-.026-1.029-.007-1.261.308-1.253,1.289.046,5.322.039,10.645.013,15.967A4.731,4.731,0,0,1,37.142,31.5c-.328.015-.656,0-.984.005-.626.01-1.336-.207-1.26.912.057.833-.007,1.383,1.172,1.381A9.878,9.878,0,0,1,43.2,36.613a2.232,2.232,0,0,0,1.739.677q3.937-.045,7.874-.007c3.581.034,6.113,1.641,7.274,4.558a7.157,7.157,0,0,1-.772,6.474M39.429,59.864c-.308-.244-.574-.434-.817-.65a4.413,4.413,0,0,1-1.339-3.97c.112-1.2,1.247-1.17,1.993-1.586a9.23,9.23,0,0,0,4.911-7.174c.117-.85-.128-1.056-.954-1.047-3.749.039-7.5.018-11.249.016a10.536,10.536,0,0,1-5.366-1.19c-.941-.541-.976-.116-.98.648A9.269,9.269,0,0,0,31.4,54.085a1.828,1.828,0,0,1,1.222,1.932,4.463,4.463,0,0,1-2.194,3.852c3.732,2.446,5.181,2.444,9,0m-9-23.741v0c-2.076,0-4.152.019-6.227-.011-.673-.01-.783.184-.62.826a8.133,8.133,0,0,0,7.47,6.157c4.113.091,8.23.019,12.345.039.617,0,.707-.162.562-.765a8.15,8.15,0,0,0-7.74-6.232c-1.929-.045-3.86-.008-5.79-.008" transform="translate(0 0)" fill="#12263f"/>
        <path id="Trazado_615706" data-name="Trazado 615706" d="M42.374,35.677c0-1.969-.014-3.938.005-5.907.011-1.172.409-1.566,1.589-1.592,1.13-.025,2.26-.006,3.391-.006.807,0,1.607-.056,2.027.9.194.443.567.154.8-.049a1.48,1.48,0,0,0,.359-1.217c.017-1.093-.034-2.192.053-3.279a3.45,3.45,0,0,1,3.492-3.346,3.5,3.5,0,0,1,3.44,3.536c.038,1.056.027,2.115.012,3.172a1.318,1.318,0,0,0,1.351,1.5c3.921.427,4.492,1.082,4.492,5.083,0,1.386.018,2.772-.007,4.157a3.434,3.434,0,0,1-3.517,3.539c-3.135.039-6.271.015-9.407.012-.541,0-1.069-.09-1.29.641-.127.419-.6.507-1.011.51-1.495.011-2.99.025-4.484,0-.984-.016-1.3-.65-1.3-1.534q.006-3.063,0-6.126m12.47,4.148c1.421,0,2.841,0,4.262,0,1.728-.007,1.9-.171,1.9-1.857,0-1.384,0-2.768,0-4.152,0-1.972-.129-2.1-2.1-2.132a3.377,3.377,0,0,1-3.662-3.574c-.038-1.092.016-2.187-.035-3.277-.033-.722-.354-1.29-1.2-1.242-.811.045-1.128.561-1.13,1.321,0,1.02.005,2.04,0,3.059a3.357,3.357,0,0,1-2.881,3.658c-.548.122-.608.352-.606.8.011,2.222.021,4.444-.006,6.665-.007.587.219.751.766.743,1.566-.023,3.132-.008,4.7-.007m-7.823-4c0-1.53-.012-3.059,0-4.589.011-1.054-.775-.606-1.253-.659s-1.023-.183-1.013.677c.036,3.022.042,6.046,0,9.068-.014.947.591.731,1.088.717s1.223.295,1.189-.734c-.05-1.492-.013-2.986-.014-4.479" transform="translate(-33.1 -16.549)" fill="#12263f"/>
        <path id="Trazado_615707" data-name="Trazado 615707" d="M129.633,21.083c.714-.054,1.382-.157,1.27.843-.011.095.159.3.241.3,1.305-.029.859.94.922,1.606.041.431-.008.816-.606.776-.212-.014-.524-.005-.528.255-.022,1.5-1.146.758-1.819.908-.212.047-.493-.032-.48-.307.031-.647-.242-.8-.873-.916-.76-.138-.3-.9-.371-1.376-.055-.345-.179-.886.473-.87.568.014.737-.222.761-.773.035-.812.726-.308,1.009-.447" transform="translate(-99.463 -16.446)" fill="#12263f"/>
        <path id="Trazado_615708" data-name="Trazado 615708" d="M223.233,60.7c0,1.968.013,3.936,0,5.9-.011,1.3-.4,1.673-1.712,1.688-1.275.014-2.551,0-3.827,0a1.351,1.351,0,0,1-1.327-.578c-.127-.215-.07-.636-.543-.5a.964.964,0,0,0-.672.652,4.558,4.558,0,0,0-.138,1.515c-.015.911.011,1.824-.051,2.731a3.233,3.233,0,0,1-3.067,3.112,3.342,3.342,0,0,1-3.758-2.738,23.382,23.382,0,0,1-.123-3.818c-.042-1.258-.293-1.508-1.574-1.542-3.1-.081-4.218-1.235-4.219-4.379,0-1.6-.018-3.207.006-4.811a3.313,3.313,0,0,1,3.436-3.568c3.133-.068,6.268-.025,9.4-.034.557,0,1.135.145,1.376-.674.142-.482.739-.539,1.222-.543,1.349-.011,2.7-.008,4.045,0a1.371,1.371,0,0,1,1.527,1.568q0,3.007,0,6.014M210.7,56.632c-1.528,0-3.057.021-4.585-.007-1.047-.019-1.554.44-1.546,1.494.011,1.492,0,2.984,0,4.476,0,2.017.054,2.073,2.032,2.181,2.519.137,3.742,1.425,3.763,3.969.007.91.006,1.82,0,2.73,0,.78.26,1.44,1.114,1.463.9.024,1.244-.6,1.239-1.454-.007-1.092-.018-2.184.011-3.275a3.222,3.222,0,0,1,2.655-3.266c.71-.138.858-.439.847-1.086-.033-2.074-.054-4.15.008-6.222.025-.852-.273-1.048-1.063-1.018-1.49.057-2.984.016-4.476.017m10.133,4.106c0-1.493-.049-2.987.018-4.477.042-.929-.545-.779-1.063-.747-.536.033-1.289-.329-1.274.771.04,2.984.035,5.97,0,8.955-.012,1.116.776.69,1.3.741.535.053,1.087.149,1.041-.767-.075-1.489-.02-2.984-.02-4.476" transform="translate(-157.971 -41.496)" fill="#12263f"/>
        <path id="Trazado_615709" data-name="Trazado 615709" d="M199.178,138.3a9.488,9.488,0,0,0,1.2-.009c.88-.114,1.182.176,1.193,1.118.012,1.01-.279,1.348-1.277,1.248a12.821,12.821,0,0,0-2.512,0c-.937.092-1-.409-.958-1.113.037-.64-.162-1.389.932-1.254a11.606,11.606,0,0,0,1.421.009" transform="translate(-153.756 -108.016)" fill="#12263f"/>
      </g>
    </g>
  </g>
</svg>
