<svg xmlns="http://www.w3.org/2000/svg" xmlns:xlink="http://www.w3.org/1999/xlink" width="148" height="148" viewBox="0 0 148 148">
  <defs>
    <clipPath id="clip-path">
      <rect id="Rectángulo_379141" data-name="Rectángulo 379141" width="90.442" height="87.22" fill="#12263f"/>
    </clipPath>
  </defs>
  <g id="Grupo_1073243" data-name="Grupo 1073243" transform="translate(-292.865 -9557)">
    <g id="Grupo_1072889" data-name="Grupo 1072889" transform="translate(292.865 9557)">
      <g id="Grupo_1072868" data-name="Grupo 1072868">
        <rect id="Rectángulo_377974" data-name="Rectángulo 377974" width="147.714" height="147.714" fill="none"/>
        <path id="Trazado_610930" data-name="Trazado 610930" d="M-10.279,9.952,111.342.268l15.952,134.154L-7.187,147.951Z" transform="translate(13.831 0.049)" fill="#ffed33"/>
        <path id="Trazado_610931" data-name="Trazado 610931" d="M-22845.346-5607.035l-31.521,31.011-1.01-2.023-2.7.843-2.023-.843-5.561-1.854,37.076-36.91v2.359h2.191v2.865Z" transform="translate(22993.346 5721.227)" fill="#ffa346"/>
        <path id="Trazado_610932" data-name="Trazado 610932" d="M-22845.346-5607.035l-31.521,31.011-1.01-2.023-2.7.843-2.023-.843-5.561-1.854,37.076-36.91v2.359h2.191v2.865Z" transform="translate(22888.156 5616.811)" fill="#ffa346"/>
      </g>
      <path id="Intersección_4" data-name="Intersección 4" d="M29.7,0l1.639,13.763L17.01,27.855,0,29.566Z" transform="translate(108.761 108.21)" fill="#fbdb0a"/>
      <path id="Intersección_3" data-name="Intersección 3" d="M5.772,31.685l-2.7.842-2.022-.842-.915-.305L0,25.336,24.523.931,36.2,0l2.1,2.7L6.782,33.708Z" transform="translate(4.512 7.08)" fill="#fbdb0a"/>
      <rect id="Rectángulo_377980" data-name="Rectángulo 377980" width="86.551" height="86.551" transform="translate(31.158 32.312)" fill="#ffed33"/>
      <g id="Grupo_1073517" data-name="Grupo 1073517" transform="translate(24.779 23.934)">
        <g id="Grupo_1073516" data-name="Grupo 1073516" clip-path="url(#clip-path)">
          <path id="Trazado_615776" data-name="Trazado 615776" d="M65.648,60.259a1.327,1.327,0,0,0-1.091-.715c-4.114-1.193-6.029-3.72-6.043-8.041-.012-3.856-.017-7.711.011-11.566a1.6,1.6,0,0,0-.729-1.516c-2.613-1.858-2.748-5.544-2.054-8.232a2.7,2.7,0,0,1,2.937-1.941c2.915,0,5.831-.055,8.744.018,1.14.029,1.44-.363,1.407-1.447-.072-2.349.007-4.7-.034-7.052-.039-2.253-1.149-3.362-3.4-3.438-1.221-.041-2.452.074-3.665-.034-1.112-.1-1.5.259-1.7,1.383a14.967,14.967,0,0,1-29.462.131c-.223-1.272-.7-1.6-1.881-1.51-1.215.1-2.445-.022-3.665.036-2.046.1-3.182,1.169-3.234,3.156-.068,2.584,0,5.172-.039,7.757-.014.861.392,1.011,1.121,1,2.068-.027,4.138-.031,6.206,0,2.8.041,4.818,1.366,5.632,3.638A5.531,5.531,0,0,1,32.655,38.5a1.559,1.559,0,0,0-.595,1.441q.008,5.571,0,11.143c0,4.834-1.73,7.166-6.321,8.539-.218.065-.476.041-.6.314.11.461.508.306.8.31,1.316.019,2.633-.008,3.949.015a6.33,6.33,0,0,1,6.374,6.217c.086,5.876.052,11.754.02,17.63a2.91,2.91,0,0,1-2.855,3.058,11.78,11.78,0,0,1-1.267.044q-13.894,0-27.786,0c-3.251,0-4.226-.969-4.227-4.173s0-6.394,0-9.591c0-.883.409-1.5,1.311-1.509s1.329.582,1.3,1.486c-.005.141,0,.282,0,.423.03,2.061-.319,1.884,1.862,1.9.94.006,1.883-.04,2.82.012.763.043.959-.281.952-.988-.027-3.009.008-6.018-.021-9.027A2.7,2.7,0,0,0,5.8,62.933a2.792,2.792,0,0,0-2.976,2.428c-.1.6-.048,1.219-.091,1.827A1.161,1.161,0,0,1,1.541,68.34,1.243,1.243,0,0,1,.2,67.327a5.677,5.677,0,0,1,5.219-7.055c2.914-.061,5.83,0,8.745-.031.4,0,1,.3,1.141-.434.117-.619-.373-.764-.786-1a7.364,7.364,0,0,1-3.869-5.261,1.476,1.476,0,0,0-.876-1.132,5.3,5.3,0,0,1-2.556-7.044,4.526,4.526,0,0,0,.233-1.653c0-3.009-.017-6.018.008-9.027A6.268,6.268,0,0,1,13.6,28.283c1.407-.072,2.822-.083,4.23-.021.961.042,1.319-.238,1.289-1.252-.069-2.349-.031-4.7-.019-7.052.019-3.9,2.347-6.239,6.212-6.253,1.364-.005,2.729-.038,4.09.013.718.027.948-.225,1.044-.929a14.115,14.115,0,0,1,2.135-5.761c.492-.767,1-1.655,2.093-1.024,1.131.654.709,1.517.177,2.4A12.35,12.35,0,1,0,40.3,3.7c-.946.421-2.1,1.333-2.752-.173-.661-1.536.816-1.87,1.8-2.295A14.959,14.959,0,0,1,60.034,12.372c.2,1.158.63,1.431,1.7,1.354,1.31-.095,2.631-.036,3.947-.018a5.682,5.682,0,0,1,5.778,5.683c.062,2.49.076,4.985-.01,7.474-.039,1.145.348,1.444,1.433,1.4,4.312-.19,7.558,1.525,9.446,5.51a7.787,7.787,0,0,1,.785,3.4c-.009,1.834,0,3.667.006,5.5a10.193,10.193,0,0,0,.439,3.309,5.187,5.187,0,0,1-2.584,6.343,1.89,1.89,0,0,0-1.1,1.442,7.3,7.3,0,0,1-3.769,5.019c-.457.26-1.022.43-.822,1.1.193.646.794.353,1.206.357,2.774.028,5.548,0,8.322.02a5.379,5.379,0,0,1,5.6,5.461c.052,6.064.037,12.13.007,18.195-.01,2.129-1.243,3.26-3.545,3.283-3.62.037-7.24.012-10.861.012q-8.886,0-17.772,0c-2.966-.005-3.96-1.015-3.966-3.98,0-1.6,0-3.2,0-4.8,0-.85.279-1.535,1.23-1.563,1.021-.03,1.361.64,1.354,1.575-.012,1.646.029,3.292-.014,4.936-.022.836.25,1.176,1.125,1.174q10.226-.035,20.452.009c.965.006,1.039-.42,1.036-1.185-.021-5.5,0-11-.02-16.5a7.678,7.678,0,0,1,.428-3.046c.346-.823.034-.994-.707-.941a6.325,6.325,0,0,1-1.128,0c-1.6-.174-2.765-.054-3.456,1.907s-2.64,2.738-4.753,2.5a4.428,4.428,0,0,1-4-3.274c-.294-1.014-.776-1.186-1.667-1.137-1.078.06-2.164-.025-3.243.028a3.933,3.933,0,0,0-4.048,4.269c-.013,1.5-.015,3.009,0,4.513.009.866-.279,1.524-1.223,1.565-1.033.045-1.369-.635-1.363-1.564.011-1.787-.045-3.576.037-5.359a6.388,6.388,0,0,1,6.24-6.066c1.618-.037,3.237-.006,5.1-.006M22.258,84.543c3.384,0,6.769-.012,10.154.009.8,0,1.329-.085,1.323-1.117-.037-5.547.008-11.094-.033-16.641a3.716,3.716,0,0,0-3.438-3.805c-1.3-.145-2.629-.028-3.94-.111-.871-.055-1.275.162-1.552,1.1A4.477,4.477,0,0,1,20.655,67.3a4.325,4.325,0,0,1-4.781-2.707c-.528-1.692-1.476-1.853-2.863-1.7a5.972,5.972,0,0,1-1.127,0c-1-.082-1.68,0-1.069,1.306a5.479,5.479,0,0,1,.322,2.354c-.015,5.547.027,11.094-.036,16.64-.013,1.152.358,1.4,1.427,1.378,3.242-.064,6.487-.023,9.73-.024M61.092,46.277c0,1.926-.035,3.853.008,5.778a4.906,4.906,0,0,0,4.623,4.953A67.109,67.109,0,0,0,72.906,57a4.794,4.794,0,0,0,4.519-4.728,1.792,1.792,0,0,1,1.619-2.02A2.7,2.7,0,0,0,80.91,46.4c-.3-.619-.721-1.254-1.381-1.286-.678-.033-.549.844-.846,1.277a2.72,2.72,0,0,0-.258.652c-.247.706-.631,1.327-1.455,1.314S75.807,47.7,75.553,47c-.747-2.072-1.561-4.121-2.259-6.209a1.415,1.415,0,0,0-1.579-1.183q-4.72.079-9.441,0c-.9-.014-1.239.228-1.2,1.174.069,1.829.02,3.663.022,5.5m-31.608.283c0-1.926-.047-3.854.02-5.777.033-.944-.3-1.189-1.2-1.175q-4.72.072-9.442,0a1.417,1.417,0,0,0-1.579,1.182c-.734,2.175-1.578,4.313-2.365,6.47a1.438,1.438,0,0,1-1.312,1.1,1.422,1.422,0,0,1-1.349-1.053,13.9,13.9,0,0,1-.562-1.439c-.318-1.117-.853-.874-1.469-.273a2.76,2.76,0,0,0,1.436,4.7,1.659,1.659,0,0,1,1.479,1.835,4.9,4.9,0,0,0,4.945,4.912c2.112.063,4.228.058,6.341,0a5.006,5.006,0,0,0,5.052-5.13c.029-1.785.005-3.57.006-5.355m-15.9-3.448c.454-1.191.823-2.15,1.186-3.112.968-2.563,1.658-3.053,4.355-3.061,3.427-.01,6.855.035,10.28-.039a2.878,2.878,0,0,0,2.961-3.068A2.847,2.847,0,0,0,29.3,30.895q-7.676-.045-15.352,0a3.653,3.653,0,0,0-3.835,3.671c-.1,2.343-.013,4.694-.039,7.041-.008.715.211.9.915.686a2.1,2.1,0,0,1,2.6.818m63.4-.005a2.113,2.113,0,0,1,2.6-.816c.686.2.944.064.926-.673-.037-1.5.066-3.015-.053-4.51a6.37,6.37,0,0,0-6.025-6.164c-5.119-.143-10.245-.054-15.368-.056-.311,0-.629-.049-.819.363a3.928,3.928,0,0,0,3.592,5.681c3.337.023,6.674-.011,10.011.013,2.2.016,3.084.65,3.824,2.635.423,1.135.845,2.27,1.313,3.528m5.211,27.045c0,1.546.028,3.094-.012,4.639-.019.73.232.995.97.966,1.216-.048,2.438-.055,3.654,0,.826.039,1.038-.3,1.024-1.066-.038-2.061-.01-4.123-.014-6.185,0-.984.056-1.974-.04-2.949a2.8,2.8,0,0,0-2.929-2.635A2.725,2.725,0,0,0,82.2,65.794c-.027,1.452-.006,2.905-.006,4.358M8.383,81.414c0-.374.005-.748,0-1.122-.038-2.334.283-1.959-2.026-1.974-3.6-.023-3.608-.006-3.594,3.641.012,2.959-.316,2.564,2.494,2.581,3.127.018,3.127,0,3.127-3.125m73.808-.095v.561c0,2.663,0,2.663,2.612,2.663,3.013,0,3.013,0,3.013-3.192,0-3.04,0-3.04-2.8-3.04-2.823,0-2.823,0-2.823,3.008M20.238,59.712c-2.653.038-2.3-.314-2.322,1.679-.028,2.15.722,3.239,2.193,3.288,1.528.05,2.347-1.086,2.326-3.292-.02-1.974.266-1.64-2.2-1.675m50.2,0c-2.595.038-2.277-.318-2.3,1.712-.023,2.136.741,3.228,2.22,3.255,1.526.028,2.326-1.1,2.3-3.325-.024-1.926.325-1.61-2.218-1.642" transform="translate(0 0)" fill="#12263f"/>
          <path id="Trazado_615777" data-name="Trazado 615777" d="M148.754,35.08a1.971,1.971,0,0,1-.6,1.132c-2.308,2.594-4.608,5.2-6.936,7.772-.93,1.029-1.585,1.024-2.6.026-1.44-1.412-2.851-2.855-4.284-4.275-.689-.682-1.236-1.4-.338-2.27.836-.811,1.525-.294,2.167.356.956.968,1.961,1.892,2.871,2.9.61.676.987.722,1.616-.022,1.817-2.149,3.714-4.231,5.593-6.327.46-.513,1-.891,1.73-.5a1.382,1.382,0,0,1,.785,1.2" transform="translate(-95.855 -24.203)" fill="#12263f"/>
          <path id="Trazado_615778" data-name="Trazado 615778" d="M227.963,177.247a4.417,4.417,0,0,1-4.316-4.013,1.335,1.335,0,0,1,1.056-1.586,1.242,1.242,0,0,1,1.586,1.173c.153.995.58,1.737,1.672,1.708,1.071-.028,1.493-.751,1.622-1.763a1.194,1.194,0,0,1,1.394-1.09c.86.075,1.154.675,1.163,1.476a4.264,4.264,0,0,1-4.178,4.094" transform="translate(-160.552 -123.199)" fill="#12263f"/>
          <path id="Trazado_615779" data-name="Trazado 615779" d="M226.264,151.988c-.014.586-.047,1.568-1.3,1.566-1.417,0-1.389-1.094-1.4-2.106-.01-.978.212-1.881,1.386-1.85,1.3.034,1.325,1.076,1.312,2.39" transform="translate(-160.496 -107.395)" fill="#12263f"/>
          <path id="Trazado_615780" data-name="Trazado 615780" d="M244.559,151.529a2.776,2.776,0,0,1,.177-1.365,1.257,1.257,0,0,1,1.292-.648,1.1,1.1,0,0,1,1.026.816,5.233,5.233,0,0,1,.12,1.243c.008.916-.008,1.852-1.264,1.928-.949.058-1.348-.548-1.351-1.974" transform="translate(-175.568 -107.329)" fill="#12263f"/>
          <path id="Trazado_615781" data-name="Trazado 615781" d="M71.507,177.251a4.261,4.261,0,0,1-4.187-3.934c-.036-.845.192-1.537,1.134-1.632a1.23,1.23,0,0,1,1.438,1.2c.114.968.589,1.616,1.578,1.646,1.088.033,1.536-.688,1.687-1.691a1.247,1.247,0,0,1,1.572-1.2,1.328,1.328,0,0,1,1.076,1.57,4.417,4.417,0,0,1-4.3,4.032" transform="translate(-48.326 -123.203)" fill="#12263f"/>
          <path id="Trazado_615782" data-name="Trazado 615782" d="M90.628,151.526c-.019.963-.023,2-1.342,2.029-1.346.028-1.353-1.009-1.364-1.981-.012-1,.1-2.009,1.39-1.976,1.168.03,1.331.968,1.316,1.928" transform="translate(-63.118 -107.395)" fill="#12263f"/>
          <path id="Trazado_615783" data-name="Trazado 615783" d="M69.831,151.56c.025.989,0,1.95-1.239,1.994-1.351.049-1.373-.974-1.378-1.947s0-2.028,1.319-2.015c1.3.013,1.343,1.042,1.3,1.967" transform="translate(-48.252 -107.392)" fill="#12263f"/>
        </g>
      </g>
    </g>
  </g>
</svg>
