<svg xmlns="http://www.w3.org/2000/svg" xmlns:xlink="http://www.w3.org/1999/xlink" width="125" height="125" viewBox="0 0 125 125">
  <defs>
    <clipPath id="clip-path">
      <rect id="Rectángulo_379119" data-name="Rectángulo 379119" width="65.372" height="67.936" fill="#12263f"/>
    </clipPath>
  </defs>
  <g id="Grupo_1073615" data-name="Grupo 1073615" transform="translate(-386.496 -5131.67)">
    <g id="Grupo_1073043" data-name="Grupo 1073043" transform="translate(0.828 -863.33)">
      <rect id="Rectángulo_377974" data-name="Rectángulo 377974" width="125" height="125" transform="translate(385.668 5995)" fill="none"/>
      <path id="Trazado_610930" data-name="Trazado 610930" d="M-10.279,8.447,92.441.268l13.473,113.306L-7.668,125Z" transform="translate(398.947 5995)" fill="#fff"/>
      <path id="Trazado_610931" data-name="Trazado 610931" d="M-22852-5608.555l-26.621,26.192-.854-1.708-2.277.712-1.709-.712-4.7-1.565,31.316-31.174v1.993h1.85v2.42Z" transform="translate(23362.668 11700)" fill="#ffa346"/>
      <path id="Trazado_610932" data-name="Trazado 610932" d="M-22852-5608.555l-26.621,26.192-.854-1.708-2.277.712-1.709-.712-4.7-1.565,31.316-31.174v1.993h1.85v2.42Z" transform="translate(23273.826 11611.811)" fill="#ffa346"/>
    </g>
    <path id="Intersección_7" data-name="Intersección 7" d="M23221.221,11791.125l1.383,11.624-12.1,11.9-14.367,1.445Z" transform="translate(-22717.785 -6568.063)" fill="#ffe3c7"/>
    <path id="Intersección_8" data-name="Intersección 8" d="M23116.354,11732.74l-2.279.711-1.707-.711-.773-.258-.115-5.1,20.711-20.613,9.867-.786,1.77,2.278-26.621,26.19Z" transform="translate(-22721.172 -6568.33)" fill="#ffe3c7"/>
    <rect id="Rectángulo_378910" data-name="Rectángulo 378910" width="73" height="73" transform="translate(412.496 5158.67)" fill="#fff"/>
    <g id="Grupo_1073473" data-name="Grupo 1073473" transform="translate(416.311 5160.202)">
      <g id="Grupo_1073472" data-name="Grupo 1073472" clip-path="url(#clip-path)">
        <path id="Trazado_615651" data-name="Trazado 615651" d="M39.169,11.75c0-2.222,0-4.445,0-6.668C39.177,1.653,40.822,0,44.235,0Q52.3,0,60.363,0c3.231,0,5,1.75,5,4.964q.011,8.117,0,16.234c0,3.192-1.733,4.921-4.908,4.931-1.945.006-3.891.03-5.835-.014a1.684,1.684,0,0,0-1.518.753c-.891,1.187-1.821,2.344-2.717,3.528a1.652,1.652,0,0,1-2.015.748,1.6,1.6,0,0,1-1.032-1.779c.033-.741,0-1.485.006-2.228,0-.643-.292-1-.954-1-1.132-.011-2.263-.018-3.395-.031-.255,0-.551-.02-.529.333.058.948-.215,1.877.523,2.8A4.549,4.549,0,0,1,40.7,36.425a6.786,6.786,0,0,1-1.9.1,1.013,1.013,0,0,0-1.131.687,16.837,16.837,0,0,1-6.393,7.185,1.121,1.121,0,0,0-.647,1.257,3.056,3.056,0,0,1-1.179,2.807c-.311.269-.955.348-.717,1a1.814,1.814,0,0,0,1.31,1.273c.828.178,1.669.3,2.508.42a10.765,10.765,0,0,1,3.989,1.336c.572.341.983.778.627,1.462-.384.738-.986.672-1.612.281-1.617-1.009-3.472-1.1-5.28-1.391a1.345,1.345,0,0,0-1.122.444,10.161,10.161,0,0,1-7.07,2.362,20.229,20.229,0,0,0-3.427.381,33.181,33.181,0,0,1-4.346.054.855.855,0,0,0-1.009.776c-.706,2.8-1.449,5.6-2.2,8.392-.2.756.252.721.747.72q3.448-.007,6.9,0c4.315,0,8.63-.023,12.945.02.849.008,1.107-.242,1.048-1.069-.068-.95-.019-1.909-.013-2.864,0-.65.26-1.119.977-1.128s.983.448.984,1.107c0,1.026.031,2.052-.006,3.077-.022.627.163.9.835.868,1.094-.046,2.193-.028,3.289-.007.605.011.96-.166.878-.848-.31-2.579-.019-5.244-1.139-7.711A.9.9,0,0,1,39,56.079a1.006,1.006,0,0,1,1.384.6,9.825,9.825,0,0,1,.961,3.559c.152,1.654.26,3.312.335,4.971a2.382,2.382,0,0,1-2.636,2.718q-18.2.015-36.394,0C.871,67.929.036,66.85.477,65.159,1.947,59.528,3.432,53.9,4.891,48.268a3.287,3.287,0,0,1,.529-1.137c1.244-1.717,2.464-3.452,3.735-5.148.4-.529.5-.894.006-1.448a12.265,12.265,0,0,1-2.126-3.4.888.888,0,0,0-.965-.609,12.321,12.321,0,0,1-2.748-.086c-2.989-.629-4.317-4.4-2.484-7.056a2.684,2.684,0,0,0,.5-1.757c-.1-2.473-.225-4.948-.231-7.422a8.4,8.4,0,0,1,5.467-8.387A2.143,2.143,0,0,0,7.5,11a14.682,14.682,0,0,1,12.52-6.547c2.959,0,5.929-.231,8.854.57a18.372,18.372,0,0,1,9.6,6.26c.149.183.309.357.464.536ZM17.042,42.437a.719.719,0,0,0,.683.2q4.456.01,8.911,0A4.144,4.144,0,0,1,29,43.054c.335.213.6.062.874-.113a15.177,15.177,0,0,0,6.211-7.04c1.535-3.708,1.111-7.489.247-11.246a2.4,2.4,0,0,0-2.351-1.829A34.415,34.415,0,0,1,22.23,19.9a.678.678,0,0,0-.848.068c-2,1.645-3.48,1.677-5.609.166a15.183,15.183,0,0,1-2.63-2.456c-.54-.62-.958-.579-1.441.042a18.929,18.929,0,0,0-1.8,2.744c-.316.595-.78.966-1.463.577-.668-.381-.61-.949-.284-1.551a18.151,18.151,0,0,1,1.918-2.917c1.485-1.8,3.009-1.84,4.633-.124a10.875,10.875,0,0,0,3.078,2.56,1.651,1.651,0,0,0,2.112-.343,2.331,2.331,0,0,1,3.139-.592,31.822,31.822,0,0,0,11.035,2.734,4.549,4.549,0,0,1,4.218,3.443,13.869,13.869,0,0,1,.535,2.693c.062.785.527.66,1.014.688.641.037.535-.409.536-.78,0-1.591.013-3.183-.007-4.774A16.109,16.109,0,0,0,29.359,7.232c-3.312-1.073-6.714-.893-10.091-.756A12.4,12.4,0,0,0,9.082,12.265a3.441,3.441,0,0,1-1.746,1.4,5.9,5.9,0,0,0-4.081,4.987A59.741,59.741,0,0,0,3.3,27.027c.01.271.015.53.415.619,1.427.316,2.087-.1,2.307-1.51.076-.488.228-.963.307-1.45.117-.724.446-1.261,1.247-1.083s.841.848.691,1.527a28.424,28.424,0,0,0-.52,3.56,13.992,13.992,0,0,0,2.564,10.126c.407.54.672.737,1.1.03a24.161,24.161,0,0,1,1.415-1.985,3.309,3.309,0,0,1,4.693-.789,3.239,3.239,0,0,1,.741,4.6c-.4.606-.825,1.193-1.224,1.767m32.229-14.2.214.057c.782-1,1.567-2,2.345-3.007a2.659,2.659,0,0,1,2.284-1.1c2.157.031,4.315.018,6.473.006a2.442,2.442,0,0,0,2.727-2.75q.008-8.33,0-16.66c0-1.912-.869-2.808-2.77-2.812q-8.277-.017-16.554,0c-1.91,0-2.8.9-2.808,2.784-.008,3.5,0,7,0,10.505a3.663,3.663,0,0,0,.2,1.245,18.074,18.074,0,0,1,1.052,6.555c-.026.875.389,1.125,1.128,1.132,1.061.009,2.123-.015,3.183.012a2.52,2.52,0,0,1,2.527,2.474c.027.519,0,1.041,0,1.561M5.725,65.968a15.755,15.755,0,0,1,2.013.017c.956.124,1.254-.314,1.462-1.178.708-2.948,1.495-5.877,2.278-8.807A2.111,2.111,0,0,1,13.9,54.133c1.343-.012,2.688.022,4.03-.013a3.26,3.26,0,0,0,3.2-2.451,9.147,9.147,0,0,0,.116-2c.017-1.87.587-2.444,2.481-2.455,1.237-.007,2.476.018,3.711-.033a1.181,1.181,0,0,0,1.219-1.217,1.211,1.211,0,0,0-1.124-1.312,5.2,5.2,0,0,0-.951-.039c-3.288,0-6.576-.01-9.864,0-.813,0-1.555-.064-2-.884-.456-.847,0-1.485.45-2.132.507-.723,1.019-1.443,1.509-2.177a1.155,1.155,0,0,0-.07-1.475,1.251,1.251,0,0,0-1.308-.5,2.068,2.068,0,0,0-1.11.932Q10.73,43.2,7.251,48a3.013,3.013,0,0,0-.509,1.03Q4.676,57.021,2.573,65c-.179.679-.161,1.059.713.984.807-.069,1.625-.014,2.438-.014M4.712,34.536c1.326,0,1.4-.014,1.238-.772a16.346,16.346,0,0,1-.26-3.465c0-.242.02-.479-.271-.62A2.69,2.69,0,0,0,2.2,31c-.679,2.05.371,3.53,2.509,3.537M22.5,53.657a8.45,8.45,0,0,0,4.835-1.511c.186-.126.522-.2.345-.617-.948-2.239-1.2-2.389-3.657-2.3-.528.02-.779.142-.745.712a7.085,7.085,0,0,1-.778,3.712M41.831,32.108c0-1.548-.688-2.389-1.977-2.468-.576-.036-.833.117-.794.749a12.376,12.376,0,0,1-.308,3.559c-.131.566.132.566.531.593,1.669.114,2.545-.714,2.548-2.432" transform="translate(0 0)" fill="#12263f"/>
        <path id="Trazado_615652" data-name="Trazado 615652" d="M105.113,161.136a7.239,7.239,0,0,1,2.725.763c.6.33.948.8.593,1.464a.951.951,0,0,1-1.447.339,3.74,3.74,0,0,0-3.817.021.938.938,0,0,1-1.428-.4c-.308-.613,0-1.073.56-1.394a7.086,7.086,0,0,1,2.814-.8" transform="translate(-80.047 -126.932)" fill="#12263f"/>
        <path id="Trazado_615653" data-name="Trazado 615653" d="M76.982,137.571c-.021-.735,0-1.484.918-1.53,1.082-.055,1.07.775,1.078,1.551s-.1,1.513-1.078,1.453c-.9-.055-.955-.791-.917-1.473" transform="translate(-60.635 -107.162)" fill="#12263f"/>
        <path id="Trazado_615654" data-name="Trazado 615654" d="M147.033,137.358c0-1.116.5-1.7,1.263-1.463.862.268.716,1.013.734,1.675.017.612-.1,1.149-.789,1.318-.763.187-1.213-.394-1.208-1.529" transform="translate(-115.823 -107.007)" fill="#12263f"/>
        <path id="Trazado_615655" data-name="Trazado 615655" d="M227.385,32.743c0-.353,0-.706,0-1.059.014-1.281.251-1.524,1.537-1.579a2.626,2.626,0,1,0-2.466-2.9c-.069.384-.087.786-.436,1.041a.967.967,0,0,1-1.1.059,1.094,1.094,0,0,1-.487-1.1,4.611,4.611,0,0,1,9-1.139,4.571,4.571,0,0,1-3.245,5.852c-.631.158-.794.381-.753.961a8.458,8.458,0,0,1-.016,1.586.977.977,0,0,1-1.028.993.966.966,0,0,1-1-1.02c-.044-.561-.01-1.129-.01-1.694h-.009" transform="translate(-176.795 -17.989)" fill="#12263f"/>
        <path id="Trazado_615656" data-name="Trazado 615656" d="M239.386,89.637a1.033,1.033,0,0,1,1.052,1.1.982.982,0,0,1-1,1.125c-.693.015-1.021-.44-1.035-1.082a1.028,1.028,0,0,1,.978-1.147" transform="translate(-187.802 -70.61)" fill="#12263f"/>
      </g>
    </g>
  </g>
</svg>
