<svg xmlns="http://www.w3.org/2000/svg" xmlns:xlink="http://www.w3.org/1999/xlink" width="125" height="125" viewBox="0 0 125 125">
  <defs>
    <clipPath id="clip-path">
      <rect id="Rectángulo_379126" data-name="Rectángulo 379126" width="68.612" height="68.601" fill="#12263f"/>
    </clipPath>
  </defs>
  <g id="Grupo_1073057" data-name="Grupo 1073057" transform="translate(-743.668 -5996)">
    <g id="Grupo_1072868" data-name="Grupo 1072868" transform="translate(358 1)">
      <rect id="Rectángulo_377974" data-name="Rectángulo 377974" width="125" height="125" transform="translate(385.668 5995)" fill="none"/>
      <path id="Trazado_610930" data-name="Trazado 610930" d="M-10.279,8.447,92.441.268l13.473,113.306L-7.668,125Z" transform="translate(398.947 5995)" fill="#fff"/>
      <path id="Trazado_610931" data-name="Trazado 610931" d="M-22852-5608.555l-26.621,26.192-.854-1.708-2.277.712-1.709-.712-4.7-1.565,31.316-31.174v1.993h1.85v2.42Z" transform="translate(23362.668 11700)" fill="#ffa346"/>
      <path id="Trazado_610932" data-name="Trazado 610932" d="M-22852-5608.555l-26.621,26.192-.854-1.708-2.277.712-1.709-.712-4.7-1.565,31.316-31.174v1.993h1.85v2.42Z" transform="translate(23273.826 11611.811)" fill="#ffa346"/>
    </g>
    <path id="Intersección_4" data-name="Intersección 4" d="M23221.221,11791.125l1.383,11.624-12.1,11.9-14.367,1.445Z" transform="translate(-22360.613 -5703.732)" fill="#ffe3c7"/>
    <path id="Intersección_3" data-name="Intersección 3" d="M23116.354,11732.74l-2.279.711-1.707-.711-.773-.258-.115-5.1,20.711-20.613,9.867-.786,1.77,2.278-26.621,26.19Z" transform="translate(-22364 -5704)" fill="#ffe3c7"/>
    <rect id="Rectángulo_377980" data-name="Rectángulo 377980" width="73" height="73" transform="translate(769.668 6023)" fill="#fff"/>
    <g id="Grupo_1073487" data-name="Grupo 1073487" transform="translate(771.862 6024.2)">
      <g id="Grupo_1073486" data-name="Grupo 1073486" clip-path="url(#clip-path)">
        <path id="Trazado_615691" data-name="Trazado 615691" d="M34.24,94.4c-8.466,0-16.931.017-25.4-.007A8.487,8.487,0,0,1,.4,88.241,8,8,0,0,1,1.07,81.72Q7.65,70.136,14.311,58.6c.139-.243.326-.608.531-.638,1.219-.177.839-1.024.823-1.754-.037-1.779-.487-3.534-.258-5.331a7.65,7.65,0,0,1,2.444-4.749,3.3,3.3,0,0,0,.96-1.61,16.14,16.14,0,0,1,31.01-.006,3.4,3.4,0,0,0,.959,1.611A7.774,7.774,0,0,1,53.228,53c-.164,1.346-.209,2.705-.327,4.057-.03.347-.081.649.4.688.582.048.835.5,1.084.937q2.376,4.127,4.74,8.26a1.622,1.622,0,0,1,.252,1.423,1.271,1.271,0,0,1-1.117.876,1.374,1.374,0,0,1-1.386-.813c-1.293-2.26-2.617-4.5-3.868-6.787-.379-.692-.693-.868-1.44-.49-1.717.868-3.477,1.652-5.233,2.441-.514.231-.642.478-.433,1.039,2.873,7.75,5.688,15.522,8.59,23.261a5.843,5.843,0,0,0,8.024,3.26,5.913,5.913,0,0,0,2.643-8.261c-.705-1.321-1.49-2.6-2.206-3.915a1.206,1.206,0,0,1,.436-1.688,1.128,1.128,0,0,1,1.712.231c1.275,2.169,2.907,4.175,3.347,6.756a8.513,8.513,0,0,1-8.382,10.106c-8.608.061-17.217.016-25.826.016ZM15.069,91.6H53.629a11.546,11.546,0,0,1-2.1-3.888c-1.1-3.049-2.247-6.081-3.333-9.134a1.173,1.173,0,0,0-1.12-.909,26.723,26.723,0,0,1-3.471-.605,1.755,1.755,0,0,0-1.712.428,11.529,11.529,0,0,1-13.494.992,6.9,6.9,0,0,0-5.887-.993,5.76,5.76,0,0,1-1.048.2.969.969,0,0,0-.973.791c-.542,1.583-1.1,3.164-1.733,4.713-1.139,2.788-1.709,5.825-3.686,8.408M8.59,91.7a5.75,5.75,0,0,0,5.555-3.792c2.887-7.744,5.712-15.51,8.589-23.257.236-.635.032-.86-.5-1.1-1.787-.8-3.57-1.622-5.328-2.486-.57-.28-.834-.207-1.148.358-1.386,2.493-2.822,4.959-4.241,7.435C8.855,73.5,6.157,78.122,3.542,82.788A5.9,5.9,0,0,0,8.59,91.7M33.211,70.448c4.2.008,6.793-1.123,9.019-3.241.955-.909,1.41-1.776.676-3.06a1.389,1.389,0,0,1,.506-2.115c.309-.169.344-.381.243-.71-.145-.475-.2-.975-.325-1.458-.464-1.853-.024-3.695.066-5.54.046-.939-.235-1.517-1.284-1.7a24.7,24.7,0,0,1-11.168-5.094c-.232-.184-.431-.527-.823-.365-1.44.593-3.128.836-3.5,2.816a8.278,8.278,0,0,1-.813,2.2,6.3,6.3,0,0,0-.428,3.964,12.394,12.394,0,0,1-.019,3.409c-.127,1.039-.861,2.118.435,3.124.63.49-.013,1.5-.315,2.193a1.351,1.351,0,0,0,.287,1.631,10.572,10.572,0,0,0,7.439,3.95m8.665-20.595a4.743,4.743,0,0,1,4.6-6.492A13.359,13.359,0,0,0,34.01,35.554C28.7,35.789,23.548,39.2,22.2,43.391a4.723,4.723,0,0,1,4.046,2.02c.265.389.5.261.805.13.818-.348,1.653-.658,2.467-1.015a2.317,2.317,0,0,1,2.71.538,21.778,21.778,0,0,0,9.649,4.79M18.069,52.145c0,.285-.022.572,0,.855a14.01,14.01,0,0,1,.263,2.976c-.338,2.6,1.126,3.669,3.271,4.368.626.2.875.228,1-.489a15.366,15.366,0,0,0,.023-4.477,6.3,6.3,0,0,1,.4-3.442c.487-1.105.86-2.261,1.267-3.4a1.7,1.7,0,0,0-.641-1.993,1.574,1.574,0,0,0-1.993-.187c-1.919,1.461-3.781,3.008-3.593,5.789m27.824,5.32-.048,0c.045.711.075,1.423.138,2.133.069.787.33,1.2,1.2.678a10.38,10.38,0,0,1,2.027-.955,1.326,1.326,0,0,0,.945-1.366,32.952,32.952,0,0,1,.35-4.154c.646-3.219-.8-5.444-3.2-7.267a1.9,1.9,0,0,0-3.066,1.329,2.965,2.965,0,0,0,.4,1.536A11.809,11.809,0,0,1,45.9,56.93a2.627,2.627,0,0,0,0,.534m-11.568,20A10.032,10.032,0,0,0,39.6,75.876c.658-.406.819-.747.268-1.4a3.773,3.773,0,0,1-.678-1.436c-.148-.545-.377-.651-.893-.486a11.912,11.912,0,0,1-7.168.189c-1.174-.353-1.712-.125-1.972,1.034a2.25,2.25,0,0,1-.522.923c-.395.452-.253.711.187,1.01a9.714,9.714,0,0,0,5.5,1.754m12.5-2.561c-.663-1.811-1.26-3.444-1.859-5.075-.413-1.124-.408-1.116-1.253-.348-.368.335-.758.647-1.156.946-1.1.826-1.191,1.245-.506,2.465a3.1,3.1,0,0,0,2.063,1.57c.824.189,1.67.277,2.711.442m-19.8-3.4c.107-.323-.16-.5-.425-.7a18.074,18.074,0,0,1-1.815-1.482c-.522-.526-.766-.626-1.011.206-.3,1.02-.739,2-1.074,3.009a5.91,5.91,0,0,0-.687,2.281c.838-.114,1.688-.172,2.51-.356a3.413,3.413,0,0,0,2.5-2.954" transform="translate(0 -25.814)" fill="#12263f"/>
        <path id="Trazado_615692" data-name="Trazado 615692" d="M47.464,5.775c-1.041-1.128-1.981-2.141-2.914-3.16-.76-.83-.833-1.691-.2-2.248s1.363-.449,2.134.377c1.508,1.617,2.99,3.258,4.5,4.868a1.545,1.545,0,0,1,.45,1.653,1.421,1.421,0,0,1-1.349.881c-.635.074-1.265.2-1.9.3-.152.349.154.51.313.713q1.352,1.726,2.726,3.434a1.371,1.371,0,0,1-.021,2.086c-.6.56-1.406.424-2.04-.362-1.568-1.942-3.124-3.893-4.649-5.868-.816-1.057-.467-2.011.82-2.32.645-.155,1.311-.22,2.13-.352" transform="translate(-34.509 -0.015)" fill="#12263f"/>
        <path id="Trazado_615693" data-name="Trazado 615693" d="M243.772,8.458c-.937-.142-1.644-.23-2.343-.36A1.335,1.335,0,0,1,240.6,5.78c1.566-1.757,3.179-3.471,4.776-5.2a1.319,1.319,0,0,1,1.983-.23,1.4,1.4,0,0,1-.038,2.086c-.97,1.082-1.969,2.138-3.059,3.317.847.145,1.548.216,2.222.391a1.286,1.286,0,0,1,.788,2.2c-1.563,2.036-3.172,4.036-4.784,6.034a1.267,1.267,0,0,1-1.964.28,1.3,1.3,0,0,1-.093-1.991c1.075-1.361,2.155-2.718,3.339-4.209" transform="translate(-188.575 0)" fill="#12263f"/>
        <path id="Trazado_615694" data-name="Trazado 615694" d="M5.1,64.685c-1.3-.62-2.583-1.228-3.863-1.848C.249,62.357-.082,61.67.286,60.9s1.1-.964,2.1-.492c2,.938,3.983,1.9,5.981,2.842a1.428,1.428,0,0,1,.1,2.739c-.559.3-1.094.642-1.807,1.064,1.358.773,2.579,1.464,3.8,2.164a9.754,9.754,0,0,1,1.178.73,1.2,1.2,0,0,1,.307,1.712,1.159,1.159,0,0,1-1.649.512c-2.365-1.317-4.733-2.631-7.061-4.01A1.279,1.279,0,0,1,3.22,65.94c.314-.232.671-.4,1-.611a2.257,2.257,0,0,0,.88-.643" transform="translate(-0.11 -47.26)" fill="#12263f"/>
        <path id="Trazado_615695" data-name="Trazado 615695" d="M269.5,66.968c-.765-.445-1.386-.781-1.981-1.158a1.346,1.346,0,0,1,.053-2.515c2.1-1.046,4.235-2.036,6.36-3.04a1.3,1.3,0,0,1,1.914.548c.393.722.081,1.451-.82,1.9-1.307.647-2.63,1.261-4.091,1.958.672.4,1.252.714,1.807,1.072a1.333,1.333,0,0,1,0,2.461c-2.208,1.3-4.45,2.552-6.679,3.821a1.244,1.244,0,0,1-1.852-.422,1.264,1.264,0,0,1,.546-1.9c1.5-.883,3.024-1.738,4.738-2.719" transform="translate(-207.403 -47.181)" fill="#12263f"/>
        <path id="Trazado_615696" data-name="Trazado 615696" d="M281.763,215.823a1.3,1.3,0,0,1-1.3,1.486,1.252,1.252,0,0,1-1.293-1.283,1.277,1.277,0,0,1,1.315-1.365,1.192,1.192,0,0,1,1.28,1.162" transform="translate(-219.334 -168.652)" fill="#12263f"/>
        <path id="Trazado_615697" data-name="Trazado 615697" d="M150.839,171.511a1.247,1.247,0,0,1-1.944,1.109,2.154,2.154,0,0,0-2.976.013,1.126,1.126,0,0,1-1.623-.26,1.279,1.279,0,0,1-.018-1.753,4.377,4.377,0,0,1,6.272,0,1.263,1.263,0,0,1,.29.888" transform="translate(-113.089 -133.013)" fill="#12263f"/>
        <path id="Trazado_615698" data-name="Trazado 615698" d="M131.667,145.348a1.377,1.377,0,0,1-1.3-.917,1.18,1.18,0,0,1,.405-1.437,4.738,4.738,0,0,1,1.936-.865,1.2,1.2,0,0,1,1.335.681,1.176,1.176,0,0,1-.173,1.485,5.047,5.047,0,0,1-2.2,1.053" transform="translate(-102.353 -111.647)" fill="#12263f"/>
        <path id="Trazado_615699" data-name="Trazado 615699" d="M172.8,142.135c1.193-.025,2.69,1.014,2.737,1.817a1.359,1.359,0,0,1-1.315,1.4c-1.142.025-2.688-1.084-2.616-1.926a1.277,1.277,0,0,1,1.195-1.292" transform="translate(-134.827 -111.672)" fill="#12263f"/>
      </g>
    </g>
  </g>
</svg>
