<svg xmlns="http://www.w3.org/2000/svg" xmlns:xlink="http://www.w3.org/1999/xlink" width="70" height="70" viewBox="0 0 70 70">
  <defs>
    <clipPath id="clip-path">
      <rect id="Rectángulo_379196" data-name="Rectángulo 379196" width="39.761" height="30.903" fill="#670303"/>
    </clipPath>
  </defs>
  <g id="Grupo_1073093" data-name="Grupo 1073093" transform="translate(-269 -958)">
    <circle id="Elipse_5614" data-name="Elipse 5614" cx="35" cy="35" r="35" transform="translate(269 958)" fill="#fff"/>
    <g id="Grupo_1073557" data-name="Grupo 1073557" transform="translate(286.12 977.548)">
      <g id="Grupo_1073556" data-name="Grupo 1073556" clip-path="url(#clip-path)">
        <path id="Trazado_615823" data-name="Trazado 615823" d="M3.327,22.149c.376-.131.465-.5.634-.791,1.254-2.141,2.521-4.275,3.73-6.441a2.877,2.877,0,0,1,2.79-1.623c8.868.033,17.737.017,26.6.018,2.42,0,3.36,1.6,2.148,3.691-2.4,4.137-4.835,8.257-7.22,12.4a2.711,2.711,0,0,1-2.589,1.5c-8.4-.028-16.79-.02-25.185-.04a4.244,4.244,0,0,1-4.207-4.19q-.064-11.218,0-22.436A4.233,4.233,0,0,1,4.223.031C7.06-.026,9.9.009,12.736.022a3.445,3.445,0,0,1,2.829,1.257A8.223,8.223,0,0,0,23.517,4.5c1.728-.169,3.485-.033,5.229-.03a4.351,4.351,0,0,1,4.381,4.117c.17,2.392.17,2.362-2.216,2.4-.724.012-.954-.166-.944-.917.034-2.342-.1-2.444-2.435-2.444-2.158,0-4.316-.014-6.474,0a7.619,7.619,0,0,1-6.167-2.585A4.9,4.9,0,0,0,10.35,3.155c-1.877.167-3.781.027-5.673.041C3.607,3.2,3.2,3.593,3.2,4.621q-.012,8.469,0,16.938c0,.193-.068.412.131.59" transform="translate(0 0)" fill="#670303"/>
      </g>
    </g>
  </g>
</svg>
