<svg xmlns="http://www.w3.org/2000/svg" xmlns:xlink="http://www.w3.org/1999/xlink" width="125" height="125" viewBox="0 0 125 125">
  <defs>
    <clipPath id="clip-path">
      <rect id="Rectángulo_379123" data-name="Rectángulo 379123" width="64.311" height="64.328" fill="#12263f"/>
    </clipPath>
  </defs>
  <g id="Grupo_1073050" data-name="Grupo 1073050" transform="translate(-743.668 -5996)">
    <g id="Grupo_1072868" data-name="Grupo 1072868" transform="translate(358 1)">
      <rect id="Rectángulo_377974" data-name="Rectángulo 377974" width="125" height="125" transform="translate(385.668 5995)" fill="none"/>
      <path id="Trazado_610930" data-name="Trazado 610930" d="M-10.279,8.447,92.441.268l13.473,113.306L-7.668,125Z" transform="translate(398.947 5995)" fill="#fff"/>
      <path id="Trazado_610931" data-name="Trazado 610931" d="M-22852-5608.555l-26.621,26.192-.854-1.708-2.277.712-1.709-.712-4.7-1.565,31.316-31.174v1.993h1.85v2.42Z" transform="translate(23362.668 11700)" fill="#ffa346"/>
      <path id="Trazado_610932" data-name="Trazado 610932" d="M-22852-5608.555l-26.621,26.192-.854-1.708-2.277.712-1.709-.712-4.7-1.565,31.316-31.174v1.993h1.85v2.42Z" transform="translate(23273.826 11611.811)" fill="#ffa346"/>
    </g>
    <path id="Intersección_4" data-name="Intersección 4" d="M23221.221,11791.125l1.383,11.624-12.1,11.9-14.367,1.445Z" transform="translate(-22360.613 -5703.732)" fill="#ffe3c7"/>
    <path id="Intersección_3" data-name="Intersección 3" d="M23116.354,11732.74l-2.279.711-1.707-.711-.773-.258-.115-5.1,20.711-20.613,9.867-.786,1.77,2.278-26.621,26.19Z" transform="translate(-22364 -5704)" fill="#ffe3c7"/>
    <rect id="Rectángulo_377980" data-name="Rectángulo 377980" width="73" height="73" transform="translate(769.668 6023)" fill="#fff"/>
    <g id="Grupo_1073481" data-name="Grupo 1073481" transform="translate(769.668 6026.336)">
      <g id="Grupo_1073480" data-name="Grupo 1073480" clip-path="url(#clip-path)">
        <path id="Trazado_615667" data-name="Trazado 615667" d="M190.518,31.146c-1.006.739-1.621.59-2.243-.418-.121-.2-.17-.355,0-.534a1.191,1.191,0,0,1,.213-.211c1.723-1.078,1.753-2.63,1.108-4.5-.825.826-1.62,1.648-2.448,2.435-.276.262-.539.851-.892.667a5.6,5.6,0,0,1-1.293-1.235c-.1-.105-.01-.248.09-.349s.183-.2.276-.292c.6-.627,1.662-1.243,1.676-1.883.018-.822-1.119-1.379-1.769-2.034-3.608-3.636-7.248-7.24-10.848-10.884-.488-.495-.762-.538-1.25-.016-1.121,1.2-2.34,2.3-3.453,3.5-.691.747-.945.044-1.307-.292s-.924-.6-.25-1.241c1.552-1.476,3.035-3.024,4.558-4.53.871-.862,1.288-.853,2.186.043q6.791,6.775,13.573,13.559c.255.254.522.5.988.937-.251-1.819-.456-3.383-.685-4.944-.262-1.785-.558-3.566-.808-5.352a1.193,1.193,0,0,0-.673-1A3.211,3.211,0,1,1,191.832,8.7a3.221,3.221,0,0,1-1.326,3.779c-.264.189-.552.277-.478.75.672,4.325,1.31,8.656,1.957,12.982.322.105.425-.162.57-.305,1.049-1.034,2.069-2.1,3.136-3.113a1.424,1.424,0,0,0,.479-1.326q-.913-7.873-1.787-15.75c-.158-1.412-.146-1.4-1.594-1.561q-7.876-.878-15.75-1.786a1.441,1.441,0,0,0-1.312.513c-1.973,2-4.006,3.949-5.937,5.992-.676.715-.959.294-1.4-.155s-.885-.715-.164-1.4c2.254-2.146,4.431-4.373,6.618-6.589a1.8,1.8,0,0,1,1.621-.556q8.972,1.014,17.947,2c1.643.182,1.767.292,1.95,1.932.673,6.015,1.326,12.033,2.022,18.045a1.892,1.892,0,0,1-.92,1.867c-1.055.745-1.056,1.631-.77,2.78.62,2.495,1.115,5.021,1.618,7.543a3.63,3.63,0,0,1-3.091,4.375,3.667,3.667,0,0,1-4.047-3.308c-.185-1.39-.425-2.773-.655-4.258m4.017-4.276c-.73.769-1.3,1.369-1.867,1.969a.613.613,0,0,0-.211.534c.311,2.044.578,4.1.948,6.129a1.433,1.433,0,0,0,2.8-.464,16.345,16.345,0,0,0-.373-2.062c-.409-1.946-.828-3.89-1.3-6.106m-5.784-16.06a.961.961,0,0,0,1.044-1.042,1.026,1.026,0,1,0-2.052.015c-.007.637.346.974,1.009,1.026" transform="translate(-134.088 -0.124)" fill="#12263f"/>
        <path id="Trazado_615668" data-name="Trazado 615668" d="M106.846,140a17.11,17.11,0,1,1,32.183,8.167.935.935,0,0,0,.187,1.35c2.461,2.415,4.885,4.868,7.321,7.307a3.222,3.222,0,0,1,.837,3.418,3.146,3.146,0,0,1-2.588,2.255,3.414,3.414,0,0,1-3.168-1.126c-2.288-2.305-4.6-4.585-6.876-6.9a.858.858,0,0,0-1.323-.158,17.09,17.09,0,0,1-25.966-9.651,16.285,16.285,0,0,1-.608-4.66m17.141,15.055a15.009,15.009,0,1,0-15.017-14.984,15.043,15.043,0,0,0,15.017,14.984m20.2,5.323a1.124,1.124,0,0,0,1.127-.768,1.208,1.208,0,0,0-.445-1.416q-3.109-3.121-6.225-6.236c-1.252-1.254-1.241-1.243-2.438.06-.3.328-.388.521-.024.881,2.377,2.343,4.73,4.711,7.092,7.07a1.129,1.129,0,0,0,.913.408" transform="translate(-85.376 -98.245)" fill="#12263f"/>
        <path id="Trazado_615669" data-name="Trazado 615669" d="M16.166.007c3.414,0,6.828-.009,10.241,0a5.381,5.381,0,0,1,5.758,5.774q.013,7.079,0,14.157c-.006,3.555-2.212,5.769-5.742,5.779-1.673,0-3.348.031-5.02-.013-.683-.018-.791.221-.654.819.224.975.367,1.969.6,2.943a1.188,1.188,0,0,1-.392,1.429c-.565.372-1.069.1-1.56-.253-1.978-1.43-3.979-2.83-5.945-4.275A3.091,3.091,0,0,0,11.43,25.7c-1.973.051-3.949.029-5.923.014A5.3,5.3,0,0,1,.024,20.293q-.047-7.43,0-14.86A5.292,5.292,0,0,1,5.423.019C9-.018,12.585.011,16.166.011Zm2.493,27.459a10.2,10.2,0,0,0-.332-2.134c-.242-1.262.163-1.748,1.454-1.755,2.275-.012,4.551.01,6.827-.008A3.126,3.126,0,0,0,29.989,20.2q.016-7.329,0-14.657A3.1,3.1,0,0,0,26.6,2.188q-10.491-.011-20.982,0A3.117,3.117,0,0,0,2.193,5.607q-.012,7.228,0,14.457c0,2.282,1.237,3.5,3.55,3.508,2.041.009,4.084.037,6.124-.014a3.585,3.585,0,0,1,2.406.765c1.4,1.067,2.855,2.053,4.386,3.143" transform="translate(0 0)" fill="#12263f"/>
        <path id="Trazado_615670" data-name="Trazado 615670" d="M13.479,139.974a13,13,0,0,1,1.139,1.4c.268.436-.253.618-.479.845Q8.8,147.6,3.418,152.935c-.516.51-.661.8-.056,1.4q9.336,9.26,18.6,18.592c.5.507.791.613,1.327.028,1.083-1.183,2.3-2.249,3.374-3.436.64-.7.951-.21,1.319.2.328.368,1.017.605.27,1.306-1.586,1.487-3.081,3.07-4.631,4.6-.746.735-1.226.74-1.97,0q-10.513-10.5-21.013-21a1.179,1.179,0,0,1-.012-1.907q6.108-6.1,12.211-12.205c.137-.137.3-.25.64-.529" transform="translate(-0.119 -111.847)" fill="#12263f"/>
        <path id="Trazado_615671" data-name="Trazado 615671" d="M40.941,182.039a13.13,13.13,0,0,1-1.223-1.365c-.3-.437.243-.612.46-.832,1.9-1.932,3.857-3.808,5.718-5.775.729-.77.977-.1,1.362.262s.891.631.18,1.3c-2.019,1.9-3.942,3.907-5.9,5.87-.16.16-.335.306-.593.54" transform="translate(-31.667 -138.805)" fill="#12263f"/>
        <path id="Trazado_615672" data-name="Trazado 615672" d="M63.367,188.937c.4.491.813.928,1.144,1.42.278.413-.2.58-.4.783-1.923,1.949-3.9,3.848-5.786,5.83-.679.712-.941.152-1.315-.226s-.963-.626-.248-1.31c2-1.915,3.937-3.9,5.9-5.861.161-.16.338-.3.707-.635" transform="translate(-45.086 -150.971)" fill="#12263f"/>
        <path id="Trazado_615673" data-name="Trazado 615673" d="M78.45,222.621a4.6,4.6,0,0,1-.3.363c-1.082,1.087-2.181,2.157-3.244,3.261-.346.359-.54.293-.872-.025-1.1-1.052-1.116-1.035-.012-2.139.8-.8,1.635-1.574,2.393-2.414.475-.527.831-.555,1.252.01.233.314.624.5.782.944" transform="translate(-58.492 -176.801)" fill="#12263f"/>
        <path id="Trazado_615674" data-name="Trazado 615674" d="M93.761,244.793c-.119.132-.244.283-.381.422a19.456,19.456,0,0,0-1.534,1.565c-.624.8-1.086.78-1.753.011-.458-.529-.642-.829-.01-1.326.519-.408.94-.938,1.424-1.393.282-.265.565-.846.877-.694a5.764,5.764,0,0,1,1.3,1.2c.041.041.044.12.077.219" transform="translate(-71.655 -194.452)" fill="#12263f"/>
        <path id="Trazado_615675" data-name="Trazado 615675" d="M107.094,267.735a13.641,13.641,0,0,1-1.372-1.557c-.228-.356.3-.506.478-.745.2-.263.505-.447.7-.713.532-.731.943-.707,1.6-.044.626.632.66.987-.027,1.542a13.515,13.515,0,0,0-1.377,1.517" transform="translate(-84.433 -211.09)" fill="#12263f"/>
        <path id="Trazado_615676" data-name="Trazado 615676" d="M153.738,156.94a12.863,12.863,0,1,1-12.806-12.85,12.87,12.87,0,0,1,12.806,12.85m-12.9,10.676a10.687,10.687,0,1,0-10.625-10.746,10.616,10.616,0,0,0,10.625,10.746" transform="translate(-102.288 -115.136)" fill="#12263f"/>
        <path id="Trazado_615677" data-name="Trazado 615677" d="M23.519,33.8c.418-.192.561-.631.824-.953.84-1.031,1.523-1.05,2.316-.012.649.848,1.287,1.705,2.014,2.669,1.039-1.555,2.028-3.039,3.02-4.52s1.5-1.506,2.643-.129c1.255,1.509,2.513,3.014,3.855,4.622l3.671-6.584a6.97,6.97,0,0,1,.344-.612c.221-.317.272-.922.671-.906a3.2,3.2,0,0,1,1.58.806c.259.183.015.421-.091.613-1.652,2.983-3.292,5.972-4.968,8.941-.521.924-1.3.961-2.02.118-1.284-1.5-2.557-3.01-3.788-4.553-.4-.507-.584-.445-.9.053-.9,1.407-1.841,2.792-2.774,4.18-.821,1.221-1.489,1.228-2.391.034-.644-.851-1.284-1.7-1.984-2.634-1.15,1.446-2.5,2.644-2.193,4.729.106.725.232.944.976.939,4.854-.033,9.708-.017,14.562-.017,1.741,0,3.483.04,5.222-.016.9-.029.752.54.729,1.051s.271,1.162-.728,1.158c-7.164-.026-14.328-.008-21.492-.021-1,0-1.419-.421-1.422-1.411-.015-4.653,0-9.307-.015-13.96,0-1.106.791-.623,1.282-.693s.97-.1.944.72c-.061,1.94-.023,3.883-.014,5.824,0,.181-.095.4.132.565" transform="translate(-16.92 -21.29)" fill="#12263f"/>
        <path id="Trazado_615678" data-name="Trazado 615678" d="M179.336,176.135c-.011,2.123-.646,3.031-2.714,3.62-.61.174-.472.539-.481.9-.036,1.379-.029,1.341-1.363,1.344-.645,0-.858-.253-.76-.828.162-.944-.146-1.391-1.154-1.61a2.824,2.824,0,0,1-1.973-2.1c-.162-.508-.136-.928.609-.869.671.053,1.414-.185,1.759.721.107.281.481.323.8.32.468,0,.937,0,1.405,0,1.519,0,1.794-.313,1.76-1.821a1.223,1.223,0,0,0-1.347-1.377c-.7-.015-1.407.017-2.106-.03a3.059,3.059,0,0,1-2.951-3.072,4.707,4.707,0,0,1,.42-2.828,2.938,2.938,0,0,1,1.967-1.439c.754-.125.848-.515.823-1.156a1.205,1.205,0,0,1,1.848-1.081c.466.245.267.727.245,1.089-.04.654.114.987.832,1.161a2.976,2.976,0,0,1,2.326,2.482c.077.386.025.655-.476.62-.72-.05-1.549.265-1.932-.739-.109-.284-.494-.311-.8-.315q-.7-.009-1.4-.007c-1.49.005-1.9.462-1.769,1.939a1.187,1.187,0,0,0,1.275,1.246c.468.006.937,0,1.405,0,2.6.009,3.776,1.208,3.763,3.822" transform="translate(-136.47 -131.576)" fill="#12263f"/>
      </g>
    </g>
  </g>
</svg>
