<svg xmlns="http://www.w3.org/2000/svg" xmlns:xlink="http://www.w3.org/1999/xlink" width="148" height="148" viewBox="0 0 148 148">
  <defs>
    <clipPath id="clip-path">
      <rect id="Rectángulo_379142" data-name="Rectángulo 379142" width="85.785" height="90.867" fill="#12263f"/>
    </clipPath>
  </defs>
  <g id="Grupo_1073244" data-name="Grupo 1073244" transform="translate(-292.865 -9557)">
    <g id="Grupo_1072889" data-name="Grupo 1072889" transform="translate(292.865 9557)">
      <g id="Grupo_1072868" data-name="Grupo 1072868">
        <rect id="Rectángulo_377974" data-name="Rectángulo 377974" width="147.714" height="147.714" fill="none"/>
        <path id="Trazado_610930" data-name="Trazado 610930" d="M-10.279,9.952,111.342.268l15.952,134.154L-7.187,147.951Z" transform="translate(13.831 0.049)" fill="#ffed33"/>
        <path id="Trazado_610931" data-name="Trazado 610931" d="M-22845.346-5607.035l-31.521,31.011-1.01-2.023-2.7.843-2.023-.843-5.561-1.854,37.076-36.91v2.359h2.191v2.865Z" transform="translate(22993.346 5721.227)" fill="#ffa346"/>
        <path id="Trazado_610932" data-name="Trazado 610932" d="M-22845.346-5607.035l-31.521,31.011-1.01-2.023-2.7.843-2.023-.843-5.561-1.854,37.076-36.91v2.359h2.191v2.865Z" transform="translate(22888.156 5616.811)" fill="#ffa346"/>
      </g>
      <path id="Intersección_4" data-name="Intersección 4" d="M29.7,0l1.639,13.763L17.01,27.855,0,29.566Z" transform="translate(108.761 108.21)" fill="#fbdb0a"/>
      <path id="Intersección_3" data-name="Intersección 3" d="M5.772,31.685l-2.7.842-2.022-.842-.915-.305L0,25.336,24.523.931,36.2,0l2.1,2.7L6.782,33.708Z" transform="translate(4.512 7.08)" fill="#fbdb0a"/>
      <rect id="Rectángulo_377980" data-name="Rectángulo 377980" width="86.551" height="86.551" transform="translate(31.158 32.312)" fill="#ffed33"/>
      <g id="Grupo_1073519" data-name="Grupo 1073519" transform="translate(23.662 28.566)">
        <g id="Grupo_1073518" data-name="Grupo 1073518" clip-path="url(#clip-path)">
          <path id="Trazado_615784" data-name="Trazado 615784" d="M109.375,99.133a10.027,10.027,0,0,1,7.313-2.407c1.514.029,3.032-.045,4.544.022.96.043,1.132-.351,1.2-1.229a2.566,2.566,0,0,0-1.707-2.9,18.672,18.672,0,0,1-9.985-12.582,1.418,1.418,0,0,0-1.106-1.2c-2.652-.821-4.466-2.468-4.722-5.38s1.21-4.878,3.763-6.046c.871-.4.619-.816.368-1.4a31.266,31.266,0,0,1-2.815-11.054,7.547,7.547,0,0,1,7.687-8.279,1.5,1.5,0,0,0,1.448-.846,11.981,11.981,0,0,1,11.169-6.249c4.2.133,8.392.681,12.595.878,4.082.191,8.045-.2,11.186-3.35a1.32,1.32,0,0,1,2.3.5c2.206,6.118,3.209,12.267.149,18.434a12.149,12.149,0,0,1-3.114,4,2.292,2.292,0,0,0-.895,2.084c.068,1.274.039,2.556.009,3.833a1.033,1.033,0,0,0,.872,1.19,5.974,5.974,0,0,1-.125,11.615,1.712,1.712,0,0,0-1.378,1.517,15.154,15.154,0,0,1-1.1,3.21,1.288,1.288,0,0,1-1.807.868,1.224,1.224,0,0,1-.7-1.764c1.911-4.067,1.581-8.4,1.59-12.694,0-2.083-.02-4.166.011-6.248.011-.77-.129-1.033-.951-.673-7.989,3.5-15.937,2.818-23.83-.34-.8-.32-1.194-.355-1.578.559-1.2,2.853-3.03,5.119-6.179,6-.38.106-.67.272-.654.769.116,3.763-.338,7.546.979,11.237,4.072,11.415,19.24,14.618,27.549,5.768.259-.276.507-.563.769-.836.648-.671,1.38-.89,2.1-.177.679.67.435,1.358-.132,2a19.3,19.3,0,0,1-6.357,4.9,3.038,3.038,0,0,0-1.24,3.53c.23.428.646.331,1.007.334,1.846.012,3.693-.03,5.538.016,5.522.137,9.273,3.773,9.447,9.248.1,3.027.041,6.059.012,9.088-.015,1.58-.467,2-2.066,2q-26.131.009-52.261,0c-1.563,0-2.01-.443-2.02-2.045-.023-3.6-.013-7.2,0-10.793,0-.932.069-1.939,1.3-1.973,1.321-.037,1.429.979,1.429,1.988,0,2.982.03,5.965-.017,8.947-.014.868.25,1.156,1.122,1.127,1.75-.058,3.5-.048,5.254,0,.8.02,1.06-.255,1.055-1.06q-.044-7.668,0-15.337c.007-.912-.34-1.118-1.162-1.1q-2.554.07-5.112,0c-.8-.02-1.222.118-1.173,1.067.047.9-.4,1.586-1.434,1.532-.975-.051-1.254-.781-1.256-1.592q-.025-9.941,0-19.882c0-.821.326-1.512,1.315-1.52,1.052-.008,1.383.681,1.394,1.586.02,1.609.054,3.221-.009,4.828-.035.889.287,1.141,1.137,1.112,1.608-.055,3.219-.019,4.828-.014,3.17.009,4.192,1.014,4.2,4.14.006,3.172,0,6.343.008,9.515a2.466,2.466,0,0,0,.233,1.529m25.24-36.592a21.882,21.882,0,0,0,7.265-1.168c4.328-1.433,7.795-3.878,9.26-8.438,1.275-3.966.877-7.931-.216-11.872-.17-.613-.418-.576-.882-.265-2.737,1.835-5.852,2.306-9.049,2.393-4.411.121-8.778-.534-13.156-.906-4.776-.406-8.545,1.548-10.622,5.876a2.022,2.022,0,0,1-2.456,1.319c-3.451-.532-5.871,1.665-5.809,5.19.068,3.906,1.373,7.487,2.9,11.019.4.927.856,1.071,1.723.648,2.315-1.128,3.427-3.159,4.195-5.453.725-2.164,1.12-2.351,3.158-1.405a31.511,31.511,0,0,0,13.691,3.062m6.959,49.565c1.072.769,1.525,2.22,3.063,2.274,1.418.051,2.839-.013,4.257.02.714.016,1.007-.214,1-.972-.04-2.7.092-5.4-.065-8.088a6.1,6.1,0,0,0-3.71-5.307c-.953-.468-1.462-.44-1.385.855.167,2.833.222,5.672.373,8.505a1.736,1.736,0,0,1-1.508,2.024,4.246,4.246,0,0,0-2.02.689m-27.522-7.015-.053,0c.077-1.417.092-2.84.251-4.248.137-1.22-.339-1.306-1.261-.868a6.009,6.009,0,0,0-3.791,5.368c-.094,1.936-.057,3.878-.062,5.818-.008,3.235,0,3.224,3.276,3.24,1.506.008,3.062.244,4.042-1.342.218-.352.785-.682.746-.96-.08-.573-.758-.4-1.186-.506-2.061-.536-2.227-.753-2.125-2.955q.082-1.772.162-3.545M102.477,94.083a21.556,21.556,0,0,1,2.341.015c1.2.141,1.773-.2,1.587-1.521a16.412,16.412,0,0,1-.019-2.269c0-3.649,0-3.649-3.711-3.649-3.688,0-3.711,0-3.675,3.667.012,1.21-.533,2.757.264,3.541.733.72,2.256.118,3.212.215m16.612,19.8.278.5c.98,0,1.96-.027,2.939.009.773.028.829-.274.637-.937q-1.924-6.653-3.776-13.327c-.275-1-1-.63-1.6-.679-.752-.062-.638.521-.655.972-.082,2.172-.055,4.354-.266,6.514-.154,1.575.291,2.386,1.929,2.467a7.061,7.061,0,0,1,1.644.4c1.407.426,1.725,1.493.714,2.543a20.893,20.893,0,0,1-1.844,1.538m20.563.493.31-.509a17.026,17.026,0,0,1-1.982-1.58c-.969-1.028-.653-2.05.711-2.459a25.721,25.721,0,0,1,2.747-.666c.7-.129.932-.464.894-1.164-.134-2.454-.2-4.91-.337-7.364-.026-.489.215-1.194-.748-1.208-.777-.011-1.382.04-1.531.989a15.39,15.39,0,0,1-.483,1.773q-1.586,5.576-3.169,11.153c-.118.418-.447,1,.394,1.025,1.063.037,2.128.009,3.192.009M125.2,95.756c-.4,1.241.453,1.729,1.384,2.428,2,1.5,3.7,1.433,5.784.055a2.87,2.87,0,0,0,1.5-2.955c-.043-.741-.2-.981-1-.825a18.412,18.412,0,0,1-6.333.074c-1.105-.171-1.633-.11-1.339,1.223m-1.708,9.681c1.213-1.231,2.241-2.265,3.256-3.312.173-.178.555-.463.163-.657-1.414-.7-2.578-1.929-4.282-2.03-.671-.04-.81.215-.631.819.482,1.62.939,3.248,1.493,5.181m11.944.17c.591-2.051,1.026-3.642,1.516-5.215.2-.636.183-1.008-.62-.949-1.69.126-2.884,1.294-4.269,2.051-.337.184.019.478.2.674.985,1.07,1.973,2.138,3.174,3.439m13.338-32.69c0,.8.023,1.6-.007,2.394-.025.659.174.888.8.533a3.188,3.188,0,0,0,.083-5.763c-.665-.394-.919-.163-.88.583s.008,1.5.008,2.253m-38.622.178c0-.8-.018-1.6.005-2.4.022-.747-.255-.983-.907-.558a3.159,3.159,0,0,0,.028,5.63c.658.419.917.2.882-.554-.032-.7-.007-1.412-.009-2.118m21.239,32.195c-.02-.327-1.785-1.976-1.99-1.823-.733.55-1.854,1.138-1.781,1.971a3.778,3.778,0,0,0,1.741,2.253,8.076,8.076,0,0,0,2.03-2.4m-5.828,7.437c2.35-2.352,2.358-2.359.525-4.566-.222-.266-.331-.962-.905-.562-.428.3-.959.613-.713,1.362.391,1.2.706,2.416,1.094,3.767m7.828-.006c.415-1.431.77-2.631,1.11-3.834.2-.7-.35-1.058-.782-1.357-.535-.37-.683.27-.933.545-.41.45-.774.942-1.167,1.408a.7.7,0,0,0-.042,1.006c.557.674,1.1,1.356,1.815,2.231m-2.452,1.511c-.413-.719-.753-1.657-1.439-1.608-.587.042-1.048.9-1.45,1.771a11.541,11.541,0,0,0,2.889-.162" transform="translate(-68.904 -26.215)" fill="#12263f"/>
          <path id="Trazado_615785" data-name="Trazado 615785" d="M57.108,43.54a13.225,13.225,0,0,1-5.05,10.481,2.1,2.1,0,0,0-.937,2.047,10.55,10.55,0,0,1,.009,1.56c-.073,3.588-2.009,5.847-5.541,6.413a15.445,15.445,0,0,1-4.526.03c-3.555-.485-5.712-2.672-5.705-6.245a6.165,6.165,0,0,0-2.149-4.955,13.62,13.62,0,0,1-2.234-16.115A13.919,13.919,0,0,1,57,41.257c.093.7.072,1.417.111,2.282m-9.654,4.847c0,.946,0,1.891,0,2.837.007,1.435.692,1.893,2.035,1.335a3.64,3.64,0,0,0,.821-.549,11.191,11.191,0,1,0-17.836-5.537,11.063,11.063,0,0,0,3.932,5.751,2.263,2.263,0,0,0,2.143.394c.806-.251.407-1.053.421-1.6.049-1.843.021-3.688.019-5.531,0-.971.177-1.933,1.359-1.929,1.143,0,1.4.906,1.393,1.908-.015,1.986.09,3.978-.037,5.955-.086,1.348.64,1.272,1.553,1.295.994.025,1.587-.1,1.523-1.358-.1-2.075-.025-4.159-.023-6.24,0-.87.368-1.537,1.275-1.567.981-.032,1.407.639,1.415,1.575.009,1.087,0,2.175.006,3.262m-4.168,7c-.99,0-1.981-.02-2.971,0-2.6.062-2.266-.513-2.265,2.332A3.418,3.418,0,0,0,41.644,61.4c.848.023,1.7.008,2.546.005,3.265-.011,5.027-2.279,4.289-5.452-.145-.621-.537-.556-.948-.558-1.415-.008-2.829,0-4.244,0" transform="translate(-20.985 -21.063)" fill="#12263f"/>
          <path id="Trazado_615786" data-name="Trazado 615786" d="M198.858,195.57a7.725,7.725,0,0,1-5.126-2.018c-.646-.585-.892-1.264-.312-1.985s1.245-.64,1.986-.124c2.7,1.883,4.122,1.892,6.779.049.77-.534,1.5-.693,2.092.122a1.36,1.36,0,0,1-.384,1.982,7.9,7.9,0,0,1-5.034,1.973" transform="translate(-138.241 -136.774)" fill="#12263f"/>
          <path id="Trazado_615787" data-name="Trazado 615787" d="M130.331,36.923a1.379,1.379,0,0,1,1.45.828,1.15,1.15,0,0,1-.426,1.5c-1.153.728-2.333,1.418-3.538,2.056a1.192,1.192,0,0,1-1.536-.347,1.085,1.085,0,0,1-.137-1.439,12.729,12.729,0,0,1,4.188-2.6" transform="translate(-90.151 -26.434)" fill="#12263f"/>
          <path id="Trazado_615788" data-name="Trazado 615788" d="M38.008,9.859c1.289.015,3.713,4.212,3.087,5.21-.526.839-1.342,1.069-2,.309a11.676,11.676,0,0,1-2.241-3.892c-.308-.924.282-1.507,1.151-1.627" transform="translate(-26.328 -7.058)" fill="#12263f"/>
          <path id="Trazado_615789" data-name="Trazado 615789" d="M108.41,11.3c-.764,1.372-1.348,3.041-2.657,4.25a1.039,1.039,0,0,1-1.427-.151A1.174,1.174,0,0,1,103.9,14a20.246,20.246,0,0,1,2.215-3.779,1.131,1.131,0,0,1,1.42-.315,1.465,1.465,0,0,1,.878,1.391" transform="translate(-74.314 -7.006)" fill="#12263f"/>
          <path id="Trazado_615790" data-name="Trazado 615790" d="M11.161,108.442a1.175,1.175,0,0,1-1.216-.788,1.215,1.215,0,0,1,.359-1.533c1.191-.751,2.407-1.468,3.652-2.124a1.148,1.148,0,0,1,1.488.473,1.368,1.368,0,0,1,.073,1.473,15.317,15.317,0,0,1-4.357,2.5" transform="translate(-7.037 -74.366)" fill="#12263f"/>
          <path id="Trazado_615791" data-name="Trazado 615791" d="M15.665,39.868A1.3,1.3,0,0,1,13.78,41.2a34.635,34.635,0,0,1-3.407-1.973A1.253,1.253,0,0,1,10,37.48a1.107,1.107,0,0,1,1.442-.578,17.283,17.283,0,0,1,3.884,2.242c.224.168.275.568.344.724" transform="translate(-7.016 -26.357)" fill="#12263f"/>
          <path id="Trazado_615792" data-name="Trazado 615792" d="M73.65,3.123c0-.659-.047-1.322.013-1.976A1.2,1.2,0,0,1,74.885,0a1.211,1.211,0,0,1,1.373,1.142,31.352,31.352,0,0,1,0,4.094,1.21,1.21,0,0,1-1.374,1.14A1.228,1.228,0,0,1,73.637,5.1c-.035-.658-.007-1.318-.007-1.978h.02" transform="translate(-52.706 0)" fill="#12263f"/>
          <path id="Trazado_615793" data-name="Trazado 615793" d="M3.092,73.853c.708,0,1.419-.037,2.124.012a1.134,1.134,0,0,1,1.1,1.242c.013.684-.307,1.25-1.046,1.277-1.413.053-2.831.059-4.243-.008C.309,76.342-.019,75.8,0,75.088A1.129,1.129,0,0,1,1.11,73.863c.657-.051,1.321-.011,1.982-.01" transform="translate(0 -52.862)" fill="#12263f"/>
          <path id="Trazado_615794" data-name="Trazado 615794" d="M186.02,157.93c.058-1.1-.268-2.569,1.41-2.543,1.571.025,1.3,1.451,1.288,2.486-.009,1.068.328,2.555-1.387,2.523-1.59-.03-1.243-1.445-1.311-2.466" transform="translate(-133.177 -111.245)" fill="#12263f"/>
          <path id="Trazado_615795" data-name="Trazado 615795" d="M230.973,157.749c0-.187.006-.376,0-.563-.036-.989.2-1.885,1.363-1.889,1.206,0,1.336.954,1.325,1.908-.007.609,0,1.22-.027,1.828a1.226,1.226,0,0,1-1.321,1.329,1.264,1.264,0,0,1-1.32-1.349c-.026-.42,0-.844,0-1.266h-.014" transform="translate(-165.357 -111.181)" fill="#12263f"/>
        </g>
      </g>
    </g>
  </g>
</svg>
