<svg xmlns="http://www.w3.org/2000/svg" xmlns:xlink="http://www.w3.org/1999/xlink" width="125" height="125" viewBox="0 0 125 125">
  <defs>
    <clipPath id="clip-path">
      <rect id="Rectángulo_379137" data-name="Rectángulo 379137" width="70.54" height="70.401" fill="#12263f"/>
    </clipPath>
  </defs>
  <g id="Grupo_1073187" data-name="Grupo 1073187" transform="translate(-743.668 -5996)">
    <g id="Grupo_1072868" data-name="Grupo 1072868" transform="translate(358 1)">
      <rect id="Rectángulo_377974" data-name="Rectángulo 377974" width="125" height="125" transform="translate(385.668 5995)" fill="none"/>
      <path id="Trazado_610930" data-name="Trazado 610930" d="M-10.279,8.447,92.441.268l13.473,113.306L-7.668,125Z" transform="translate(398.947 5995)" fill="#fff"/>
      <path id="Trazado_610931" data-name="Trazado 610931" d="M-22852-5608.555l-26.621,26.192-.854-1.708-2.277.712-1.709-.712-4.7-1.565,31.316-31.174v1.993h1.85v2.42Z" transform="translate(23362.668 11700)" fill="#ffa346"/>
      <path id="Trazado_610932" data-name="Trazado 610932" d="M-22852-5608.555l-26.621,26.192-.854-1.708-2.277.712-1.709-.712-4.7-1.565,31.316-31.174v1.993h1.85v2.42Z" transform="translate(23273.826 11611.811)" fill="#ffa346"/>
    </g>
    <path id="Intersección_4" data-name="Intersección 4" d="M23221.221,11791.125l1.383,11.624-12.1,11.9-14.367,1.445Z" transform="translate(-22360.613 -5703.732)" fill="#ffe3c7"/>
    <path id="Intersección_3" data-name="Intersección 3" d="M23116.354,11732.74l-2.279.711-1.707-.711-.773-.258-.115-5.1,20.711-20.613,9.867-.786,1.77,2.278-26.621,26.19Z" transform="translate(-22364 -5704)" fill="#ffe3c7"/>
    <rect id="Rectángulo_377980" data-name="Rectángulo 377980" width="73" height="73" transform="translate(769.668 6023)" fill="#fff"/>
    <g id="Grupo_1073509" data-name="Grupo 1073509" transform="translate(767 6023)">
      <g id="Grupo_1073508" data-name="Grupo 1073508" clip-path="url(#clip-path)">
        <path id="Trazado_615756" data-name="Trazado 615756" d="M70.094,8.367a6.412,6.412,0,0,1-2.062,4.7c-2.372,2.341-4.721,4.707-7.119,7.021a1.239,1.239,0,0,0-.29,1.785,27.4,27.4,0,0,1,1.706,3.832A1.992,1.992,0,0,0,64.48,27.23c.482-.021.965-.008,1.447,0a4.318,4.318,0,0,1,4.582,4.5q.06,3.486,0,6.975a4.352,4.352,0,0,1-4.469,4.511c-.57.018-1.141.025-1.71,0a1.812,1.812,0,0,0-1.893,1.317c-.434,1.1-.846,2.209-1.356,3.271a1.853,1.853,0,0,0,.383,2.274c.3.321.617.623.922.938,2.188,2.263,2.171,4.673-.059,6.917-1.546,1.555-3.085,3.117-4.659,4.643a4.343,4.343,0,0,1-6.343.028,7.316,7.316,0,0,1-.741-.746,2.3,2.3,0,0,0-3.34-.6,12.49,12.49,0,0,1-2.419,1.008,2,2,0,0,0-1.54,2.155c.009.439.008.878,0,1.316-.087,3.05-1.735,4.644-4.809,4.65-2.281,0-4.562.016-6.843,0-2.5-.021-4.453-1.675-4.293-4.14.174-2.686-.809-4.12-3.372-4.65a6.64,6.64,0,0,1-1.437-.638,1.689,1.689,0,0,0-2.048.351c-.064.06-.123.125-.187.185-3.667,3.42-5.205,3.388-8.772-.182-1.209-1.21-2.431-2.407-3.626-3.631a4.208,4.208,0,0,1-.037-6.395c.273-.285.532-.587.829-.844a2.145,2.145,0,0,0,.586-3.008,22.007,22.007,0,0,1-1.209-2.9,1.887,1.887,0,0,0-1.892-1.32c-5.228-.2-6.164-1.2-6.163-6.489,0-1.667-.019-3.334.005-5A4.289,4.289,0,0,1,4.458,27.23c.57-.011,1.141-.01,1.711,0a1.865,1.865,0,0,0,1.9-1.318c.433-1.1.838-2.214,1.356-3.272a1.839,1.839,0,0,0-.448-2.362c-.469-.461-.945-.918-1.379-1.411a4.233,4.233,0,0,1-.019-5.753c1.793-1.924,3.654-3.791,5.579-5.581a3.979,3.979,0,0,1,5.891.243c1.612,1.889,3.181,2.23,5.2.886a1.9,1.9,0,0,1,.361-.154c2.595-1.024,2.595-1.024,2.64-3.75C27.3,1.662,28.873.064,31.962.025,34.243,0,36.525-.017,38.805.033c2.769.061,4.345,1.676,4.442,4.46.015.438.019.878,0,1.316a2.14,2.14,0,0,0,1.639,2.36,23.238,23.238,0,0,1,3.369,1.457,1.124,1.124,0,0,0,1.57-.257c2.341-2.372,4.717-4.709,7.1-7.042,3.04-2.98,6.562-2.971,9.63.012,1.284,1.248,2.736,2.377,3.225,4.224.156.588.211,1.2.313,1.805M67.887,35.3h-.006q0-.921,0-1.843c0-3.5-.047-3.54-3.486-3.589A4.406,4.406,0,0,1,59.97,26.8c-.343-.852-.683-1.707-1.071-2.538-.685-1.469-.623-1.368-1.865-.36-1.147.93-1.253,1.766-.68,3.113a20.785,20.785,0,0,1,1.332,11.329A22.663,22.663,0,1,1,42.479,13.736c1.763.61,2.86.421,3.873-1a1.043,1.043,0,0,1,.19-.181c.512-.428.349-.7-.191-.923-.972-.4-1.932-.823-2.908-1.206a4.4,4.4,0,0,1-2.884-4.162c-.024-.349-.005-.7-.006-1.053-.006-2.26-.3-2.554-2.612-2.56-1.492,0-2.983,0-4.475,0-3.474,0-3.48,0-3.566,3.46a4.279,4.279,0,0,1-2.327,4.118,36.353,36.353,0,0,1-4.749,1.9,3.94,3.94,0,0,1-3.93-.881c-.462-.4-.875-.86-1.315-1.288-1.219-1.182-1.939-1.2-3.127-.033Q12.2,12.133,9.983,14.384c-1.139,1.153-1.139,1.978-.033,3.156.3.32.6.637.91.949a4.31,4.31,0,0,1,.939,5.177c-.456,1.041-.857,2.106-1.262,3.169a4.393,4.393,0,0,1-4.315,3.031c-.482.009-.965-.005-1.448,0-1.581.029-2.107.553-2.123,2.161-.016,1.579,0,3.159,0,4.738,0,3.723,0,3.738,3.673,3.8a4.287,4.287,0,0,1,4.142,2.7c.573,1.275,1.035,2.6,1.555,3.9a4.135,4.135,0,0,1-.864,4.507c-.37.432-.8.811-1.2,1.221-1.124,1.162-1.124,1.96.025,3.145s2.335,2.378,3.5,3.565c2.432,2.467,2.478,2.467,4.975.036a4.328,4.328,0,0,1,5.288-.954c.763.33,1.527.661,2.307.949,3.06,1.13,3.831,2.214,3.844,5.458,0,.307,0,.615.011.921a1.623,1.623,0,0,0,1.829,1.759c1.755,0,3.51,0,5.264,0,3.477,0,3.476,0,3.539-3.468a4.434,4.434,0,0,1,2.81-4.354c1.246-.532,2.524-.991,3.786-1.486a4.137,4.137,0,0,1,4.513.854c.494.432.928.933,1.409,1.381,1.057.984,1.793,1,2.843-.011,1.265-1.215,2.493-2.468,3.737-3.7,2.471-2.457,2.471-2.457.053-4.987a4.374,4.374,0,0,1-.946-5.3c.46-1.087.859-2.2,1.311-3.291a4.234,4.234,0,0,1,4.049-2.818c.57-.018,1.141.009,1.711-.01,1.473-.048,2.035-.617,2.065-2.117.021-1.052,0-2.106,0-3.158M42.463,16.579a15.857,15.857,0,0,0-6.083-1.437,20.082,20.082,0,1,0,17.765,13.3c-.344-.985-.627-.9-1.273-.255q-7.23,7.19-14.507,14.332a3.358,3.358,0,0,1-1.59,1.09c-3.788.9-7.557,1.879-11.343,2.787-1.6.384-2.378-.423-1.981-2.041.886-3.611,1.828-7.209,2.719-10.819a4.08,4.08,0,0,1,1.174-1.99q5.765-5.676,11.5-11.387c1.178-1.167,2.359-2.331,3.622-3.578m20.32-2.09c-.186-.22-.335-.426-.514-.6-2-1.972-4.018-3.922-5.99-5.921-.523-.529-.83-.536-1.364-.006q-12.376,12.282-24.8,24.519c-.469.462-.57.745-.055,1.243q3.031,2.922,5.994,5.915c.524.532.847.513,1.367,0Q49.8,27.355,62.211,15.106c.184-.182.353-.38.572-.617M61.788,2.762C59.933,2.7,58.9,4.019,57.77,5.169c-.31.316-.016.55.2.764q3.133,3.084,6.27,6.163c.206.2.386.453.78.272a5.209,5.209,0,0,0,2.4-4.266c-.154-2.079-3.413-5.243-5.5-5.341-.044,0-.087,0-.13,0M33.5,41.567,28.236,36.1c-.521,2.042-1.072,4.2-1.621,6.353-.136.535-.093.855.619.671,2.2-.568,4.406-1.1,6.261-1.556" transform="translate(0 0)" fill="#12263f"/>
        <path id="Trazado_615757" data-name="Trazado 615757" d="M138.739,69.4a1.465,1.465,0,0,1,.632-1.2q8.6-8.328,17.187-16.66c.644-.625,1.355-.954,2.068-.263.778.753.412,1.5-.266,2.154q-8.585,8.339-17.163,16.687c-.5.482-1.026.839-1.755.476a1.18,1.18,0,0,1-.7-1.2" transform="translate(-102.204 -37.497)" fill="#12263f"/>
      </g>
    </g>
  </g>
</svg>
