<svg xmlns="http://www.w3.org/2000/svg" xmlns:xlink="http://www.w3.org/1999/xlink" width="125" height="125" viewBox="0 0 125 125">
  <defs>
    <clipPath id="clip-path">
      <rect id="Rectángulo_379120" data-name="Rectángulo 379120" width="65.613" height="65.614" fill="#12263f"/>
    </clipPath>
  </defs>
  <g id="Grupo_1073045" data-name="Grupo 1073045" transform="translate(-743.668 -5996)">
    <g id="Grupo_1072868" data-name="Grupo 1072868" transform="translate(358 1)">
      <rect id="Rectángulo_377974" data-name="Rectángulo 377974" width="125" height="125" transform="translate(385.668 5995)" fill="none"/>
      <path id="Trazado_610930" data-name="Trazado 610930" d="M-10.279,8.447,92.441.268l13.473,113.306L-7.668,125Z" transform="translate(398.947 5995)" fill="#fff"/>
      <path id="Trazado_610931" data-name="Trazado 610931" d="M-22852-5608.555l-26.621,26.192-.854-1.708-2.277.712-1.709-.712-4.7-1.565,31.316-31.174v1.993h1.85v2.42Z" transform="translate(23362.668 11700)" fill="#ffa346"/>
      <path id="Trazado_610932" data-name="Trazado 610932" d="M-22852-5608.555l-26.621,26.192-.854-1.708-2.277.712-1.709-.712-4.7-1.565,31.316-31.174v1.993h1.85v2.42Z" transform="translate(23273.826 11611.811)" fill="#ffa346"/>
    </g>
    <path id="Intersección_4" data-name="Intersección 4" d="M23221.221,11791.125l1.383,11.624-12.1,11.9-14.367,1.445Z" transform="translate(-22360.613 -5703.732)" fill="#ffe3c7"/>
    <path id="Intersección_3" data-name="Intersección 3" d="M23116.354,11732.74l-2.279.711-1.707-.711-.773-.258-.115-5.1,20.711-20.613,9.867-.786,1.77,2.278-26.621,26.19Z" transform="translate(-22364 -5704)" fill="#ffe3c7"/>
    <g id="Grupo_1073475" data-name="Grupo 1073475" transform="translate(766.574 6025.693)">
      <g id="Grupo_1073474" data-name="Grupo 1073474" clip-path="url(#clip-path)">
        <path id="Trazado_615657" data-name="Trazado 615657" d="M65.6,31.327c0,7.156.021,14.313-.007,21.469A12.617,12.617,0,0,1,42.9,60.555a1.71,1.71,0,0,0-1.561-.8c-4.512.03-9.025.024-13.537.005a3.194,3.194,0,0,0-1.693.467c-2.858,1.669-5.74,3.3-8.59,4.977a1.7,1.7,0,0,1-1.947,0Q8.321,60.976,1.026,56.82A1.81,1.81,0,0,1,0,55.042q.042-8.355,0-16.71A1.809,1.809,0,0,1,1.02,36.551c4.859-2.779,9.718-5.557,14.531-8.414,1.038-.616,1.712-.111,2.495.332.969.548.972.55.973-.558q0-12.427,0-24.853c0-2.38.651-3.042,2.99-3.042Q39.09.015,56.17,0a3.486,3.486,0,0,1,2.719,1.112c1.861,1.926,3.763,3.814,5.682,5.683A3.279,3.279,0,0,1,65.614,9.33c-.026,7.332-.014,14.665-.014,22M63.477,45.91c0-12.147,0-23.988.012-35.828,0-.633-.24-.765-.806-.752-1.339.031-2.679.011-4.018.01-1.934,0-2.39-.468-2.391-2.442,0-1.269-.036-2.539.014-3.806.028-.7-.135-.973-.914-.971q-16.654.038-33.308,0c-.744,0-.941.208-.939.943q.036,13.165,0,26.329A1.317,1.317,0,0,0,21.9,30.72c2.639,1.481,5.259,3,7.87,4.529a3.727,3.727,0,0,0,1.982.547q11.843-.034,23.686-.013a5.352,5.352,0,0,1,.949.028,1.042,1.042,0,0,1,0,2.059,5.06,5.06,0,0,1-.949.03c-7.12,0-14.24.013-21.359-.016-.806,0-1.136.173-1.071,1.042a24.539,24.539,0,0,1,0,3.17c-.04.726.246.872.91.867q5.339-.042,10.679,0a2.34,2.34,0,0,0,1.347-.49,12.418,12.418,0,0,1,11.2-1.41,12.894,12.894,0,0,1,6.325,4.848M52.97,42.488a10.494,10.494,0,0,0-.011,20.989,10.494,10.494,0,1,0,.011-20.989M15.454,62.681c0-5.1-.01-10,.014-14.892,0-.566-.361-.705-.714-.909q-5.988-3.459-11.981-6.91c-.175-.1-.334-.28-.636-.129,0,4.053.164,8.147-.065,12.218a4.074,4.074,0,0,0,2.571,4.458c3.622,1.859,7.089,4.02,10.811,6.165M30.911,39.63c-1.053.6-1.889,1.107-2.753,1.561a1.05,1.05,0,0,0-.606,1.095c.03,1.762,0,3.525.015,5.287a1.352,1.352,0,0,1-.626,1.353c-1.468.836-2.917,1.707-4.4,2.509-.774.418-1.464-.017-1.555-.91a10.475,10.475,0,0,1-.011-1.057c0-1.31,0-2.62,0-4.1-1.008.571-1.782,1.056-2.6,1.455a1.317,1.317,0,0,0-.818,1.392c.037,4.476.016,8.953.025,13.429,0,.295-.11.62.149.939.282-.147.561-.28.828-.434,3.323-1.918,6.578-3.97,9.991-5.709a3.868,3.868,0,0,0,2.421-4.226c-.2-4.11-.058-8.236-.058-12.589m-1.165-1.858a1.324,1.324,0,0,0-.221-.206q-6.247-3.621-12.5-7.233c-.2-.118-.414-.3-.681-.15-1.015.583-2.028,1.169-3.16,1.822,3.6,2.079,7.008,4.048,10.417,6.012,3.086,1.777,3.088,1.774,6.063-.161a.55.55,0,0,0,.081-.084M19.89,43.508c-4.408-2.545-8.671-5.006-12.932-7.469a.62.62,0,0,0-.689-.054c-.981.579-1.967,1.149-3.05,1.781,4.377,2.528,8.615,4.973,12.849,7.423a.728.728,0,0,0,.789.089c.967-.562,1.932-1.127,3.033-1.77m23.165,1.564c-3.277,0-6.339.01-9.4-.009-.54,0-.642.236-.634.7.021,1.233.032,2.468,0,3.7-.017.575.211.713.741.708,2.079-.022,4.16-.015,6.239,0,.387,0,.663-.047.776-.5a13.757,13.757,0,0,1,2.282-4.6m-12.2,12.276c.3.2.353.27.406.27,3.065.011,6.13.01,9.2.028.637,0,.69-.259.5-.786a9.419,9.419,0,0,1-.581-3.731c.045-.747-.282-.868-.926-.854-1.655.036-3.312,0-4.967.015-1.676.015-1.518-.233-1.43,1.451s-.033,3.128-2.2,3.607M8.768,34.631c3.8,2.2,7.6,4.265,11.259,6.563,1.551.975,2.77,1.029,4.1-.132a1.272,1.272,0,0,0,.133-.176c-.3-.186-.6-.373-.9-.547-3.437-1.988-6.951-3.858-10.283-6.01-1.651-1.067-2.895-1.009-4.314.3M23.09,48.51c.693-.028,1.119-.493,1.633-.752.325-.164.724-.29.718-.8-.016-1.326-.005-2.652-.005-4.178-.725.418-1.281.765-1.862,1.064a.8.8,0,0,0-.492.825c.022,1.263.008,2.527.008,3.842M61.537,7.218,58.4,3.821c0,1.035.009,1.937,0,2.839-.006.4.151.569.556.563.9-.014,1.807,0,2.589,0" transform="translate(-0.001 0)" fill="#12263f"/>
        <path id="Trazado_615658" data-name="Trazado 615658" d="M142.809,37.07q-5.762,0-11.525,0a1.76,1.76,0,0,1-1.212-.256,1.008,1.008,0,0,1,.419-1.8c.612-.156.679-.449.674-.957-.016-1.727-.021-3.454,0-5.181.014-1.15.308-1.429,1.457-1.441,1.269-.013,2.538.006,3.806-.005a1.17,1.17,0,0,1,1.355,1.348c-.014,1.727.022,3.454-.016,5.181-.015.676.095,1,.9,1.011.875.01.847-.446.844-1.057-.015-3.1-.01-6.2-.005-9.3,0-1.428.253-1.681,1.651-1.688,1.2-.006,2.4-.011,3.595,0,1.146.012,1.434.287,1.439,1.451.014,3.207.025,6.415-.009,9.622-.008.732.208.966.951.97.792,0,.815-.4.813-.99-.014-4.617-.008-9.234-.008-13.851,0-.247,0-.493,0-.74a1.125,1.125,0,0,1,1.241-1.253c1.374-.029,2.749-.025,4.123,0,1.007.016,1.279.637,1.276,1.551-.018,4.652-.009,9.3-.007,13.957,0,.645-.178,1.351.869,1.445.421.038.616.526.582,1.005a.92.92,0,0,1-.744.907,4.679,4.679,0,0,1-1.049.074q-5.71.007-11.419,0m9.633-9.441c0-2.147-.055-4.3.024-6.44.036-.979-.452-1-1.149-.953-.625.04-1.307-.241-1.29.913q.1,6.439,0,12.881c-.017,1.152.678.869,1.3.916.722.054,1.173-.024,1.137-.982-.079-2.109-.025-4.223-.025-6.334m-10.819,2.346v3.376c0,1.671,0,1.647,1.648,1.6.578-.015.809-.179.8-.786q-.035-4.167,0-8.333c0-.583-.168-.857-.778-.792a3.911,3.911,0,0,1-.843,0c-.631-.071-.867.16-.845.821.046,1.37.014,2.742.014,4.113m-5.963,2.237V31.05c0-1.581,0-1.545-1.633-1.512-.649.013-.755.29-.744.833.023,1.162.064,2.328-.012,3.485-.06.907.282,1.091,1.134,1.12,1.018.034,1.418-.254,1.268-1.286a10.327,10.327,0,0,1-.012-1.477" transform="translate(-102.239 -14.279)" fill="#12263f"/>
        <path id="Trazado_615659" data-name="Trazado 615659" d="M144.541,137.25h-12.9c-.282,0-.565.01-.845-.012a.983.983,0,0,1-1.02-1,1.007,1.007,0,0,1,1.038-1.095,7.053,7.053,0,0,1,.739-.013q13.055,0,26.11,0a4.956,4.956,0,0,1,.948.04.972.972,0,0,1,.864,1.034.96.96,0,0,1-.88,1.016,5.86,5.86,0,0,1-.949.029H144.541" transform="translate(-102.324 -106.542)" fill="#12263f"/>
        <path id="Trazado_615660" data-name="Trazado 615660" d="M214.908,224.066a3.187,3.187,0,0,1,2.412,1.328c1.264,1.276,1.269,1.27,2.555-.027,1.14-1.15,2.269-2.31,3.423-3.446a2.776,2.776,0,1,1,3.929,3.895q-3.209,3.287-6.455,6.537a2.8,2.8,0,0,1-4.351,0c-1.232-1.207-2.461-2.418-3.649-3.668a2.744,2.744,0,0,1,2.135-4.624m11.148-.4a.647.647,0,0,0-.416-.558c-.409-.136-.657.132-.908.385q-2.483,2.513-4.968,5.024c-.975.981-1.354.974-2.356-.017-.625-.618-1.249-1.236-1.864-1.864-.343-.35-.742-.666-1.177-.266-.464.427-.11.824.228,1.162,1.093,1.094,2.2,2.177,3.275,3.287.546.563.984.488,1.506-.048,2.06-2.115,4.144-4.207,6.221-6.306a1.161,1.161,0,0,0,.459-.8" transform="translate(-167.15 -174.191)" fill="#12263f"/>
      </g>
    </g>
  </g>
</svg>
