<svg xmlns="http://www.w3.org/2000/svg" xmlns:xlink="http://www.w3.org/1999/xlink" width="400" height="482" viewBox="0 0 400 482">
  <defs>
    <clipPath id="clip-path">
      <rect id="Rectángulo_379018" data-name="Rectángulo 379018" width="266.623" height="309.031" fill="none"/>
    </clipPath>
    <clipPath id="clip-path-2">
      <rect id="Rectángulo_379010" data-name="Rectángulo 379010" width="5.8" height="58.25" fill="none"/>
    </clipPath>
    <clipPath id="clip-path-3">
      <rect id="Rectángulo_379011" data-name="Rectángulo 379011" width="17.642" height="68.969" fill="none"/>
    </clipPath>
    <clipPath id="clip-path-4">
      <rect id="Rectángulo_379012" data-name="Rectángulo 379012" width="82.294" height="17.147" fill="none"/>
    </clipPath>
    <clipPath id="clip-path-5">
      <rect id="Rectángulo_379013" data-name="Rectángulo 379013" width="44.631" height="108.954" fill="none"/>
    </clipPath>
    <clipPath id="clip-path-6">
      <rect id="Rectángulo_379014" data-name="Rectángulo 379014" width="82.293" height="14.682" fill="none"/>
    </clipPath>
    <clipPath id="clip-path-7">
      <rect id="Rectángulo_379015" data-name="Rectángulo 379015" width="44.631" height="93.293" fill="none"/>
    </clipPath>
  </defs>
  <g id="Grupo_1073612" data-name="Grupo 1073612" transform="translate(3087 10467)">
    <rect id="Rectángulo_379036" data-name="Rectángulo 379036" width="400" height="482" transform="translate(-3087 -10467)" fill="#fff"/>
    <circle id="Elipse_6023" data-name="Elipse 6023" cx="139.5" cy="139.5" r="139.5" transform="translate(-3023.831 -10394)" fill="#ffed33"/>
    <g id="Rectángulo_379033" data-name="Rectángulo 379033" transform="translate(-3087 -10440)" fill="none" stroke="#ffa346" stroke-width="5">
      <rect width="400" height="425" stroke="none"/>
      <rect x="2.5" y="2.5" width="395" height="420" fill="none"/>
    </g>
    <path id="Trazado_613803" data-name="Trazado 613803" d="M259.835,325.611,210,350.094s-3.963,29.675-.554,50.144h45.06c11.41-39.326,5.327-74.627,5.327-74.627" transform="translate(-3087.46 -10465.127)" fill="#263238"/>
    <path id="Trazado_613804" data-name="Trazado 613804" d="M194.345,347.988l-52.4-42.552s-21.056,32.04-14.434,63.911c.993,4.779,4.144,18.342,6.214,25.239H195.6c-1.572-22.53-1.258-46.6-1.258-46.6" transform="translate(-3064.531 -10459.476)" fill="#263238"/>
    <path id="Trazado_613805" data-name="Trazado 613805" d="M241.665,312.934c.191-.071-42.327,31.08-42.327,31.08L142.33,305.308l10.519-20.133s29.178,12.44,44.3,9.321,31.7-16.622,31.7-16.622c3.724,8.1,10.482,26.09,12.808,35.061" transform="translate(-3069.044 -10451.753)" fill="#263238"/>
    <path id="Trazado_613806" data-name="Trazado 613806" d="M235.415,337.364l-.772,1.07-2.957,4.192c-2.582,3.7-6.332,9.081-11.074,15.879l-.04.06.006.07c.539,5.945.744,12.849,1.113,20.536s.1,15.19.533,24.277l.6-.03c-.465-9.085-.226-16.587-.62-24.272-.4-7.65-.644-14.539-1.22-20.474l10.88-15.924,2.871-4.251.727-1.1a2.635,2.635,0,0,0,.23-.384,2.754,2.754,0,0,0-.276.352" transform="translate(-3090.964 -10468.321)" fill="#455a64"/>
    <rect id="Rectángulo_379020" data-name="Rectángulo 379020" width="266.623" height="309.031" transform="translate(-3029.169 -10373.905)" fill="none"/>
    <rect id="Rectángulo_379019" data-name="Rectángulo 379019" width="227" height="46" rx="23" transform="translate(-2994 -10110)" fill="#ffed33"/>
    <path id="Trazado_615928" data-name="Trazado 615928" d="M11.32-4.333a4.673,4.673,0,0,1-.721,2.36A4.35,4.35,0,0,1,8.75-.387a6.3,6.3,0,0,1-2.72.563A5.025,5.025,0,0,1,2.057-1.468,6.786,6.786,0,0,1,.606-6.108v-.633a7.746,7.746,0,0,1,.655-3.292,4.961,4.961,0,0,1,1.885-2.18,5.26,5.26,0,0,1,2.848-.769,5.516,5.516,0,0,1,3.744,1.226,4.844,4.844,0,0,1,1.608,3.379H8.271a2.292,2.292,0,0,0-.589-1.679,2.422,2.422,0,0,0-1.687-.51A1.843,1.843,0,0,0,4.307-9.7a5.536,5.536,0,0,0-.562,2.751v.905A6.125,6.125,0,0,0,4.258-3.12a1.882,1.882,0,0,0,1.771.879,2.369,2.369,0,0,0,1.626-.5,2.126,2.126,0,0,0,.6-1.591ZM15.768,0H12.8V-13.5h2.971Zm4.948,0H17.745V-9.51h2.971ZM17.569-11.962A1.322,1.322,0,0,1,18.026-13a1.724,1.724,0,0,1,1.187-.4A1.724,1.724,0,0,1,20.4-13a1.322,1.322,0,0,1,.457,1.037,1.322,1.322,0,0,1-.457,1.037,1.724,1.724,0,0,1-1.187.4,1.724,1.724,0,0,1-1.187-.4A1.322,1.322,0,0,1,17.569-11.962ZM27.141.176A4.889,4.889,0,0,1,23.6-1.129a4.507,4.507,0,0,1-1.354-3.4v-.246a5.84,5.84,0,0,1,.541-2.575,3.955,3.955,0,0,1,1.578-1.727,4.763,4.763,0,0,1,2.461-.611,4.117,4.117,0,0,1,3.164,1.244,4.887,4.887,0,0,1,1.16,3.467v1.151H25.26a2.135,2.135,0,0,0,.694,1.257,2.066,2.066,0,0,0,1.389.457,2.662,2.662,0,0,0,2.2-.984l1.354,1.6A3.784,3.784,0,0,1,29.325-.277,5.3,5.3,0,0,1,27.141.176ZM26.807-7.4q-1.3,0-1.547,1.723h2.988v-.229a1.467,1.467,0,0,0-.36-1.1A1.434,1.434,0,0,0,26.807-7.4ZM35.06-9.51l.1,1.116a3.225,3.225,0,0,1,2.716-1.292,2.713,2.713,0,0,1,2.219.888,4.226,4.226,0,0,1,.76,2.672V0H37.881V-6a1.6,1.6,0,0,0-.29-1.059A1.342,1.342,0,0,0,36.536-7.4a1.413,1.413,0,0,0-1.292.686V0H32.282V-9.51ZM45.94-11.874V-9.51H47.5v2.057H45.94V-3.1a1.111,1.111,0,0,0,.193.747,1.037,1.037,0,0,0,.765.211,4.345,4.345,0,0,0,.738-.053V-.079a5.466,5.466,0,0,1-1.67.255,3.1,3.1,0,0,1-2.259-.721,2.954,2.954,0,0,1-.729-2.188v-4.72H41.766V-9.51h1.213v-2.364ZM53.271.176a4.889,4.889,0,0,1-3.542-1.305,4.507,4.507,0,0,1-1.354-3.4v-.246a5.84,5.84,0,0,1,.541-2.575,3.955,3.955,0,0,1,1.578-1.727,4.763,4.763,0,0,1,2.461-.611,4.117,4.117,0,0,1,3.164,1.244,4.887,4.887,0,0,1,1.16,3.467v1.151H51.39a2.135,2.135,0,0,0,.694,1.257,2.066,2.066,0,0,0,1.389.457,2.662,2.662,0,0,0,2.2-.984l1.354,1.6A3.784,3.784,0,0,1,55.455-.277,5.3,5.3,0,0,1,53.271.176ZM52.937-7.4q-1.3,0-1.547,1.723h2.988v-.229a1.467,1.467,0,0,0-.36-1.1A1.434,1.434,0,0,0,52.937-7.4Z" transform="translate(-2909 -10081)" fill="#12263f"/>
    <g id="Grupo_1073168" data-name="Grupo 1073168" transform="translate(-3029.169 -10373.905)" clip-path="url(#clip-path)">
      <g id="Grupo_1073165" data-name="Grupo 1073165" transform="translate(0 0)">
        <g id="Grupo_1073170" data-name="Grupo 1073170">
          <path id="Trazado_613740" data-name="Trazado 613740" d="M295.234,373.643S292,380.949,293.12,387.5s-.143,14.294,2.722,15.659,4.105-.218,4.272-3.29.526-7.783.617-11.408a32.873,32.873,0,0,1,.3-4.6l1.22-9.835Z" transform="translate(-82.054 -104.679)" fill="#ffc09d"/>
          <path id="Trazado_613741" data-name="Trazado 613741" d="M308.791,367.7s4.489,17.914,4.474,20.134a16.6,16.6,0,0,1-1.443,5.333s-1.363,7.848-2.1,8.8-8.047,2.2-8.047,2.2l-4.684-2.673,1.9-4.078,4.043.659.932-3.36-2.625-3.882L299,372.119Z" transform="translate(-83.204 -103.013)" fill="#ffc09d"/>
          <path id="Trazado_613742" data-name="Trazado 613742" d="M303.837,386.9a4.807,4.807,0,0,1-.248.923c-.173.588-.435,1.435-.71,2.495a48.558,48.558,0,0,0-1.437,8.411c-.071.831-.106,1.645-.135,2.431a19.786,19.786,0,0,1-.142,2.291,4.507,4.507,0,0,1-1.908,3.354,2.529,2.529,0,0,1-2.584.038,1.739,1.739,0,0,1-.531-.492c-.091-.138-.122-.22-.112-.225a2.908,2.908,0,0,0,.716.59,2.4,2.4,0,0,0,2.372-.136,4.291,4.291,0,0,0,1.706-3.177,20.5,20.5,0,0,0,.117-2.253c.024-.793.056-1.613.128-2.452a42,42,0,0,1,1.555-8.452c.31-1.057.612-1.9.827-2.471a4.6,4.6,0,0,1,.387-.875" transform="translate(-82.934 -108.394)" fill="#ff9b6c"/>
          <path id="Trazado_613743" data-name="Trazado 613743" d="M294.887,366.279l-3.24-11.067s11.853-8.379,12.5-7.828,3.624,16.541,3.624,16.541l-6.078,6.529Z" transform="translate(-81.707 -97.315)" fill="#ffc09d"/>
          <path id="Trazado_613744" data-name="Trazado 613744" d="M253.358,140.8c-4.023-6.049-25.129-11.954-25.129-11.954l5.671,4.729,12.255,66.033,27.067,97.334,21.086-3.946s-27.281-131.639-40.95-152.2" transform="translate(-63.94 -36.096)" fill="#ac0606"/>
          <path id="Trazado_613749" data-name="Trazado 613749" d="M224.475,26.994a22.551,22.551,0,0,1,8.377,19.112c-.272,3.508-1.24,7.512,1.042,10.189,2.259,2.65,6.695,2.574,8.86,5.3,2.549,3.212.415,7.991,1.327,11.988a8.117,8.117,0,0,0,8.632,6.031,31.672,31.672,0,0,1-15.7,6.814l-4.394-5.641c1.666,1.975,1.223,5.123-.391,7.141s-4.1,3.117-6.565,3.9A40.19,40.19,0,0,1,190.434,86.1" transform="translate(-53.351 -7.563)" fill="#263238"/>
          <path id="Trazado_613750" data-name="Trazado 613750" d="M145.909,50.424c.879-2.689,2.353-5.181,2.945-7.948,1.271-5.946-1.626-12.64,1.258-17.992,2.053-3.809,6.428-5.675,10.564-6.949s8.576-2.354,11.66-5.389c2.262-2.226,3.55-5.293,5.8-7.527C181.353,1.434,186.1.355,190.612.078c4.636-.284,9.43.161,13.6,2.207s7.633,5.889,8.376,10.474c.362,2.237.088,4.579.793,6.732.775,2.367,2.634,4.208,3.78,6.419a11.912,11.912,0,0,1-2.979,14.28L182.351,81.3c-6.687,2.526-22.889-.529-28.057-5.467s-10.6-18.618-8.385-25.413" transform="translate(-40.734 0)" fill="#263238"/>
          <path id="Trazado_613751" data-name="Trazado 613751" d="M221.187,41.243c-1.312-9.335-8.411-20.366-17.682-18.659L174.888,32.2c-2.817.518-.8,5.111-.525,7.961l6.222,64.539c-.047.014-3.866,2.76-5.246,2.231a.388.388,0,0,0-.462.581c3.437,4.99,19.661,26.807,36.382,20.146,3.735-1.488-.391-13.257.047-17.618l-.5-11.139c-.37-5.687-.549-8.017-.542-7.964,0,0,11.831-2.91,13.112-18.737.638-7.871-.733-20.59-2.19-30.961" transform="translate(-48.581 -6.278)" fill="#ffc09d"/>
          <path id="Trazado_613752" data-name="Trazado 613752" d="M231.559,67.457a2.011,2.011,0,0,1-1.778,2.172,1.924,1.924,0,0,1-2.206-1.648,2.012,2.012,0,0,1,1.776-2.173,1.925,1.925,0,0,1,2.208,1.65" transform="translate(-63.753 -18.431)" fill="#263238"/>
          <path id="Trazado_613753" data-name="Trazado 613753" d="M204.3,68.887a2.011,2.011,0,0,1-1.778,2.172,1.923,1.923,0,0,1-2.206-1.649,2.013,2.013,0,0,1,1.776-2.172,1.925,1.925,0,0,1,2.208,1.65" transform="translate(-56.117 -18.832)" fill="#263238"/>
          <path id="Trazado_613754" data-name="Trazado 613754" d="M234.664,58.53c-.217.367-2.085-.813-4.42-.472-2.338.3-3.834,1.941-4.141,1.646-.148-.13.034-.762.682-1.5a5.327,5.327,0,0,1,6.832-.937c.819.538,1.155,1.1,1.046,1.265" transform="translate(-63.331 -15.81)" fill="#263238"/>
          <path id="Trazado_613755" data-name="Trazado 613755" d="M205.278,60.8c-.276.338-2.112-.994-4.624-.887-2.512.068-4.294,1.527-4.581,1.209-.14-.141.124-.741.9-1.4a6.09,6.09,0,0,1,3.648-1.372,5.932,5.932,0,0,1,3.7,1.114c.8.6,1.091,1.184.956,1.336" transform="translate(-54.921 -16.346)" fill="#263238"/>
          <path id="Trazado_613756" data-name="Trazado 613756" d="M218.885,75.333a14.29,14.29,0,0,1,3.456-.9c.547-.1,1.06-.249,1.124-.632a2.809,2.809,0,0,0-.493-1.6q-.931-1.94-1.952-4.071c-2.722-5.8-4.737-10.586-4.5-10.693s2.631,4.506,5.353,10.306q.986,2.147,1.885,4.1a3.2,3.2,0,0,1,.451,2.141,1.385,1.385,0,0,1-.844.875,3.738,3.738,0,0,1-.926.2,14.1,14.1,0,0,1-3.552.278" transform="translate(-60.653 -16.089)" fill="#263238"/>
          <path id="Trazado_613757" data-name="Trazado 613757" d="M216.294,116.066a39.9,39.9,0,0,1-21.369-3.976s6.106,10.569,21.644,7.9Z" transform="translate(-54.609 -31.403)" fill="#ff9b6c"/>
          <path id="Trazado_613758" data-name="Trazado 613758" d="M210.46,90.434a3.408,3.408,0,0,1,1.107-1.317,2.722,2.722,0,0,1,1.868-.188,4.366,4.366,0,0,1,2.445,1.244,2.622,2.622,0,0,1,.616,2.583c-.241.9-1.588,1.4-2.508,1.558a4.129,4.129,0,0,1-2.689-.565,2.377,2.377,0,0,1-1.376-1.782,2.9,2.9,0,0,1,.538-1.534" transform="translate(-58.811 -24.893)" fill="#ff9b6c"/>
          <path id="Trazado_613759" data-name="Trazado 613759" d="M211.178,86.829c.349-.048.534,2.294,2.666,3.8s4.606,1.059,4.649,1.385c.045.145-.521.5-1.572.608a5.854,5.854,0,0,1-3.871-1.024,5.092,5.092,0,0,1-2.086-3.2c-.165-.972.052-1.573.213-1.571" transform="translate(-59.087 -24.326)" fill="#263238"/>
          <path id="Trazado_613760" data-name="Trazado 613760" d="M204.806,49.505c-.168.6-2.344.49-4.852.991-2.519.449-4.5,1.347-4.88.847-.169-.24.145-.819.927-1.451a8.61,8.61,0,0,1,7.413-1.4c.958.3,1.461.728,1.391,1.014" transform="translate(-54.639 -13.498)" fill="#263238"/>
          <path id="Trazado_613761" data-name="Trazado 613761" d="M232.886,47.628c-.4.523-2.134.145-4.179.279-2.048.071-3.747.619-4.185.137-.194-.235.042-.747.762-1.27a6.414,6.414,0,0,1,3.333-1.064,6.345,6.345,0,0,1,3.406.729c.76.448,1.037.934.863,1.188" transform="translate(-62.883 -12.804)" fill="#263238"/>
          <path id="Trazado_613762" data-name="Trazado 613762" d="M166.148,34.173c1.443-2.222,4.038-3.366,6.51-4.32A144.078,144.078,0,0,1,205.8,21.412c1.412,2.326.107,5.492-2.023,7.185s-4.865,2.362-7.414,3.315-5.161,2.422-6.211,4.932c-1.116,2.67-.173,5.831-1.155,8.553-1.687,4.684-8.223,6.194-9.885,10.888-1.256,3.55.8,7.329,1.314,11.059a13.454,13.454,0,0,1-13.213,15.317q-1.164-20.16-2.327-40.321c-.162-2.8-.269-5.814,1.258-8.166" transform="translate(-46.17 -5.999)" fill="#263238"/>
          <path id="Trazado_613763" data-name="Trazado 613763" d="M127.9,72.167c2.123-1.9,4.783-3.548,5.63-6.27,1.232-3.964-1.951-8.624.1-12.234,1.87-3.293,7.38-3.126,9.118-6.491,1.358-2.627-.2-4.952.315-7.26s3.791-4.331,6.139-4.055l18.355,26.6c1.7,8.924,3.419,13.674,1.5,18.894-1.051,2.864-2.422,5.654-2.833,8.677s.361,6.447,2.832,8.234c-10.974.86-21.258-4.883-30.763-10.437l-10.059-5.878a7.347,7.347,0,0,1-2.763-2.3c-1.474-2.44.306-5.58,2.429-7.481" transform="translate(-35 -10.039)" fill="#263238"/>
          <path id="Trazado_613764" data-name="Trazado 613764" d="M143.115,77.383a5.239,5.239,0,0,0,1.172.225,10.007,10.007,0,0,0,3.419-.243,10.582,10.582,0,0,0,4.768-2.566,10.414,10.414,0,0,0,3.14-6.415,10.74,10.74,0,0,0-.36-4.209,17.158,17.158,0,0,0-2.039-4.079,16.179,16.179,0,0,1-2.1-4.232,5.457,5.457,0,0,1,.588-4.654c1-1.337,2.853-1.664,4.574-2.358a5.023,5.023,0,0,0,2.339-1.733,4.91,4.91,0,0,0,.755-2.878c-.024-2.01-.88-3.846-1.248-5.716a6.229,6.229,0,0,1-.017-2.8,3.91,3.91,0,0,1,1.584-2.226c1.584-1.132,3.606-1.312,5.551-1.484a11.892,11.892,0,0,0,5.657-1.664,10.659,10.659,0,0,0,3.871-4.2,17.519,17.519,0,0,0,1.429-5.26,24.634,24.634,0,0,1,1.076-4.933,10.974,10.974,0,0,1,2.581-3.891,12.324,12.324,0,0,1,14.39-2.022,15.034,15.034,0,0,1,4.226,3.22,19.875,19.875,0,0,1,2.614,3.745,1.116,1.116,0,0,0-.105-.285c-.086-.181-.189-.464-.38-.806a14.355,14.355,0,0,0-1.943-2.82,14.943,14.943,0,0,0-4.248-3.371,12.877,12.877,0,0,0-7-1.549,13.087,13.087,0,0,0-7.925,3.506,11.478,11.478,0,0,0-2.739,4.073,24.916,24.916,0,0,0-1.132,5.042,17.084,17.084,0,0,1-1.391,5.075,10.051,10.051,0,0,1-3.657,3.94,11.289,11.289,0,0,1-5.387,1.564c-1.925.173-4.089.336-5.862,1.6a4.558,4.558,0,0,0-1.83,2.582,6.864,6.864,0,0,0,.01,3.09c.4,1.98,1.229,3.758,1.247,5.606a4.309,4.309,0,0,1-.641,2.517,4.415,4.415,0,0,1-2.064,1.517c-.82.346-1.7.583-2.55.944a5.221,5.221,0,0,0-2.256,1.623,6,6,0,0,0-.662,5.153,16.546,16.546,0,0,0,2.2,4.368,16.833,16.833,0,0,1,2.017,3.942,10.345,10.345,0,0,1,.382,4.017,10.088,10.088,0,0,1-2.937,6.206,10.488,10.488,0,0,1-4.583,2.583,11.858,11.858,0,0,1-4.529.258" transform="translate(-40.095 -2.283)" fill="#455a64"/>
          <path id="Trazado_613765" data-name="Trazado 613765" d="M122.608,58.471a2.307,2.307,0,0,0-.362.9,3.938,3.938,0,0,0,.471,2.722,4.17,4.17,0,0,0,1.4,1.476,4.357,4.357,0,0,0,2.344.625,5.48,5.48,0,0,0,4.807-3.052,7.35,7.35,0,0,0,.782-3.346,10.237,10.237,0,0,0-.772-3.627c-.871-2.375-2.452-4.688-2.486-7.464a5.069,5.069,0,0,1,1.274-3.773,5.547,5.547,0,0,1,3.989-1.246,13.447,13.447,0,0,0,4.752-.492,4.131,4.131,0,0,0,1.954-1.646,5.892,5.892,0,0,0,.8-2.421,19.425,19.425,0,0,0-.4-4.88,10.727,10.727,0,0,1,.253-4.522,11.418,11.418,0,0,1,5.108-6.7c2.379-1.435,5.131-1.589,7.61-1.738a22.469,22.469,0,0,0,6.947-1.1,14.479,14.479,0,0,0,4.917-3.094,14.327,14.327,0,0,0,2.694-3.458,10.418,10.418,0,0,0,1.307-3.483,20.184,20.184,0,0,1-1.522,3.358,14.605,14.605,0,0,1-2.722,3.322,14.3,14.3,0,0,1-4.829,2.93,22.343,22.343,0,0,1-6.82.991c-2.478.129-5.334.251-7.88,1.759a11.978,11.978,0,0,0-5.413,7.042,11.352,11.352,0,0,0-.281,4.775,19.113,19.113,0,0,1,.393,4.719,4.093,4.093,0,0,1-2.365,3.555,13.14,13.14,0,0,1-4.522.454,6.124,6.124,0,0,0-4.406,1.439,5.65,5.65,0,0,0-1.432,4.22,10.778,10.778,0,0,0,1,4.089c.532,1.244,1.125,2.4,1.576,3.553a9.776,9.776,0,0,1,.773,3.439,6.905,6.905,0,0,1-.692,3.136,5.1,5.1,0,0,1-4.41,2.9,4.071,4.071,0,0,1-2.18-.528,3.957,3.957,0,0,1-1.347-1.341,3.914,3.914,0,0,1-.559-2.573c.1-.611.268-.9.235-.919" transform="translate(-34.227 -2.284)" fill="#263238"/>
          <path id="Trazado_613766" data-name="Trazado 613766" d="M270.734,70.067a4.342,4.342,0,0,1-.036,2.869,3.782,3.782,0,0,1-2.281,2.314,3.964,3.964,0,0,1-4.028-1.1,3.64,3.64,0,0,1-.944-2.3,7.586,7.586,0,0,1,.42-2.778c.583-1.858,1.772-3.88,1.589-6.3a8.858,8.858,0,0,0-3.338-6.343,10.4,10.4,0,0,0-3.421-1.8,15.256,15.256,0,0,0-3.909-.561,20.533,20.533,0,0,1-3.794-.4,5.043,5.043,0,0,1-2.954-1.836,6.2,6.2,0,0,1-1.068-3.246,12.386,12.386,0,0,1,.284-3.385c.45-2.193,1.106-4.325.985-6.421a9.729,9.729,0,0,0-1.961-5.332,12.54,12.54,0,0,0-3.576-3.021,23.706,23.706,0,0,1-2.86-1.976,7.337,7.337,0,0,1-1.8-2.311c-.01,0,.006.069.047.193a3.167,3.167,0,0,0,.22.538,5.861,5.861,0,0,0,1.366,1.765,21.747,21.747,0,0,0,2.831,2.09,12.443,12.443,0,0,1,3.409,2.992A9.332,9.332,0,0,1,247.71,38.8c.1,1.975-.554,4.043-1.032,6.278a12.879,12.879,0,0,0-.317,3.545,6.793,6.793,0,0,0,1.172,3.576,5.67,5.67,0,0,0,3.306,2.083,20.8,20.8,0,0,0,3.915.418,14.721,14.721,0,0,1,3.754.531,9.8,9.8,0,0,1,3.216,1.682,8.285,8.285,0,0,1,3.141,5.891c.194,2.215-.906,4.154-1.507,6.106a8.013,8.013,0,0,0-.406,2.974,4.108,4.108,0,0,0,1.106,2.571,4.339,4.339,0,0,0,4.474,1.128,4.185,4.185,0,0,0,2.505-4.8,2.3,2.3,0,0,0-.3-.718" transform="translate(-66.689 -7.323)" fill="#263238"/>
          <path id="Trazado_613767" data-name="Trazado 613767" d="M217.107,131.058s14.858,25.452,20.187,37.388c2.966,6.645,3.7,19.2-1.211,38.435-3.681,14.425,4.087,33.96,5.269,36.765,2.664,6.327-14.363,15.2-16.739,16.769C203.56,274.3,156.36,248.8,156.36,248.8l12.982-28.987-10.928-24.488-4.047-63.759,20.168-7.018c10.706,5.271,26.524,5.4,30.9,2.339Z" transform="translate(-43.247 -34.894)" fill="#ac0606"/>
          <path id="Trazado_613768" data-name="Trazado 613768" d="M238.941,275.829s.109-.037.323-.089l.954-.224,1.55-.358,2.067-.662c.783-.233,1.6-.637,2.526-1,.917-.379,1.861-.909,2.9-1.424a45.631,45.631,0,0,0,6.483-4.452,47.227,47.227,0,0,0,6.689-6.781c.278-.326.528-.679.791-1.026s.52-.7.764-1.07.491-.738.717-1.123a5.384,5.384,0,0,0,.318-.586l.149-.3.081-.294a10.552,10.552,0,0,0-.179-2.72c-.152-.925-.339-1.859-.551-2.8-.851-3.767-1.951-7.676-3.077-11.732-.564-2.028-1.145-4.09-1.7-6.194-.276-1.052-.549-2.114-.788-3.2-.121-.541-.229-1.086-.3-1.65a16.022,16.022,0,0,1-.061-1.689c.076-4.466.548-8.785,1-12.956V213.5l0-.013c1.808-7.136,3.393-13.91,3.663-20.123a26.642,26.642,0,0,0-.173-4.5,31.441,31.441,0,0,0-1-4.112,59.144,59.144,0,0,0-2.663-7.085,78.8,78.8,0,0,0-5.086-9.566c-.668-1.08-1.212-1.9-1.582-2.45l-.423-.625a1.654,1.654,0,0,1-.137-.217,2.271,2.271,0,0,1,.165.2c.1.134.256.337.449.608.389.539.95,1.347,1.636,2.418a74.51,74.51,0,0,1,5.2,9.537,58.551,58.551,0,0,1,2.716,7.1,31.591,31.591,0,0,1,1.028,4.152,26.774,26.774,0,0,1,.193,4.557c-.25,6.265-1.826,13.057-3.627,20.2l0-.024c-.448,4.159-.916,8.487-.992,12.915a15.707,15.707,0,0,0,.06,1.645c.068.537.173,1.078.293,1.612.235,1.072.508,2.131.782,3.181.554,2.1,1.132,4.162,1.695,6.191,1.122,4.058,2.215,7.972,3.06,11.756.212.946.4,1.886.548,2.822a10.712,10.712,0,0,1,.171,2.828c-.032.122-.064.248-.1.367l-.157.313a5.44,5.44,0,0,1-.332.606c-.232.394-.473.776-.733,1.14s-.506.733-.776,1.079-.521.7-.8,1.032a47.154,47.154,0,0,1-6.763,6.791,45.243,45.243,0,0,1-6.551,4.431c-1.048.509-2,1.032-2.928,1.4-.934.353-1.759.749-2.55.972l-2.085.632c-.615.141-1.141.237-1.563.325l-.963.188c-.217.04-.33.051-.33.051" transform="translate(-66.941 -46.171)" fill="#263238"/>
          <g id="Grupo_1073148" data-name="Grupo 1073148" transform="translate(191.727 143.94)" opacity="0.3">
            <g id="Grupo_1073147" data-name="Grupo 1073147">
              <g id="Grupo_1073146" data-name="Grupo 1073146" clip-path="url(#clip-path-2)">
                <path id="Trazado_613769" data-name="Trazado 613769" d="M272.145,258.212a87.6,87.6,0,0,1-1.979-32.135c1.084-8.706,2.843-17.544.97-26.115.066,7.9-1.577,14.045-3.681,23.417-1.98,8.822-.736,13.119-.6,16.429" transform="translate(-266.345 -199.961)"/>
              </g>
            </g>
          </g>
          <g id="Grupo_1073151" data-name="Grupo 1073151" transform="translate(113.114 145.215)" opacity="0.3">
            <g id="Grupo_1073150" data-name="Grupo 1073150">
              <g id="Grupo_1073149" data-name="Grupo 1073149" clip-path="url(#clip-path-3)">
                <path id="Trazado_613770" data-name="Trazado 613770" d="M157.137,270.425s3.876,1.773,7.439-3.667,7.878-23.667,8.48-25.616c.383-1.239,1.723-39.41,1.723-39.41l-6.213,36.228,1.552,3.478c-1.831,4.95-3.331,7.2-5.15,11.983-2.646,6.949-5.564,15.752-7.831,17" transform="translate(-157.137 -201.732)"/>
              </g>
            </g>
          </g>
          <path id="Trazado_613771" data-name="Trazado 613771" d="M162.394,182.4s-6.384,62.548-16.369,68.936a14.664,14.664,0,0,1-8.664,1.964,21.084,21.084,0,0,1-19.884-21.14c-.039-13.266,2.2-31.289,3.061-38.7,1.717-14.847,7.734-55.2,23.494-59.354s18.363,18.454,18.363,18.454Z" transform="translate(-32.912 -37.427)" fill="#ac0606"/>
          <path id="Trazado_613772" data-name="Trazado 613772" d="M122.958,128.871s-2.89,3.828-2.872,7.927c.005,1.169,2.163,9.661,2.163,9.661l8.921,6.854,16.659,5.376-1.332,9.305,14.332,2.436s.284-11.024,0-17.974-8.652-13.939-8.652-13.939-6.95-8.369-9.929-7.943-2.837,3.688-1.419,5.531,5.39,6.241,5.39,6.241l-16.453-1.418-4.964-4.256s1.641-4.305,1.134-5.815a2.664,2.664,0,0,0-2.979-1.986" transform="translate(-33.643 -36.096)" fill="#ffc09d"/>
          <path id="Trazado_613773" data-name="Trazado 613773" d="M126.429,145.167a8.755,8.755,0,0,1,1.556.937c.934.618,2.208,1.493,3.6,2.478l.279.2-.213,0a5.559,5.559,0,0,1,4.08-.835,4.65,4.65,0,0,1,1.2.39c.266.135.4.232.387.253a16.462,16.462,0,0,0-1.63-.387,5.644,5.644,0,0,0-3.83.889l-.107.073-.107-.074-.279-.2c-1.4-.985-2.645-1.894-3.539-2.567a8.673,8.673,0,0,1-1.4-1.153" transform="translate(-35.419 -40.669)" fill="#ff9b6c"/>
          <path id="Trazado_613774" data-name="Trazado 613774" d="M118.255,154.7c.091.05-4.025,7.67-9.192,17.018s-9.43,16.888-9.521,16.837,4.025-7.668,9.192-17.018,9.429-16.887,9.52-16.836" transform="translate(-27.887 -43.341)" fill="#263238"/>
          <path id="Trazado_613775" data-name="Trazado 613775" d="M135.9,145.728c.1.006-.207,7.167-.692,15.992s-.962,15.979-1.065,15.973.206-7.165.692-15.993.963-15.978,1.066-15.972" transform="translate(-37.575 -40.827)" fill="#263238"/>
          <path id="Trazado_613776" data-name="Trazado 613776" d="M137.533,145.976c.1-.008.79,7.827,1.534,17.5s1.263,17.52,1.16,17.528-.79-7.825-1.534-17.5-1.263-17.518-1.16-17.526" transform="translate(-38.527 -40.896)" fill="#263238"/>
          <path id="Trazado_613777" data-name="Trazado 613777" d="M22.755,291.557,67.04,189.542,119.117,176.7,75.652,285.658Z" transform="translate(-6.375 -49.505)" fill="#455a64"/>
          <path id="Trazado_613778" data-name="Trazado 613778" d="M45.749,345.209,22.755,333.961l52.9-5.9,29.4,13.891Z" transform="translate(-6.375 -91.909)" fill="#455a64"/>
          <g id="Grupo_1073154" data-name="Grupo 1073154" transform="translate(16.38 236.153)" opacity="0.3">
            <g id="Grupo_1073153" data-name="Grupo 1073153">
              <g id="Grupo_1073152" data-name="Grupo 1073152" clip-path="url(#clip-path-4)">
                <path id="Trazado_613779" data-name="Trazado 613779" d="M45.749,345.209,22.755,333.961l52.9-5.9,29.4,13.891Z" transform="translate(-22.755 -328.062)"/>
              </g>
            </g>
          </g>
          <path id="Trazado_613780" data-name="Trazado 613780" d="M139.7,176.7l1.165,4.755,8.072-.244L125.635,299.549l-29.4-13.891Z" transform="translate(-26.962 -49.505)" fill="#455a64"/>
          <path id="Trazado_613781" data-name="Trazado 613781" d="M139.578,176.7s-.042.139-.14.4-.253.663-.446,1.167l-1.746,4.472c-1.537,3.891-3.753,9.5-6.487,16.422L109.223,253.3c-4.64,11.614-9.038,22.623-12.954,32.423l-.234-.214,19.5-9.765.13-.065.055.135,7.2,17.353,1.939,4.727.5,1.232c.109.279.157.425.157.425s-.072-.136-.194-.41-.3-.693-.531-1.219l-2.006-4.7c-1.732-4.1-4.228-10.009-7.31-17.306l.186.069L96.189,285.81l-.4.2.166-.416,12.921-32.436,21.637-54.089c2.781-6.905,5.035-12.5,6.6-16.379l1.812-4.446.479-1.153c.11-.259.176-.388.176-.388" transform="translate(-26.836 -49.505)" fill="#263238"/>
          <path id="Trazado_613782" data-name="Trazado 613782" d="M148.451,183.309c.1.027-5.449,21.183-12.393,47.248S123.4,277.74,123.3,277.714s5.448-21.178,12.394-47.253,12.655-47.179,12.755-47.152" transform="translate(-34.543 -51.355)" fill="#263238"/>
          <g id="Grupo_1073157" data-name="Grupo 1073157" transform="translate(69.277 127.199)" opacity="0.3">
            <g id="Grupo_1073156" data-name="Grupo 1073156">
              <g id="Grupo_1073155" data-name="Grupo 1073155" clip-path="url(#clip-path-5)">
                <path id="Trazado_613783" data-name="Trazado 613783" d="M139.7,176.7l1.165,4.755-25.148,94.4-19.482,9.795Z" transform="translate(-96.238 -176.704)"/>
              </g>
            </g>
          </g>
          <path id="Trazado_613784" data-name="Trazado 613784" d="M108.386,143.259c.076.07-6.936,7.8-15.66,17.27s-15.86,17.088-15.937,17.018,6.934-7.8,15.661-17.272,15.86-17.087,15.936-17.016" transform="translate(-21.513 -40.135)" fill="#263238"/>
          <path id="Trazado_613785" data-name="Trazado 613785" d="M0,264.207l44.286-87.351,52.076-10.993L52.9,259.156Z" transform="translate(0 -46.468)" fill="#ffa346"/>
          <path id="Trazado_613786" data-name="Trazado 613786" d="M22.994,310.147,0,300.516l52.9-5.05,29.4,11.894Z" transform="translate(0 -82.777)" fill="#ffa346"/>
          <g id="Grupo_1073160" data-name="Grupo 1073160" transform="translate(0 212.688)" opacity="0.3">
            <g id="Grupo_1073159" data-name="Grupo 1073159">
              <g id="Grupo_1073158" data-name="Grupo 1073158" clip-path="url(#clip-path-6)">
                <path id="Trazado_613787" data-name="Trazado 613787" d="M22.994,310.147,0,300.516l52.9-5.05,29.4,11.894Z" transform="translate(0 -295.465)"/>
              </g>
            </g>
          </g>
          <path id="Trazado_613788" data-name="Trazado 613788" d="M116.949,165.863l1.165,4.071,8.072-.209L102.88,271.05l-29.4-11.894Z" transform="translate(-20.587 -46.468)" fill="#ffa346"/>
          <path id="Trazado_613789" data-name="Trazado 613789" d="M116.814,165.863s-.042.122-.143.351l-.453,1.016-1.773,3.889-6.585,14.275c-5.6,12.05-13.322,28.674-21.854,47.035l-12.5,26.8-.223-.23,19.5-8.354.119-.05.056.115,7.2,14.866c.837,1.748,1.49,3.11,1.94,4.051l.5,1.057c.11.239.158.366.158.366s-.071-.115-.193-.349l-.53-1.041-2-4.019-7.309-14.813.175.065-19.467,8.421-.414.179.19-.409c3.8-8.173,8.029-17.257,12.474-26.812l21.953-46.989,6.693-14.225,1.837-3.859c.209-.429.37-.762.487-1s.177-.335.177-.335" transform="translate(-20.452 -46.468)" fill="#263238"/>
          <path id="Trazado_613790" data-name="Trazado 613790" d="M125.7,171.519c.1.031-5.451,18.152-12.395,40.471s-12.656,40.394-12.754,40.364,5.45-18.149,12.4-40.475,12.654-40.39,12.753-40.359" transform="translate(-28.168 -48.052)" fill="#263238"/>
          <g id="Grupo_1073163" data-name="Grupo 1073163" transform="translate(52.897 119.395)" opacity="0.3">
            <g id="Grupo_1073162" data-name="Grupo 1073162">
              <g id="Grupo_1073161" data-name="Grupo 1073161" clip-path="url(#clip-path-7)">
                <path id="Trazado_613791" data-name="Trazado 613791" d="M116.949,165.863l1.165,4.071L92.965,250.769l-19.482,8.387Z" transform="translate(-73.484 -165.863)"/>
              </g>
            </g>
          </g>
          <path id="Trazado_613792" data-name="Trazado 613792" d="M91.118,172.274a3.061,3.061,0,0,1,.543-.153l1.576-.369,5.811-1.287,19.2-4.11,3.6-.759.169-.035.047.166,1.159,4.073-.177-.13,8.072-.183.2,0-.046.191c-.821,3.448-1.5,6.3-1.985,8.339-.24.968-.432,1.741-.574,2.308-.065.242-.117.44-.161.6a.792.792,0,0,1-.071.2.742.742,0,0,1,.024-.213c.032-.165.071-.366.118-.613.121-.572.286-1.35.493-2.326.453-2.044,1.089-4.909,1.857-8.369l.153.187-8.071.236-.138,0-.04-.134-1.17-4.07.217.131-3.6.761-19.225,4-5.836,1.171-1.59.3a3.252,3.252,0,0,1-.56.08" transform="translate(-25.527 -46.383)" fill="#263238"/>
          <path id="Trazado_613793" data-name="Trazado 613793" d="M132.532,152.207a12.055,12.055,0,0,0-1.842-2.137,8.144,8.144,0,0,0-2.621-1.507c-.536-.2-1.127-.274-1.767-.475a2.229,2.229,0,0,1-.9-.528,1.884,1.884,0,0,1-.478-.979c-.125-.714-.05-1.358-.147-1.972a8.186,8.186,0,0,0-.416-1.738,6.115,6.115,0,0,0-.71-1.44,2.006,2.006,0,0,0-1.076-.779,1.631,1.631,0,0,0-1.086-.031,1.075,1.075,0,0,0-.569.577c-.191.435-.2.723-.24.715-.013,0-.016-.07-.009-.2a1.884,1.884,0,0,1,.114-.57,1.209,1.209,0,0,1,.619-.711,1.816,1.816,0,0,1,1.248-.031,2.266,2.266,0,0,1,1.246.846,6.182,6.182,0,0,1,.786,1.507,8.209,8.209,0,0,1,.456,1.811c.1.644.038,1.33.15,1.946a1.524,1.524,0,0,0,.378.791,1.892,1.892,0,0,0,.754.441c.571.186,1.2.28,1.763.5a7.989,7.989,0,0,1,2.682,1.634,7.365,7.365,0,0,1,1.337,1.635,2.314,2.314,0,0,1,.328.7" transform="translate(-33.805 -39.308)" fill="#ff9b6c"/>
          <path id="Trazado_613794" data-name="Trazado 613794" d="M123.862,128.988a13.2,13.2,0,0,1-.8,1.27,14.8,14.8,0,0,0-1.444,3.275,48.12,48.12,0,0,0-1.009,5,4.93,4.93,0,0,1-.02-1.516,16.426,16.426,0,0,1,.671-3.6,11.8,11.8,0,0,1,1.58-3.309,3.971,3.971,0,0,1,1.021-1.125" transform="translate(-33.774 -36.137)" fill="#ff9b6c"/>
          <path id="Trazado_613795" data-name="Trazado 613795" d="M124.452,140.832c.1.041-1.831,4.732-4.3,10.478s-4.552,10.371-4.647,10.33,1.831-4.732,4.3-10.479,4.552-10.371,4.647-10.33" transform="translate(-32.358 -39.455)" fill="#263238"/>
          <path id="Trazado_613796" data-name="Trazado 613796" d="M127.983,142.574c.1.027-.96,4.158-2.366,9.224s-2.628,9.153-2.727,9.125.96-4.158,2.366-9.226,2.627-9.151,2.727-9.124" transform="translate(-34.426 -39.943)" fill="#263238"/>
          <path id="Trazado_613797" data-name="Trazado 613797" d="M156.751,147.881a65.058,65.058,0,0,1-6.963-.515,65.075,65.075,0,0,1-6.926-.888,65.282,65.282,0,0,1,6.964.515,65.266,65.266,0,0,1,6.925.888" transform="translate(-40.024 -41.03)" fill="#ff9b6c"/>
          <path id="Trazado_613798" data-name="Trazado 613798" d="M157.443,139.046a4.86,4.86,0,0,1-3.041,2.568,15.124,15.124,0,0,1,1.554-1.245c.831-.7,1.4-1.386,1.487-1.323" transform="translate(-43.256 -38.954)" fill="#ff9b6c"/>
          <path id="Trazado_613799" data-name="Trazado 613799" d="M163.631,185.385a.727.727,0,0,1,.173.016l.505.078,1.959.331,7.38,1.309.1.018-.012.106c-.958,8.776-2.725,22.86-5.788,38.525-1.3,6.661-2.73,12.969-4.165,18.671a102.145,102.145,0,0,1-4.3,15.016,13.056,13.056,0,0,1-3.235,5.043,12.677,12.677,0,0,1-3.809,2.461,11.216,11.216,0,0,1-2.771.741,6.923,6.923,0,0,1-1,.064,1.288,1.288,0,0,1,.251-.039c.167-.016.413-.052.736-.1a11.875,11.875,0,0,0,2.725-.8,12.741,12.741,0,0,0,3.723-2.48,12.909,12.909,0,0,0,3.133-4.991,104.989,104.989,0,0,0,4.208-15c1.415-5.7,2.836-12,4.132-18.66,3.06-15.649,4.883-29.714,5.931-38.477l.092.124-7.361-1.411-1.949-.39-.5-.108a.75.75,0,0,1-.167-.047" transform="translate(-41.652 -51.937)" fill="#263238"/>
        </g>
      </g>
      <g id="Grupo_1073167" data-name="Grupo 1073167">
        <g id="Grupo_1073166" data-name="Grupo 1073166" clip-path="url(#clip-path)">
          <path id="Trazado_613800" data-name="Trazado 613800" d="M293.026,65.976l2.812-8.472a28.508,28.508,0,1,1,7.1,7.34l.01.012Z" transform="translate(-81.542 -3.716)" fill="#fff"/>
          <path id="Trazado_613801" data-name="Trazado 613801" d="M292.984,65.91s.228-.035.659-.089l1.906-.235L302.9,64.7l-.058.145-.01-.012a.089.089,0,0,1,.12-.129,28.46,28.46,0,0,0,13.075,5.061,27.948,27.948,0,0,0,4.385.186,32,32,0,0,0,4.656-.58,28.262,28.262,0,0,0,3.687-54.388,28.776,28.776,0,0,0-12.938-1.345A27.843,27.843,0,0,0,304.3,17.827a28.375,28.375,0,0,0-12.346,17.307q-.131.6-.261,1.186a7.718,7.718,0,0,0-.205,1.176l-.27,2.315a39.135,39.135,0,0,0,.052,4.416,28.363,28.363,0,0,0,4.595,13.166.086.086,0,0,1,.01.073l-2.133,6.258-.559,1.626c-.127.367-.2.561-.2.561s.05-.176.164-.536l.516-1.614c.469-1.453,1.158-3.583,2.052-6.349l.01.073a28.348,28.348,0,0,1-4.717-13.236,39.4,39.4,0,0,1-.072-4.457q.13-1.15.263-2.339a7.777,7.777,0,0,1,.2-1.189q.128-.595.26-1.2a28.636,28.636,0,0,1,12.444-17.543,28.175,28.175,0,0,1,11.659-4.263,29.148,29.148,0,0,1,13.117,1.351,28.482,28.482,0,0,1,11.562,7.545,12.74,12.74,0,0,1,1.137,1.309l1.08,1.348.947,1.436a11.886,11.886,0,0,1,.883,1.464l.794,1.507c.279.494.446,1.039.673,1.553.2.525.444,1.035.617,1.568l.476,1.607a28.229,28.229,0,0,1,.587,12.911,28.562,28.562,0,0,1-22.512,22.816,32.071,32.071,0,0,1-4.707.567,27.985,27.985,0,0,1-4.426-.207,28.461,28.461,0,0,1-13.146-5.184l.12-.128.01.012a.088.088,0,0,1-.011.125.093.093,0,0,1-.048.02l-7.425.782-1.885.194c-.42.042-.623.056-.623.056" transform="translate(-81.5 -3.65)" fill="#263238"/>
          <path id="Trazado_613802" data-name="Trazado 613802" d="M312.332,49.18l3.974-4.4,8.432,6.769,12.525-14.384,4.1,3.989-16.813,18.5Z" transform="translate(-87.502 -10.413)" fill="#ffa346"/>
        </g>
      </g>
    </g>
    <rect id="Rectángulo_379034" data-name="Rectángulo 379034" width="190" height="48" rx="24" transform="translate(-2982 -10459)" fill="#ffa346"/>
    <path id="Trazado_615929" data-name="Trazado 615929" d="M4.254,0H1.178V-12.8H4.254ZM8.982-9.51l.1,1.116a3.225,3.225,0,0,1,2.716-1.292,2.713,2.713,0,0,1,2.219.888,4.226,4.226,0,0,1,.76,2.672V0H11.8V-6a1.6,1.6,0,0,0-.29-1.059A1.342,1.342,0,0,0,10.459-7.4a1.413,1.413,0,0,0-1.292.686V0H6.205V-9.51Zm10.881-2.364V-9.51h1.564v2.057H19.863V-3.1a1.111,1.111,0,0,0,.193.747,1.037,1.037,0,0,0,.765.211A4.345,4.345,0,0,0,21.56-2.2V-.079a5.466,5.466,0,0,1-1.67.255,3.1,3.1,0,0,1-2.259-.721A2.954,2.954,0,0,1,16.9-2.733v-4.72H15.688V-9.51H16.9v-2.364ZM27.193.176a4.889,4.889,0,0,1-3.542-1.305,4.507,4.507,0,0,1-1.354-3.4v-.246a5.84,5.84,0,0,1,.541-2.575,3.955,3.955,0,0,1,1.578-1.727,4.763,4.763,0,0,1,2.461-.611,4.117,4.117,0,0,1,3.164,1.244A4.887,4.887,0,0,1,31.2-4.975v1.151H25.313a2.135,2.135,0,0,0,.694,1.257,2.066,2.066,0,0,0,1.389.457,2.662,2.662,0,0,0,2.2-.984l1.354,1.6A3.784,3.784,0,0,1,29.377-.277,5.3,5.3,0,0,1,27.193.176ZM26.859-7.4q-1.3,0-1.547,1.723H28.3v-.229a1.467,1.467,0,0,0-.36-1.1A1.434,1.434,0,0,0,26.859-7.4Zm5.186,2.575a6.421,6.421,0,0,1,.475-2.549,3.821,3.821,0,0,1,1.362-1.709,3.591,3.591,0,0,1,2.065-.6,2.855,2.855,0,0,1,2.32,1l.105-.826h2.689V-.36a4.009,4.009,0,0,1-.584,2.184,3.75,3.75,0,0,1-1.692,1.424,6.219,6.219,0,0,1-2.566.5,5.365,5.365,0,0,1-2.026-.4A3.657,3.657,0,0,1,32.7,2.32L33.935.58a2.716,2.716,0,0,0,2.18.976A1.764,1.764,0,0,0,38.083-.466v-.3a2.781,2.781,0,0,1-2.153.94,3.437,3.437,0,0,1-2.812-1.332A5.517,5.517,0,0,1,32.045-4.72Zm2.971.185a3.383,3.383,0,0,0,.439,1.85,1.386,1.386,0,0,0,1.23.681,1.573,1.573,0,0,0,1.4-.642v-4A1.534,1.534,0,0,0,36.7-7.4a1.4,1.4,0,0,0-1.239.708A3.858,3.858,0,0,0,35.016-4.641ZM48.5-6.829l-.976-.07a1.752,1.752,0,0,0-1.793.879V0H42.768V-9.51h2.777l.1,1.222a2.294,2.294,0,0,1,2.083-1.4,2.888,2.888,0,0,1,.826.105ZM52.69,0H49.72V-9.51H52.69ZM49.544-11.962A1.322,1.322,0,0,1,50-13a1.724,1.724,0,0,1,1.187-.4,1.724,1.724,0,0,1,1.187.4,1.322,1.322,0,0,1,.457,1.037,1.322,1.322,0,0,1-.457,1.037,1.724,1.724,0,0,1-1.187.4,1.724,1.724,0,0,1-1.187-.4A1.322,1.322,0,0,1,49.544-11.962Zm4.6,7.137a5.809,5.809,0,0,1,.976-3.56,3.211,3.211,0,0,1,2.725-1.3,2.731,2.731,0,0,1,2.145,1V-13.5h2.971V0H60.293l-.149-1.02a2.8,2.8,0,0,1-2.32,1.2,3.205,3.205,0,0,1-2.689-1.3A5.993,5.993,0,0,1,54.141-4.825Zm2.962.185q0,2.531,1.477,2.531a1.458,1.458,0,0,0,1.406-.826V-6.557A1.419,1.419,0,0,0,58.6-7.4q-1.371,0-1.485,2.215ZM70,0a3.344,3.344,0,0,1-.281-.853A2.754,2.754,0,0,1,67.43.176a3.374,3.374,0,0,1-2.285-.813,2.588,2.588,0,0,1-.94-2.043,2.66,2.66,0,0,1,1.143-2.338,5.821,5.821,0,0,1,3.322-.791h.914v-.5q0-1.316-1.134-1.316a.927.927,0,0,0-1.055,1.042H64.433a2.655,2.655,0,0,1,1.173-2.239,4.931,4.931,0,0,1,2.993-.86,4.323,4.323,0,0,1,2.874.888,3.086,3.086,0,0,1,1.081,2.435v4.21a4.311,4.311,0,0,0,.4,2V0ZM68.142-1.934a1.652,1.652,0,0,0,.918-.237,1.487,1.487,0,0,0,.523-.536V-4.228h-.861q-1.547,0-1.547,1.389a.848.848,0,0,0,.272.655A.986.986,0,0,0,68.142-1.934Zm5.678-2.892a5.809,5.809,0,0,1,.976-3.56,3.211,3.211,0,0,1,2.725-1.3,2.731,2.731,0,0,1,2.145,1V-13.5h2.971V0H79.972l-.149-1.02A2.8,2.8,0,0,1,77.5.176a3.205,3.205,0,0,1-2.689-1.3A5.993,5.993,0,0,1,73.819-4.825Zm2.962.185q0,2.531,1.477,2.531a1.458,1.458,0,0,0,1.406-.826V-6.557A1.419,1.419,0,0,0,78.275-7.4Q76.9-7.4,76.79-5.186Z" transform="translate(-2928 -10429)" fill="#12263f"/>
    <rect id="Rectángulo_379035" data-name="Rectángulo 379035" width="190" height="48" rx="24" transform="translate(-2982 -10040)" fill="#ffa346"/>
    <path id="Trazado_615927" data-name="Trazado 615927" d="M11.663,0H8.6V-5.344H4.052V0H.967V-12.8H4.052v5.08H8.6V-12.8h3.067ZM13.1-4.843a5.613,5.613,0,0,1,.554-2.536,3.96,3.96,0,0,1,1.591-1.709,4.791,4.791,0,0,1,2.435-.6A4.373,4.373,0,0,1,21.05-8.363a5.076,5.076,0,0,1,1.23,3.6v.105a4.925,4.925,0,0,1-1.235,3.529A4.384,4.384,0,0,1,17.7.176,4.434,4.434,0,0,1,14.44-1.042a4.761,4.761,0,0,1-1.327-3.3Zm2.962.185a3.538,3.538,0,0,0,.413,1.934,1.376,1.376,0,0,0,1.222.615q1.582,0,1.617-2.435v-.3q0-2.558-1.635-2.558-1.485,0-1.608,2.206ZM26.306-9.51l.1,1.116a3.225,3.225,0,0,1,2.716-1.292,2.713,2.713,0,0,1,2.219.888,4.226,4.226,0,0,1,.76,2.672V0H29.127V-6a1.6,1.6,0,0,0-.29-1.059A1.342,1.342,0,0,0,27.782-7.4a1.413,1.413,0,0,0-1.292.686V0H23.528V-9.51Zm7.058,4.667a5.613,5.613,0,0,1,.554-2.536,3.96,3.96,0,0,1,1.591-1.709,4.791,4.791,0,0,1,2.435-.6,4.373,4.373,0,0,1,3.366,1.323,5.076,5.076,0,0,1,1.23,3.6v.105A4.925,4.925,0,0,1,41.3-1.129,4.384,4.384,0,0,1,37.96.176,4.434,4.434,0,0,1,34.7-1.042a4.761,4.761,0,0,1-1.327-3.3Zm2.962.185a3.538,3.538,0,0,0,.413,1.934,1.376,1.376,0,0,0,1.222.615q1.582,0,1.617-2.435v-.3q0-2.558-1.635-2.558-1.485,0-1.608,2.206ZM49.6-6.829l-.976-.07a1.752,1.752,0,0,0-1.793.879V0H43.866V-9.51h2.777l.1,1.222a2.294,2.294,0,0,1,2.083-1.4,2.888,2.888,0,0,1,.826.105ZM55.758,0a3.344,3.344,0,0,1-.281-.853A2.754,2.754,0,0,1,53.191.176a3.374,3.374,0,0,1-2.285-.813,2.588,2.588,0,0,1-.94-2.043,2.66,2.66,0,0,1,1.143-2.338,5.821,5.821,0,0,1,3.322-.791h.914v-.5q0-1.316-1.134-1.316a.927.927,0,0,0-1.055,1.042H50.194a2.655,2.655,0,0,1,1.173-2.239,4.931,4.931,0,0,1,2.993-.86,4.323,4.323,0,0,1,2.874.888,3.086,3.086,0,0,1,1.081,2.435v4.21a4.311,4.311,0,0,0,.4,2V0ZM53.9-1.934a1.652,1.652,0,0,0,.918-.237,1.487,1.487,0,0,0,.523-.536V-4.228h-.861q-1.547,0-1.547,1.389a.848.848,0,0,0,.272.655A.986.986,0,0,0,53.9-1.934Zm14.88-2.742a5.8,5.8,0,0,1-.967,3.595A3.238,3.238,0,0,1,65.092.176,2.81,2.81,0,0,1,62.754-.976L62.631,0H59.977V-13.5h2.962v4.755a2.711,2.711,0,0,1,2.136-.94,3.239,3.239,0,0,1,2.742,1.274,5.826,5.826,0,0,1,.967,3.586Zm-2.971-.189a3.866,3.866,0,0,0-.365-1.952A1.229,1.229,0,0,0,64.327-7.4a1.418,1.418,0,0,0-1.389.763v3.773a1.426,1.426,0,0,0,1.406.755,1.258,1.258,0,0,0,1.327-1.018A7.309,7.309,0,0,0,65.813-4.865ZM73.213,0H70.242V-9.51h2.971ZM70.066-11.962A1.322,1.322,0,0,1,70.523-13a1.724,1.724,0,0,1,1.187-.4A1.724,1.724,0,0,1,72.9-13a1.322,1.322,0,0,1,.457,1.037,1.322,1.322,0,0,1-.457,1.037,1.724,1.724,0,0,1-1.187.4,1.724,1.724,0,0,1-1.187-.4A1.322,1.322,0,0,1,70.066-11.962ZM78.161,0H75.19V-13.5h2.971Zm4.948,0H80.139V-9.51h2.971ZM79.963-11.962A1.322,1.322,0,0,1,80.42-13a1.724,1.724,0,0,1,1.187-.4,1.724,1.724,0,0,1,1.187.4,1.322,1.322,0,0,1,.457,1.037,1.322,1.322,0,0,1-.457,1.037,1.724,1.724,0,0,1-1.187.4,1.724,1.724,0,0,1-1.187-.4A1.322,1.322,0,0,1,79.963-11.962Zm4.6,7.137a5.809,5.809,0,0,1,.976-3.56,3.211,3.211,0,0,1,2.725-1.3,2.731,2.731,0,0,1,2.145,1V-13.5h2.971V0H90.712l-.149-1.02a2.8,2.8,0,0,1-2.32,1.2,3.205,3.205,0,0,1-2.689-1.3A5.993,5.993,0,0,1,84.56-4.825Zm2.962.185q0,2.531,1.477,2.531A1.458,1.458,0,0,0,90.4-2.936V-6.557A1.419,1.419,0,0,0,89.016-7.4q-1.371,0-1.485,2.215ZM100.415,0a3.344,3.344,0,0,1-.281-.853A2.754,2.754,0,0,1,97.849.176a3.374,3.374,0,0,1-2.285-.813,2.588,2.588,0,0,1-.94-2.043,2.66,2.66,0,0,1,1.143-2.338,5.821,5.821,0,0,1,3.322-.791H100v-.5q0-1.316-1.134-1.316a.927.927,0,0,0-1.055,1.042H94.852a2.655,2.655,0,0,1,1.173-2.239,4.931,4.931,0,0,1,2.993-.86,4.323,4.323,0,0,1,2.874.888,3.086,3.086,0,0,1,1.081,2.435v4.21a4.311,4.311,0,0,0,.4,2V0ZM98.561-1.934a1.652,1.652,0,0,0,.918-.237A1.487,1.487,0,0,0,100-2.707V-4.228h-.861q-1.547,0-1.547,1.389a.848.848,0,0,0,.272.655A.986.986,0,0,0,98.561-1.934Zm5.678-2.892a5.809,5.809,0,0,1,.976-3.56,3.211,3.211,0,0,1,2.725-1.3,2.731,2.731,0,0,1,2.145,1V-13.5h2.971V0h-2.663l-.149-1.02a2.8,2.8,0,0,1-2.32,1.2,3.205,3.205,0,0,1-2.689-1.3A5.993,5.993,0,0,1,104.238-4.825Zm2.962.185q0,2.531,1.477,2.531a1.458,1.458,0,0,0,1.406-.826V-6.557a1.419,1.419,0,0,0-1.389-.844q-1.371,0-1.485,2.215Z" transform="translate(-2944 -10010)" fill="#12263f"/>
  </g>
</svg>
