<svg xmlns="http://www.w3.org/2000/svg" xmlns:xlink="http://www.w3.org/1999/xlink" width="1030" height="517.098" viewBox="0 0 1030 517.098">
  <defs>
    <linearGradient id="linear-gradient" x1="0.5" x2="0.5" y2="1" gradientUnits="objectBoundingBox">
      <stop offset="0" stop-color="#fffac1"/>
      <stop offset="1" stop-color="#fffdec"/>
    </linearGradient>
    <clipPath id="clip-path">
      <rect id="Rectángulo_378836" data-name="Rectángulo 378836" width="65" height="59.156" fill="#605a1a" stroke="#605a1a" stroke-width="0.5"/>
    </clipPath>
    <clipPath id="clip-path-2">
      <rect id="Rectángulo_378837" data-name="Rectángulo 378837" width="61.523" height="61.512" fill="#66411c"/>
    </clipPath>
    <clipPath id="clip-path-3">
      <rect id="Rectángulo_378838" data-name="Rectángulo 378838" width="55.94" height="50.532" fill="#605a1a"/>
    </clipPath>
    <clipPath id="clip-path-4">
      <rect id="Rectángulo_378839" data-name="Rectángulo 378839" width="47.77" height="47.75" fill="#66411c"/>
    </clipPath>
  </defs>
  <g id="Grupo_1073611" data-name="Grupo 1073611" transform="translate(-285 -1949.307)">
    <path id="Trazado_608309" data-name="Trazado 608309" d="M0,0H1030V517.1H0Z" transform="translate(1315 2466.404) rotate(180)" fill="url(#linear-gradient)"/>
    <rect id="Rectángulo_378822" data-name="Rectángulo 378822" width="490" height="92" transform="translate(555 2073.496)" fill="#ffed33"/>
    <rect id="Rectángulo_378823" data-name="Rectángulo 378823" width="356" height="92" transform="translate(622 2165.496)" fill="#ffa346"/>
    <rect id="Rectángulo_378824" data-name="Rectángulo 378824" width="236" height="92" transform="translate(683 2257.496)" fill="#ffed33"/>
    <path id="Trazado_615809" data-name="Trazado 615809" d="M0,0H128V92H0Z" transform="translate(736 2349.496)" fill="#ffa346"/>
    <rect id="Rectángulo_378828" data-name="Rectángulo 378828" width="152" height="47" rx="23.5" transform="translate(343 2096.496)" fill="#ac0606"/>
    <rect id="Rectángulo_378833" data-name="Rectángulo 378833" width="152" height="47" rx="23.5" transform="translate(470 2278.496)" fill="#ac0606"/>
    <rect id="Rectángulo_378829" data-name="Rectángulo 378829" width="152" height="47" rx="23.5" transform="translate(1038 2188.496)" fill="#ac0606"/>
    <rect id="Rectángulo_378835" data-name="Rectángulo 378835" width="152" height="47" rx="23.5" transform="translate(924 2371.496)" fill="#ac0606"/>
    <path id="Trazado_615925" data-name="Trazado 615925" d="M7.438-2.344H3.328L2.547,0H.055L4.289-11.375H6.461L10.719,0H8.227Zm-3.477-1.9H6.8L5.375-8.5ZM14.2-10.531v2.078h1.445V-6.8H14.2v4.219a1.007,1.007,0,0,0,.18.672.9.9,0,0,0,.688.2,3.6,3.6,0,0,0,.664-.055V-.047a4.648,4.648,0,0,1-1.367.2,2.156,2.156,0,0,1-2.422-2.4V-6.8H10.711V-8.453h1.234v-2.078ZM20.8.156A4.15,4.15,0,0,1,17.77-.984,4.054,4.054,0,0,1,16.6-4.023v-.219a5.106,5.106,0,0,1,.492-2.277,3.612,3.612,0,0,1,1.395-1.547,3.914,3.914,0,0,1,2.059-.543,3.508,3.508,0,0,1,2.73,1.094,4.444,4.444,0,0,1,1,3.1v.922H18.891a2.1,2.1,0,0,0,.66,1.328,2,2,0,0,0,1.395.5,2.437,2.437,0,0,0,2.039-.945l1.109,1.242A3.389,3.389,0,0,1,22.719-.246,4.511,4.511,0,0,1,20.8.156Zm-.258-6.945a1.411,1.411,0,0,0-1.09.455,2.357,2.357,0,0,0-.535,1.3h3.141v-.181a1.681,1.681,0,0,0-.406-1.165A1.456,1.456,0,0,0,20.539-6.789Zm7.094-1.664.07.977a2.951,2.951,0,0,1,2.43-1.133,2.453,2.453,0,0,1,2,.789A3.682,3.682,0,0,1,32.8-5.461V0H30.547V-5.406a1.465,1.465,0,0,0-.312-1.043A1.4,1.4,0,0,0,29.2-6.773a1.553,1.553,0,0,0-1.43.813V0H25.508V-8.453Zm10.4,6.789a1.481,1.481,0,0,0,1.016-.344,1.2,1.2,0,0,0,.406-.914H41.57A2.9,2.9,0,0,1,41.1-1.348,3.093,3.093,0,0,1,39.84-.238a3.949,3.949,0,0,1-1.77.395A3.67,3.67,0,0,1,35.211-1,4.56,4.56,0,0,1,34.164-4.18v-.148A4.508,4.508,0,0,1,35.2-7.445a3.627,3.627,0,0,1,2.852-1.164,3.555,3.555,0,0,1,2.543.9,3.2,3.2,0,0,1,.973,2.4H39.453a1.551,1.551,0,0,0-.406-1.072,1.354,1.354,0,0,0-1.031-.412,1.36,1.36,0,0,0-1.191.575,3.333,3.333,0,0,0-.4,1.866v.235a3.375,3.375,0,0,0,.4,1.878A1.377,1.377,0,0,0,38.031-1.664ZM45.242,0H42.977V-8.453h2.266Zm-2.4-10.641a1.112,1.112,0,0,1,.34-.836,1.277,1.277,0,0,1,.926-.328,1.28,1.28,0,0,1,.922.328,1.105,1.105,0,0,1,.344.836,1.108,1.108,0,0,1-.348.844,1.283,1.283,0,0,1-.918.328,1.283,1.283,0,0,1-.918-.328A1.108,1.108,0,0,1,42.844-10.641ZM46.75-4.3a5.013,5.013,0,0,1,.484-2.242A3.546,3.546,0,0,1,48.629-8.07a4.069,4.069,0,0,1,2.113-.539,3.849,3.849,0,0,1,2.793,1.047,4.2,4.2,0,0,1,1.207,2.844l.016.578A4.418,4.418,0,0,1,53.672-1.02,3.775,3.775,0,0,1,50.758.156,3.793,3.793,0,0,1,47.84-1.016,4.5,4.5,0,0,1,46.75-4.2Zm2.258.16A3.16,3.16,0,0,0,49.461-2.3a1.5,1.5,0,0,0,1.3.638,1.5,1.5,0,0,0,1.281-.63A3.457,3.457,0,0,0,52.5-4.309a3.128,3.128,0,0,0-.461-1.831,1.5,1.5,0,0,0-1.3-.649,1.474,1.474,0,0,0-1.281.646A3.516,3.516,0,0,0,49.008-4.144ZM51.188-12h2.461L51.484-9.578H49.648Zm7.039,3.547.07.977a2.951,2.951,0,0,1,2.43-1.133,2.453,2.453,0,0,1,2,.789A3.682,3.682,0,0,1,63.4-5.461V0H61.141V-5.406a1.465,1.465,0,0,0-.312-1.043,1.4,1.4,0,0,0-1.039-.324,1.553,1.553,0,0,0-1.43.813V0H56.1V-8.453Z" transform="translate(387 2125.496)" fill="#fff"/>
    <path id="Trazado_615926" data-name="Trazado 615926" d="M5,0V-11.375H8.5a5.315,5.315,0,0,1,2.684.676,4.712,4.712,0,0,1,1.848,1.922A5.928,5.928,0,0,1,13.7-5.945v.523a5.945,5.945,0,0,1-.652,2.82A4.672,4.672,0,0,1,11.2-.687,5.355,5.355,0,0,1,8.523,0ZM7.344-9.477v7.594H8.477a2.545,2.545,0,0,0,2.1-.9,4.06,4.06,0,0,0,.742-2.57v-.6A4.124,4.124,0,0,0,10.6-8.582a2.537,2.537,0,0,0-2.1-.895ZM19.141.156A4.15,4.15,0,0,1,16.113-.984a4.054,4.054,0,0,1-1.168-3.039v-.219a5.106,5.106,0,0,1,.492-2.277,3.612,3.612,0,0,1,1.395-1.547,3.914,3.914,0,0,1,2.059-.543,3.508,3.508,0,0,1,2.73,1.094,4.444,4.444,0,0,1,1,3.1v.922H17.234a2.1,2.1,0,0,0,.66,1.328,2,2,0,0,0,1.395.5,2.437,2.437,0,0,0,2.039-.945l1.109,1.242A3.389,3.389,0,0,1,21.063-.246,4.511,4.511,0,0,1,19.141.156Zm-.258-6.945a1.411,1.411,0,0,0-1.09.455,2.357,2.357,0,0,0-.535,1.3H20.4v-.181a1.681,1.681,0,0,0-.406-1.165A1.456,1.456,0,0,0,18.883-6.789Zm9.594,4.453a.727.727,0,0,0-.41-.652,4.659,4.659,0,0,0-1.316-.426q-3.016-.633-3.016-2.562a2.323,2.323,0,0,1,.934-1.879,3.766,3.766,0,0,1,2.441-.754,4.053,4.053,0,0,1,2.574.758,2.388,2.388,0,0,1,.965,1.969H28.391a1.092,1.092,0,0,0-.312-.8A1.322,1.322,0,0,0,27.1-7a1.351,1.351,0,0,0-.883.258.814.814,0,0,0-.312.656.7.7,0,0,0,.355.605,3.657,3.657,0,0,0,1.2.4,9.8,9.8,0,0,1,1.422.379A2.336,2.336,0,0,1,30.672-2.43,2.2,2.2,0,0,1,29.68-.559a4.28,4.28,0,0,1-2.562.715A4.47,4.47,0,0,1,25.23-.223a3.166,3.166,0,0,1-1.293-1.039,2.414,2.414,0,0,1-.469-1.426h2.141a1.179,1.179,0,0,0,.445.922,1.766,1.766,0,0,0,1.109.32,1.635,1.635,0,0,0,.98-.246A.766.766,0,0,0,28.477-2.336ZM36.016.156A4.15,4.15,0,0,1,32.988-.984,4.054,4.054,0,0,1,31.82-4.023v-.219a5.106,5.106,0,0,1,.492-2.277,3.612,3.612,0,0,1,1.395-1.547,3.914,3.914,0,0,1,2.059-.543A3.508,3.508,0,0,1,38.5-7.516a4.444,4.444,0,0,1,1,3.1v.922H34.109a2.1,2.1,0,0,0,.66,1.328,2,2,0,0,0,1.395.5A2.437,2.437,0,0,0,38.2-2.609l1.109,1.242A3.389,3.389,0,0,1,37.938-.246,4.511,4.511,0,0,1,36.016.156Zm-.258-6.945a1.411,1.411,0,0,0-1.09.455,2.357,2.357,0,0,0-.535,1.3h3.141v-.181a1.681,1.681,0,0,0-.406-1.165A1.456,1.456,0,0,0,35.758-6.789ZM40.422-4.3a5.013,5.013,0,0,1,.484-2.242A3.546,3.546,0,0,1,42.3-8.07a4.069,4.069,0,0,1,2.113-.539,3.849,3.849,0,0,1,2.793,1.047,4.2,4.2,0,0,1,1.207,2.844l.016.578A4.418,4.418,0,0,1,47.344-1.02,3.775,3.775,0,0,1,44.43.156a3.793,3.793,0,0,1-2.918-1.172A4.5,4.5,0,0,1,40.422-4.2Zm2.258.16A3.16,3.16,0,0,0,43.133-2.3a1.5,1.5,0,0,0,1.3.638,1.5,1.5,0,0,0,1.281-.63,3.457,3.457,0,0,0,.461-2.015,3.128,3.128,0,0,0-.461-1.831,1.5,1.5,0,0,0-1.3-.649,1.474,1.474,0,0,0-1.281.646A3.516,3.516,0,0,0,42.68-4.144Z" transform="translate(522 2307.496)" fill="#fff"/>
    <path id="Trazado_615928" data-name="Trazado 615928" d="M11.477,0H9.133V-11.375h2.344Zm4.1-8.453.07.977a2.951,2.951,0,0,1,2.43-1.133,2.453,2.453,0,0,1,2,.789,3.682,3.682,0,0,1,.672,2.359V0H18.492V-5.406a1.465,1.465,0,0,0-.312-1.043,1.4,1.4,0,0,0-1.039-.324,1.553,1.553,0,0,0-1.43.813V0H13.453V-8.453Zm9.586-2.078v2.078h1.445V-6.8H25.164v4.219a1.007,1.007,0,0,0,.18.672.9.9,0,0,0,.688.2,3.6,3.6,0,0,0,.664-.055V-.047a4.648,4.648,0,0,1-1.367.2,2.156,2.156,0,0,1-2.422-2.4V-6.8H21.672V-8.453h1.234v-2.078ZM31.758.156A4.15,4.15,0,0,1,28.73-.984a4.054,4.054,0,0,1-1.168-3.039v-.219a5.106,5.106,0,0,1,.492-2.277,3.612,3.612,0,0,1,1.395-1.547,3.914,3.914,0,0,1,2.059-.543,3.508,3.508,0,0,1,2.73,1.094,4.444,4.444,0,0,1,1,3.1v.922H29.852a2.1,2.1,0,0,0,.66,1.328,2,2,0,0,0,1.395.5,2.437,2.437,0,0,0,2.039-.945l1.109,1.242A3.389,3.389,0,0,1,33.68-.246,4.511,4.511,0,0,1,31.758.156ZM31.5-6.789a1.411,1.411,0,0,0-1.09.455,2.357,2.357,0,0,0-.535,1.3h3.141v-.181a1.681,1.681,0,0,0-.406-1.165A1.456,1.456,0,0,0,31.5-6.789Zm9.766.453a6.134,6.134,0,0,0-.812-.062,1.654,1.654,0,0,0-1.68.867V0H36.516V-8.453h2.133l.063,1.008a2.092,2.092,0,0,1,1.883-1.164,2.366,2.366,0,0,1,.7.1ZM46.094.156A4.15,4.15,0,0,1,43.066-.984,4.054,4.054,0,0,1,41.9-4.023v-.219a5.106,5.106,0,0,1,.492-2.277,3.612,3.612,0,0,1,1.395-1.547,3.914,3.914,0,0,1,2.059-.543,3.508,3.508,0,0,1,2.73,1.094,4.444,4.444,0,0,1,1,3.1v.922H44.188a2.1,2.1,0,0,0,.66,1.328,2,2,0,0,0,1.395.5,2.437,2.437,0,0,0,2.039-.945l1.109,1.242A3.389,3.389,0,0,1,48.016-.246,4.511,4.511,0,0,1,46.094.156Zm-.258-6.945a1.411,1.411,0,0,0-1.09.455,2.357,2.357,0,0,0-.535,1.3h3.141v-.181a1.681,1.681,0,0,0-.406-1.165A1.456,1.456,0,0,0,45.836-6.789Zm.2-5.211H48.5L46.336-9.578H44.5ZM55.43-2.336a.727.727,0,0,0-.41-.652A4.659,4.659,0,0,0,53.7-3.414q-3.016-.633-3.016-2.562a2.323,2.323,0,0,1,.934-1.879,3.766,3.766,0,0,1,2.441-.754,4.053,4.053,0,0,1,2.574.758A2.388,2.388,0,0,1,57.6-5.883H55.344a1.092,1.092,0,0,0-.312-.8A1.322,1.322,0,0,0,54.055-7a1.351,1.351,0,0,0-.883.258.814.814,0,0,0-.312.656.7.7,0,0,0,.355.605,3.657,3.657,0,0,0,1.2.4,9.8,9.8,0,0,1,1.422.379A2.336,2.336,0,0,1,57.625-2.43a2.2,2.2,0,0,1-.992,1.871A4.28,4.28,0,0,1,54.07.156a4.47,4.47,0,0,1-1.887-.379,3.166,3.166,0,0,1-1.293-1.039,2.414,2.414,0,0,1-.469-1.426h2.141a1.179,1.179,0,0,0,.445.922,1.766,1.766,0,0,0,1.109.32,1.635,1.635,0,0,0,.98-.246A.766.766,0,0,0,55.43-2.336Z" transform="translate(1085 2217.496)" fill="#fff"/>
    <path id="Trazado_615927" data-name="Trazado 615927" d="M15.406-2.344H11.3L10.516,0H8.023l4.234-11.375H14.43L18.688,0H16.2Zm-3.477-1.9h2.844L13.344-8.5ZM23.117-1.664a1.481,1.481,0,0,0,1.016-.344,1.2,1.2,0,0,0,.406-.914h2.117a2.9,2.9,0,0,1-.469,1.574A3.093,3.093,0,0,1,24.926-.238a3.949,3.949,0,0,1-1.77.395A3.67,3.67,0,0,1,20.3-1,4.56,4.56,0,0,1,19.25-4.18v-.148a4.508,4.508,0,0,1,1.039-3.117,3.627,3.627,0,0,1,2.852-1.164,3.555,3.555,0,0,1,2.543.9,3.2,3.2,0,0,1,.973,2.4H24.539a1.551,1.551,0,0,0-.406-1.072A1.354,1.354,0,0,0,23.1-6.789a1.36,1.36,0,0,0-1.191.575,3.333,3.333,0,0,0-.4,1.866v.235a3.375,3.375,0,0,0,.4,1.878A1.377,1.377,0,0,0,23.117-1.664Zm8.344,0a1.481,1.481,0,0,0,1.016-.344,1.2,1.2,0,0,0,.406-.914H35a2.9,2.9,0,0,1-.469,1.574A3.093,3.093,0,0,1,33.27-.238,3.949,3.949,0,0,1,31.5.156,3.67,3.67,0,0,1,28.641-1,4.56,4.56,0,0,1,27.594-4.18v-.148a4.508,4.508,0,0,1,1.039-3.117,3.627,3.627,0,0,1,2.852-1.164,3.555,3.555,0,0,1,2.543.9A3.2,3.2,0,0,1,35-5.3H32.883a1.551,1.551,0,0,0-.406-1.072,1.354,1.354,0,0,0-1.031-.412,1.36,1.36,0,0,0-1.191.575,3.333,3.333,0,0,0-.4,1.866v.235a3.375,3.375,0,0,0,.4,1.878A1.377,1.377,0,0,0,31.461-1.664ZM38.672,0H36.406V-8.453h2.266Zm-2.4-10.641a1.112,1.112,0,0,1,.34-.836,1.277,1.277,0,0,1,.926-.328,1.28,1.28,0,0,1,.922.328,1.105,1.105,0,0,1,.344.836,1.108,1.108,0,0,1-.348.844,1.283,1.283,0,0,1-.918.328,1.283,1.283,0,0,1-.918-.328A1.108,1.108,0,0,1,36.273-10.641ZM40.18-4.3a5.013,5.013,0,0,1,.484-2.242A3.546,3.546,0,0,1,42.059-8.07a4.069,4.069,0,0,1,2.113-.539,3.849,3.849,0,0,1,2.793,1.047,4.2,4.2,0,0,1,1.207,2.844l.016.578A4.418,4.418,0,0,1,47.1-1.02,3.775,3.775,0,0,1,44.188.156,3.793,3.793,0,0,1,41.27-1.016,4.5,4.5,0,0,1,40.18-4.2Zm2.258.16A3.16,3.16,0,0,0,42.891-2.3a1.5,1.5,0,0,0,1.3.638,1.5,1.5,0,0,0,1.281-.63,3.457,3.457,0,0,0,.461-2.015,3.128,3.128,0,0,0-.461-1.831,1.5,1.5,0,0,0-1.3-.649,1.474,1.474,0,0,0-1.281.646A3.516,3.516,0,0,0,42.438-4.144ZM44.617-12h2.461L44.914-9.578H43.078Zm7.039,3.547.07.977a2.951,2.951,0,0,1,2.43-1.133,2.453,2.453,0,0,1,2,.789,3.682,3.682,0,0,1,.672,2.359V0H54.57V-5.406a1.465,1.465,0,0,0-.312-1.043,1.4,1.4,0,0,0-1.039-.324,1.553,1.553,0,0,0-1.43.813V0H49.531V-8.453Z" transform="translate(971 2400.496)" fill="#fff"/>
    <g id="Grupo_1072988" data-name="Grupo 1072988" transform="translate(0 -741.504)">
      <path id="Trazado_613295" data-name="Trazado 613295" d="M-7769-8839h81.11" transform="translate(8244 11700)" fill="none" stroke="#ac0606" stroke-width="3"/>
      <circle id="Elipse_6014" data-name="Elipse 6014" cx="5.5" cy="5.5" r="5.5" transform="translate(551 2856)" fill="#ac0606"/>
    </g>
    <g id="Grupo_1072991" data-name="Grupo 1072991" transform="translate(127 -559.504)">
      <path id="Trazado_613295-2" data-name="Trazado 613295" d="M-7769-8839h81.11" transform="translate(8244 11700)" fill="none" stroke="#ac0606" stroke-width="3"/>
      <circle id="Elipse_6014-2" data-name="Elipse 6014" cx="5.5" cy="5.5" r="5.5" transform="translate(551 2856)" fill="#ac0606"/>
    </g>
    <rect id="Rectángulo_378826" data-name="Rectángulo 378826" width="234" height="47" transform="translate(685 2017.074)" fill="#605a1a"/>
    <path id="Trazado_615924" data-name="Trazado 615924" d="M4.588-12.8,7.875-3.516l3.27-9.281h3.463V0H11.962V-3.5l.264-6.038L8.771,0H6.961L3.516-9.527,3.779-3.5V0H1.143V-12.8ZM27.422-6.108a7.725,7.725,0,0,1-.668,3.313A5.03,5.03,0,0,1,24.842-.6,5.288,5.288,0,0,1,21.99.176a5.324,5.324,0,0,1-2.839-.765,5.08,5.08,0,0,1-1.934-2.184,7.5,7.5,0,0,1-.694-3.265v-.633A7.685,7.685,0,0,1,17.2-10,5.072,5.072,0,0,1,19.129-12.2a5.3,5.3,0,0,1,2.843-.769,5.3,5.3,0,0,1,2.843.769A5.072,5.072,0,0,1,26.741-10a7.663,7.663,0,0,1,.681,3.318Zm-2.672-.58a5.385,5.385,0,0,0-.721-3.059,2.349,2.349,0,0,0-2.057-1.046A2.349,2.349,0,0,0,19.925-9.76,5.324,5.324,0,0,0,19.2-6.732v.624a5.453,5.453,0,0,0,.721,3.041A2.342,2.342,0,0,0,21.99-1.986a2.321,2.321,0,0,0,2.039-1.042,5.421,5.421,0,0,0,.721-3.037ZM29.338,0V-12.8h3.938a5.98,5.98,0,0,1,3.019.76,5.3,5.3,0,0,1,2.079,2.162,6.669,6.669,0,0,1,.747,3.186V-6.1a6.688,6.688,0,0,1-.734,3.173,5.256,5.256,0,0,1-2.07,2.153A6.025,6.025,0,0,1,33.3,0Zm2.637-10.661v8.543h1.274a2.863,2.863,0,0,0,2.364-1.011,4.567,4.567,0,0,0,.835-2.892V-6.7a4.64,4.64,0,0,0-.809-2.958,2.854,2.854,0,0,0-2.364-1.006ZM48.735-5.546H43.673v3.428h5.941V0H41.036V-12.8H49.6v2.136H43.673v3.05h5.063ZM53.8-2.118h5.6V0H51.161V-12.8H53.8Zm17.06-3.99a7.725,7.725,0,0,1-.668,3.313A5.03,5.03,0,0,1,68.278-.6a5.288,5.288,0,0,1-2.852.773,5.324,5.324,0,0,1-2.839-.765,5.08,5.08,0,0,1-1.934-2.184,7.5,7.5,0,0,1-.694-3.265v-.633A7.685,7.685,0,0,1,60.64-10,5.072,5.072,0,0,1,62.565-12.2a5.3,5.3,0,0,1,2.843-.769,5.3,5.3,0,0,1,2.843.769A5.072,5.072,0,0,1,70.176-10a7.663,7.663,0,0,1,.681,3.318Zm-2.672-.58a5.385,5.385,0,0,0-.721-3.059,2.349,2.349,0,0,0-2.057-1.046A2.349,2.349,0,0,0,63.36-9.76a5.324,5.324,0,0,0-.729,3.028v.624a5.453,5.453,0,0,0,.721,3.041,2.342,2.342,0,0,0,2.074,1.081,2.321,2.321,0,0,0,2.039-1.042,5.421,5.421,0,0,0,.721-3.037ZM84.48-2.637H79.857L78.979,0h-2.8l4.764-12.8h2.443L88.172,0h-2.8ZM80.569-4.772h3.2L82.16-9.562ZM92.171,0H89.534V-12.8h2.637Zm2.443,0V-12.8h3.938a5.98,5.98,0,0,1,3.019.76,5.3,5.3,0,0,1,2.079,2.162,6.669,6.669,0,0,1,.747,3.186V-6.1a6.688,6.688,0,0,1-.734,3.173,5.256,5.256,0,0,1-2.07,2.153A6.025,6.025,0,0,1,98.578,0Zm2.637-10.661v8.543h1.274a2.863,2.863,0,0,0,2.364-1.011,4.567,4.567,0,0,0,.835-2.892V-6.7a4.64,4.64,0,0,0-.809-2.958,2.854,2.854,0,0,0-2.364-1.006Zm16.1,8.024h-4.623L107.851,0h-2.8l4.764-12.8h2.443L117.044,0h-2.8Zm-3.911-2.136h3.2l-1.608-4.79Z" transform="translate(742 2047.074)" fill="#fff"/>
    <path id="Trazado_613295-3" data-name="Trazado 613295" d="M-7813-8839h81.11" transform="translate(-6752 -6626.504) rotate(180)" fill="none" stroke="#ac0606" stroke-width="3"/>
    <path id="Trazado_613296" data-name="Trazado 613296" d="M-7813-8839h81.11" transform="translate(-6866 -6443.504) rotate(180)" fill="none" stroke="#ac0606" stroke-width="3"/>
    <circle id="Elipse_6014-3" data-name="Elipse 6014" cx="5.5" cy="5.5" r="5.5" transform="translate(985 2217.496) rotate(180)" fill="#ac0606"/>
    <circle id="Elipse_6015" data-name="Elipse 6015" cx="5.5" cy="5.5" r="5.5" transform="translate(871 2400.496) rotate(180)" fill="#ac0606"/>
    <g id="Grupo_1072996" data-name="Grupo 1072996" transform="translate(767.5 2089.918)" clip-path="url(#clip-path)">
      <path id="Trazado_613297" data-name="Trazado 613297" d="M32.533,59.15c-7.18,0-14.359.015-21.539-.005C6.121,59.13,2.3,56.619.689,52.332a10.5,10.5,0,0,1,.96-9.351Q8.817,30.6,15.961,18.209c2.435-4.217,4.847-8.447,7.3-12.651C26.878-.62,34.614-1.856,39.725,2.9a11.545,11.545,0,0,1,2.1,2.726C49.011,18.072,56.158,30.541,63.4,42.956A10.567,10.567,0,0,1,58.628,58.3a12.1,12.1,0,0,1-4.759.852H32.533M32.524,57.2q10.869,0,21.738.007a9.025,9.025,0,0,0,3.282-.537C62.651,54.72,64.608,49,61.8,44.081c-3.606-6.312-7.257-12.6-10.891-18.893-3.6-6.237-7.179-12.487-10.812-18.7-3.575-6.118-11.548-6.1-15.151,0-.636,1.077-1.252,2.166-1.878,3.25Q13.2,26.817,3.329,43.9a8.892,8.892,0,0,0-1.387,5.31A8.5,8.5,0,0,0,10.685,57.2q10.92.02,21.839,0" transform="translate(0 0)" fill="#605a1a" stroke="#605a1a" stroke-width="0.5"/>
      <path id="Trazado_613298" data-name="Trazado 613298" d="M52.46,71.945q10.869,0,21.738,0a3.44,3.44,0,0,0,3.646-3.093,4.064,4.064,0,0,0-.7-2.59Q69.48,53,61.821,39.732q-3.069-5.314-6.144-10.624c-1.786-3.074-4.871-3.066-6.659.02q-4.679,8.074-9.34,16.158a5.139,5.139,0,0,1-.549.848.824.824,0,0,1-1.091.23.886.886,0,0,1-.475-1.11,4.421,4.421,0,0,1,.447-.9q4.714-8.171,9.437-16.337c2.41-4.154,7.4-4.181,9.795-.036,7.2,12.438,14.3,24.927,21.6,37.309,2.2,3.74.086,8.7-5,8.624-4.164-.066-8.329-.013-12.494-.013q-15.135,0-30.271.007c-2.463,0-4.454-.8-5.592-3.1a4.991,4.991,0,0,1,.092-4.875c3.3-5.786,6.649-11.543,9.974-17.315.356-.617.848-.962,1.492-.551.66.421.449,1.026.116,1.6q-4.824,8.341-9.633,16.692c-1.343,2.338-.479,4.823,1.9,5.462a5.887,5.887,0,0,0,1.508.121q10.767.011,21.535,0" transform="translate(-19.832 -19.826)" fill="#605a1a" stroke="#605a1a" stroke-width="0.5"/>
      <path id="Trazado_613299" data-name="Trazado 613299" d="M139.765,78.622c0-2.943-.1-5.889.027-8.827a4.049,4.049,0,0,1,6.115-3.266,4.17,4.17,0,0,1,2.078,3.911c-.016,3.45,0,6.9-.006,10.351,0,2.266.038,4.535-.055,6.8a3.964,3.964,0,0,1-3.33,3.692,4.122,4.122,0,0,1-4.452-2.27,5.036,5.036,0,0,1-.409-2.271q0-4.06,0-8.119h.033m6.309.1c0-2.772.006-5.544,0-8.316a2.245,2.245,0,0,0-2.185-2.511c-1.353-.018-2.244.98-2.245,2.553q-.009,8.215,0,16.43c0,1.592.867,2.565,2.237,2.555s2.192-.977,2.2-2.6c.006-2.7,0-5.409,0-8.114" transform="translate(-111.334 -52.559)" fill="#605a1a" stroke="#605a1a" stroke-width="0.5"/>
      <path id="Trazado_613300" data-name="Trazado 613300" d="M139.827,204.586a4.107,4.107,0,1,1,4.181,4.07,4.1,4.1,0,0,1-4.181-4.07m4.116,2.146a2.192,2.192,0,0,0,2.2-2.178,2.212,2.212,0,1,0-4.422.017,2.194,2.194,0,0,0,2.22,2.161" transform="translate(-111.413 -159.699)" fill="#605a1a" stroke="#605a1a" stroke-width="0.5"/>
    </g>
    <g id="Grupo_1072998" data-name="Grupo 1072998" transform="translate(769.238 2181.74)">
      <g id="Grupo_1072997" data-name="Grupo 1072997" clip-path="url(#clip-path-2)">
        <path id="Trazado_613301" data-name="Trazado 613301" d="M31.37,61.485C16.064,61.53,3.191,50.89.534,36.545A30.752,30.752,0,0,1,59.248,19.254a30.258,30.258,0,0,1,.4,22,4.761,4.761,0,0,1-.337.831A1.226,1.226,0,0,1,57.7,42.7,1.25,1.25,0,0,1,56.91,41c.415-1.266.843-2.523,1.154-3.824A28.069,28.069,0,1,0,23.732,57.945a27.693,27.693,0,0,0,16.727-.859,1.73,1.73,0,0,1,1.721-.036,1.271,1.271,0,0,1,.6,1.193,1.333,1.333,0,0,1-.925,1.191A29.229,29.229,0,0,1,36.385,61a26,26,0,0,1-5.015.483" transform="translate(0 0)" fill="#66411c"/>
        <path id="Trazado_613302" data-name="Trazado 613302" d="M30.638,51.417C30.658,41.1,37.4,32.96,46.884,31.071A19.993,19.993,0,0,1,70.346,46.847,19.642,19.642,0,0,1,69,58.875c-.478,1.077-1.1,1.419-1.9,1.092-.84-.343-1.012-1.055-.532-2.2A17.377,17.377,0,1,0,47.953,67.892a16.944,16.944,0,0,0,9.511-1.159,4.538,4.538,0,0,1,1.025-.379,1.2,1.2,0,0,1,1.464.9,1.268,1.268,0,0,1-.767,1.64,17.406,17.406,0,0,1-5.429,1.663c-7.53.94-13.825-1.427-18.688-7.293a18.947,18.947,0,0,1-4.432-11.848" transform="translate(-19.937 -19.969)" fill="#66411c"/>
        <path id="Trazado_613303" data-name="Trazado 613303" d="M116.275,106.771a4,4,0,0,1-4.2,4.215c-.853.006-1.142.176-1.122,1.092a3.826,3.826,0,0,1-2.517,3.945,3.988,3.988,0,0,1-4.569-1.1c-1.631-1.676-3.294-3.321-4.957-4.965a4.111,4.111,0,0,1-1.321-3.231c.1-2.194-.289-4.41.272-6.582.13-.5-.291-.638-.518-.867q-6.04-6.075-12.108-12.123l-.282-.285c-.86-.879-.963-1.635-.308-2.251.631-.593,1.343-.492,2.179.343Q93,91.122,99.15,97.3a1.542,1.542,0,0,0,1.531.48,33.274,33.274,0,0,1,7.088-.052,3.373,3.373,0,0,1,2.073,1.126q2.625,2.62,5.245,5.244a3.675,3.675,0,0,1,1.188,2.675m-12-6.5c-.767,0-1.534-.016-2.3,0-1.218.032-1.7.5-1.719,1.709-.024,1.567-.008,3.134,0,4.7a1.726,1.726,0,0,0,.469,1.278q2.614,2.619,5.233,5.233a1.282,1.282,0,0,0,1.46.355,1.3,1.3,0,0,0,.841-1.342c0-.767-.02-1.535.011-2.3a1.447,1.447,0,0,1,1.608-1.62c.7-.03,1.4-.016,2.1-.006a1.407,1.407,0,0,0,1.548-.835,1.464,1.464,0,0,0-.546-1.681c-1.089-1.08-2.247-2.1-3.233-3.27-1.46-1.729-3.109-2.8-5.469-2.225" transform="translate(-54.806 -54.82)" fill="#66411c"/>
        <path id="Trazado_613304" data-name="Trazado 613304" d="M61.2,70.824a9.584,9.584,0,0,1,7.9-9.406,9.443,9.443,0,0,1,10.618,7.189c.1.454.134.923.192,1.387.144,1.148-.28,1.877-1.154,1.992s-1.469-.5-1.534-1.679a6.451,6.451,0,0,0-2.7-5.021,6.668,6.668,0,0,0-10.384,7.094,6.611,6.611,0,0,0,5.905,4.913c.2.015.4.021.6.053a1.339,1.339,0,0,1,1.27,1.417,1.356,1.356,0,0,1-1.519,1.273,9.375,9.375,0,0,1-9.01-7.68c-.1-.556-.131-1.126-.176-1.531" transform="translate(-39.821 -39.901)" fill="#66411c"/>
      </g>
    </g>
    <g id="Grupo_1073000" data-name="Grupo 1073000" transform="translate(772.03 2276.73)">
      <g id="Grupo_1072999" data-name="Grupo 1072999" clip-path="url(#clip-path-3)">
        <path id="Trazado_613305" data-name="Trazado 613305" d="M12.1,72.781a6.971,6.971,0,0,0-2.567-2.648,5.5,5.5,0,0,1-2.106-2.107Q4.071,61.974.723,55.918A5.4,5.4,0,0,1,0,53.147c.04-3.265.01-6.531.017-9.8a3.027,3.027,0,0,1,2.757-3.3c1.889-.105,3.067.919,3.338,2.925.319,2.362.622,4.726.958,7.287a4.083,4.083,0,0,1,1.9-1.422,2.955,2.955,0,0,1,3.339,1.337c1.264,1.871,2.643,3.655,4.034,5.433a8.506,8.506,0,0,0,4.089,3.111c3.586,1.1,4.714,3.86,5.293,7.135.365,2.063.306,4.153.5,6.226.072.788.43.92,1.066.841.206-.025.41-.084.617-.09,1.834-.056,1.877-.053,1.921-1.957a24.767,24.767,0,0,1,1.333-8.384,4.44,4.44,0,0,1,2.549-2.873c3.77-1.292,6.211-4.053,8.356-7.194.47-.688.979-1.348,1.445-2.038,1.374-2.037,3.306-2.22,5.051-.468.067.067.148.12.327.263.269-2.034.528-3.981.783-5.928.077-.585.114-1.176.221-1.755a3,3,0,0,1,3.35-2.445,2.939,2.939,0,0,1,2.678,2.839c.039,3.682.018,7.365.012,11.047a3.668,3.668,0,0,1-.6,1.752q-3.421,6.194-6.842,12.387a5.278,5.278,0,0,1-2.039,2.029,7.386,7.386,0,0,0-2.59,2.62c.243.3.544.184.8.2a1.022,1.022,0,0,1,1.077,1.136c0,2.327,0,4.655,0,6.983,0,.833-.413,1.187-1.231,1.174-1.216-.019-2.432,0-3.648,0q-14.487,0-28.974,0c-1.55,0-1.686-.134-1.689-1.649,0-1.807,0-3.613,0-5.42,0-1.969,0-1.969,1.894-2.371M53.883,49.168c0-2.5,0-4.276,0-6.048a.98.98,0,0,0-.8-1.063.949.949,0,0,0-1.069.459,2.418,2.418,0,0,0-.249,1.105c-.366,2.961-.725,5.924-1.13,8.88a2.46,2.46,0,0,1-.52,1.553,21.008,21.008,0,0,0-4.372,7.019c-.32.766-.64,1.765-1.742,1.237-1.079-.517-.374-1.354-.091-2.059,1.078-2.688,2.819-5.113,3.157-8.1.068-.6.024-1.043-.536-1.3-.6-.268-.962.065-1.288.544-.605.89-1.265,1.743-1.871,2.632-2.232,3.275-4.866,6.049-8.764,7.358a2.864,2.864,0,0,0-1.585,1.842c-1.171,2.9-1.039,5.991-1.311,9.022-.068.76.456.629.887.627,2.676-.016,5.351-.055,8.027-.049a1.192,1.192,0,0,0,1.226-.688,9.578,9.578,0,0,1,3.713-3.848,3.268,3.268,0,0,0,1.257-1.355c1.434-2.617,2.749-5.311,4.352-7.82,2.107-3.3,3.459-6.7,2.709-9.952M2.058,48.4c0,1.494.028,2.989-.011,4.483a4.418,4.418,0,0,0,.6,2.37C4.845,59.154,7,63.079,9.158,67a2.929,2.929,0,0,0,1.106,1.218,10.087,10.087,0,0,1,3.925,4.069.89.89,0,0,0,.886.542q4.222.007,8.444.063c.517.006.78-.128.716-.7a66.369,66.369,0,0,0-.65-6.836c-.482-2.222-1.417-3.952-3.805-4.725a11.8,11.8,0,0,1-5.727-4.66c-1.128-1.541-2.264-3.075-3.382-4.623-.314-.435-.669-.733-1.219-.5-.565.237-.664.667-.578,1.275a14.208,14.208,0,0,0,1.536,4.608c.718,1.383,1.307,2.833,1.961,4.25a.915.915,0,0,1-.381,1.336.976.976,0,0,1-1.414-.45c-.066-.122-.119-.25-.174-.377A22.576,22.576,0,0,0,5.793,54a1.519,1.519,0,0,1-.366-.955c-.421-3.233-.852-6.465-1.26-9.7C4.074,42.614,3.832,42,3,42.041c-.785.042-.957.649-.948,1.355.021,1.668.007,3.336.006,5M19.526,80.283c2.221,0,4.442-.017,6.662.011.583.007.795-.168.778-.764-.036-1.283-.032-2.568,0-3.851.014-.558-.119-.8-.743-.793q-6.662.036-13.324,0c-.636,0-.745.269-.734.811.026,1.249.046,2.5-.006,3.747-.03.723.268.861.914.851,2.151-.033,4.3-.012,6.454-.013m16.755,0c2.221,0,4.442-.018,6.663.012.617.008.868-.156.845-.813-.044-1.248-.038-2.5,0-3.747.018-.608-.137-.854-.8-.85q-6.61.04-13.221,0c-.574,0-.8.15-.782.755.039,1.248.055,2.5-.005,3.747-.037.762.254.923.956.909,2.116-.041,4.233-.015,6.35-.015" transform="translate(0 -31.693)" fill="#605a1a"/>
        <path id="Trazado_613306" data-name="Trazado 613306" d="M83.218,15.2a2.11,2.11,0,0,0-.747-1.836q-1.611-1.555-3.207-3.127a1.759,1.759,0,0,1-.725-1.823,1.67,1.67,0,0,1,1.565-1.165c1.475-.213,2.946-.457,4.424-.644a2.372,2.372,0,0,0,2.055-1.508c.589-1.33,1.28-2.615,1.927-3.92A1.7,1.7,0,0,1,90.071,0a1.684,1.684,0,0,1,1.574,1.152c.677,1.367,1.369,2.727,2.022,4.106a2.108,2.108,0,0,0,1.742,1.3c1.613.222,3.231.436,4.828.753,1.576.313,1.949,1.591.827,2.764-1.056,1.1-2.149,2.175-3.279,3.2a2.378,2.378,0,0,0-.778,2.429c.284,1.427.535,2.86.781,4.294a1.643,1.643,0,0,1-2.553,1.846c-1.322-.69-2.65-1.37-3.957-2.087a2.27,2.27,0,0,0-2.365-.007c-1.215.67-2.459,1.285-3.684,1.936-.76.4-1.535.769-2.324.134-.736-.592-.6-1.4-.447-2.208.286-1.533.531-3.073.759-4.412M81.131,9.123c1.057,1.078,2.012,2.026,2.938,3a3.812,3.812,0,0,1,1.092,3.609c-.272,1.293-.427,2.611-.655,4.056,1.246-.654,2.36-1.211,3.448-1.816a4.1,4.1,0,0,1,4.252-.011c1.108.614,2.243,1.179,3.489,1.83-.187-1.075-.278-2.009-.52-2.9a4.9,4.9,0,0,1,1.8-5.631c.742-.579,1.391-1.277,2.279-2.1-1.1-.162-1.84-.334-2.59-.372-2.5-.128-4.4-1.054-5.285-3.583A24.7,24.7,0,0,0,90.08,2.569c-.65,1.3-1.229,2.4-1.748,3.523a4.093,4.093,0,0,1-3.45,2.484c-1.2.149-2.389.347-3.751.547" transform="translate(-62.111 0)" fill="#605a1a"/>
      </g>
    </g>
    <g id="Grupo_1073002" data-name="Grupo 1073002" transform="translate(776.115 2371.621)">
      <g id="Grupo_1073001" data-name="Grupo 1073001" clip-path="url(#clip-path-4)">
        <path id="Trazado_613307" data-name="Trazado 613307" d="M47.769,16.254q0,7.03,0,14.059a6.843,6.843,0,0,1-7.3,7.2c-4.147-.027-8.293.016-12.44-.01-.635,0-.732.223-.726.782.027,2.613.014,5.226.011,7.839,0,1.4-.553,1.816-1.941,1.523a4.267,4.267,0,0,1-2.047-1.148c-.986-.918-1.655-.906-2.656,0a3.846,3.846,0,0,1-5.685-.009c-1.006-.905-1.636-.9-2.655.017a3.84,3.84,0,0,1-5.683-.027c-.994-.9-1.644-.9-2.652.043a4.23,4.23,0,0,1-2.138,1.152c-1.272.241-1.822-.2-1.822-1.506q0-11.546,0-23.091A16.568,16.568,0,0,1,.3,18.419a7.959,7.959,0,0,1,7.892-5.931q5.709-.034,11.418.012c.7.007.9-.17.894-.887-.04-3.323-.019-6.646-.017-9.969,0-1.4.551-1.833,1.924-1.561a4.326,4.326,0,0,1,2.02,1.025,1.852,1.852,0,0,0,2.738,0,4.087,4.087,0,0,1,5.636.034,1.847,1.847,0,0,0,2.673-.023,4.084,4.084,0,0,1,5.636.01,1.834,1.834,0,0,0,2.674,0,4.42,4.42,0,0,1,2.261-1.1c1.161-.184,1.717.287,1.719,1.474q.007,7.37,0,14.741M2.365,44.72c.226.056.312-.126.435-.225a3.836,3.836,0,0,1,5.19.105c1.3,1.163,1.714,1.163,3.01,0a3.852,3.852,0,0,1,5.321,0c1.287,1.156,1.711,1.156,3.013,0a3.852,3.852,0,0,1,5.194-.114c.137.11.239.351.523.183v-1q0-11.711,0-23.422c0-1.831-.219-3.7,1.051-5.356-.267-.031-.375-.055-.484-.055Q16.8,14.819,7.988,14.81a5.339,5.339,0,0,0-1.84.285A5.759,5.759,0,0,0,2.29,20.91q-.012,11.542,0,23.084c0,.242-.079.5.074.726M22.746,2.741c0,3.181.011,6.185-.009,9.189,0,.6.356.527.727.526,2.243,0,4.486,0,6.729,0a7.389,7.389,0,0,1,2.181.309,5.613,5.613,0,0,1,4.006,5.673c.019,4-.025,8.007.015,12.01.036,3.612,3.458,5.858,6.55,4.315a4.631,4.631,0,0,0,2.568-4.543Q45.5,16.931,45.505,3.644c0-.243.077-.5-.068-.726-.223-.075-.323.1-.453.194a4.09,4.09,0,0,1-5.319-.225,1.841,1.841,0,0,0-2.729,0,4.11,4.11,0,0,1-5.587.021,1.848,1.848,0,0,0-2.792.019,4.209,4.209,0,0,1-3.146,1.023,5.023,5.023,0,0,1-2.666-1.2M35.729,35.254c-1.954-3.176-1.586-3.807-1.6-6.482-.018-3.522.015-7.043-.014-10.565a3.4,3.4,0,0,0-6.791-.074c-.033,5.51-.009,11.02-.021,16.529,0,.428.112.6.571.6,2.583-.017,5.165-.008,7.854-.008" transform="translate(0 0)" fill="#66411c"/>
        <path id="Trazado_613308" data-name="Trazado 613308" d="M56.007,132.509c.012-.973.447-1.524,1.082-1.507a1.143,1.143,0,0,1,1.187,1.178,1.839,1.839,0,1,0,1.76-1.892,4.111,4.111,0,0,1-3.833-2.865,4.046,4.046,0,0,1,2.1-4.94.952.952,0,0,0,.668-1c-.01-.9.443-1.408,1.127-1.419s1.179.5,1.157,1.385c-.014.589.231.812.717,1.058a3.9,3.9,0,0,1,2.243,3.378c.06.836-.342,1.342-1.021,1.4s-1.105-.358-1.232-1.2a1.878,1.878,0,0,0-1.69-1.744,1.858,1.858,0,0,0-1.934,1.35,1.829,1.829,0,0,0,.833,2.055,2.976,2.976,0,0,0,1.23.3,4.092,4.092,0,0,1,1.409,7.829.862.862,0,0,0-.548.912c-.015.96-.468,1.484-1.181,1.461-.683-.021-1.124-.526-1.112-1.438a.965.965,0,0,0-.681-1,3.927,3.927,0,0,1-2.287-3.291" transform="translate(-46.45 -99.593)" fill="#66411c"/>
      </g>
    </g>
    <path id="Trazado_615808" data-name="Trazado 615808" d="M-7621.53-9534.115h355.7v15.65l-357.476-15.65" transform="translate(8244 11700)" fill="#e99641"/>
    <path id="Trazado_615810" data-name="Trazado 615810" d="M-7622.672-9534.115h127.363v15.65l-128-15.65" transform="translate(8359.309 11883.611)" fill="#e99641"/>
  </g>
</svg>
